<svg xmlns="http://www.w3.org/2000/svg" width="1156" height="1621" viewBox="0 0 1156 1621">
<defs>
  <marker id="arrow" viewBox="0 0 10 10" refX="9" refY="5" markerWidth="7" markerHeight="7" orient="auto-start-reverse">
    <path d="M 0 0 L 10 5 L 0 10 z" fill="#555"/>
  </marker>
</defs>
<rect width="100%" height="100%" fill="#ffffff"/>
<text x="30" y="28" font-family="Arial, sans-serif" font-size="22" font-weight="700" fill="#1f2937">Jo:YUl Class Diagram</text><path d="M155 194 C155 222, 155 444, 155 472" fill="none" stroke="#8b8b8b" stroke-width="1.2" marker-end="url(#arrow)" opacity="0.65"/><path d="M437 194 C437 222, 155 444, 155 472" fill="none" stroke="#8b8b8b" stroke-width="1.2" marker-end="url(#arrow)" opacity="0.65"/><path d="M155 586 C155 614, 437 444, 437 472" fill="none" stroke="#8b8b8b" stroke-width="1.2" marker-end="url(#arrow)" opacity="0.65"/><path d="M437 586 C437 614, 1001 1336, 1001 1364" fill="none" stroke="#8b8b8b" stroke-width="1.2" marker-end="url(#arrow)" opacity="0.65"/><path d="M155 586 C155 614, 155 938, 155 966" fill="none" stroke="#8b8b8b" stroke-width="1.2" marker-end="url(#arrow)" opacity="0.65"/><path d="M155 586 C155 614, 437 1336, 437 1364" fill="none" stroke="#8b8b8b" stroke-width="1.2" marker-end="url(#arrow)" opacity="0.65"/><path d="M719 177 C719 205, 1001 52, 1001 80" fill="none" stroke="#8b8b8b" stroke-width="1.2" marker-end="url(#arrow)" opacity="0.65"/><path d="M1001 194 C1001 222, 719 444, 719 472" fill="none" stroke="#8b8b8b" stroke-width="1.2" marker-end="url(#arrow)" opacity="0.65"/><path d="M719 552 C719 580, 437 938, 437 966" fill="none" stroke="#8b8b8b" stroke-width="1.2" marker-end="url(#arrow)" opacity="0.65"/><path d="M719 552 C719 580, 719 938, 719 966" fill="none" stroke="#8b8b8b" stroke-width="1.2" marker-end="url(#arrow)" opacity="0.65"/><path d="M155 342 C155 370, 1001 444, 1001 472" fill="none" stroke="#8b8b8b" stroke-width="1.2" marker-end="url(#arrow)" opacity="0.65"/><path d="M1001 569 C1001 597, 1001 938, 1001 966" fill="none" stroke="#8b8b8b" stroke-width="1.2" marker-end="url(#arrow)" opacity="0.65"/><path d="M437 359 C437 387, 155 592, 155 620" fill="none" stroke="#8b8b8b" stroke-width="1.2" marker-end="url(#arrow)" opacity="0.65"/><path d="M155 751 C155 779, 155 1137, 155 1165" fill="none" stroke="#8b8b8b" stroke-width="1.2" marker-end="url(#arrow)" opacity="0.65"/><path d="M155 751 C155 779, 437 1137, 437 1165" fill="none" stroke="#8b8b8b" stroke-width="1.2" marker-end="url(#arrow)" opacity="0.65"/><path d="M155 751 C155 779, 719 1336, 719 1364" fill="none" stroke="#8b8b8b" stroke-width="1.2" marker-end="url(#arrow)" opacity="0.65"/><path d="M719 359 C719 387, 437 609, 437 637" fill="none" stroke="#8b8b8b" stroke-width="1.2" marker-end="url(#arrow)" opacity="0.65"/><path d="M437 734 C437 762, 719 1137, 719 1165" fill="none" stroke="#8b8b8b" stroke-width="1.2" marker-end="url(#arrow)" opacity="0.65"/><path d="M437 734 C437 762, 1001 1137, 1001 1165" fill="none" stroke="#8b8b8b" stroke-width="1.2" marker-end="url(#arrow)" opacity="0.65"/><path d="M1001 325 C1001 353, 719 609, 719 637" fill="none" stroke="#8b8b8b" stroke-width="1.2" marker-end="url(#arrow)" opacity="0.65"/><path d="M719 717 C719 745, 155 1336, 155 1364" fill="none" stroke="#8b8b8b" stroke-width="1.2" marker-end="url(#arrow)" opacity="0.65"/><path d="M1001 819 C1001 847, 155 938, 155 966" fill="none" stroke="#8b8b8b" stroke-width="1.2" marker-end="url(#arrow)" opacity="0.65"/><path d="M1001 819 C1001 847, 437 938, 437 966" fill="none" stroke="#8b8b8b" stroke-width="1.2" marker-end="url(#arrow)" opacity="0.65"/><path d="M1001 819 C1001 847, 719 1137, 719 1165" fill="none" stroke="#8b8b8b" stroke-width="1.2" marker-end="url(#arrow)" opacity="0.65"/><text x="30" y="36" font-family="Arial, sans-serif" font-size="18" font-weight="700" fill="#2563eb">UI Layer</text><rect x="30" y="80" width="250" height="114" rx="6" fill="#f8fafc" stroke="#64748b" stroke-width="1.2"/><rect x="30" y="80" width="250" height="28" rx="6" fill="#e0f2fe" stroke="#64748b" stroke-width="1.2"/><text x="155" y="100" text-anchor="middle" font-family="Arial, sans-serif" font-size="14" font-weight="700" fill="#111827">LoginUI</text><line x1="30" y1="108" x2="280" y2="108" stroke="#64748b" stroke-width="1"/><text x="40" y="126" font-family="Consolas, monospace" font-size="11.5" fill="#334155">+ openRegisterUI()</text><text x="40" y="143" font-family="Consolas, monospace" font-size="11.5" fill="#334155">+ requestLogin(studentNo, password)</text><text x="40" y="160" font-family="Consolas, monospace" font-size="11.5" fill="#334155">+ navigateHome()</text><text x="40" y="177" font-family="Consolas, monospace" font-size="11.5" fill="#334155">+ showError(message)</text><rect x="312" y="80" width="250" height="114" rx="6" fill="#f8fafc" stroke="#64748b" stroke-width="1.2"/><rect x="312" y="80" width="250" height="28" rx="6" fill="#e0f2fe" stroke="#64748b" stroke-width="1.2"/><text x="437" y="100" text-anchor="middle" font-family="Arial, sans-serif" font-size="14" font-weight="700" fill="#111827">RegisterUI</text><line x1="312" y1="108" x2="562" y2="108" stroke="#64748b" stroke-width="1"/><text x="322" y="126" font-family="Consolas, monospace" font-size="11.5" fill="#334155">+ display()</text><text x="322" y="143" font-family="Consolas, monospace" font-size="11.5" fill="#334155">+ submitRegister(data)</text><text x="322" y="160" font-family="Consolas, monospace" font-size="11.5" fill="#334155">+ showSuccess()</text><text x="322" y="177" font-family="Consolas, monospace" font-size="11.5" fill="#334155">+ showError(message)</text><rect x="594" y="80" width="250" height="97" rx="6" fill="#f8fafc" stroke="#64748b" stroke-width="1.2"/><rect x="594" y="80" width="250" height="28" rx="6" fill="#e0f2fe" stroke="#64748b" stroke-width="1.2"/><text x="719" y="100" text-anchor="middle" font-family="Arial, sans-serif" font-size="14" font-weight="700" fill="#111827">HomeUI</text><line x1="594" y1="108" x2="844" y2="108" stroke="#64748b" stroke-width="1"/><text x="604" y="126" font-family="Consolas, monospace" font-size="11.5" fill="#334155">+ showHome()</text><text x="604" y="143" font-family="Consolas, monospace" font-size="11.5" fill="#334155">+ openTeamUI()</text><text x="604" y="160" font-family="Consolas, monospace" font-size="11.5" fill="#334155">+ updateTeamList(team)</text><rect x="876" y="80" width="250" height="114" rx="6" fill="#f8fafc" stroke="#64748b" stroke-width="1.2"/><rect x="876" y="80" width="250" height="28" rx="6" fill="#e0f2fe" stroke="#64748b" stroke-width="1.2"/><text x="1001" y="100" text-anchor="middle" font-family="Arial, sans-serif" font-size="14" font-weight="700" fill="#111827">TeamUI</text><line x1="876" y1="108" x2="1126" y2="108" stroke="#64748b" stroke-width="1"/><text x="886" y="126" font-family="Consolas, monospace" font-size="11.5" fill="#334155">+ displayTeamForm()</text><text x="886" y="143" font-family="Consolas, monospace" font-size="11.5" fill="#334155">+ submitTeamData(teamData)</text><text x="886" y="160" font-family="Consolas, monospace" font-size="11.5" fill="#334155">+ selectInviteMember(memberId)</text><text x="886" y="177" font-family="Consolas, monospace" font-size="11.5" fill="#334155">+ showInviteResult()</text><rect x="30" y="228" width="250" height="114" rx="6" fill="#f8fafc" stroke="#64748b" stroke-width="1.2"/><rect x="30" y="228" width="250" height="28" rx="6" fill="#e0f2fe" stroke="#64748b" stroke-width="1.2"/><text x="155" y="248" text-anchor="middle" font-family="Arial, sans-serif" font-size="14" font-weight="700" fill="#111827">ScheduleUI</text><line x1="30" y1="256" x2="280" y2="256" stroke="#64748b" stroke-width="1"/><text x="40" y="274" font-family="Consolas, monospace" font-size="11.5" fill="#334155">+ selectUnavailableTime(block)</text><text x="40" y="291" font-family="Consolas, monospace" font-size="11.5" fill="#334155">+ requestRecommendation(teamId)</text><text x="40" y="308" font-family="Consolas, monospace" font-size="11.5" fill="#334155">+ highlightRecommendedSlot(slot)</text><text x="40" y="325" font-family="Consolas, monospace" font-size="11.5" fill="#334155">+ confirmSchedule(slot)</text><rect x="312" y="228" width="250" height="131" rx="6" fill="#f8fafc" stroke="#64748b" stroke-width="1.2"/><rect x="312" y="228" width="250" height="28" rx="6" fill="#e0f2fe" stroke="#64748b" stroke-width="1.2"/><text x="437" y="248" text-anchor="middle" font-family="Arial, sans-serif" font-size="14" font-weight="700" fill="#111827">TaskBoardUI</text><line x1="312" y1="256" x2="562" y2="256" stroke="#64748b" stroke-width="1"/><text x="322" y="274" font-family="Consolas, monospace" font-size="11.5" fill="#334155">+ requestUpload(taskId, file)</text><text x="322" y="291" font-family="Consolas, monospace" font-size="11.5" fill="#334155">+ showSubmissionDetail(submission)</text><text x="322" y="308" font-family="Consolas, monospace" font-size="11.5" fill="#334155">+ requestApproval(submissionId)</text><text x="322" y="325" font-family="Consolas, monospace" font-size="11.5" fill="#334155">+ requestRejection(submissionId)</text><text x="322" y="342" font-family="Consolas, monospace" font-size="11.5" fill="#334155">+ updateProgress(progress)</text><rect x="594" y="245" width="250" height="114" rx="6" fill="#f8fafc" stroke="#64748b" stroke-width="1.2"/><rect x="594" y="245" width="250" height="28" rx="6" fill="#e0f2fe" stroke="#64748b" stroke-width="1.2"/><text x="719" y="265" text-anchor="middle" font-family="Arial, sans-serif" font-size="14" font-weight="700" fill="#111827">EventUI</text><line x1="594" y1="273" x2="844" y2="273" stroke="#64748b" stroke-width="1"/><text x="604" y="291" font-family="Consolas, monospace" font-size="11.5" fill="#334155">+ submitEventData(eventData)</text><text x="604" y="308" font-family="Consolas, monospace" font-size="11.5" fill="#334155">+ submitVote(voteStatus)</text><text x="604" y="325" font-family="Consolas, monospace" font-size="11.5" fill="#334155">+ requestDecision(eventId)</text><text x="604" y="342" font-family="Consolas, monospace" font-size="11.5" fill="#334155">+ showEventResult(status)</text><rect x="876" y="245" width="250" height="80" rx="6" fill="#f8fafc" stroke="#64748b" stroke-width="1.2"/><rect x="876" y="245" width="250" height="28" rx="6" fill="#e0f2fe" stroke="#64748b" stroke-width="1.2"/><text x="1001" y="265" text-anchor="middle" font-family="Arial, sans-serif" font-size="14" font-weight="700" fill="#111827">WorkspaceUI</text><line x1="876" y1="273" x2="1126" y2="273" stroke="#64748b" stroke-width="1"/><text x="886" y="291" font-family="Consolas, monospace" font-size="11.5" fill="#334155">+ submitMessage(message)</text><text x="886" y="308" font-family="Consolas, monospace" font-size="11.5" fill="#334155">+ updateMessageList(message)</text><text x="30" y="428" font-family="Arial, sans-serif" font-size="18" font-weight="700" fill="#2563eb">Service Layer</text><rect x="30" y="472" width="250" height="114" rx="6" fill="#f8fafc" stroke="#64748b" stroke-width="1.2"/><rect x="30" y="472" width="250" height="28" rx="6" fill="#e0f2fe" stroke="#64748b" stroke-width="1.2"/><text x="155" y="492" text-anchor="middle" font-family="Arial, sans-serif" font-size="14" font-weight="700" fill="#111827">AuthService</text><line x1="30" y1="500" x2="280" y2="500" stroke="#64748b" stroke-width="1"/><text x="40" y="518" font-family="Consolas, monospace" font-size="11.5" fill="#334155">+ registerMember(data)</text><text x="40" y="535" font-family="Consolas, monospace" font-size="11.5" fill="#334155">+ login(studentNo, password)</text><text x="40" y="552" font-family="Consolas, monospace" font-size="11.5" fill="#334155">+ validateInput(data)</text><text x="40" y="569" font-family="Consolas, monospace" font-size="11.5" fill="#334155">+ createMemberProfile(session)</text><rect x="312" y="472" width="250" height="114" rx="6" fill="#f8fafc" stroke="#64748b" stroke-width="1.2"/><rect x="312" y="472" width="250" height="28" rx="6" fill="#e0f2fe" stroke="#64748b" stroke-width="1.2"/><text x="437" y="492" text-anchor="middle" font-family="Arial, sans-serif" font-size="14" font-weight="700" fill="#111827">SupabaseAuthClient</text><line x1="312" y1="500" x2="562" y2="500" stroke="#64748b" stroke-width="1"/><text x="322" y="518" font-family="Consolas, monospace" font-size="11.5" fill="#334155">+ signUp(email, password)</text><text x="322" y="535" font-family="Consolas, monospace" font-size="11.5" fill="#334155">+ signIn(email, password)</text><text x="322" y="552" font-family="Consolas, monospace" font-size="11.5" fill="#334155">+ handleAuthResponse(response)</text><text x="322" y="569" font-family="Consolas, monospace" font-size="11.5" fill="#334155">+ showAuthError(message)</text><rect x="594" y="472" width="250" height="80" rx="6" fill="#f8fafc" stroke="#64748b" stroke-width="1.2"/><rect x="594" y="472" width="250" height="28" rx="6" fill="#e0f2fe" stroke="#64748b" stroke-width="1.2"/><text x="719" y="492" text-anchor="middle" font-family="Arial, sans-serif" font-size="14" font-weight="700" fill="#111827">TeamService</text><line x1="594" y1="500" x2="844" y2="500" stroke="#64748b" stroke-width="1"/><text x="604" y="518" font-family="Consolas, monospace" font-size="11.5" fill="#334155">+ createTeam(adminId, teamData)</text><text x="604" y="535" font-family="Consolas, monospace" font-size="11.5" fill="#334155">+ inviteMember(teamId, memberId)</text><rect x="876" y="472" width="250" height="97" rx="6" fill="#f8fafc" stroke="#64748b" stroke-width="1.2"/><rect x="876" y="472" width="250" height="28" rx="6" fill="#e0f2fe" stroke="#64748b" stroke-width="1.2"/><text x="1001" y="492" text-anchor="middle" font-family="Arial, sans-serif" font-size="14" font-weight="700" fill="#111827">ScheduleService</text><line x1="876" y1="500" x2="1126" y2="500" stroke="#64748b" stroke-width="1"/><text x="886" y="518" font-family="Consolas, monospace" font-size="11.5" fill="#334155">+ saveUnavailableTime(block)</text><text x="886" y="535" font-family="Consolas, monospace" font-size="11.5" fill="#334155">+ recommendTime(teamId)</text><text x="886" y="552" font-family="Consolas, monospace" font-size="11.5" fill="#334155">+ confirmSchedule(teamId, slot)</text><rect x="30" y="620" width="250" height="131" rx="6" fill="#f8fafc" stroke="#64748b" stroke-width="1.2"/><rect x="30" y="620" width="250" height="28" rx="6" fill="#e0f2fe" stroke="#64748b" stroke-width="1.2"/><text x="155" y="640" text-anchor="middle" font-family="Arial, sans-serif" font-size="14" font-weight="700" fill="#111827">TaskService</text><line x1="30" y1="648" x2="280" y2="648" stroke="#64748b" stroke-width="1"/><text x="40" y="666" font-family="Consolas, monospace" font-size="11.5" fill="#334155">+ getSubmission(submissionId)</text><text x="40" y="683" font-family="Consolas, monospace" font-size="11.5" fill="#334155">+ uploadSubmission(taskId, memberId, file)</text><text x="40" y="700" font-family="Consolas, monospace" font-size="11.5" fill="#334155">+ approveSubmission(submissionId)</text><text x="40" y="717" font-family="Consolas, monospace" font-size="11.5" fill="#334155">+ rejectSubmission(submissionId)</text><text x="40" y="734" font-family="Consolas, monospace" font-size="11.5" fill="#334155">+ calculateProgress(teamId)</text><rect x="312" y="637" width="250" height="97" rx="6" fill="#f8fafc" stroke="#64748b" stroke-width="1.2"/><rect x="312" y="637" width="250" height="28" rx="6" fill="#e0f2fe" stroke="#64748b" stroke-width="1.2"/><text x="437" y="657" text-anchor="middle" font-family="Arial, sans-serif" font-size="14" font-weight="700" fill="#111827">EventService</text><line x1="312" y1="665" x2="562" y2="665" stroke="#64748b" stroke-width="1"/><text x="322" y="683" font-family="Consolas, monospace" font-size="11.5" fill="#334155">+ createEvent(teamId, eventData)</text><text x="322" y="700" font-family="Consolas, monospace" font-size="11.5" fill="#334155">+ vote(eventId, memberId, voteStatus)</text><text x="322" y="717" font-family="Consolas, monospace" font-size="11.5" fill="#334155">+ decideEvent(eventId)</text><rect x="594" y="637" width="250" height="80" rx="6" fill="#f8fafc" stroke="#64748b" stroke-width="1.2"/><rect x="594" y="637" width="250" height="28" rx="6" fill="#e0f2fe" stroke="#64748b" stroke-width="1.2"/><text x="719" y="657" text-anchor="middle" font-family="Arial, sans-serif" font-size="14" font-weight="700" fill="#111827">WorkspaceService</text><line x1="594" y1="665" x2="844" y2="665" stroke="#64748b" stroke-width="1"/><text x="604" y="683" font-family="Consolas, monospace" font-size="11.5" fill="#334155">+ createWorkspace(eventId, participants)</text><text x="604" y="700" font-family="Consolas, monospace" font-size="11.5" fill="#334155">+ sendMessage(workspaceId, memberId, message)</text><rect x="876" y="637" width="250" height="182" rx="6" fill="#f8fafc" stroke="#64748b" stroke-width="1.2"/><rect x="876" y="637" width="250" height="28" rx="6" fill="#e0f2fe" stroke="#64748b" stroke-width="1.2"/><text x="1001" y="657" text-anchor="middle" font-family="Arial, sans-serif" font-size="14" font-weight="700" fill="#111827">NotificationService</text><line x1="876" y1="665" x2="1126" y2="665" stroke="#64748b" stroke-width="1"/><text x="886" y="683" font-family="Consolas, monospace" font-size="11.5" fill="#334155">+ sendInvite(memberId, teamId)</text><text x="886" y="700" font-family="Consolas, monospace" font-size="11.5" fill="#334155">+ sendVoteRequest(eventId)</text><text x="886" y="717" font-family="Consolas, monospace" font-size="11.5" fill="#334155">+ sendVoteReminder(eventId)</text><text x="886" y="734" font-family="Consolas, monospace" font-size="11.5" fill="#334155">+ sendSubmissionNotice(taskId)</text><text x="886" y="751" font-family="Consolas, monospace" font-size="11.5" fill="#334155">+ sendApprovalNotice(submissionId)</text><text x="886" y="768" font-family="Consolas, monospace" font-size="11.5" fill="#334155">+ sendRejectionNotice(submissionId)</text><text x="886" y="785" font-family="Consolas, monospace" font-size="11.5" fill="#334155">+ sendWorkspaceNotice(workspaceId)</text><text x="886" y="802" font-family="Consolas, monospace" font-size="11.5" fill="#334155">+ sendScheduleNotice(teamId, schedule)</text><text x="30" y="922" font-family="Arial, sans-serif" font-size="18" font-weight="700" fill="#2563eb">Domain / External / Storage</text><rect x="30" y="966" width="250" height="148" rx="6" fill="#f8fafc" stroke="#64748b" stroke-width="1.2"/><rect x="30" y="966" width="250" height="28" rx="6" fill="#e0f2fe" stroke="#64748b" stroke-width="1.2"/><text x="155" y="986" text-anchor="middle" font-family="Arial, sans-serif" font-size="14" font-weight="700" fill="#111827">Member</text><line x1="30" y1="994" x2="280" y2="994" stroke="#64748b" stroke-width="1"/><text x="40" y="1012" font-family="Consolas, monospace" font-size="11.5" fill="#334155">+ String memberId</text><text x="40" y="1029" font-family="Consolas, monospace" font-size="11.5" fill="#334155">+ String supabaseUserId</text><text x="40" y="1046" font-family="Consolas, monospace" font-size="11.5" fill="#334155">+ String studentNo</text><text x="40" y="1063" font-family="Consolas, monospace" font-size="11.5" fill="#334155">+ String name</text><text x="40" y="1080" font-family="Consolas, monospace" font-size="11.5" fill="#334155">+ String email</text><text x="40" y="1097" font-family="Consolas, monospace" font-size="11.5" fill="#334155">+ Role role</text><rect x="312" y="966" width="250" height="131" rx="6" fill="#f8fafc" stroke="#64748b" stroke-width="1.2"/><rect x="312" y="966" width="250" height="28" rx="6" fill="#e0f2fe" stroke="#64748b" stroke-width="1.2"/><text x="437" y="986" text-anchor="middle" font-family="Arial, sans-serif" font-size="14" font-weight="700" fill="#111827">Team</text><line x1="312" y1="994" x2="562" y2="994" stroke="#64748b" stroke-width="1"/><text x="322" y="1012" font-family="Consolas, monospace" font-size="11.5" fill="#334155">+ String teamId</text><text x="322" y="1029" font-family="Consolas, monospace" font-size="11.5" fill="#334155">+ String teamName</text><text x="322" y="1046" font-family="Consolas, monospace" font-size="11.5" fill="#334155">+ String description</text><text x="322" y="1063" font-family="Consolas, monospace" font-size="11.5" fill="#334155">+ String adminId</text><text x="322" y="1080" font-family="Consolas, monospace" font-size="11.5" fill="#334155">+ Date createdAt</text><rect x="594" y="966" width="250" height="114" rx="6" fill="#f8fafc" stroke="#64748b" stroke-width="1.2"/><rect x="594" y="966" width="250" height="28" rx="6" fill="#e0f2fe" stroke="#64748b" stroke-width="1.2"/><text x="719" y="986" text-anchor="middle" font-family="Arial, sans-serif" font-size="14" font-weight="700" fill="#111827">TeamMember</text><line x1="594" y1="994" x2="844" y2="994" stroke="#64748b" stroke-width="1"/><text x="604" y="1012" font-family="Consolas, monospace" font-size="11.5" fill="#334155">+ String teamMemberId</text><text x="604" y="1029" font-family="Consolas, monospace" font-size="11.5" fill="#334155">+ String teamId</text><text x="604" y="1046" font-family="Consolas, monospace" font-size="11.5" fill="#334155">+ String memberId</text><text x="604" y="1063" font-family="Consolas, monospace" font-size="11.5" fill="#334155">+ Date joinedAt</text><rect x="876" y="966" width="250" height="165" rx="6" fill="#f8fafc" stroke="#64748b" stroke-width="1.2"/><rect x="876" y="966" width="250" height="28" rx="6" fill="#e0f2fe" stroke="#64748b" stroke-width="1.2"/><text x="1001" y="986" text-anchor="middle" font-family="Arial, sans-serif" font-size="14" font-weight="700" fill="#111827">ScheduleBlock</text><line x1="876" y1="994" x2="1126" y2="994" stroke="#64748b" stroke-width="1"/><text x="886" y="1012" font-family="Consolas, monospace" font-size="11.5" fill="#334155">+ String scheduleId</text><text x="886" y="1029" font-family="Consolas, monospace" font-size="11.5" fill="#334155">+ String teamId</text><text x="886" y="1046" font-family="Consolas, monospace" font-size="11.5" fill="#334155">+ String memberId</text><text x="886" y="1063" font-family="Consolas, monospace" font-size="11.5" fill="#334155">+ DayOfWeek day</text><text x="886" y="1080" font-family="Consolas, monospace" font-size="11.5" fill="#334155">+ Time startTime</text><text x="886" y="1097" font-family="Consolas, monospace" font-size="11.5" fill="#334155">+ Time endTime</text><text x="886" y="1114" font-family="Consolas, monospace" font-size="11.5" fill="#334155">+ Boolean unavailable</text><rect x="30" y="1165" width="250" height="165" rx="6" fill="#f8fafc" stroke="#64748b" stroke-width="1.2"/><rect x="30" y="1165" width="250" height="28" rx="6" fill="#e0f2fe" stroke="#64748b" stroke-width="1.2"/><text x="155" y="1185" text-anchor="middle" font-family="Arial, sans-serif" font-size="14" font-weight="700" fill="#111827">Task</text><line x1="30" y1="1193" x2="280" y2="1193" stroke="#64748b" stroke-width="1"/><text x="40" y="1211" font-family="Consolas, monospace" font-size="11.5" fill="#334155">+ String taskId</text><text x="40" y="1228" font-family="Consolas, monospace" font-size="11.5" fill="#334155">+ String teamId</text><text x="40" y="1245" font-family="Consolas, monospace" font-size="11.5" fill="#334155">+ String title</text><text x="40" y="1262" font-family="Consolas, monospace" font-size="11.5" fill="#334155">+ String description</text><text x="40" y="1279" font-family="Consolas, monospace" font-size="11.5" fill="#334155">+ String assigneeId</text><text x="40" y="1296" font-family="Consolas, monospace" font-size="11.5" fill="#334155">+ Date dueDate</text><text x="40" y="1313" font-family="Consolas, monospace" font-size="11.5" fill="#334155">+ TaskStatus status</text><rect x="312" y="1165" width="250" height="148" rx="6" fill="#f8fafc" stroke="#64748b" stroke-width="1.2"/><rect x="312" y="1165" width="250" height="28" rx="6" fill="#e0f2fe" stroke="#64748b" stroke-width="1.2"/><text x="437" y="1185" text-anchor="middle" font-family="Arial, sans-serif" font-size="14" font-weight="700" fill="#111827">Submission</text><line x1="312" y1="1193" x2="562" y2="1193" stroke="#64748b" stroke-width="1"/><text x="322" y="1211" font-family="Consolas, monospace" font-size="11.5" fill="#334155">+ String submissionId</text><text x="322" y="1228" font-family="Consolas, monospace" font-size="11.5" fill="#334155">+ String taskId</text><text x="322" y="1245" font-family="Consolas, monospace" font-size="11.5" fill="#334155">+ String memberId</text><text x="322" y="1262" font-family="Consolas, monospace" font-size="11.5" fill="#334155">+ String fileUrl</text><text x="322" y="1279" font-family="Consolas, monospace" font-size="11.5" fill="#334155">+ SubmissionStatus status</text><text x="322" y="1296" font-family="Consolas, monospace" font-size="11.5" fill="#334155">+ Date submittedAt</text><rect x="594" y="1165" width="250" height="148" rx="6" fill="#f8fafc" stroke="#64748b" stroke-width="1.2"/><rect x="594" y="1165" width="250" height="28" rx="6" fill="#e0f2fe" stroke="#64748b" stroke-width="1.2"/><text x="719" y="1185" text-anchor="middle" font-family="Arial, sans-serif" font-size="14" font-weight="700" fill="#111827">Event</text><line x1="594" y1="1193" x2="844" y2="1193" stroke="#64748b" stroke-width="1"/><text x="604" y="1211" font-family="Consolas, monospace" font-size="11.5" fill="#334155">+ String eventId</text><text x="604" y="1228" font-family="Consolas, monospace" font-size="11.5" fill="#334155">+ String teamId</text><text x="604" y="1245" font-family="Consolas, monospace" font-size="11.5" fill="#334155">+ String title</text><text x="604" y="1262" font-family="Consolas, monospace" font-size="11.5" fill="#334155">+ String description</text><text x="604" y="1279" font-family="Consolas, monospace" font-size="11.5" fill="#334155">+ Date voteDeadline</text><text x="604" y="1296" font-family="Consolas, monospace" font-size="11.5" fill="#334155">+ EventStatus status</text><rect x="876" y="1165" width="250" height="131" rx="6" fill="#f8fafc" stroke="#64748b" stroke-width="1.2"/><rect x="876" y="1165" width="250" height="28" rx="6" fill="#e0f2fe" stroke="#64748b" stroke-width="1.2"/><text x="1001" y="1185" text-anchor="middle" font-family="Arial, sans-serif" font-size="14" font-weight="700" fill="#111827">Vote</text><line x1="876" y1="1193" x2="1126" y2="1193" stroke="#64748b" stroke-width="1"/><text x="886" y="1211" font-family="Consolas, monospace" font-size="11.5" fill="#334155">+ String voteId</text><text x="886" y="1228" font-family="Consolas, monospace" font-size="11.5" fill="#334155">+ String eventId</text><text x="886" y="1245" font-family="Consolas, monospace" font-size="11.5" fill="#334155">+ String memberId</text><text x="886" y="1262" font-family="Consolas, monospace" font-size="11.5" fill="#334155">+ VoteStatus status</text><text x="886" y="1279" font-family="Consolas, monospace" font-size="11.5" fill="#334155">+ Date votedAt</text><rect x="30" y="1364" width="250" height="131" rx="6" fill="#f8fafc" stroke="#64748b" stroke-width="1.2"/><rect x="30" y="1364" width="250" height="28" rx="6" fill="#e0f2fe" stroke="#64748b" stroke-width="1.2"/><text x="155" y="1384" text-anchor="middle" font-family="Arial, sans-serif" font-size="14" font-weight="700" fill="#111827">TeamWorkspace</text><line x1="30" y1="1392" x2="280" y2="1392" stroke="#64748b" stroke-width="1"/><text x="40" y="1410" font-family="Consolas, monospace" font-size="11.5" fill="#334155">+ String workspaceId</text><text x="40" y="1427" font-family="Consolas, monospace" font-size="11.5" fill="#334155">+ String eventId</text><text x="40" y="1444" font-family="Consolas, monospace" font-size="11.5" fill="#334155">+ String workspaceName</text><text x="40" y="1461" font-family="Consolas, monospace" font-size="11.5" fill="#334155">+ List participants</text><text x="40" y="1478" font-family="Consolas, monospace" font-size="11.5" fill="#334155">+ Date createdAt</text><rect x="312" y="1364" width="250" height="114" rx="6" fill="#f8fafc" stroke="#64748b" stroke-width="1.2"/><rect x="312" y="1364" width="250" height="28" rx="6" fill="#e0f2fe" stroke="#64748b" stroke-width="1.2"/><text x="437" y="1384" text-anchor="middle" font-family="Arial, sans-serif" font-size="14" font-weight="700" fill="#111827">DataStore</text><line x1="312" y1="1392" x2="562" y2="1392" stroke="#64748b" stroke-width="1"/><text x="322" y="1410" font-family="Consolas, monospace" font-size="11.5" fill="#334155">+ save(entity)</text><text x="322" y="1427" font-family="Consolas, monospace" font-size="11.5" fill="#334155">+ findById(id)</text><text x="322" y="1444" font-family="Consolas, monospace" font-size="11.5" fill="#334155">+ findAll(condition)</text><text x="322" y="1461" font-family="Consolas, monospace" font-size="11.5" fill="#334155">+ update(entity)</text><rect x="594" y="1364" width="250" height="63" rx="6" fill="#f8fafc" stroke="#64748b" stroke-width="1.2"/><rect x="594" y="1364" width="250" height="28" rx="6" fill="#e0f2fe" stroke="#64748b" stroke-width="1.2"/><text x="719" y="1384" text-anchor="middle" font-family="Arial, sans-serif" font-size="14" font-weight="700" fill="#111827">FileStorage</text><line x1="594" y1="1392" x2="844" y2="1392" stroke="#64748b" stroke-width="1"/><text x="604" y="1410" font-family="Consolas, monospace" font-size="11.5" fill="#334155">+ upload(file)</text><rect x="876" y="1364" width="250" height="97" rx="6" fill="#f8fafc" stroke="#64748b" stroke-width="1.2"/><rect x="876" y="1364" width="250" height="28" rx="6" fill="#e0f2fe" stroke="#64748b" stroke-width="1.2"/><text x="1001" y="1384" text-anchor="middle" font-family="Arial, sans-serif" font-size="14" font-weight="700" fill="#111827">SupabaseAuthAPI</text><line x1="876" y1="1392" x2="1126" y2="1392" stroke="#64748b" stroke-width="1"/><text x="886" y="1410" font-family="Consolas, monospace" font-size="11.5" fill="#334155">+ signUpEndpoint()</text><text x="886" y="1427" font-family="Consolas, monospace" font-size="11.5" fill="#334155">+ passwordLoginEndpoint()</text><text x="886" y="1444" font-family="Consolas, monospace" font-size="11.5" fill="#334155">+ returnSession()</text></svg>