<svg xmlns="http://www.w3.org/2000/svg" width="1380" height="900" viewBox="0 0 1380 900">
<style>text{font-family:Arial,'Malgun Gothic',sans-serif}.title{font-size:22px;font-weight:700;fill:#1f2937}.boxTitle{font-size:14px;font-weight:700;fill:#111827}.small{font-size:12px;fill:#374151}.msg{font-size:12px;fill:#111827}.muted{font-size:11px;fill:#6b7280}</style>
<rect width="100%" height="100%" fill="#ffffff"/>
<defs><marker id="arrow" markerWidth="10" markerHeight="10" refX="8" refY="3" orient="auto"><path d="M0,0 L0,6 L9,3 z" fill="#334155"/></marker></defs>
<text x="40" y="44" class="title">Jo:YUl Class Diagram (Android Implementation)</text>
<rect x="40" y="90" width="350" height="260" rx="10" fill="#f8fafc" stroke="#64748b"/>
<rect x="40" y="90" width="350" height="36" rx="10" fill="#dbeafe" stroke="#64748b"/>
<text x="54" y="114" class="boxTitle">MainActivity</text>
<text x="54" y="148" class="small">teams: List&lt;Team&gt;</text>
<text x="54" y="169" class="small">tasks: List&lt;TaskItem&gt;</text>
<text x="54" y="190" class="small">events: List&lt;EventItem&gt;</text>
<text x="54" y="211" class="small">workspaceMessagesByEvent: Map</text>
<text x="54" y="232" class="small">teamScheduleCells: Map</text>
<text x="54" y="253" class="small">+showMain()</text>
<text x="54" y="274" class="small">+renderSchedule()</text>
<text x="54" y="295" class="small">+renderTasks()</text>
<text x="54" y="316" class="small">+renderEvent()</text>
<rect x="520" y="90" width="330" height="190" rx="10" fill="#f8fafc" stroke="#64748b"/>
<rect x="520" y="90" width="330" height="36" rx="10" fill="#dbeafe" stroke="#64748b"/>
<text x="534" y="114" class="boxTitle">SupabaseAuthClient</text>
<text x="534" y="148" class="small">+signIn()</text>
<text x="534" y="169" class="small">+signUp()</text>
<text x="534" y="190" class="small">+findMemberByNickname()</text>
<text x="534" y="211" class="small">+uploadSubmission()</text>
<text x="534" y="232" class="small">+deleteAccount()</text>
<rect x="950" y="90" width="300" height="190" rx="10" fill="#f8fafc" stroke="#64748b"/>
<rect x="950" y="90" width="300" height="36" rx="10" fill="#dbeafe" stroke="#64748b"/>
<text x="964" y="114" class="boxTitle">AuthSession</text>
<text x="964" y="148" class="small">accessToken</text>
<text x="964" y="169" class="small">userId</text>
<text x="964" y="190" class="small">email</text>
<text x="964" y="211" class="small">displayName</text>
<text x="964" y="232" class="small">role</text>
<rect x="40" y="410" width="300" height="220" rx="10" fill="#f8fafc" stroke="#64748b"/>
<rect x="40" y="410" width="300" height="36" rx="10" fill="#dbeafe" stroke="#64748b"/>
<text x="54" y="434" class="boxTitle">Team</text>
<text x="54" y="468" class="small">id</text>
<text x="54" y="489" class="small">name</text>
<text x="54" y="510" class="small">description</text>
<text x="54" y="531" class="small">ownerNickname</text>
<text x="54" y="552" class="small">invitedNicknames</text>
<text x="54" y="573" class="small">+isVisibleTo()</text>
<text x="54" y="594" class="small">+invite()</text>
<rect x="390" y="410" width="300" height="250" rx="10" fill="#f8fafc" stroke="#64748b"/>
<rect x="390" y="410" width="300" height="36" rx="10" fill="#dbeafe" stroke="#64748b"/>
<text x="404" y="434" class="boxTitle">TaskItem</text>
<text x="404" y="468" class="small">teamId</text>
<text x="404" y="489" class="small">title</text>
<text x="404" y="510" class="small">assignee</text>
<text x="404" y="531" class="small">status</text>
<text x="404" y="552" class="small">fileUri</text>
<text x="404" y="573" class="small">localUri</text>
<text x="404" y="594" class="small">mimeType</text>
<text x="404" y="615" class="small">submittedBy</text>
<text x="404" y="636" class="small">approved</text>
<rect x="740" y="410" width="300" height="220" rx="10" fill="#f8fafc" stroke="#64748b"/>
<rect x="740" y="410" width="300" height="36" rx="10" fill="#dbeafe" stroke="#64748b"/>
<text x="754" y="434" class="boxTitle">EventItem</text>
<text x="754" y="468" class="small">id</text>
<text x="754" y="489" class="small">teamId</text>
<text x="754" y="510" class="small">title</text>
<text x="754" y="531" class="small">deadlineMillis</text>
<text x="754" y="552" class="small">votesByNickname</text>
<text x="754" y="573" class="small">+vote()</text>
<text x="754" y="594" class="small">+isClosed()</text>
<rect x="1090" y="410" width="230" height="130" rx="10" fill="#f8fafc" stroke="#64748b"/>
<rect x="1090" y="410" width="230" height="36" rx="10" fill="#dbeafe" stroke="#64748b"/>
<text x="1104" y="434" class="boxTitle">MessageItem</text>
<text x="1104" y="468" class="small">sender</text>
<text x="1104" y="489" class="small">body</text>
<rect x="40" y="700" width="250" height="130" rx="10" fill="#f8fafc" stroke="#64748b"/>
<rect x="40" y="700" width="250" height="36" rx="10" fill="#dbeafe" stroke="#64748b"/>
<text x="54" y="724" class="boxTitle">MeetingItem</text>
<text x="54" y="758" class="small">teamId</text>
<text x="54" y="779" class="small">teamName</text>
<text x="54" y="800" class="small">text</text>
<rect x="390" y="720" width="250" height="110" rx="10" fill="#f8fafc" stroke="#64748b"/>
<rect x="390" y="720" width="250" height="36" rx="10" fill="#dbeafe" stroke="#64748b"/>
<text x="404" y="744" class="boxTitle">DateTimeSelection</text>
<text x="404" y="778" class="small">text</text>
<text x="404" y="799" class="small">millis</text>
<rect x="740" y="720" width="250" height="120" rx="10" fill="#f8fafc" stroke="#64748b"/>
<rect x="740" y="720" width="250" height="36" rx="10" fill="#dbeafe" stroke="#64748b"/>
<text x="754" y="744" class="boxTitle">Slot</text>
<text x="754" y="778" class="small">key</text>
<text x="754" y="799" class="small">day</text>
<text x="754" y="820" class="small">time</text>
<line x1="390" y1="210" x2="520" y2="180" stroke="#334155" stroke-width="1.5" marker-end="url(#arrow)"/>
<text x="460" y="190" class="muted">uses</text>
<line x1="850" y1="180" x2="950" y2="180" stroke="#334155" stroke-width="1.5" marker-end="url(#arrow)"/>
<text x="905" y="175" class="muted">returns</text>
<line x1="215" y1="350" x2="190" y2="410" stroke="#334155" stroke-width="1.5" marker-end="url(#arrow)"/>
<text x="208" y="375" class="muted">owns</text>
<line x1="215" y1="350" x2="540" y2="410" stroke="#334155" stroke-width="1.5" marker-end="url(#arrow)"/>
<text x="382" y="375" class="muted">owns</text>
<line x1="215" y1="350" x2="890" y2="410" stroke="#334155" stroke-width="1.5" marker-end="url(#arrow)"/>
<text x="558" y="375" class="muted">owns</text>
<line x1="1040" y1="520" x2="1090" y2="475" stroke="#334155" stroke-width="1.5" marker-end="url(#arrow)"/>
<text x="1070" y="492" class="muted">eventId messages</text>
<line x1="190" y1="630" x2="165" y2="700" stroke="#334155" stroke-width="1.5" marker-end="url(#arrow)"/>
<text x="182" y="660" class="muted">confirmed</text>
<line x1="690" y1="535" x2="740" y2="520" stroke="#334155" stroke-width="1.5" marker-end="url(#arrow)"/>
<text x="720" y="522" class="muted">teamId</text>
<line x1="340" y1="520" x2="390" y2="520" stroke="#334155" stroke-width="1.5" marker-end="url(#arrow)"/>
<text x="370" y="515" class="muted">teamId</text>
</svg>