<svg xmlns="http://www.w3.org/2000/svg" width="1620" height="1240" viewBox="0 0 1620 1240">
<defs>
  <marker id="arrow" viewBox="0 0 10 10" refX="9" refY="5" markerWidth="7" markerHeight="7" orient="auto"><path d="M0 0 L10 5 L0 10 z" fill="#111827"/></marker>
  <marker id="hollowArrow" viewBox="0 0 10 10" refX="9" refY="5" markerWidth="7" markerHeight="7" orient="auto"><path d="M0 0 L10 5 L0 10 z" fill="#fbfbfb" stroke="#111827"/></marker>
  <marker id="diamond" viewBox="0 0 16 10" refX="1" refY="5" markerWidth="11" markerHeight="9" orient="auto"><path d="M1 5 L8 1 L15 5 L8 9 z" fill="#111827" stroke="#111827"/></marker>
</defs>
<rect width="100%" height="100%" fill="#ffffff"/>
<text x="50" y="34" font-family="Arial, sans-serif" font-size="22" font-weight="700">Jo:YUl Class Diagram</text><line x1="286" y1="126" x2="375" y2="163" stroke="#111827" stroke-width="1.05" stroke-dasharray="5 4" marker-end="url(#arrow)"/><line x1="286" y1="278.5" x2="375" y2="163" stroke="#111827" stroke-width="1.05" stroke-dasharray="5 4" marker-end="url(#arrow)"/><line x1="611" y1="163" x2="700" y2="145.5" stroke="#111827" stroke-width="1.05" stroke-dasharray="5 4" marker-end="url(#arrow)"/><line x1="936" y1="145.5" x2="700" y2="950.5" stroke="#111827" stroke-width="1.05" stroke-dasharray="5 4" marker-end="url(#arrow)"/><line x1="611" y1="163" x2="1050" y2="160" stroke="#111827" stroke-width="1.05" marker-end="url(#arrow)"/><line x1="611" y1="163" x2="700" y2="595" stroke="#111827" stroke-width="1.05" stroke-dasharray="5 4" marker-end="url(#arrow)"/><line x1="286" y1="434" x2="375" y2="342" stroke="#111827" stroke-width="1.05" stroke-dasharray="5 4" marker-end="url(#arrow)"/><line x1="286" y1="586.5" x2="375" y2="526.5" stroke="#111827" stroke-width="1.05" stroke-dasharray="5 4" marker-end="url(#arrow)"/><line x1="286" y1="768.5" x2="375" y2="727" stroke="#111827" stroke-width="1.05" stroke-dasharray="5 4" marker-end="url(#arrow)"/><line x1="286" y1="942" x2="375" y2="924.5" stroke="#111827" stroke-width="1.05" stroke-dasharray="5 4" marker-end="url(#arrow)"/><line x1="286" y1="1100" x2="375" y2="1092" stroke="#111827" stroke-width="1.05" stroke-dasharray="5 4" marker-end="url(#arrow)"/><line x1="611" y1="342" x2="700" y2="595" stroke="#111827" stroke-width="1.05" stroke-dasharray="5 4" marker-end="url(#arrow)"/><line x1="611" y1="526.5" x2="700" y2="595" stroke="#111827" stroke-width="1.05" stroke-dasharray="5 4" marker-end="url(#arrow)"/><line x1="611" y1="727" x2="700" y2="595" stroke="#111827" stroke-width="1.05" stroke-dasharray="5 4" marker-end="url(#arrow)"/><line x1="611" y1="924.5" x2="700" y2="595" stroke="#111827" stroke-width="1.05" stroke-dasharray="5 4" marker-end="url(#arrow)"/><line x1="611" y1="1092" x2="700" y2="595" stroke="#111827" stroke-width="1.05" stroke-dasharray="5 4" marker-end="url(#arrow)"/><line x1="611" y1="727" x2="700" y2="751.5" stroke="#111827" stroke-width="1.05" stroke-dasharray="5 4" marker-end="url(#arrow)"/><line x1="611" y1="342" x2="700" y2="359" stroke="#111827" stroke-width="1.05" stroke-dasharray="5 4" marker-end="url(#arrow)"/><line x1="611" y1="924.5" x2="700" y2="359" stroke="#111827" stroke-width="1.05" stroke-dasharray="5 4" marker-end="url(#arrow)"/><line x1="611" y1="1092" x2="700" y2="359" stroke="#111827" stroke-width="1.05" stroke-dasharray="5 4" marker-end="url(#arrow)"/><line x1="611" y1="342" x2="1050" y2="367.5" stroke="#111827" stroke-width="1.05" marker-end="url(#arrow)"/><line x1="611" y1="526.5" x2="1050" y2="612" stroke="#111827" stroke-width="1.05" marker-end="url(#arrow)"/><line x1="611" y1="727" x2="1050" y2="794" stroke="#111827" stroke-width="1.05" marker-end="url(#arrow)"/><line x1="611" y1="727" x2="1330" y2="794" stroke="#111827" stroke-width="1.05" marker-end="url(#arrow)"/><line x1="611" y1="924.5" x2="1050" y2="967.5" stroke="#111827" stroke-width="1.05" marker-end="url(#arrow)"/><line x1="611" y1="924.5" x2="1330" y2="967.5" stroke="#111827" stroke-width="1.05" marker-end="url(#arrow)"/><line x1="611" y1="1092" x2="1050" y2="1143.5" stroke="#111827" stroke-width="1.05" marker-end="url(#arrow)"/><line x1="1286" y1="367.5" x2="1330" y2="359" stroke="#111827" stroke-width="1.05" marker-start="url(#diamond)" marker-end="url(#arrow)"/><text x="1308" y="360.25" text-anchor="middle" font-family="Arial, sans-serif" font-size="11" font-weight="400" fill="#111827">1..*</text><line x1="1566" y1="359" x2="1050" y2="160" stroke="#111827" stroke-width="1.05" marker-end="url(#arrow)"/><text x="1308" y="256.5" text-anchor="middle" font-family="Arial, sans-serif" font-size="11" font-weight="400" fill="#111827">*</text><line x1="1286" y1="367.5" x2="1050" y2="612" stroke="#111827" stroke-width="1.05" marker-start="url(#diamond)" marker-end="url(#arrow)"/><text x="1168" y="486.75" text-anchor="middle" font-family="Arial, sans-serif" font-size="11" font-weight="400" fill="#111827">*</text><line x1="1286" y1="367.5" x2="1050" y2="794" stroke="#111827" stroke-width="1.05" marker-start="url(#diamond)" marker-end="url(#arrow)"/><text x="1168" y="577.75" text-anchor="middle" font-family="Arial, sans-serif" font-size="11" font-weight="400" fill="#111827">*</text><line x1="1286" y1="794" x2="1330" y2="794" stroke="#111827" stroke-width="1.05" marker-start="url(#diamond)" marker-end="url(#arrow)"/><text x="1308" y="791" text-anchor="middle" font-family="Arial, sans-serif" font-size="11" font-weight="400" fill="#111827">*</text><line x1="1286" y1="967.5" x2="1330" y2="967.5" stroke="#111827" stroke-width="1.05" marker-start="url(#diamond)" marker-end="url(#arrow)"/><text x="1308" y="964.5" text-anchor="middle" font-family="Arial, sans-serif" font-size="11" font-weight="400" fill="#111827">*</text><line x1="1286" y1="967.5" x2="1050" y2="1143.5" stroke="#111827" stroke-width="1.05" marker-start="url(#diamond)" marker-end="url(#arrow)"/><text x="1168" y="1052.5" text-anchor="middle" font-family="Arial, sans-serif" font-size="11" font-weight="400" fill="#111827">0..1</text><line x1="1286" y1="1143.5" x2="1050" y2="160" stroke="#111827" stroke-width="1.05" marker-end="url(#arrow)"/><text x="1168" y="648.75" text-anchor="middle" font-family="Arial, sans-serif" font-size="11" font-weight="400" fill="#111827">*</text><rect x="50" y="70" width="236" height="112" fill="#fbfbfb" stroke="#111827" stroke-width="1.2"/><line x1="50" y1="112" x2="286" y2="112" stroke="#111827"/><line x1="50" y1="136" x2="286" y2="136" stroke="#111827"/><text x="168" y="85" text-anchor="middle" font-family="Arial, sans-serif" font-size="11" fill="#475569">&lt;&lt;boundary&gt;&gt;</text><text x="168" y="102" text-anchor="middle" font-family="Arial, sans-serif" font-size="14" font-weight="700" fill="#111827">LoginUI</text><text x="60" y="153" font-family="Consolas, monospace" font-size="11">+requestLogin()</text><text x="60" y="170" font-family="Consolas, monospace" font-size="11">+showError()</text><rect x="50" y="214" width="236" height="129" fill="#fbfbfb" stroke="#111827" stroke-width="1.2"/><line x1="50" y1="256" x2="286" y2="256" stroke="#111827"/><line x1="50" y1="280" x2="286" y2="280" stroke="#111827"/><text x="168" y="229" text-anchor="middle" font-family="Arial, sans-serif" font-size="11" fill="#475569">&lt;&lt;boundary&gt;&gt;</text><text x="168" y="246" text-anchor="middle" font-family="Arial, sans-serif" font-size="14" font-weight="700" fill="#111827">RegisterUI</text><text x="60" y="297" font-family="Consolas, monospace" font-size="11">+submitRegister()</text><text x="60" y="314" font-family="Consolas, monospace" font-size="11">+showSuccess()</text><text x="60" y="331" font-family="Consolas, monospace" font-size="11">+showError()</text><rect x="50" y="378" width="236" height="112" fill="#fbfbfb" stroke="#111827" stroke-width="1.2"/><line x1="50" y1="420" x2="286" y2="420" stroke="#111827"/><line x1="50" y1="444" x2="286" y2="444" stroke="#111827"/><text x="168" y="393" text-anchor="middle" font-family="Arial, sans-serif" font-size="11" fill="#475569">&lt;&lt;boundary&gt;&gt;</text><text x="168" y="410" text-anchor="middle" font-family="Arial, sans-serif" font-size="14" font-weight="700" fill="#111827">HomeUI</text><text x="60" y="461" font-family="Consolas, monospace" font-size="11">+showHome()</text><text x="60" y="478" font-family="Consolas, monospace" font-size="11">+updateTeamList()</text><rect x="50" y="522" width="236" height="129" fill="#fbfbfb" stroke="#111827" stroke-width="1.2"/><line x1="50" y1="564" x2="286" y2="564" stroke="#111827"/><line x1="50" y1="588" x2="286" y2="588" stroke="#111827"/><text x="168" y="537" text-anchor="middle" font-family="Arial, sans-serif" font-size="11" fill="#475569">&lt;&lt;boundary&gt;&gt;</text><text x="168" y="554" text-anchor="middle" font-family="Arial, sans-serif" font-size="14" font-weight="700" fill="#111827">ScheduleUI</text><text x="60" y="605" font-family="Consolas, monospace" font-size="11">+selectUnavailableTime()</text><text x="60" y="622" font-family="Consolas, monospace" font-size="11">+requestRecommendation()</text><text x="60" y="639" font-family="Consolas, monospace" font-size="11">+confirmSchedule()</text><rect x="50" y="704" width="236" height="129" fill="#fbfbfb" stroke="#111827" stroke-width="1.2"/><line x1="50" y1="746" x2="286" y2="746" stroke="#111827"/><line x1="50" y1="770" x2="286" y2="770" stroke="#111827"/><text x="168" y="719" text-anchor="middle" font-family="Arial, sans-serif" font-size="11" fill="#475569">&lt;&lt;boundary&gt;&gt;</text><text x="168" y="736" text-anchor="middle" font-family="Arial, sans-serif" font-size="14" font-weight="700" fill="#111827">TaskBoardUI</text><text x="60" y="787" font-family="Consolas, monospace" font-size="11">+requestUpload()</text><text x="60" y="804" font-family="Consolas, monospace" font-size="11">+requestApproval()</text><text x="60" y="821" font-family="Consolas, monospace" font-size="11">+requestRejection()</text><rect x="50" y="886" width="236" height="112" fill="#fbfbfb" stroke="#111827" stroke-width="1.2"/><line x1="50" y1="928" x2="286" y2="928" stroke="#111827"/><line x1="50" y1="952" x2="286" y2="952" stroke="#111827"/><text x="168" y="901" text-anchor="middle" font-family="Arial, sans-serif" font-size="11" fill="#475569">&lt;&lt;boundary&gt;&gt;</text><text x="168" y="918" text-anchor="middle" font-family="Arial, sans-serif" font-size="14" font-weight="700" fill="#111827">EventUI</text><text x="60" y="969" font-family="Consolas, monospace" font-size="11">+submitVote()</text><text x="60" y="986" font-family="Consolas, monospace" font-size="11">+requestDecision()</text><rect x="50" y="1044" width="236" height="112" fill="#fbfbfb" stroke="#111827" stroke-width="1.2"/><line x1="50" y1="1086" x2="286" y2="1086" stroke="#111827"/><line x1="50" y1="1110" x2="286" y2="1110" stroke="#111827"/><text x="168" y="1059" text-anchor="middle" font-family="Arial, sans-serif" font-size="11" fill="#475569">&lt;&lt;boundary&gt;&gt;</text><text x="168" y="1076" text-anchor="middle" font-family="Arial, sans-serif" font-size="14" font-weight="700" fill="#111827">WorkspaceUI</text><text x="60" y="1127" font-family="Consolas, monospace" font-size="11">+submitMessage()</text><text x="60" y="1144" font-family="Consolas, monospace" font-size="11">+updateMessageList()</text><rect x="375" y="90" width="236" height="146" fill="#fbfbfb" stroke="#111827" stroke-width="1.2"/><line x1="375" y1="132" x2="611" y2="132" stroke="#111827"/><line x1="375" y1="156" x2="611" y2="156" stroke="#111827"/><text x="493" y="105" text-anchor="middle" font-family="Arial, sans-serif" font-size="11" fill="#475569">&lt;&lt;control&gt;&gt;</text><text x="493" y="122" text-anchor="middle" font-family="Arial, sans-serif" font-size="14" font-weight="700" fill="#111827">AuthService</text><text x="385" y="173" font-family="Consolas, monospace" font-size="11">+registerMember()</text><text x="385" y="190" font-family="Consolas, monospace" font-size="11">+login()</text><text x="385" y="207" font-family="Consolas, monospace" font-size="11">+validateInput()</text><text x="385" y="224" font-family="Consolas, monospace" font-size="11">+createMemberProfile()</text><rect x="375" y="286" width="236" height="112" fill="#fbfbfb" stroke="#111827" stroke-width="1.2"/><line x1="375" y1="328" x2="611" y2="328" stroke="#111827"/><line x1="375" y1="352" x2="611" y2="352" stroke="#111827"/><text x="493" y="301" text-anchor="middle" font-family="Arial, sans-serif" font-size="11" fill="#475569">&lt;&lt;control&gt;&gt;</text><text x="493" y="318" text-anchor="middle" font-family="Arial, sans-serif" font-size="14" font-weight="700" fill="#111827">TeamService</text><text x="385" y="369" font-family="Consolas, monospace" font-size="11">+createTeam()</text><text x="385" y="386" font-family="Consolas, monospace" font-size="11">+inviteMember()</text><rect x="375" y="462" width="236" height="129" fill="#fbfbfb" stroke="#111827" stroke-width="1.2"/><line x1="375" y1="504" x2="611" y2="504" stroke="#111827"/><line x1="375" y1="528" x2="611" y2="528" stroke="#111827"/><text x="493" y="477" text-anchor="middle" font-family="Arial, sans-serif" font-size="11" fill="#475569">&lt;&lt;control&gt;&gt;</text><text x="493" y="494" text-anchor="middle" font-family="Arial, sans-serif" font-size="14" font-weight="700" fill="#111827">ScheduleService</text><text x="385" y="545" font-family="Consolas, monospace" font-size="11">+saveUnavailableTime()</text><text x="385" y="562" font-family="Consolas, monospace" font-size="11">+recommendTime()</text><text x="385" y="579" font-family="Consolas, monospace" font-size="11">+confirmSchedule()</text><rect x="375" y="654" width="236" height="146" fill="#fbfbfb" stroke="#111827" stroke-width="1.2"/><line x1="375" y1="696" x2="611" y2="696" stroke="#111827"/><line x1="375" y1="720" x2="611" y2="720" stroke="#111827"/><text x="493" y="669" text-anchor="middle" font-family="Arial, sans-serif" font-size="11" fill="#475569">&lt;&lt;control&gt;&gt;</text><text x="493" y="686" text-anchor="middle" font-family="Arial, sans-serif" font-size="14" font-weight="700" fill="#111827">TaskService</text><text x="385" y="737" font-family="Consolas, monospace" font-size="11">+uploadSubmission()</text><text x="385" y="754" font-family="Consolas, monospace" font-size="11">+approveSubmission()</text><text x="385" y="771" font-family="Consolas, monospace" font-size="11">+rejectSubmission()</text><text x="385" y="788" font-family="Consolas, monospace" font-size="11">+calculateProgress()</text><rect x="375" y="860" width="236" height="129" fill="#fbfbfb" stroke="#111827" stroke-width="1.2"/><line x1="375" y1="902" x2="611" y2="902" stroke="#111827"/><line x1="375" y1="926" x2="611" y2="926" stroke="#111827"/><text x="493" y="875" text-anchor="middle" font-family="Arial, sans-serif" font-size="11" fill="#475569">&lt;&lt;control&gt;&gt;</text><text x="493" y="892" text-anchor="middle" font-family="Arial, sans-serif" font-size="14" font-weight="700" fill="#111827">EventService</text><text x="385" y="943" font-family="Consolas, monospace" font-size="11">+createEvent()</text><text x="385" y="960" font-family="Consolas, monospace" font-size="11">+vote()</text><text x="385" y="977" font-family="Consolas, monospace" font-size="11">+decideEvent()</text><rect x="375" y="1036" width="236" height="112" fill="#fbfbfb" stroke="#111827" stroke-width="1.2"/><line x1="375" y1="1078" x2="611" y2="1078" stroke="#111827"/><line x1="375" y1="1102" x2="611" y2="1102" stroke="#111827"/><text x="493" y="1051" text-anchor="middle" font-family="Arial, sans-serif" font-size="11" fill="#475569">&lt;&lt;control&gt;&gt;</text><text x="493" y="1068" text-anchor="middle" font-family="Arial, sans-serif" font-size="14" font-weight="700" fill="#111827">WorkspaceService</text><text x="385" y="1119" font-family="Consolas, monospace" font-size="11">+createWorkspace()</text><text x="385" y="1136" font-family="Consolas, monospace" font-size="11">+sendMessage()</text><rect x="700" y="70" width="236" height="151" fill="#fbfbfb" stroke="#111827" stroke-width="1.2"/><line x1="700" y1="112" x2="936" y2="112" stroke="#111827"/><line x1="700" y1="158" x2="936" y2="158" stroke="#111827"/><text x="818" y="85" text-anchor="middle" font-family="Arial, sans-serif" font-size="11" fill="#475569">&lt;&lt;control&gt;&gt;</text><text x="818" y="102" text-anchor="middle" font-family="Arial, sans-serif" font-size="14" font-weight="700" fill="#111827">SupabaseAuthClient</text><text x="710" y="129" font-family="Consolas, monospace" font-size="11">-supabaseUrl</text><text x="710" y="146" font-family="Consolas, monospace" font-size="11">-anonKey</text><text x="710" y="175" font-family="Consolas, monospace" font-size="11">+signUp()</text><text x="710" y="192" font-family="Consolas, monospace" font-size="11">+signIn()</text><text x="710" y="209" font-family="Consolas, monospace" font-size="11">+handleAuthResponse()</text><rect x="700" y="286" width="236" height="146" fill="#fbfbfb" stroke="#111827" stroke-width="1.2"/><line x1="700" y1="328" x2="936" y2="328" stroke="#111827"/><line x1="700" y1="352" x2="936" y2="352" stroke="#111827"/><text x="818" y="301" text-anchor="middle" font-family="Arial, sans-serif" font-size="11" fill="#475569">&lt;&lt;control&gt;&gt;</text><text x="818" y="318" text-anchor="middle" font-family="Arial, sans-serif" font-size="14" font-weight="700" fill="#111827">NotificationService</text><text x="710" y="369" font-family="Consolas, monospace" font-size="11">+sendInvite()</text><text x="710" y="386" font-family="Consolas, monospace" font-size="11">+sendVoteRequest()</text><text x="710" y="403" font-family="Consolas, monospace" font-size="11">+sendVoteReminder()</text><text x="710" y="420" font-family="Consolas, monospace" font-size="11">+sendWorkspaceNotice()</text><rect x="700" y="522" width="236" height="146" fill="#fbfbfb" stroke="#111827" stroke-width="1.2"/><line x1="700" y1="564" x2="936" y2="564" stroke="#111827"/><line x1="700" y1="588" x2="936" y2="588" stroke="#111827"/><text x="818" y="537" text-anchor="middle" font-family="Arial, sans-serif" font-size="11" fill="#475569">&lt;&lt;storage&gt;&gt;</text><text x="818" y="554" text-anchor="middle" font-family="Arial, sans-serif" font-size="14" font-weight="700" fill="#111827">DataStore</text><text x="710" y="605" font-family="Consolas, monospace" font-size="11">+save()</text><text x="710" y="622" font-family="Consolas, monospace" font-size="11">+findById()</text><text x="710" y="639" font-family="Consolas, monospace" font-size="11">+findAll()</text><text x="710" y="656" font-family="Consolas, monospace" font-size="11">+update()</text><rect x="700" y="704" width="236" height="95" fill="#fbfbfb" stroke="#111827" stroke-width="1.2"/><line x1="700" y1="746" x2="936" y2="746" stroke="#111827"/><line x1="700" y1="770" x2="936" y2="770" stroke="#111827"/><text x="818" y="719" text-anchor="middle" font-family="Arial, sans-serif" font-size="11" fill="#475569">&lt;&lt;storage&gt;&gt;</text><text x="818" y="736" text-anchor="middle" font-family="Arial, sans-serif" font-size="14" font-weight="700" fill="#111827">FileStorage</text><text x="710" y="787" font-family="Consolas, monospace" font-size="11">+upload()</text><rect x="700" y="886" width="236" height="129" fill="#fbfbfb" stroke="#111827" stroke-width="1.2"/><line x1="700" y1="928" x2="936" y2="928" stroke="#111827"/><line x1="700" y1="952" x2="936" y2="952" stroke="#111827"/><text x="818" y="901" text-anchor="middle" font-family="Arial, sans-serif" font-size="11" fill="#475569">&lt;&lt;external&gt;&gt;</text><text x="818" y="918" text-anchor="middle" font-family="Arial, sans-serif" font-size="14" font-weight="700" fill="#111827">SupabaseAuthAPI</text><text x="710" y="969" font-family="Consolas, monospace" font-size="11">+signUpEndpoint()</text><text x="710" y="986" font-family="Consolas, monospace" font-size="11">+passwordLoginEndpoint()</text><text x="710" y="1003" font-family="Consolas, monospace" font-size="11">+returnSession()</text><rect x="1050" y="70" width="236" height="180" fill="#fbfbfb" stroke="#111827" stroke-width="1.2"/><line x1="1050" y1="112" x2="1286" y2="112" stroke="#111827"/><line x1="1050" y1="226" x2="1286" y2="226" stroke="#111827"/><text x="1168" y="85" text-anchor="middle" font-family="Arial, sans-serif" font-size="11" fill="#475569">&lt;&lt;entity&gt;&gt;</text><text x="1168" y="102" text-anchor="middle" font-family="Arial, sans-serif" font-size="14" font-weight="700" fill="#111827">Member</text><text x="1060" y="129" font-family="Consolas, monospace" font-size="11">+memberId</text><text x="1060" y="146" font-family="Consolas, monospace" font-size="11">+supabaseUserId</text><text x="1060" y="163" font-family="Consolas, monospace" font-size="11">+studentNo</text><text x="1060" y="180" font-family="Consolas, monospace" font-size="11">+name</text><text x="1060" y="197" font-family="Consolas, monospace" font-size="11">+email</text><text x="1060" y="214" font-family="Consolas, monospace" font-size="11">+role</text><rect x="1050" y="286" width="236" height="163" fill="#fbfbfb" stroke="#111827" stroke-width="1.2"/><line x1="1050" y1="328" x2="1286" y2="328" stroke="#111827"/><line x1="1050" y1="425" x2="1286" y2="425" stroke="#111827"/><text x="1168" y="301" text-anchor="middle" font-family="Arial, sans-serif" font-size="11" fill="#475569">&lt;&lt;entity&gt;&gt;</text><text x="1168" y="318" text-anchor="middle" font-family="Arial, sans-serif" font-size="14" font-weight="700" fill="#111827">Team</text><text x="1060" y="345" font-family="Consolas, monospace" font-size="11">+teamId</text><text x="1060" y="362" font-family="Consolas, monospace" font-size="11">+teamName</text><text x="1060" y="379" font-family="Consolas, monospace" font-size="11">+description</text><text x="1060" y="396" font-family="Consolas, monospace" font-size="11">+adminId</text><text x="1060" y="413" font-family="Consolas, monospace" font-size="11">+createdAt</text><rect x="1330" y="286" width="236" height="146" fill="#fbfbfb" stroke="#111827" stroke-width="1.2"/><line x1="1330" y1="328" x2="1566" y2="328" stroke="#111827"/><line x1="1330" y1="408" x2="1566" y2="408" stroke="#111827"/><text x="1448" y="301" text-anchor="middle" font-family="Arial, sans-serif" font-size="11" fill="#475569">&lt;&lt;entity&gt;&gt;</text><text x="1448" y="318" text-anchor="middle" font-family="Arial, sans-serif" font-size="14" font-weight="700" fill="#111827">TeamMember</text><text x="1340" y="345" font-family="Consolas, monospace" font-size="11">+teamMemberId</text><text x="1340" y="362" font-family="Consolas, monospace" font-size="11">+teamId</text><text x="1340" y="379" font-family="Consolas, monospace" font-size="11">+memberId</text><text x="1340" y="396" font-family="Consolas, monospace" font-size="11">+joinedAt</text><rect x="1050" y="522" width="236" height="180" fill="#fbfbfb" stroke="#111827" stroke-width="1.2"/><line x1="1050" y1="564" x2="1286" y2="564" stroke="#111827"/><line x1="1050" y1="678" x2="1286" y2="678" stroke="#111827"/><text x="1168" y="537" text-anchor="middle" font-family="Arial, sans-serif" font-size="11" fill="#475569">&lt;&lt;entity&gt;&gt;</text><text x="1168" y="554" text-anchor="middle" font-family="Arial, sans-serif" font-size="14" font-weight="700" fill="#111827">ScheduleBlock</text><text x="1060" y="581" font-family="Consolas, monospace" font-size="11">+scheduleId</text><text x="1060" y="598" font-family="Consolas, monospace" font-size="11">+teamId</text><text x="1060" y="615" font-family="Consolas, monospace" font-size="11">+memberId</text><text x="1060" y="632" font-family="Consolas, monospace" font-size="11">+day</text><text x="1060" y="649" font-family="Consolas, monospace" font-size="11">+startTime</text><text x="1060" y="666" font-family="Consolas, monospace" font-size="11">+endTime</text><rect x="1050" y="704" width="236" height="180" fill="#fbfbfb" stroke="#111827" stroke-width="1.2"/><line x1="1050" y1="746" x2="1286" y2="746" stroke="#111827"/><line x1="1050" y1="860" x2="1286" y2="860" stroke="#111827"/><text x="1168" y="719" text-anchor="middle" font-family="Arial, sans-serif" font-size="11" fill="#475569">&lt;&lt;entity&gt;&gt;</text><text x="1168" y="736" text-anchor="middle" font-family="Arial, sans-serif" font-size="14" font-weight="700" fill="#111827">Task</text><text x="1060" y="763" font-family="Consolas, monospace" font-size="11">+taskId</text><text x="1060" y="780" font-family="Consolas, monospace" font-size="11">+teamId</text><text x="1060" y="797" font-family="Consolas, monospace" font-size="11">+title</text><text x="1060" y="814" font-family="Consolas, monospace" font-size="11">+assigneeId</text><text x="1060" y="831" font-family="Consolas, monospace" font-size="11">+dueDate</text><text x="1060" y="848" font-family="Consolas, monospace" font-size="11">+status</text><rect x="1330" y="704" width="236" height="180" fill="#fbfbfb" stroke="#111827" stroke-width="1.2"/><line x1="1330" y1="746" x2="1566" y2="746" stroke="#111827"/><line x1="1330" y1="860" x2="1566" y2="860" stroke="#111827"/><text x="1448" y="719" text-anchor="middle" font-family="Arial, sans-serif" font-size="11" fill="#475569">&lt;&lt;entity&gt;&gt;</text><text x="1448" y="736" text-anchor="middle" font-family="Arial, sans-serif" font-size="14" font-weight="700" fill="#111827">Submission</text><text x="1340" y="763" font-family="Consolas, monospace" font-size="11">+submissionId</text><text x="1340" y="780" font-family="Consolas, monospace" font-size="11">+taskId</text><text x="1340" y="797" font-family="Consolas, monospace" font-size="11">+memberId</text><text x="1340" y="814" font-family="Consolas, monospace" font-size="11">+fileUrl</text><text x="1340" y="831" font-family="Consolas, monospace" font-size="11">+status</text><text x="1340" y="848" font-family="Consolas, monospace" font-size="11">+submittedAt</text><rect x="1050" y="886" width="236" height="163" fill="#fbfbfb" stroke="#111827" stroke-width="1.2"/><line x1="1050" y1="928" x2="1286" y2="928" stroke="#111827"/><line x1="1050" y1="1025" x2="1286" y2="1025" stroke="#111827"/><text x="1168" y="901" text-anchor="middle" font-family="Arial, sans-serif" font-size="11" fill="#475569">&lt;&lt;entity&gt;&gt;</text><text x="1168" y="918" text-anchor="middle" font-family="Arial, sans-serif" font-size="14" font-weight="700" fill="#111827">Event</text><text x="1060" y="945" font-family="Consolas, monospace" font-size="11">+eventId</text><text x="1060" y="962" font-family="Consolas, monospace" font-size="11">+teamId</text><text x="1060" y="979" font-family="Consolas, monospace" font-size="11">+title</text><text x="1060" y="996" font-family="Consolas, monospace" font-size="11">+voteDeadline</text><text x="1060" y="1013" font-family="Consolas, monospace" font-size="11">+status</text><rect x="1330" y="886" width="236" height="163" fill="#fbfbfb" stroke="#111827" stroke-width="1.2"/><line x1="1330" y1="928" x2="1566" y2="928" stroke="#111827"/><line x1="1330" y1="1025" x2="1566" y2="1025" stroke="#111827"/><text x="1448" y="901" text-anchor="middle" font-family="Arial, sans-serif" font-size="11" fill="#475569">&lt;&lt;entity&gt;&gt;</text><text x="1448" y="918" text-anchor="middle" font-family="Arial, sans-serif" font-size="14" font-weight="700" fill="#111827">Vote</text><text x="1340" y="945" font-family="Consolas, monospace" font-size="11">+voteId</text><text x="1340" y="962" font-family="Consolas, monospace" font-size="11">+eventId</text><text x="1340" y="979" font-family="Consolas, monospace" font-size="11">+memberId</text><text x="1340" y="996" font-family="Consolas, monospace" font-size="11">+status</text><text x="1340" y="1013" font-family="Consolas, monospace" font-size="11">+votedAt</text><rect x="1050" y="1062" width="236" height="163" fill="#fbfbfb" stroke="#111827" stroke-width="1.2"/><line x1="1050" y1="1104" x2="1286" y2="1104" stroke="#111827"/><line x1="1050" y1="1201" x2="1286" y2="1201" stroke="#111827"/><text x="1168" y="1077" text-anchor="middle" font-family="Arial, sans-serif" font-size="11" fill="#475569">&lt;&lt;entity&gt;&gt;</text><text x="1168" y="1094" text-anchor="middle" font-family="Arial, sans-serif" font-size="14" font-weight="700" fill="#111827">TeamWorkspace</text><text x="1060" y="1121" font-family="Consolas, monospace" font-size="11">+workspaceId</text><text x="1060" y="1138" font-family="Consolas, monospace" font-size="11">+eventId</text><text x="1060" y="1155" font-family="Consolas, monospace" font-size="11">+workspaceName</text><text x="1060" y="1172" font-family="Consolas, monospace" font-size="11">+participants</text><text x="1060" y="1189" font-family="Consolas, monospace" font-size="11">+createdAt</text></svg>