<svg xmlns="http://www.w3.org/2000/svg" width="1560" height="1220" viewBox="0 0 1560 1220">
<defs>
  <marker id="arrow" viewBox="0 0 10 10" refX="9" refY="5" markerWidth="7" markerHeight="7" orient="auto"><path d="M0 0 L10 5 L0 10 z" fill="#111827"/></marker>
  <marker id="diamond" viewBox="0 0 16 10" refX="1" refY="5" markerWidth="11" markerHeight="9" orient="auto"><path d="M1 5 L8 1 L15 5 L8 9 z" fill="#111827" stroke="#111827"/></marker>
</defs>
<rect width="100%" height="100%" fill="#ffffff"/>
<text x="40" y="34" font-family="Arial, sans-serif" font-size="22" font-weight="700" fill="#111827">Jo:YUl Class Diagram</text><line x1="270" y1="126" x2="370" y2="173" stroke="#334155" stroke-width="1.1" stroke-dasharray="5 4" marker-end="url(#arrow)"/><line x1="270" y1="274.5" x2="370" y2="173" stroke="#334155" stroke-width="1.1" stroke-dasharray="5 4" marker-end="url(#arrow)"/><line x1="600" y1="173" x2="700" y2="145.5" stroke="#334155" stroke-width="1.1" stroke-dasharray="5 4" marker-end="url(#arrow)"/><line x1="930" y1="145.5" x2="700" y2="914.5" stroke="#334155" stroke-width="1.1" stroke-dasharray="5 4" marker-end="url(#arrow)"/><line x1="600" y1="173" x2="1030" y2="160" stroke="#111827" stroke-width="1.1" marker-end="url(#arrow)"/><line x1="600" y1="173" x2="700" y2="563" stroke="#334155" stroke-width="1.1" stroke-dasharray="5 4" marker-end="url(#arrow)"/><line x1="270" y1="426" x2="370" y2="341" stroke="#334155" stroke-width="1.1" stroke-dasharray="5 4" marker-end="url(#arrow)"/><line x1="270" y1="574.5" x2="370" y2="519.5" stroke="#334155" stroke-width="1.1" stroke-dasharray="5 4" marker-end="url(#arrow)"/><line x1="270" y1="754.5" x2="370" y2="718" stroke="#334155" stroke-width="1.1" stroke-dasharray="5 4" marker-end="url(#arrow)"/><line x1="270" y1="926" x2="370" y2="909.5" stroke="#334155" stroke-width="1.1" stroke-dasharray="5 4" marker-end="url(#arrow)"/><line x1="270" y1="1086" x2="370" y2="1076" stroke="#334155" stroke-width="1.1" stroke-dasharray="5 4" marker-end="url(#arrow)"/><line x1="600" y1="341" x2="700" y2="563" stroke="#334155" stroke-width="1.1" stroke-dasharray="5 4" marker-end="url(#arrow)"/><line x1="600" y1="519.5" x2="700" y2="563" stroke="#334155" stroke-width="1.1" stroke-dasharray="5 4" marker-end="url(#arrow)"/><line x1="600" y1="718" x2="700" y2="563" stroke="#334155" stroke-width="1.1" stroke-dasharray="5 4" marker-end="url(#arrow)"/><line x1="600" y1="909.5" x2="700" y2="563" stroke="#334155" stroke-width="1.1" stroke-dasharray="5 4" marker-end="url(#arrow)"/><line x1="600" y1="1076" x2="700" y2="563" stroke="#334155" stroke-width="1.1" stroke-dasharray="5 4" marker-end="url(#arrow)"/><line x1="600" y1="718" x2="700" y2="737.5" stroke="#334155" stroke-width="1.1" stroke-dasharray="5 4" marker-end="url(#arrow)"/><line x1="600" y1="341" x2="700" y2="338" stroke="#334155" stroke-width="1.1" stroke-dasharray="5 4" marker-end="url(#arrow)"/><line x1="600" y1="909.5" x2="700" y2="338" stroke="#334155" stroke-width="1.1" stroke-dasharray="5 4" marker-end="url(#arrow)"/><line x1="600" y1="1076" x2="700" y2="338" stroke="#334155" stroke-width="1.1" stroke-dasharray="5 4" marker-end="url(#arrow)"/><line x1="1260" y1="336.5" x2="1290" y2="328" stroke="#111827" stroke-width="1.1" marker-start="url(#diamond)" marker-end="url(#arrow)"/><text x="1275" y="327.25" text-anchor="middle" font-family="Arial, sans-serif" font-size="11" fill="#111827">1..*</text><line x1="1520" y1="328" x2="1030" y2="160" stroke="#111827" stroke-width="1.1" marker-end="url(#arrow)"/><text x="1275" y="239" text-anchor="middle" font-family="Arial, sans-serif" font-size="11" fill="#111827">*</text><line x1="1260" y1="336.5" x2="1030" y2="545" stroke="#111827" stroke-width="1.1" marker-start="url(#diamond)" marker-end="url(#arrow)"/><text x="1145" y="435.75" text-anchor="middle" font-family="Arial, sans-serif" font-size="11" fill="#111827">*</text><line x1="1260" y1="336.5" x2="1030" y2="745" stroke="#111827" stroke-width="1.1" marker-start="url(#diamond)" marker-end="url(#arrow)"/><text x="1145" y="535.75" text-anchor="middle" font-family="Arial, sans-serif" font-size="11" fill="#111827">*</text><line x1="1260" y1="745" x2="1290" y2="745" stroke="#111827" stroke-width="1.1" marker-start="url(#diamond)" marker-end="url(#arrow)"/><text x="1275" y="740" text-anchor="middle" font-family="Arial, sans-serif" font-size="11" fill="#111827">*</text><line x1="1260" y1="946.5" x2="1290" y2="946.5" stroke="#111827" stroke-width="1.1" marker-start="url(#diamond)" marker-end="url(#arrow)"/><text x="1275" y="941.5" text-anchor="middle" font-family="Arial, sans-serif" font-size="11" fill="#111827">*</text><line x1="1260" y1="946.5" x2="1030" y2="1141.5" stroke="#111827" stroke-width="1.1" marker-start="url(#diamond)" marker-end="url(#arrow)"/><text x="1145" y="1039" text-anchor="middle" font-family="Arial, sans-serif" font-size="11" fill="#111827">0..1</text><line x1="1260" y1="1141.5" x2="1030" y2="160" stroke="#111827" stroke-width="1.1" marker-end="url(#arrow)"/><text x="1145" y="645.75" text-anchor="middle" font-family="Arial, sans-serif" font-size="11" fill="#111827">*</text><line x1="600" y1="341" x2="1030" y2="336.5" stroke="#111827" stroke-width="1.1" marker-end="url(#arrow)"/><line x1="600" y1="519.5" x2="1030" y2="545" stroke="#111827" stroke-width="1.1" marker-end="url(#arrow)"/><line x1="600" y1="718" x2="1030" y2="745" stroke="#111827" stroke-width="1.1" marker-end="url(#arrow)"/><line x1="600" y1="718" x2="1290" y2="745" stroke="#111827" stroke-width="1.1" marker-end="url(#arrow)"/><line x1="600" y1="909.5" x2="1030" y2="946.5" stroke="#111827" stroke-width="1.1" marker-end="url(#arrow)"/><line x1="600" y1="909.5" x2="1290" y2="946.5" stroke="#111827" stroke-width="1.1" marker-end="url(#arrow)"/><line x1="600" y1="1076" x2="1030" y2="1141.5" stroke="#111827" stroke-width="1.1" marker-end="url(#arrow)"/><rect x="40" y="70" width="230" height="112" rx="0" fill="#fff" stroke="#111827" stroke-width="1.2"/><line x1="40" y1="112" x2="270" y2="112" stroke="#111827" stroke-width="1"/><line x1="40" y1="136" x2="270" y2="136" stroke="#111827" stroke-width="1"/><text x="155" y="85" text-anchor="middle" font-family="Arial, sans-serif" font-size="11" fill="#475569">&lt;&lt;boundary&gt;&gt;</text><text x="155" y="102" text-anchor="middle" font-family="Arial, sans-serif" font-size="14" font-weight="700" fill="#111827">LoginUI</text><text x="50" y="153" font-family="Consolas, monospace" font-size="11" fill="#111827">+requestLogin()</text><text x="50" y="170" font-family="Consolas, monospace" font-size="11" fill="#111827">+showError()</text><rect x="40" y="210" width="230" height="129" rx="0" fill="#fff" stroke="#111827" stroke-width="1.2"/><line x1="40" y1="252" x2="270" y2="252" stroke="#111827" stroke-width="1"/><line x1="40" y1="276" x2="270" y2="276" stroke="#111827" stroke-width="1"/><text x="155" y="225" text-anchor="middle" font-family="Arial, sans-serif" font-size="11" fill="#475569">&lt;&lt;boundary&gt;&gt;</text><text x="155" y="242" text-anchor="middle" font-family="Arial, sans-serif" font-size="14" font-weight="700" fill="#111827">RegisterUI</text><text x="50" y="293" font-family="Consolas, monospace" font-size="11" fill="#111827">+submitRegister()</text><text x="50" y="310" font-family="Consolas, monospace" font-size="11" fill="#111827">+showSuccess()</text><text x="50" y="327" font-family="Consolas, monospace" font-size="11" fill="#111827">+showError()</text><rect x="40" y="370" width="230" height="112" rx="0" fill="#fff" stroke="#111827" stroke-width="1.2"/><line x1="40" y1="412" x2="270" y2="412" stroke="#111827" stroke-width="1"/><line x1="40" y1="436" x2="270" y2="436" stroke="#111827" stroke-width="1"/><text x="155" y="385" text-anchor="middle" font-family="Arial, sans-serif" font-size="11" fill="#475569">&lt;&lt;boundary&gt;&gt;</text><text x="155" y="402" text-anchor="middle" font-family="Arial, sans-serif" font-size="14" font-weight="700" fill="#111827">HomeUI</text><text x="50" y="453" font-family="Consolas, monospace" font-size="11" fill="#111827">+showHome()</text><text x="50" y="470" font-family="Consolas, monospace" font-size="11" fill="#111827">+updateTeamList()</text><rect x="40" y="510" width="230" height="129" rx="0" fill="#fff" stroke="#111827" stroke-width="1.2"/><line x1="40" y1="552" x2="270" y2="552" stroke="#111827" stroke-width="1"/><line x1="40" y1="576" x2="270" y2="576" stroke="#111827" stroke-width="1"/><text x="155" y="525" text-anchor="middle" font-family="Arial, sans-serif" font-size="11" fill="#475569">&lt;&lt;boundary&gt;&gt;</text><text x="155" y="542" text-anchor="middle" font-family="Arial, sans-serif" font-size="14" font-weight="700" fill="#111827">ScheduleUI</text><text x="50" y="593" font-family="Consolas, monospace" font-size="11" fill="#111827">+selectUnavailableTime()</text><text x="50" y="610" font-family="Consolas, monospace" font-size="11" fill="#111827">+requestRecommendation()</text><text x="50" y="627" font-family="Consolas, monospace" font-size="11" fill="#111827">+confirmSchedule()</text><rect x="40" y="690" width="230" height="129" rx="0" fill="#fff" stroke="#111827" stroke-width="1.2"/><line x1="40" y1="732" x2="270" y2="732" stroke="#111827" stroke-width="1"/><line x1="40" y1="756" x2="270" y2="756" stroke="#111827" stroke-width="1"/><text x="155" y="705" text-anchor="middle" font-family="Arial, sans-serif" font-size="11" fill="#475569">&lt;&lt;boundary&gt;&gt;</text><text x="155" y="722" text-anchor="middle" font-family="Arial, sans-serif" font-size="14" font-weight="700" fill="#111827">TaskBoardUI</text><text x="50" y="773" font-family="Consolas, monospace" font-size="11" fill="#111827">+requestUpload()</text><text x="50" y="790" font-family="Consolas, monospace" font-size="11" fill="#111827">+requestApproval()</text><text x="50" y="807" font-family="Consolas, monospace" font-size="11" fill="#111827">+requestRejection()</text><rect x="40" y="870" width="230" height="112" rx="0" fill="#fff" stroke="#111827" stroke-width="1.2"/><line x1="40" y1="912" x2="270" y2="912" stroke="#111827" stroke-width="1"/><line x1="40" y1="936" x2="270" y2="936" stroke="#111827" stroke-width="1"/><text x="155" y="885" text-anchor="middle" font-family="Arial, sans-serif" font-size="11" fill="#475569">&lt;&lt;boundary&gt;&gt;</text><text x="155" y="902" text-anchor="middle" font-family="Arial, sans-serif" font-size="14" font-weight="700" fill="#111827">EventUI</text><text x="50" y="953" font-family="Consolas, monospace" font-size="11" fill="#111827">+submitVote()</text><text x="50" y="970" font-family="Consolas, monospace" font-size="11" fill="#111827">+requestDecision()</text><rect x="40" y="1030" width="230" height="112" rx="0" fill="#fff" stroke="#111827" stroke-width="1.2"/><line x1="40" y1="1072" x2="270" y2="1072" stroke="#111827" stroke-width="1"/><line x1="40" y1="1096" x2="270" y2="1096" stroke="#111827" stroke-width="1"/><text x="155" y="1045" text-anchor="middle" font-family="Arial, sans-serif" font-size="11" fill="#475569">&lt;&lt;boundary&gt;&gt;</text><text x="155" y="1062" text-anchor="middle" font-family="Arial, sans-serif" font-size="14" font-weight="700" fill="#111827">WorkspaceUI</text><text x="50" y="1113" font-family="Consolas, monospace" font-size="11" fill="#111827">+submitMessage()</text><text x="50" y="1130" font-family="Consolas, monospace" font-size="11" fill="#111827">+updateMessageList()</text><rect x="370" y="100" width="230" height="146" rx="0" fill="#fff" stroke="#111827" stroke-width="1.2"/><line x1="370" y1="142" x2="600" y2="142" stroke="#111827" stroke-width="1"/><line x1="370" y1="166" x2="600" y2="166" stroke="#111827" stroke-width="1"/><text x="485" y="115" text-anchor="middle" font-family="Arial, sans-serif" font-size="11" fill="#475569">&lt;&lt;control&gt;&gt;</text><text x="485" y="132" text-anchor="middle" font-family="Arial, sans-serif" font-size="14" font-weight="700" fill="#111827">AuthService</text><text x="380" y="183" font-family="Consolas, monospace" font-size="11" fill="#111827">+registerMember()</text><text x="380" y="200" font-family="Consolas, monospace" font-size="11" fill="#111827">+login()</text><text x="380" y="217" font-family="Consolas, monospace" font-size="11" fill="#111827">+validateInput()</text><text x="380" y="234" font-family="Consolas, monospace" font-size="11" fill="#111827">+createMemberProfile()</text><rect x="370" y="285" width="230" height="112" rx="0" fill="#fff" stroke="#111827" stroke-width="1.2"/><line x1="370" y1="327" x2="600" y2="327" stroke="#111827" stroke-width="1"/><line x1="370" y1="351" x2="600" y2="351" stroke="#111827" stroke-width="1"/><text x="485" y="300" text-anchor="middle" font-family="Arial, sans-serif" font-size="11" fill="#475569">&lt;&lt;control&gt;&gt;</text><text x="485" y="317" text-anchor="middle" font-family="Arial, sans-serif" font-size="14" font-weight="700" fill="#111827">TeamService</text><text x="380" y="368" font-family="Consolas, monospace" font-size="11" fill="#111827">+createTeam()</text><text x="380" y="385" font-family="Consolas, monospace" font-size="11" fill="#111827">+inviteMember()</text><rect x="370" y="455" width="230" height="129" rx="0" fill="#fff" stroke="#111827" stroke-width="1.2"/><line x1="370" y1="497" x2="600" y2="497" stroke="#111827" stroke-width="1"/><line x1="370" y1="521" x2="600" y2="521" stroke="#111827" stroke-width="1"/><text x="485" y="470" text-anchor="middle" font-family="Arial, sans-serif" font-size="11" fill="#475569">&lt;&lt;control&gt;&gt;</text><text x="485" y="487" text-anchor="middle" font-family="Arial, sans-serif" font-size="14" font-weight="700" fill="#111827">ScheduleService</text><text x="380" y="538" font-family="Consolas, monospace" font-size="11" fill="#111827">+saveUnavailableTime()</text><text x="380" y="555" font-family="Consolas, monospace" font-size="11" fill="#111827">+recommendTime()</text><text x="380" y="572" font-family="Consolas, monospace" font-size="11" fill="#111827">+confirmSchedule()</text><rect x="370" y="645" width="230" height="146" rx="0" fill="#fff" stroke="#111827" stroke-width="1.2"/><line x1="370" y1="687" x2="600" y2="687" stroke="#111827" stroke-width="1"/><line x1="370" y1="711" x2="600" y2="711" stroke="#111827" stroke-width="1"/><text x="485" y="660" text-anchor="middle" font-family="Arial, sans-serif" font-size="11" fill="#475569">&lt;&lt;control&gt;&gt;</text><text x="485" y="677" text-anchor="middle" font-family="Arial, sans-serif" font-size="14" font-weight="700" fill="#111827">TaskService</text><text x="380" y="728" font-family="Consolas, monospace" font-size="11" fill="#111827">+uploadSubmission()</text><text x="380" y="745" font-family="Consolas, monospace" font-size="11" fill="#111827">+approveSubmission()</text><text x="380" y="762" font-family="Consolas, monospace" font-size="11" fill="#111827">+rejectSubmission()</text><text x="380" y="779" font-family="Consolas, monospace" font-size="11" fill="#111827">+calculateProgress()</text><rect x="370" y="845" width="230" height="129" rx="0" fill="#fff" stroke="#111827" stroke-width="1.2"/><line x1="370" y1="887" x2="600" y2="887" stroke="#111827" stroke-width="1"/><line x1="370" y1="911" x2="600" y2="911" stroke="#111827" stroke-width="1"/><text x="485" y="860" text-anchor="middle" font-family="Arial, sans-serif" font-size="11" fill="#475569">&lt;&lt;control&gt;&gt;</text><text x="485" y="877" text-anchor="middle" font-family="Arial, sans-serif" font-size="14" font-weight="700" fill="#111827">EventService</text><text x="380" y="928" font-family="Consolas, monospace" font-size="11" fill="#111827">+createEvent()</text><text x="380" y="945" font-family="Consolas, monospace" font-size="11" fill="#111827">+vote()</text><text x="380" y="962" font-family="Consolas, monospace" font-size="11" fill="#111827">+decideEvent()</text><rect x="370" y="1020" width="230" height="112" rx="0" fill="#fff" stroke="#111827" stroke-width="1.2"/><line x1="370" y1="1062" x2="600" y2="1062" stroke="#111827" stroke-width="1"/><line x1="370" y1="1086" x2="600" y2="1086" stroke="#111827" stroke-width="1"/><text x="485" y="1035" text-anchor="middle" font-family="Arial, sans-serif" font-size="11" fill="#475569">&lt;&lt;control&gt;&gt;</text><text x="485" y="1052" text-anchor="middle" font-family="Arial, sans-serif" font-size="14" font-weight="700" fill="#111827">WorkspaceService</text><text x="380" y="1103" font-family="Consolas, monospace" font-size="11" fill="#111827">+createWorkspace()</text><text x="380" y="1120" font-family="Consolas, monospace" font-size="11" fill="#111827">+sendMessage()</text><rect x="700" y="70" width="230" height="151" rx="0" fill="#fff" stroke="#111827" stroke-width="1.2"/><line x1="700" y1="112" x2="930" y2="112" stroke="#111827" stroke-width="1"/><line x1="700" y1="158" x2="930" y2="158" stroke="#111827" stroke-width="1"/><text x="815" y="85" text-anchor="middle" font-family="Arial, sans-serif" font-size="11" fill="#475569">&lt;&lt;control&gt;&gt;</text><text x="815" y="102" text-anchor="middle" font-family="Arial, sans-serif" font-size="14" font-weight="700" fill="#111827">SupabaseAuthClient</text><text x="710" y="129" font-family="Consolas, monospace" font-size="11" fill="#111827">-supabaseUrl</text><text x="710" y="146" font-family="Consolas, monospace" font-size="11" fill="#111827">-anonKey</text><text x="710" y="175" font-family="Consolas, monospace" font-size="11" fill="#111827">+signUp()</text><text x="710" y="192" font-family="Consolas, monospace" font-size="11" fill="#111827">+signIn()</text><text x="710" y="209" font-family="Consolas, monospace" font-size="11" fill="#111827">+handleAuthResponse()</text><rect x="700" y="265" width="230" height="146" rx="0" fill="#fff" stroke="#111827" stroke-width="1.2"/><line x1="700" y1="307" x2="930" y2="307" stroke="#111827" stroke-width="1"/><line x1="700" y1="331" x2="930" y2="331" stroke="#111827" stroke-width="1"/><text x="815" y="280" text-anchor="middle" font-family="Arial, sans-serif" font-size="11" fill="#475569">&lt;&lt;control&gt;&gt;</text><text x="815" y="297" text-anchor="middle" font-family="Arial, sans-serif" font-size="14" font-weight="700" fill="#111827">NotificationService</text><text x="710" y="348" font-family="Consolas, monospace" font-size="11" fill="#111827">+sendInvite()</text><text x="710" y="365" font-family="Consolas, monospace" font-size="11" fill="#111827">+sendVoteRequest()</text><text x="710" y="382" font-family="Consolas, monospace" font-size="11" fill="#111827">+sendVoteReminder()</text><text x="710" y="399" font-family="Consolas, monospace" font-size="11" fill="#111827">+sendWorkspaceNotice()</text><rect x="700" y="490" width="230" height="146" rx="0" fill="#fff" stroke="#111827" stroke-width="1.2"/><line x1="700" y1="532" x2="930" y2="532" stroke="#111827" stroke-width="1"/><line x1="700" y1="556" x2="930" y2="556" stroke="#111827" stroke-width="1"/><text x="815" y="505" text-anchor="middle" font-family="Arial, sans-serif" font-size="11" fill="#475569">&lt;&lt;storage&gt;&gt;</text><text x="815" y="522" text-anchor="middle" font-family="Arial, sans-serif" font-size="14" font-weight="700" fill="#111827">DataStore</text><text x="710" y="573" font-family="Consolas, monospace" font-size="11" fill="#111827">+save()</text><text x="710" y="590" font-family="Consolas, monospace" font-size="11" fill="#111827">+findById()</text><text x="710" y="607" font-family="Consolas, monospace" font-size="11" fill="#111827">+findAll()</text><text x="710" y="624" font-family="Consolas, monospace" font-size="11" fill="#111827">+update()</text><rect x="700" y="690" width="230" height="95" rx="0" fill="#fff" stroke="#111827" stroke-width="1.2"/><line x1="700" y1="732" x2="930" y2="732" stroke="#111827" stroke-width="1"/><line x1="700" y1="756" x2="930" y2="756" stroke="#111827" stroke-width="1"/><text x="815" y="705" text-anchor="middle" font-family="Arial, sans-serif" font-size="11" fill="#475569">&lt;&lt;storage&gt;&gt;</text><text x="815" y="722" text-anchor="middle" font-family="Arial, sans-serif" font-size="14" font-weight="700" fill="#111827">FileStorage</text><text x="710" y="773" font-family="Consolas, monospace" font-size="11" fill="#111827">+upload()</text><rect x="700" y="850" width="230" height="129" rx="0" fill="#fff" stroke="#111827" stroke-width="1.2"/><line x1="700" y1="892" x2="930" y2="892" stroke="#111827" stroke-width="1"/><line x1="700" y1="916" x2="930" y2="916" stroke="#111827" stroke-width="1"/><text x="815" y="865" text-anchor="middle" font-family="Arial, sans-serif" font-size="11" fill="#475569">&lt;&lt;external&gt;&gt;</text><text x="815" y="882" text-anchor="middle" font-family="Arial, sans-serif" font-size="14" font-weight="700" fill="#111827">SupabaseAuthAPI</text><text x="710" y="933" font-family="Consolas, monospace" font-size="11" fill="#111827">+signUpEndpoint()</text><text x="710" y="950" font-family="Consolas, monospace" font-size="11" fill="#111827">+passwordLoginEndpoint()</text><text x="710" y="967" font-family="Consolas, monospace" font-size="11" fill="#111827">+returnSession()</text><rect x="1030" y="70" width="230" height="180" rx="0" fill="#fff" stroke="#111827" stroke-width="1.2"/><line x1="1030" y1="112" x2="1260" y2="112" stroke="#111827" stroke-width="1"/><line x1="1030" y1="226" x2="1260" y2="226" stroke="#111827" stroke-width="1"/><text x="1145" y="85" text-anchor="middle" font-family="Arial, sans-serif" font-size="11" fill="#475569">&lt;&lt;entity&gt;&gt;</text><text x="1145" y="102" text-anchor="middle" font-family="Arial, sans-serif" font-size="14" font-weight="700" fill="#111827">Member</text><text x="1040" y="129" font-family="Consolas, monospace" font-size="11" fill="#111827">+memberId</text><text x="1040" y="146" font-family="Consolas, monospace" font-size="11" fill="#111827">+supabaseUserId</text><text x="1040" y="163" font-family="Consolas, monospace" font-size="11" fill="#111827">+studentNo</text><text x="1040" y="180" font-family="Consolas, monospace" font-size="11" fill="#111827">+name</text><text x="1040" y="197" font-family="Consolas, monospace" font-size="11" fill="#111827">+email</text><text x="1040" y="214" font-family="Consolas, monospace" font-size="11" fill="#111827">+role</text><rect x="1030" y="255" width="230" height="163" rx="0" fill="#fff" stroke="#111827" stroke-width="1.2"/><line x1="1030" y1="297" x2="1260" y2="297" stroke="#111827" stroke-width="1"/><line x1="1030" y1="394" x2="1260" y2="394" stroke="#111827" stroke-width="1"/><text x="1145" y="270" text-anchor="middle" font-family="Arial, sans-serif" font-size="11" fill="#475569">&lt;&lt;entity&gt;&gt;</text><text x="1145" y="287" text-anchor="middle" font-family="Arial, sans-serif" font-size="14" font-weight="700" fill="#111827">Team</text><text x="1040" y="314" font-family="Consolas, monospace" font-size="11" fill="#111827">+teamId</text><text x="1040" y="331" font-family="Consolas, monospace" font-size="11" fill="#111827">+teamName</text><text x="1040" y="348" font-family="Consolas, monospace" font-size="11" fill="#111827">+description</text><text x="1040" y="365" font-family="Consolas, monospace" font-size="11" fill="#111827">+adminId</text><text x="1040" y="382" font-family="Consolas, monospace" font-size="11" fill="#111827">+createdAt</text><rect x="1290" y="255" width="230" height="146" rx="0" fill="#fff" stroke="#111827" stroke-width="1.2"/><line x1="1290" y1="297" x2="1520" y2="297" stroke="#111827" stroke-width="1"/><line x1="1290" y1="377" x2="1520" y2="377" stroke="#111827" stroke-width="1"/><text x="1405" y="270" text-anchor="middle" font-family="Arial, sans-serif" font-size="11" fill="#475569">&lt;&lt;entity&gt;&gt;</text><text x="1405" y="287" text-anchor="middle" font-family="Arial, sans-serif" font-size="14" font-weight="700" fill="#111827">TeamMember</text><text x="1300" y="314" font-family="Consolas, monospace" font-size="11" fill="#111827">+teamMemberId</text><text x="1300" y="331" font-family="Consolas, monospace" font-size="11" fill="#111827">+teamId</text><text x="1300" y="348" font-family="Consolas, monospace" font-size="11" fill="#111827">+memberId</text><text x="1300" y="365" font-family="Consolas, monospace" font-size="11" fill="#111827">+joinedAt</text><rect x="1030" y="455" width="230" height="180" rx="0" fill="#fff" stroke="#111827" stroke-width="1.2"/><line x1="1030" y1="497" x2="1260" y2="497" stroke="#111827" stroke-width="1"/><line x1="1030" y1="611" x2="1260" y2="611" stroke="#111827" stroke-width="1"/><text x="1145" y="470" text-anchor="middle" font-family="Arial, sans-serif" font-size="11" fill="#475569">&lt;&lt;entity&gt;&gt;</text><text x="1145" y="487" text-anchor="middle" font-family="Arial, sans-serif" font-size="14" font-weight="700" fill="#111827">ScheduleBlock</text><text x="1040" y="514" font-family="Consolas, monospace" font-size="11" fill="#111827">+scheduleId</text><text x="1040" y="531" font-family="Consolas, monospace" font-size="11" fill="#111827">+teamId</text><text x="1040" y="548" font-family="Consolas, monospace" font-size="11" fill="#111827">+memberId</text><text x="1040" y="565" font-family="Consolas, monospace" font-size="11" fill="#111827">+day</text><text x="1040" y="582" font-family="Consolas, monospace" font-size="11" fill="#111827">+startTime</text><text x="1040" y="599" font-family="Consolas, monospace" font-size="11" fill="#111827">+endTime</text><rect x="1030" y="655" width="230" height="180" rx="0" fill="#fff" stroke="#111827" stroke-width="1.2"/><line x1="1030" y1="697" x2="1260" y2="697" stroke="#111827" stroke-width="1"/><line x1="1030" y1="811" x2="1260" y2="811" stroke="#111827" stroke-width="1"/><text x="1145" y="670" text-anchor="middle" font-family="Arial, sans-serif" font-size="11" fill="#475569">&lt;&lt;entity&gt;&gt;</text><text x="1145" y="687" text-anchor="middle" font-family="Arial, sans-serif" font-size="14" font-weight="700" fill="#111827">Task</text><text x="1040" y="714" font-family="Consolas, monospace" font-size="11" fill="#111827">+taskId</text><text x="1040" y="731" font-family="Consolas, monospace" font-size="11" fill="#111827">+teamId</text><text x="1040" y="748" font-family="Consolas, monospace" font-size="11" fill="#111827">+title</text><text x="1040" y="765" font-family="Consolas, monospace" font-size="11" fill="#111827">+assigneeId</text><text x="1040" y="782" font-family="Consolas, monospace" font-size="11" fill="#111827">+dueDate</text><text x="1040" y="799" font-family="Consolas, monospace" font-size="11" fill="#111827">+status</text><rect x="1290" y="655" width="230" height="180" rx="0" fill="#fff" stroke="#111827" stroke-width="1.2"/><line x1="1290" y1="697" x2="1520" y2="697" stroke="#111827" stroke-width="1"/><line x1="1290" y1="811" x2="1520" y2="811" stroke="#111827" stroke-width="1"/><text x="1405" y="670" text-anchor="middle" font-family="Arial, sans-serif" font-size="11" fill="#475569">&lt;&lt;entity&gt;&gt;</text><text x="1405" y="687" text-anchor="middle" font-family="Arial, sans-serif" font-size="14" font-weight="700" fill="#111827">Submission</text><text x="1300" y="714" font-family="Consolas, monospace" font-size="11" fill="#111827">+submissionId</text><text x="1300" y="731" font-family="Consolas, monospace" font-size="11" fill="#111827">+taskId</text><text x="1300" y="748" font-family="Consolas, monospace" font-size="11" fill="#111827">+memberId</text><text x="1300" y="765" font-family="Consolas, monospace" font-size="11" fill="#111827">+fileUrl</text><text x="1300" y="782" font-family="Consolas, monospace" font-size="11" fill="#111827">+status</text><text x="1300" y="799" font-family="Consolas, monospace" font-size="11" fill="#111827">+submittedAt</text><rect x="1030" y="865" width="230" height="163" rx="0" fill="#fff" stroke="#111827" stroke-width="1.2"/><line x1="1030" y1="907" x2="1260" y2="907" stroke="#111827" stroke-width="1"/><line x1="1030" y1="1004" x2="1260" y2="1004" stroke="#111827" stroke-width="1"/><text x="1145" y="880" text-anchor="middle" font-family="Arial, sans-serif" font-size="11" fill="#475569">&lt;&lt;entity&gt;&gt;</text><text x="1145" y="897" text-anchor="middle" font-family="Arial, sans-serif" font-size="14" font-weight="700" fill="#111827">Event</text><text x="1040" y="924" font-family="Consolas, monospace" font-size="11" fill="#111827">+eventId</text><text x="1040" y="941" font-family="Consolas, monospace" font-size="11" fill="#111827">+teamId</text><text x="1040" y="958" font-family="Consolas, monospace" font-size="11" fill="#111827">+title</text><text x="1040" y="975" font-family="Consolas, monospace" font-size="11" fill="#111827">+voteDeadline</text><text x="1040" y="992" font-family="Consolas, monospace" font-size="11" fill="#111827">+status</text><rect x="1290" y="865" width="230" height="163" rx="0" fill="#fff" stroke="#111827" stroke-width="1.2"/><line x1="1290" y1="907" x2="1520" y2="907" stroke="#111827" stroke-width="1"/><line x1="1290" y1="1004" x2="1520" y2="1004" stroke="#111827" stroke-width="1"/><text x="1405" y="880" text-anchor="middle" font-family="Arial, sans-serif" font-size="11" fill="#475569">&lt;&lt;entity&gt;&gt;</text><text x="1405" y="897" text-anchor="middle" font-family="Arial, sans-serif" font-size="14" font-weight="700" fill="#111827">Vote</text><text x="1300" y="924" font-family="Consolas, monospace" font-size="11" fill="#111827">+voteId</text><text x="1300" y="941" font-family="Consolas, monospace" font-size="11" fill="#111827">+eventId</text><text x="1300" y="958" font-family="Consolas, monospace" font-size="11" fill="#111827">+memberId</text><text x="1300" y="975" font-family="Consolas, monospace" font-size="11" fill="#111827">+status</text><text x="1300" y="992" font-family="Consolas, monospace" font-size="11" fill="#111827">+votedAt</text><rect x="1030" y="1060" width="230" height="163" rx="0" fill="#fff" stroke="#111827" stroke-width="1.2"/><line x1="1030" y1="1102" x2="1260" y2="1102" stroke="#111827" stroke-width="1"/><line x1="1030" y1="1199" x2="1260" y2="1199" stroke="#111827" stroke-width="1"/><text x="1145" y="1075" text-anchor="middle" font-family="Arial, sans-serif" font-size="11" fill="#475569">&lt;&lt;entity&gt;&gt;</text><text x="1145" y="1092" text-anchor="middle" font-family="Arial, sans-serif" font-size="14" font-weight="700" fill="#111827">TeamWorkspace</text><text x="1040" y="1119" font-family="Consolas, monospace" font-size="11" fill="#111827">+workspaceId</text><text x="1040" y="1136" font-family="Consolas, monospace" font-size="11" fill="#111827">+eventId</text><text x="1040" y="1153" font-family="Consolas, monospace" font-size="11" fill="#111827">+workspaceName</text><text x="1040" y="1170" font-family="Consolas, monospace" font-size="11" fill="#111827">+participants</text><text x="1040" y="1187" font-family="Consolas, monospace" font-size="11" fill="#111827">+createdAt</text></svg>