<svg xmlns="http://www.w3.org/2000/svg" width="1600" height="1230" viewBox="0 0 1600 1230">
<defs>
  <marker id="arrow" viewBox="0 0 10 10" refX="9" refY="5" markerWidth="7" markerHeight="7" orient="auto"><path d="M0 0 L10 5 L0 10 z" fill="#111827"/></marker>
  <marker id="hollowArrow" viewBox="0 0 10 10" refX="9" refY="5" markerWidth="7" markerHeight="7" orient="auto"><path d="M0 0 L10 5 L0 10 z" fill="#fbfbfb" stroke="#111827"/></marker>
  <marker id="diamond" viewBox="0 0 16 10" refX="1" refY="5" markerWidth="11" markerHeight="9" orient="auto"><path d="M1 5 L8 1 L15 5 L8 9 z" fill="#111827" stroke="#111827"/></marker>
</defs>
<rect width="100%" height="100%" fill="#ffffff"/>
<rect x="18" y="18" width="1564" height="1194" fill="none" stroke="#111827" stroke-width="1"/>
<path d="M18 18 H220 L244 42 V58 H18 Z" fill="#fffef9" stroke="#111827" stroke-width="1"/>
<text x="36" y="39" font-family="Arial, sans-serif" font-size="13">class</text>
<text x="84" y="39" font-family="Arial, sans-serif" font-size="13" font-weight="700">Jo:YUl Domain Model</text><rect x="60" y="100" width="310" height="252" fill="#fffef9" stroke="#111827" stroke-width="1.2"/><line x1="60" y1="144" x2="370" y2="144" stroke="#111827"/><line x1="60" y1="266" x2="370" y2="266" stroke="#111827"/><text x="215" y="115" text-anchor="middle" font-family="Arial, sans-serif" font-size="11" fill="#475569">&lt;&lt;entity&gt;&gt;</text><text x="215" y="134" text-anchor="middle" font-family="Arial, sans-serif" font-size="14" font-weight="700" fill="#111827">Member</text><text x="72" y="162" font-family="Consolas, monospace" font-size="11">+memberId</text><text x="72" y="180" font-family="Consolas, monospace" font-size="11">+supabaseUserId</text><text x="72" y="198" font-family="Consolas, monospace" font-size="11">+studentNo</text><text x="72" y="216" font-family="Consolas, monospace" font-size="11">+name</text><text x="72" y="234" font-family="Consolas, monospace" font-size="11">+email</text><text x="72" y="252" font-family="Consolas, monospace" font-size="11">+role</text><text x="72" y="284" font-family="Consolas, monospace" font-size="11">+register()</text><text x="72" y="302" font-family="Consolas, monospace" font-size="11">+login()</text><text x="72" y="320" font-family="Consolas, monospace" font-size="11">+joinTeam()</text><text x="72" y="338" font-family="Consolas, monospace" font-size="11">+voteEvent()</text><rect x="60" y="420" width="310" height="162" fill="#fffef9" stroke="#111827" stroke-width="1.2"/><line x1="60" y1="464" x2="370" y2="464" stroke="#111827"/><line x1="60" y1="496" x2="370" y2="496" stroke="#111827"/><text x="215" y="435" text-anchor="middle" font-family="Arial, sans-serif" font-size="11" fill="#475569">&lt;&lt;entity&gt;&gt;</text><text x="215" y="454" text-anchor="middle" font-family="Arial, sans-serif" font-size="14" font-weight="700" fill="#111827">Administrator</text><text x="72" y="482" font-family="Consolas, monospace" font-size="11">+adminLevel</text><text x="72" y="514" font-family="Consolas, monospace" font-size="11">+createTeam()</text><text x="72" y="532" font-family="Consolas, monospace" font-size="11">+inviteMember()</text><text x="72" y="550" font-family="Consolas, monospace" font-size="11">+confirmSchedule()</text><text x="72" y="568" font-family="Consolas, monospace" font-size="11">+approveSubmission()</text><rect x="60" y="690" width="310" height="198" fill="#fffef9" stroke="#111827" stroke-width="1.2"/><line x1="60" y1="734" x2="370" y2="734" stroke="#111827"/><line x1="60" y1="838" x2="370" y2="838" stroke="#111827"/><text x="215" y="705" text-anchor="middle" font-family="Arial, sans-serif" font-size="11" fill="#475569">&lt;&lt;entity&gt;&gt;</text><text x="215" y="724" text-anchor="middle" font-family="Arial, sans-serif" font-size="14" font-weight="700" fill="#111827">AuthAccount</text><text x="72" y="752" font-family="Consolas, monospace" font-size="11">+authUserId</text><text x="72" y="770" font-family="Consolas, monospace" font-size="11">+email</text><text x="72" y="788" font-family="Consolas, monospace" font-size="11">+passwordHash</text><text x="72" y="806" font-family="Consolas, monospace" font-size="11">+lastLoginAt</text><text x="72" y="824" font-family="Consolas, monospace" font-size="11">+verified</text><text x="72" y="856" font-family="Consolas, monospace" font-size="11">+authenticate()</text><text x="72" y="874" font-family="Consolas, monospace" font-size="11">+refreshSession()</text><rect x="60" y="950" width="310" height="216" fill="#fffef9" stroke="#111827" stroke-width="1.2"/><line x1="60" y1="994" x2="370" y2="994" stroke="#111827"/><line x1="60" y1="1116" x2="370" y2="1116" stroke="#111827"/><text x="215" y="965" text-anchor="middle" font-family="Arial, sans-serif" font-size="11" fill="#475569">&lt;&lt;entity&gt;&gt;</text><text x="215" y="984" text-anchor="middle" font-family="Arial, sans-serif" font-size="14" font-weight="700" fill="#111827">Notification</text><text x="72" y="1012" font-family="Consolas, monospace" font-size="11">+notificationId</text><text x="72" y="1030" font-family="Consolas, monospace" font-size="11">+receiverId</text><text x="72" y="1048" font-family="Consolas, monospace" font-size="11">+type</text><text x="72" y="1066" font-family="Consolas, monospace" font-size="11">+content</text><text x="72" y="1084" font-family="Consolas, monospace" font-size="11">+isRead</text><text x="72" y="1102" font-family="Consolas, monospace" font-size="11">+createdAt</text><text x="72" y="1134" font-family="Consolas, monospace" font-size="11">+send()</text><text x="72" y="1152" font-family="Consolas, monospace" font-size="11">+markRead()</text><rect x="450" y="100" width="310" height="252" fill="#fffef9" stroke="#111827" stroke-width="1.2"/><line x1="450" y1="144" x2="760" y2="144" stroke="#111827"/><line x1="450" y1="266" x2="760" y2="266" stroke="#111827"/><text x="605" y="115" text-anchor="middle" font-family="Arial, sans-serif" font-size="11" fill="#475569">&lt;&lt;aggregate root&gt;&gt;</text><text x="605" y="134" text-anchor="middle" font-family="Arial, sans-serif" font-size="14" font-weight="700" fill="#111827">Team</text><text x="462" y="162" font-family="Consolas, monospace" font-size="11">+teamId</text><text x="462" y="180" font-family="Consolas, monospace" font-size="11">+teamName</text><text x="462" y="198" font-family="Consolas, monospace" font-size="11">+description</text><text x="462" y="216" font-family="Consolas, monospace" font-size="11">+adminId</text><text x="462" y="234" font-family="Consolas, monospace" font-size="11">+createdAt</text><text x="462" y="252" font-family="Consolas, monospace" font-size="11">+status</text><text x="462" y="284" font-family="Consolas, monospace" font-size="11">+addMember()</text><text x="462" y="302" font-family="Consolas, monospace" font-size="11">+removeMember()</text><text x="462" y="320" font-family="Consolas, monospace" font-size="11">+createTask()</text><text x="462" y="338" font-family="Consolas, monospace" font-size="11">+openEvent()</text><rect x="450" y="420" width="310" height="198" fill="#fffef9" stroke="#111827" stroke-width="1.2"/><line x1="450" y1="464" x2="760" y2="464" stroke="#111827"/><line x1="450" y1="568" x2="760" y2="568" stroke="#111827"/><text x="605" y="435" text-anchor="middle" font-family="Arial, sans-serif" font-size="11" fill="#475569">&lt;&lt;association&gt;&gt;</text><text x="605" y="454" text-anchor="middle" font-family="Arial, sans-serif" font-size="14" font-weight="700" fill="#111827">TeamMember</text><text x="462" y="482" font-family="Consolas, monospace" font-size="11">+teamMemberId</text><text x="462" y="500" font-family="Consolas, monospace" font-size="11">+teamId</text><text x="462" y="518" font-family="Consolas, monospace" font-size="11">+memberId</text><text x="462" y="536" font-family="Consolas, monospace" font-size="11">+joinedAt</text><text x="462" y="554" font-family="Consolas, monospace" font-size="11">+memberRole</text><text x="462" y="586" font-family="Consolas, monospace" font-size="11">+assignRole()</text><text x="462" y="604" font-family="Consolas, monospace" font-size="11">+leaveTeam()</text><rect x="450" y="690" width="310" height="234" fill="#fffef9" stroke="#111827" stroke-width="1.2"/><line x1="450" y1="734" x2="760" y2="734" stroke="#111827"/><line x1="450" y1="874" x2="760" y2="874" stroke="#111827"/><text x="605" y="705" text-anchor="middle" font-family="Arial, sans-serif" font-size="11" fill="#475569">&lt;&lt;entity&gt;&gt;</text><text x="605" y="724" text-anchor="middle" font-family="Arial, sans-serif" font-size="14" font-weight="700" fill="#111827">ScheduleBlock</text><text x="462" y="752" font-family="Consolas, monospace" font-size="11">+scheduleId</text><text x="462" y="770" font-family="Consolas, monospace" font-size="11">+teamId</text><text x="462" y="788" font-family="Consolas, monospace" font-size="11">+memberId</text><text x="462" y="806" font-family="Consolas, monospace" font-size="11">+dayOfWeek</text><text x="462" y="824" font-family="Consolas, monospace" font-size="11">+startTime</text><text x="462" y="842" font-family="Consolas, monospace" font-size="11">+endTime</text><text x="462" y="860" font-family="Consolas, monospace" font-size="11">+blockType</text><text x="462" y="892" font-family="Consolas, monospace" font-size="11">+overlaps()</text><text x="462" y="910" font-family="Consolas, monospace" font-size="11">+isAvailable()</text><rect x="450" y="950" width="310" height="198" fill="#fffef9" stroke="#111827" stroke-width="1.2"/><line x1="450" y1="994" x2="760" y2="994" stroke="#111827"/><line x1="450" y1="1098" x2="760" y2="1098" stroke="#111827"/><text x="605" y="965" text-anchor="middle" font-family="Arial, sans-serif" font-size="11" fill="#475569">&lt;&lt;value object&gt;&gt;</text><text x="605" y="984" text-anchor="middle" font-family="Arial, sans-serif" font-size="14" font-weight="700" fill="#111827">ScheduleRecommendation</text><text x="462" y="1012" font-family="Consolas, monospace" font-size="11">+recommendationId</text><text x="462" y="1030" font-family="Consolas, monospace" font-size="11">+teamId</text><text x="462" y="1048" font-family="Consolas, monospace" font-size="11">+startTime</text><text x="462" y="1066" font-family="Consolas, monospace" font-size="11">+endTime</text><text x="462" y="1084" font-family="Consolas, monospace" font-size="11">+score</text><text x="462" y="1116" font-family="Consolas, monospace" font-size="11">+calculateScore()</text><text x="462" y="1134" font-family="Consolas, monospace" font-size="11">+rank()</text><rect x="840" y="100" width="310" height="270" fill="#fffef9" stroke="#111827" stroke-width="1.2"/><line x1="840" y1="144" x2="1150" y2="144" stroke="#111827"/><line x1="840" y1="284" x2="1150" y2="284" stroke="#111827"/><text x="995" y="115" text-anchor="middle" font-family="Arial, sans-serif" font-size="11" fill="#475569">&lt;&lt;entity&gt;&gt;</text><text x="995" y="134" text-anchor="middle" font-family="Arial, sans-serif" font-size="14" font-weight="700" fill="#111827">Task</text><text x="852" y="162" font-family="Consolas, monospace" font-size="11">+taskId</text><text x="852" y="180" font-family="Consolas, monospace" font-size="11">+teamId</text><text x="852" y="198" font-family="Consolas, monospace" font-size="11">+title</text><text x="852" y="216" font-family="Consolas, monospace" font-size="11">+description</text><text x="852" y="234" font-family="Consolas, monospace" font-size="11">+assigneeId</text><text x="852" y="252" font-family="Consolas, monospace" font-size="11">+dueDate</text><text x="852" y="270" font-family="Consolas, monospace" font-size="11">+status</text><text x="852" y="302" font-family="Consolas, monospace" font-size="11">+assignTo()</text><text x="852" y="320" font-family="Consolas, monospace" font-size="11">+submit()</text><text x="852" y="338" font-family="Consolas, monospace" font-size="11">+approve()</text><text x="852" y="356" font-family="Consolas, monospace" font-size="11">+reject()</text><rect x="840" y="420" width="310" height="234" fill="#fffef9" stroke="#111827" stroke-width="1.2"/><line x1="840" y1="464" x2="1150" y2="464" stroke="#111827"/><line x1="840" y1="586" x2="1150" y2="586" stroke="#111827"/><text x="995" y="435" text-anchor="middle" font-family="Arial, sans-serif" font-size="11" fill="#475569">&lt;&lt;entity&gt;&gt;</text><text x="995" y="454" text-anchor="middle" font-family="Arial, sans-serif" font-size="14" font-weight="700" fill="#111827">Submission</text><text x="852" y="482" font-family="Consolas, monospace" font-size="11">+submissionId</text><text x="852" y="500" font-family="Consolas, monospace" font-size="11">+taskId</text><text x="852" y="518" font-family="Consolas, monospace" font-size="11">+memberId</text><text x="852" y="536" font-family="Consolas, monospace" font-size="11">+fileUrl</text><text x="852" y="554" font-family="Consolas, monospace" font-size="11">+status</text><text x="852" y="572" font-family="Consolas, monospace" font-size="11">+submittedAt</text><text x="852" y="604" font-family="Consolas, monospace" font-size="11">+markApproved()</text><text x="852" y="622" font-family="Consolas, monospace" font-size="11">+markRejected()</text><text x="852" y="640" font-family="Consolas, monospace" font-size="11">+requestResubmit()</text><rect x="840" y="690" width="310" height="198" fill="#fffef9" stroke="#111827" stroke-width="1.2"/><line x1="840" y1="734" x2="1150" y2="734" stroke="#111827"/><line x1="840" y1="838" x2="1150" y2="838" stroke="#111827"/><text x="995" y="705" text-anchor="middle" font-family="Arial, sans-serif" font-size="11" fill="#475569">&lt;&lt;value object&gt;&gt;</text><text x="995" y="724" text-anchor="middle" font-family="Arial, sans-serif" font-size="14" font-weight="700" fill="#111827">FileAttachment</text><text x="852" y="752" font-family="Consolas, monospace" font-size="11">+fileId</text><text x="852" y="770" font-family="Consolas, monospace" font-size="11">+submissionId</text><text x="852" y="788" font-family="Consolas, monospace" font-size="11">+fileName</text><text x="852" y="806" font-family="Consolas, monospace" font-size="11">+fileUrl</text><text x="852" y="824" font-family="Consolas, monospace" font-size="11">+uploadedAt</text><text x="852" y="856" font-family="Consolas, monospace" font-size="11">+validateType()</text><text x="852" y="874" font-family="Consolas, monospace" font-size="11">+download()</text><rect x="840" y="950" width="310" height="180" fill="#fffef9" stroke="#111827" stroke-width="1.2"/><line x1="840" y1="994" x2="1150" y2="994" stroke="#111827"/><line x1="840" y1="1044" x2="1150" y2="1044" stroke="#111827"/><text x="995" y="965" text-anchor="middle" font-family="Arial, sans-serif" font-size="11" fill="#475569">&lt;&lt;repository&gt;&gt;</text><text x="995" y="984" text-anchor="middle" font-family="Arial, sans-serif" font-size="14" font-weight="700" fill="#111827">DataStore</text><text x="852" y="1012" font-family="Consolas, monospace" font-size="11">-connection</text><text x="852" y="1030" font-family="Consolas, monospace" font-size="11">-tableName</text><text x="852" y="1062" font-family="Consolas, monospace" font-size="11">+save()</text><text x="852" y="1080" font-family="Consolas, monospace" font-size="11">+findById()</text><text x="852" y="1098" font-family="Consolas, monospace" font-size="11">+findAll()</text><text x="852" y="1116" font-family="Consolas, monospace" font-size="11">+update()</text><rect x="1230" y="100" width="310" height="234" fill="#fffef9" stroke="#111827" stroke-width="1.2"/><line x1="1230" y1="144" x2="1540" y2="144" stroke="#111827"/><line x1="1230" y1="266" x2="1540" y2="266" stroke="#111827"/><text x="1385" y="115" text-anchor="middle" font-family="Arial, sans-serif" font-size="11" fill="#475569">&lt;&lt;entity&gt;&gt;</text><text x="1385" y="134" text-anchor="middle" font-family="Arial, sans-serif" font-size="14" font-weight="700" fill="#111827">Event</text><text x="1242" y="162" font-family="Consolas, monospace" font-size="11">+eventId</text><text x="1242" y="180" font-family="Consolas, monospace" font-size="11">+teamId</text><text x="1242" y="198" font-family="Consolas, monospace" font-size="11">+title</text><text x="1242" y="216" font-family="Consolas, monospace" font-size="11">+description</text><text x="1242" y="234" font-family="Consolas, monospace" font-size="11">+voteDeadline</text><text x="1242" y="252" font-family="Consolas, monospace" font-size="11">+status</text><text x="1242" y="284" font-family="Consolas, monospace" font-size="11">+closeVote()</text><text x="1242" y="302" font-family="Consolas, monospace" font-size="11">+cancel()</text><text x="1242" y="320" font-family="Consolas, monospace" font-size="11">+createWorkspace()</text><rect x="1230" y="420" width="310" height="198" fill="#fffef9" stroke="#111827" stroke-width="1.2"/><line x1="1230" y1="464" x2="1540" y2="464" stroke="#111827"/><line x1="1230" y1="568" x2="1540" y2="568" stroke="#111827"/><text x="1385" y="435" text-anchor="middle" font-family="Arial, sans-serif" font-size="11" fill="#475569">&lt;&lt;entity&gt;&gt;</text><text x="1385" y="454" text-anchor="middle" font-family="Arial, sans-serif" font-size="14" font-weight="700" fill="#111827">Vote</text><text x="1242" y="482" font-family="Consolas, monospace" font-size="11">+voteId</text><text x="1242" y="500" font-family="Consolas, monospace" font-size="11">+eventId</text><text x="1242" y="518" font-family="Consolas, monospace" font-size="11">+memberId</text><text x="1242" y="536" font-family="Consolas, monospace" font-size="11">+voteStatus</text><text x="1242" y="554" font-family="Consolas, monospace" font-size="11">+votedAt</text><text x="1242" y="586" font-family="Consolas, monospace" font-size="11">+submit()</text><text x="1242" y="604" font-family="Consolas, monospace" font-size="11">+cancelVote()</text><rect x="1230" y="690" width="310" height="180" fill="#fffef9" stroke="#111827" stroke-width="1.2"/><line x1="1230" y1="734" x2="1540" y2="734" stroke="#111827"/><line x1="1230" y1="820" x2="1540" y2="820" stroke="#111827"/><text x="1385" y="705" text-anchor="middle" font-family="Arial, sans-serif" font-size="11" fill="#475569">&lt;&lt;entity&gt;&gt;</text><text x="1385" y="724" text-anchor="middle" font-family="Arial, sans-serif" font-size="14" font-weight="700" fill="#111827">TeamWorkspace</text><text x="1242" y="752" font-family="Consolas, monospace" font-size="11">+workspaceId</text><text x="1242" y="770" font-family="Consolas, monospace" font-size="11">+eventId</text><text x="1242" y="788" font-family="Consolas, monospace" font-size="11">+workspaceName</text><text x="1242" y="806" font-family="Consolas, monospace" font-size="11">+createdAt</text><text x="1242" y="838" font-family="Consolas, monospace" font-size="11">+addParticipant()</text><text x="1242" y="856" font-family="Consolas, monospace" font-size="11">+postMessage()</text><rect x="1230" y="950" width="310" height="198" fill="#fffef9" stroke="#111827" stroke-width="1.2"/><line x1="1230" y1="994" x2="1540" y2="994" stroke="#111827"/><line x1="1230" y1="1098" x2="1540" y2="1098" stroke="#111827"/><text x="1385" y="965" text-anchor="middle" font-family="Arial, sans-serif" font-size="11" fill="#475569">&lt;&lt;entity&gt;&gt;</text><text x="1385" y="984" text-anchor="middle" font-family="Arial, sans-serif" font-size="14" font-weight="700" fill="#111827">WorkspaceMessage</text><text x="1242" y="1012" font-family="Consolas, monospace" font-size="11">+messageId</text><text x="1242" y="1030" font-family="Consolas, monospace" font-size="11">+workspaceId</text><text x="1242" y="1048" font-family="Consolas, monospace" font-size="11">+senderId</text><text x="1242" y="1066" font-family="Consolas, monospace" font-size="11">+content</text><text x="1242" y="1084" font-family="Consolas, monospace" font-size="11">+sentAt</text><text x="1242" y="1116" font-family="Consolas, monospace" font-size="11">+edit()</text><text x="1242" y="1134" font-family="Consolas, monospace" font-size="11">+delete()</text><path d="M215 420 V350" fill="none" stroke="#111827" stroke-width="1.05" marker-end="url(#hollowArrow)"/><path d="M370 220 H405 V510 H450" fill="none" stroke="#111827" stroke-width="1.05"/><text x="398" y="485" text-anchor="middle" font-family="Arial, sans-serif" font-size="11" font-weight="400" fill="#111827">joins</text><text x="382" y="210" text-anchor="middle" font-family="Arial, sans-serif" font-size="11" fill="#111827">1</text><text x="432" y="500" text-anchor="middle" font-family="Arial, sans-serif" font-size="11" fill="#111827">0..*</text><path d="M605 352 V365 H605 V420" fill="none" stroke="#111827" stroke-width="1.05" marker-start="url(#diamond)"/><text x="590" y="382" text-anchor="middle" font-family="Arial, sans-serif" font-size="11" fill="#111827">1</text><text x="632" y="412" text-anchor="middle" font-family="Arial, sans-serif" font-size="11" fill="#111827">1..*</text><path d="M760 220 H800 V775 H760" fill="none" stroke="#111827" stroke-width="1.05" marker-start="url(#diamond)"/><text x="774" y="210" text-anchor="middle" font-family="Arial, sans-serif" font-size="11" fill="#111827">1</text><text x="774" y="765" text-anchor="middle" font-family="Arial, sans-serif" font-size="11" fill="#111827">0..*</text><path d="M760 250 H815 V1030 H760" fill="none" stroke="#111827" stroke-width="1.05" marker-start="url(#diamond)"/><text x="790" y="242" text-anchor="middle" font-family="Arial, sans-serif" font-size="11" fill="#111827">1</text><text x="790" y="1020" text-anchor="middle" font-family="Arial, sans-serif" font-size="11" fill="#111827">0..*</text><path d="M760 165 H840" fill="none" stroke="#111827" stroke-width="1.05" marker-start="url(#diamond)"/><text x="775" y="154" text-anchor="middle" font-family="Arial, sans-serif" font-size="11" fill="#111827">1</text><text x="825" y="154" text-anchor="middle" font-family="Arial, sans-serif" font-size="11" fill="#111827">0..*</text><path d="M605 100 V72 H1385 V100" fill="none" stroke="#111827" stroke-width="1.05" marker-start="url(#diamond)"/><text x="620" y="94" text-anchor="middle" font-family="Arial, sans-serif" font-size="11" fill="#111827">1</text><text x="1368" y="94" text-anchor="middle" font-family="Arial, sans-serif" font-size="11" fill="#111827">0..*</text><path d="M995 370 V370 H995 V420" fill="none" stroke="#111827" stroke-width="1.05" marker-start="url(#diamond)"/><text x="980" y="392" text-anchor="middle" font-family="Arial, sans-serif" font-size="11" fill="#111827">1</text><text x="1018" y="410" text-anchor="middle" font-family="Arial, sans-serif" font-size="11" fill="#111827">0..*</text><path d="M995 654 V655 H995 V690" fill="none" stroke="#111827" stroke-width="1.05" marker-start="url(#diamond)"/><text x="980" y="675" text-anchor="middle" font-family="Arial, sans-serif" font-size="11" fill="#111827">1</text><text x="1018" y="680" text-anchor="middle" font-family="Arial, sans-serif" font-size="11" fill="#111827">0..*</text><path d="M1385 334 V370 H1385 V420" fill="none" stroke="#111827" stroke-width="1.05" marker-start="url(#diamond)"/><text x="1370" y="374" text-anchor="middle" font-family="Arial, sans-serif" font-size="11" fill="#111827">1</text><text x="1408" y="410" text-anchor="middle" font-family="Arial, sans-serif" font-size="11" fill="#111827">0..*</text><path d="M1540 205 H1565 V775 H1540" fill="none" stroke="#111827" stroke-width="1.05" marker-start="url(#diamond)"/><text x="1552" y="195" text-anchor="middle" font-family="Arial, sans-serif" font-size="11" fill="#111827">1</text><text x="1552" y="765" text-anchor="middle" font-family="Arial, sans-serif" font-size="11" fill="#111827">0..1</text><path d="M1385 870 V915 H1385 V950" fill="none" stroke="#111827" stroke-width="1.05" marker-start="url(#diamond)"/><text x="1370" y="910" text-anchor="middle" font-family="Arial, sans-serif" font-size="11" fill="#111827">1</text><text x="1408" y="940" text-anchor="middle" font-family="Arial, sans-serif" font-size="11" fill="#111827">0..*</text><path d="M60 220 H42 V1030 H60" fill="none" stroke="#111827" stroke-width="1.05"/><text x="78" y="930" text-anchor="middle" font-family="Arial, sans-serif" font-size="11" font-weight="400" fill="#111827">receives</text><text x="48" y="210" text-anchor="start" font-family="Arial, sans-serif" font-size="11" fill="#111827">1</text><text x="48" y="1020" text-anchor="start" font-family="Arial, sans-serif" font-size="11" fill="#111827">0..*</text></svg>