<svg xmlns="http://www.w3.org/2000/svg" width="1810" height="1435" viewBox="0 0 1810 1435">
<defs>
  <marker id="arrow" viewBox="0 0 10 10" refX="9" refY="5" markerWidth="7" markerHeight="7" orient="auto"><path d="M0 0 L10 5 L0 10 z" fill="#111827"/></marker>
  <marker id="hollowArrow" viewBox="0 0 10 10" refX="9" refY="5" markerWidth="7" markerHeight="7" orient="auto"><path d="M0 0 L10 5 L0 10 z" fill="#fbfbfb" stroke="#111827"/></marker>
  <marker id="diamond" viewBox="0 0 16 10" refX="1" refY="5" markerWidth="11" markerHeight="9" orient="auto"><path d="M1 5 L8 1 L15 5 L8 9 z" fill="#111827" stroke="#111827"/></marker>
</defs>
<rect width="100%" height="100%" fill="#ffffff"/>
<rect x="18" y="18" width="1774" height="1399" fill="none" stroke="#111827" stroke-width="1"/>
<path d="M18 18 H190 L214 42 V58 H18 Z" fill="#fffef9" stroke="#111827" stroke-width="1"/>
<text x="36" y="39" font-family="Arial, sans-serif" font-size="13">class</text>
<text x="78" y="39" font-family="Arial, sans-serif" font-size="13" font-weight="700">Jo:YUl Design</text><rect x="55" y="90" width="270" height="129" fill="#fffef9" stroke="#111827" stroke-width="1.2"/><line x1="55" y1="132" x2="325" y2="132" stroke="#111827"/><line x1="55" y1="156" x2="325" y2="156" stroke="#111827"/><text x="190" y="105" text-anchor="middle" font-family="Arial, sans-serif" font-size="11" fill="#475569">&lt;&lt;boundary&gt;&gt;</text><text x="190" y="122" text-anchor="middle" font-family="Arial, sans-serif" font-size="14" font-weight="700" fill="#111827">LoginUI</text><text x="65" y="173" font-family="Consolas, monospace" font-size="11">+requestLogin()</text><text x="65" y="190" font-family="Consolas, monospace" font-size="11">+openRegisterUI()</text><text x="65" y="207" font-family="Consolas, monospace" font-size="11">+showError()</text><rect x="55" y="245" width="270" height="129" fill="#fffef9" stroke="#111827" stroke-width="1.2"/><line x1="55" y1="287" x2="325" y2="287" stroke="#111827"/><line x1="55" y1="311" x2="325" y2="311" stroke="#111827"/><text x="190" y="260" text-anchor="middle" font-family="Arial, sans-serif" font-size="11" fill="#475569">&lt;&lt;boundary&gt;&gt;</text><text x="190" y="277" text-anchor="middle" font-family="Arial, sans-serif" font-size="14" font-weight="700" fill="#111827">RegisterUI</text><text x="65" y="328" font-family="Consolas, monospace" font-size="11">+submitRegister()</text><text x="65" y="345" font-family="Consolas, monospace" font-size="11">+showSuccess()</text><text x="65" y="362" font-family="Consolas, monospace" font-size="11">+showError()</text><rect x="55" y="400" width="270" height="112" fill="#fffef9" stroke="#111827" stroke-width="1.2"/><line x1="55" y1="442" x2="325" y2="442" stroke="#111827"/><line x1="55" y1="466" x2="325" y2="466" stroke="#111827"/><text x="190" y="415" text-anchor="middle" font-family="Arial, sans-serif" font-size="11" fill="#475569">&lt;&lt;boundary&gt;&gt;</text><text x="190" y="432" text-anchor="middle" font-family="Arial, sans-serif" font-size="14" font-weight="700" fill="#111827">HomeUI</text><text x="65" y="483" font-family="Consolas, monospace" font-size="11">+showHome()</text><text x="65" y="500" font-family="Consolas, monospace" font-size="11">+updateTeamList()</text><rect x="55" y="545" width="270" height="129" fill="#fffef9" stroke="#111827" stroke-width="1.2"/><line x1="55" y1="587" x2="325" y2="587" stroke="#111827"/><line x1="55" y1="611" x2="325" y2="611" stroke="#111827"/><text x="190" y="560" text-anchor="middle" font-family="Arial, sans-serif" font-size="11" fill="#475569">&lt;&lt;boundary&gt;&gt;</text><text x="190" y="577" text-anchor="middle" font-family="Arial, sans-serif" font-size="14" font-weight="700" fill="#111827">TeamUI</text><text x="65" y="628" font-family="Consolas, monospace" font-size="11">+submitTeamData()</text><text x="65" y="645" font-family="Consolas, monospace" font-size="11">+selectInviteMember()</text><text x="65" y="662" font-family="Consolas, monospace" font-size="11">+showInviteResult()</text><rect x="55" y="710" width="270" height="129" fill="#fffef9" stroke="#111827" stroke-width="1.2"/><line x1="55" y1="752" x2="325" y2="752" stroke="#111827"/><line x1="55" y1="776" x2="325" y2="776" stroke="#111827"/><text x="190" y="725" text-anchor="middle" font-family="Arial, sans-serif" font-size="11" fill="#475569">&lt;&lt;boundary&gt;&gt;</text><text x="190" y="742" text-anchor="middle" font-family="Arial, sans-serif" font-size="14" font-weight="700" fill="#111827">ScheduleUI</text><text x="65" y="793" font-family="Consolas, monospace" font-size="11">+selectUnavailableTime()</text><text x="65" y="810" font-family="Consolas, monospace" font-size="11">+requestRecommendation()</text><text x="65" y="827" font-family="Consolas, monospace" font-size="11">+confirmSchedule()</text><rect x="55" y="875" width="270" height="129" fill="#fffef9" stroke="#111827" stroke-width="1.2"/><line x1="55" y1="917" x2="325" y2="917" stroke="#111827"/><line x1="55" y1="941" x2="325" y2="941" stroke="#111827"/><text x="190" y="890" text-anchor="middle" font-family="Arial, sans-serif" font-size="11" fill="#475569">&lt;&lt;boundary&gt;&gt;</text><text x="190" y="907" text-anchor="middle" font-family="Arial, sans-serif" font-size="14" font-weight="700" fill="#111827">TaskBoardUI</text><text x="65" y="958" font-family="Consolas, monospace" font-size="11">+requestUpload()</text><text x="65" y="975" font-family="Consolas, monospace" font-size="11">+showSubmissionDetail()</text><text x="65" y="992" font-family="Consolas, monospace" font-size="11">+requestApproval()</text><rect x="55" y="1040" width="270" height="129" fill="#fffef9" stroke="#111827" stroke-width="1.2"/><line x1="55" y1="1082" x2="325" y2="1082" stroke="#111827"/><line x1="55" y1="1106" x2="325" y2="1106" stroke="#111827"/><text x="190" y="1055" text-anchor="middle" font-family="Arial, sans-serif" font-size="11" fill="#475569">&lt;&lt;boundary&gt;&gt;</text><text x="190" y="1072" text-anchor="middle" font-family="Arial, sans-serif" font-size="14" font-weight="700" fill="#111827">EventUI</text><text x="65" y="1123" font-family="Consolas, monospace" font-size="11">+submitEventData()</text><text x="65" y="1140" font-family="Consolas, monospace" font-size="11">+submitVote()</text><text x="65" y="1157" font-family="Consolas, monospace" font-size="11">+requestDecision()</text><rect x="55" y="1205" width="270" height="112" fill="#fffef9" stroke="#111827" stroke-width="1.2"/><line x1="55" y1="1247" x2="325" y2="1247" stroke="#111827"/><line x1="55" y1="1271" x2="325" y2="1271" stroke="#111827"/><text x="190" y="1220" text-anchor="middle" font-family="Arial, sans-serif" font-size="11" fill="#475569">&lt;&lt;boundary&gt;&gt;</text><text x="190" y="1237" text-anchor="middle" font-family="Arial, sans-serif" font-size="14" font-weight="700" fill="#111827">WorkspaceUI</text><text x="65" y="1288" font-family="Consolas, monospace" font-size="11">+submitMessage()</text><text x="65" y="1305" font-family="Consolas, monospace" font-size="11">+updateMessageList()</text><rect x="410" y="110" width="270" height="146" fill="#fffef9" stroke="#111827" stroke-width="1.2"/><line x1="410" y1="152" x2="680" y2="152" stroke="#111827"/><line x1="410" y1="176" x2="680" y2="176" stroke="#111827"/><text x="545" y="125" text-anchor="middle" font-family="Arial, sans-serif" font-size="11" fill="#475569">&lt;&lt;control&gt;&gt;</text><text x="545" y="142" text-anchor="middle" font-family="Arial, sans-serif" font-size="14" font-weight="700" fill="#111827">AuthService</text><text x="420" y="193" font-family="Consolas, monospace" font-size="11">+registerMember()</text><text x="420" y="210" font-family="Consolas, monospace" font-size="11">+login()</text><text x="420" y="227" font-family="Consolas, monospace" font-size="11">+validateInput()</text><text x="420" y="244" font-family="Consolas, monospace" font-size="11">+createMemberProfile()</text><rect x="410" y="335" width="270" height="112" fill="#fffef9" stroke="#111827" stroke-width="1.2"/><line x1="410" y1="377" x2="680" y2="377" stroke="#111827"/><line x1="410" y1="401" x2="680" y2="401" stroke="#111827"/><text x="545" y="350" text-anchor="middle" font-family="Arial, sans-serif" font-size="11" fill="#475569">&lt;&lt;control&gt;&gt;</text><text x="545" y="367" text-anchor="middle" font-family="Arial, sans-serif" font-size="14" font-weight="700" fill="#111827">TeamService</text><text x="420" y="418" font-family="Consolas, monospace" font-size="11">+createTeam()</text><text x="420" y="435" font-family="Consolas, monospace" font-size="11">+inviteMember()</text><rect x="410" y="550" width="270" height="129" fill="#fffef9" stroke="#111827" stroke-width="1.2"/><line x1="410" y1="592" x2="680" y2="592" stroke="#111827"/><line x1="410" y1="616" x2="680" y2="616" stroke="#111827"/><text x="545" y="565" text-anchor="middle" font-family="Arial, sans-serif" font-size="11" fill="#475569">&lt;&lt;control&gt;&gt;</text><text x="545" y="582" text-anchor="middle" font-family="Arial, sans-serif" font-size="14" font-weight="700" fill="#111827">ScheduleService</text><text x="420" y="633" font-family="Consolas, monospace" font-size="11">+saveUnavailableTime()</text><text x="420" y="650" font-family="Consolas, monospace" font-size="11">+recommendTime()</text><text x="420" y="667" font-family="Consolas, monospace" font-size="11">+confirmSchedule()</text><rect x="410" y="765" width="270" height="146" fill="#fffef9" stroke="#111827" stroke-width="1.2"/><line x1="410" y1="807" x2="680" y2="807" stroke="#111827"/><line x1="410" y1="831" x2="680" y2="831" stroke="#111827"/><text x="545" y="780" text-anchor="middle" font-family="Arial, sans-serif" font-size="11" fill="#475569">&lt;&lt;control&gt;&gt;</text><text x="545" y="797" text-anchor="middle" font-family="Arial, sans-serif" font-size="14" font-weight="700" fill="#111827">TaskService</text><text x="420" y="848" font-family="Consolas, monospace" font-size="11">+uploadSubmission()</text><text x="420" y="865" font-family="Consolas, monospace" font-size="11">+approveSubmission()</text><text x="420" y="882" font-family="Consolas, monospace" font-size="11">+rejectSubmission()</text><text x="420" y="899" font-family="Consolas, monospace" font-size="11">+calculateProgress()</text><rect x="410" y="1000" width="270" height="129" fill="#fffef9" stroke="#111827" stroke-width="1.2"/><line x1="410" y1="1042" x2="680" y2="1042" stroke="#111827"/><line x1="410" y1="1066" x2="680" y2="1066" stroke="#111827"/><text x="545" y="1015" text-anchor="middle" font-family="Arial, sans-serif" font-size="11" fill="#475569">&lt;&lt;control&gt;&gt;</text><text x="545" y="1032" text-anchor="middle" font-family="Arial, sans-serif" font-size="14" font-weight="700" fill="#111827">EventService</text><text x="420" y="1083" font-family="Consolas, monospace" font-size="11">+createEvent()</text><text x="420" y="1100" font-family="Consolas, monospace" font-size="11">+vote()</text><text x="420" y="1117" font-family="Consolas, monospace" font-size="11">+decideEvent()</text><rect x="410" y="1210" width="270" height="112" fill="#fffef9" stroke="#111827" stroke-width="1.2"/><line x1="410" y1="1252" x2="680" y2="1252" stroke="#111827"/><line x1="410" y1="1276" x2="680" y2="1276" stroke="#111827"/><text x="545" y="1225" text-anchor="middle" font-family="Arial, sans-serif" font-size="11" fill="#475569">&lt;&lt;control&gt;&gt;</text><text x="545" y="1242" text-anchor="middle" font-family="Arial, sans-serif" font-size="14" font-weight="700" fill="#111827">WorkspaceService</text><text x="420" y="1293" font-family="Consolas, monospace" font-size="11">+createWorkspace()</text><text x="420" y="1310" font-family="Consolas, monospace" font-size="11">+sendMessage()</text><rect x="760" y="110" width="270" height="151" fill="#fffef9" stroke="#111827" stroke-width="1.2"/><line x1="760" y1="152" x2="1030" y2="152" stroke="#111827"/><line x1="760" y1="198" x2="1030" y2="198" stroke="#111827"/><text x="895" y="125" text-anchor="middle" font-family="Arial, sans-serif" font-size="11" fill="#475569">&lt;&lt;control&gt;&gt;</text><text x="895" y="142" text-anchor="middle" font-family="Arial, sans-serif" font-size="14" font-weight="700" fill="#111827">SupabaseAuthClient</text><text x="770" y="169" font-family="Consolas, monospace" font-size="11">-supabaseUrl</text><text x="770" y="186" font-family="Consolas, monospace" font-size="11">-anonKey</text><text x="770" y="215" font-family="Consolas, monospace" font-size="11">+signUp()</text><text x="770" y="232" font-family="Consolas, monospace" font-size="11">+signIn()</text><text x="770" y="249" font-family="Consolas, monospace" font-size="11">+handleAuthResponse()</text><rect x="760" y="310" width="270" height="129" fill="#fffef9" stroke="#111827" stroke-width="1.2"/><line x1="760" y1="352" x2="1030" y2="352" stroke="#111827"/><line x1="760" y1="376" x2="1030" y2="376" stroke="#111827"/><text x="895" y="325" text-anchor="middle" font-family="Arial, sans-serif" font-size="11" fill="#475569">&lt;&lt;external&gt;&gt;</text><text x="895" y="342" text-anchor="middle" font-family="Arial, sans-serif" font-size="14" font-weight="700" fill="#111827">SupabaseAuthAPI</text><text x="770" y="393" font-family="Consolas, monospace" font-size="11">+signUpEndpoint()</text><text x="770" y="410" font-family="Consolas, monospace" font-size="11">+passwordLoginEndpoint()</text><text x="770" y="427" font-family="Consolas, monospace" font-size="11">+returnSession()</text><rect x="760" y="560" width="270" height="146" fill="#fffef9" stroke="#111827" stroke-width="1.2"/><line x1="760" y1="602" x2="1030" y2="602" stroke="#111827"/><line x1="760" y1="626" x2="1030" y2="626" stroke="#111827"/><text x="895" y="575" text-anchor="middle" font-family="Arial, sans-serif" font-size="11" fill="#475569">&lt;&lt;storage&gt;&gt;</text><text x="895" y="592" text-anchor="middle" font-family="Arial, sans-serif" font-size="14" font-weight="700" fill="#111827">DataStore</text><text x="770" y="643" font-family="Consolas, monospace" font-size="11">+save()</text><text x="770" y="660" font-family="Consolas, monospace" font-size="11">+findById()</text><text x="770" y="677" font-family="Consolas, monospace" font-size="11">+findAll()</text><text x="770" y="694" font-family="Consolas, monospace" font-size="11">+update()</text><rect x="760" y="780" width="270" height="95" fill="#fffef9" stroke="#111827" stroke-width="1.2"/><line x1="760" y1="822" x2="1030" y2="822" stroke="#111827"/><line x1="760" y1="846" x2="1030" y2="846" stroke="#111827"/><text x="895" y="795" text-anchor="middle" font-family="Arial, sans-serif" font-size="11" fill="#475569">&lt;&lt;storage&gt;&gt;</text><text x="895" y="812" text-anchor="middle" font-family="Arial, sans-serif" font-size="14" font-weight="700" fill="#111827">FileStorage</text><text x="770" y="863" font-family="Consolas, monospace" font-size="11">+upload()</text><rect x="760" y="1000" width="270" height="146" fill="#fffef9" stroke="#111827" stroke-width="1.2"/><line x1="760" y1="1042" x2="1030" y2="1042" stroke="#111827"/><line x1="760" y1="1066" x2="1030" y2="1066" stroke="#111827"/><text x="895" y="1015" text-anchor="middle" font-family="Arial, sans-serif" font-size="11" fill="#475569">&lt;&lt;control&gt;&gt;</text><text x="895" y="1032" text-anchor="middle" font-family="Arial, sans-serif" font-size="14" font-weight="700" fill="#111827">NotificationService</text><text x="770" y="1083" font-family="Consolas, monospace" font-size="11">+sendInvite()</text><text x="770" y="1100" font-family="Consolas, monospace" font-size="11">+sendVoteRequest()</text><text x="770" y="1117" font-family="Consolas, monospace" font-size="11">+sendVoteReminder()</text><text x="770" y="1134" font-family="Consolas, monospace" font-size="11">+sendWorkspaceNotice()</text><rect x="1115" y="90" width="270" height="202" fill="#fffef9" stroke="#111827" stroke-width="1.2"/><line x1="1115" y1="132" x2="1385" y2="132" stroke="#111827"/><line x1="1115" y1="246" x2="1385" y2="246" stroke="#111827"/><text x="1250" y="105" text-anchor="middle" font-family="Arial, sans-serif" font-size="11" fill="#475569">&lt;&lt;entity&gt;&gt;</text><text x="1250" y="122" text-anchor="middle" font-family="Arial, sans-serif" font-size="14" font-weight="700" fill="#111827">Member</text><text x="1125" y="149" font-family="Consolas, monospace" font-size="11">+memberId</text><text x="1125" y="166" font-family="Consolas, monospace" font-size="11">+supabaseUserId</text><text x="1125" y="183" font-family="Consolas, monospace" font-size="11">+studentNo</text><text x="1125" y="200" font-family="Consolas, monospace" font-size="11">+name</text><text x="1125" y="217" font-family="Consolas, monospace" font-size="11">+email</text><text x="1125" y="234" font-family="Consolas, monospace" font-size="11">+role</text><text x="1125" y="263" font-family="Consolas, monospace" font-size="11">+joinTeam()</text><text x="1125" y="280" font-family="Consolas, monospace" font-size="11">+voteEvent()</text><rect x="1115" y="335" width="270" height="202" fill="#fffef9" stroke="#111827" stroke-width="1.2"/><line x1="1115" y1="377" x2="1385" y2="377" stroke="#111827"/><line x1="1115" y1="474" x2="1385" y2="474" stroke="#111827"/><text x="1250" y="350" text-anchor="middle" font-family="Arial, sans-serif" font-size="11" fill="#475569">&lt;&lt;entity&gt;&gt;</text><text x="1250" y="367" text-anchor="middle" font-family="Arial, sans-serif" font-size="14" font-weight="700" fill="#111827">Team</text><text x="1125" y="394" font-family="Consolas, monospace" font-size="11">+teamId</text><text x="1125" y="411" font-family="Consolas, monospace" font-size="11">+teamName</text><text x="1125" y="428" font-family="Consolas, monospace" font-size="11">+description</text><text x="1125" y="445" font-family="Consolas, monospace" font-size="11">+adminId</text><text x="1125" y="462" font-family="Consolas, monospace" font-size="11">+createdAt</text><text x="1125" y="491" font-family="Consolas, monospace" font-size="11">+addMember()</text><text x="1125" y="508" font-family="Consolas, monospace" font-size="11">+createTask()</text><text x="1125" y="525" font-family="Consolas, monospace" font-size="11">+createEvent()</text><rect x="1465" y="335" width="270" height="151" fill="#fffef9" stroke="#111827" stroke-width="1.2"/><line x1="1465" y1="377" x2="1735" y2="377" stroke="#111827"/><line x1="1465" y1="457" x2="1735" y2="457" stroke="#111827"/><text x="1600" y="350" text-anchor="middle" font-family="Arial, sans-serif" font-size="11" fill="#475569">&lt;&lt;entity&gt;&gt;</text><text x="1600" y="367" text-anchor="middle" font-family="Arial, sans-serif" font-size="14" font-weight="700" fill="#111827">TeamMember</text><text x="1475" y="394" font-family="Consolas, monospace" font-size="11">+teamMemberId</text><text x="1475" y="411" font-family="Consolas, monospace" font-size="11">+teamId</text><text x="1475" y="428" font-family="Consolas, monospace" font-size="11">+memberId</text><text x="1475" y="445" font-family="Consolas, monospace" font-size="11">+joinedAt</text><text x="1475" y="474" font-family="Consolas, monospace" font-size="11">+assignRole()</text><rect x="1115" y="560" width="270" height="185" fill="#fffef9" stroke="#111827" stroke-width="1.2"/><line x1="1115" y1="602" x2="1385" y2="602" stroke="#111827"/><line x1="1115" y1="716" x2="1385" y2="716" stroke="#111827"/><text x="1250" y="575" text-anchor="middle" font-family="Arial, sans-serif" font-size="11" fill="#475569">&lt;&lt;entity&gt;&gt;</text><text x="1250" y="592" text-anchor="middle" font-family="Arial, sans-serif" font-size="14" font-weight="700" fill="#111827">ScheduleBlock</text><text x="1125" y="619" font-family="Consolas, monospace" font-size="11">+scheduleId</text><text x="1125" y="636" font-family="Consolas, monospace" font-size="11">+teamId</text><text x="1125" y="653" font-family="Consolas, monospace" font-size="11">+memberId</text><text x="1125" y="670" font-family="Consolas, monospace" font-size="11">+day</text><text x="1125" y="687" font-family="Consolas, monospace" font-size="11">+startTime</text><text x="1125" y="704" font-family="Consolas, monospace" font-size="11">+endTime</text><text x="1125" y="733" font-family="Consolas, monospace" font-size="11">+overlaps()</text><rect x="1115" y="780" width="270" height="219" fill="#fffef9" stroke="#111827" stroke-width="1.2"/><line x1="1115" y1="822" x2="1385" y2="822" stroke="#111827"/><line x1="1115" y1="936" x2="1385" y2="936" stroke="#111827"/><text x="1250" y="795" text-anchor="middle" font-family="Arial, sans-serif" font-size="11" fill="#475569">&lt;&lt;entity&gt;&gt;</text><text x="1250" y="812" text-anchor="middle" font-family="Arial, sans-serif" font-size="14" font-weight="700" fill="#111827">Task</text><text x="1125" y="839" font-family="Consolas, monospace" font-size="11">+taskId</text><text x="1125" y="856" font-family="Consolas, monospace" font-size="11">+teamId</text><text x="1125" y="873" font-family="Consolas, monospace" font-size="11">+title</text><text x="1125" y="890" font-family="Consolas, monospace" font-size="11">+assigneeId</text><text x="1125" y="907" font-family="Consolas, monospace" font-size="11">+dueDate</text><text x="1125" y="924" font-family="Consolas, monospace" font-size="11">+status</text><text x="1125" y="953" font-family="Consolas, monospace" font-size="11">+submit()</text><text x="1125" y="970" font-family="Consolas, monospace" font-size="11">+approve()</text><text x="1125" y="987" font-family="Consolas, monospace" font-size="11">+reject()</text><rect x="1465" y="780" width="270" height="202" fill="#fffef9" stroke="#111827" stroke-width="1.2"/><line x1="1465" y1="822" x2="1735" y2="822" stroke="#111827"/><line x1="1465" y1="936" x2="1735" y2="936" stroke="#111827"/><text x="1600" y="795" text-anchor="middle" font-family="Arial, sans-serif" font-size="11" fill="#475569">&lt;&lt;entity&gt;&gt;</text><text x="1600" y="812" text-anchor="middle" font-family="Arial, sans-serif" font-size="14" font-weight="700" fill="#111827">Submission</text><text x="1475" y="839" font-family="Consolas, monospace" font-size="11">+submissionId</text><text x="1475" y="856" font-family="Consolas, monospace" font-size="11">+taskId</text><text x="1475" y="873" font-family="Consolas, monospace" font-size="11">+memberId</text><text x="1475" y="890" font-family="Consolas, monospace" font-size="11">+fileUrl</text><text x="1475" y="907" font-family="Consolas, monospace" font-size="11">+status</text><text x="1475" y="924" font-family="Consolas, monospace" font-size="11">+submittedAt</text><text x="1475" y="953" font-family="Consolas, monospace" font-size="11">+markApproved()</text><text x="1475" y="970" font-family="Consolas, monospace" font-size="11">+markRejected()</text><rect x="1115" y="1000" width="270" height="185" fill="#fffef9" stroke="#111827" stroke-width="1.2"/><line x1="1115" y1="1042" x2="1385" y2="1042" stroke="#111827"/><line x1="1115" y1="1139" x2="1385" y2="1139" stroke="#111827"/><text x="1250" y="1015" text-anchor="middle" font-family="Arial, sans-serif" font-size="11" fill="#475569">&lt;&lt;entity&gt;&gt;</text><text x="1250" y="1032" text-anchor="middle" font-family="Arial, sans-serif" font-size="14" font-weight="700" fill="#111827">Event</text><text x="1125" y="1059" font-family="Consolas, monospace" font-size="11">+eventId</text><text x="1125" y="1076" font-family="Consolas, monospace" font-size="11">+teamId</text><text x="1125" y="1093" font-family="Consolas, monospace" font-size="11">+title</text><text x="1125" y="1110" font-family="Consolas, monospace" font-size="11">+voteDeadline</text><text x="1125" y="1127" font-family="Consolas, monospace" font-size="11">+status</text><text x="1125" y="1156" font-family="Consolas, monospace" font-size="11">+closeVote()</text><text x="1125" y="1173" font-family="Consolas, monospace" font-size="11">+cancel()</text><rect x="1465" y="1000" width="270" height="168" fill="#fffef9" stroke="#111827" stroke-width="1.2"/><line x1="1465" y1="1042" x2="1735" y2="1042" stroke="#111827"/><line x1="1465" y1="1139" x2="1735" y2="1139" stroke="#111827"/><text x="1600" y="1015" text-anchor="middle" font-family="Arial, sans-serif" font-size="11" fill="#475569">&lt;&lt;entity&gt;&gt;</text><text x="1600" y="1032" text-anchor="middle" font-family="Arial, sans-serif" font-size="14" font-weight="700" fill="#111827">Vote</text><text x="1475" y="1059" font-family="Consolas, monospace" font-size="11">+voteId</text><text x="1475" y="1076" font-family="Consolas, monospace" font-size="11">+eventId</text><text x="1475" y="1093" font-family="Consolas, monospace" font-size="11">+memberId</text><text x="1475" y="1110" font-family="Consolas, monospace" font-size="11">+status</text><text x="1475" y="1127" font-family="Consolas, monospace" font-size="11">+votedAt</text><text x="1475" y="1156" font-family="Consolas, monospace" font-size="11">+submit()</text><rect x="1115" y="1210" width="270" height="168" fill="#fffef9" stroke="#111827" stroke-width="1.2"/><line x1="1115" y1="1252" x2="1385" y2="1252" stroke="#111827"/><line x1="1115" y1="1332" x2="1385" y2="1332" stroke="#111827"/><text x="1250" y="1225" text-anchor="middle" font-family="Arial, sans-serif" font-size="11" fill="#475569">&lt;&lt;entity&gt;&gt;</text><text x="1250" y="1242" text-anchor="middle" font-family="Arial, sans-serif" font-size="14" font-weight="700" fill="#111827">TeamWorkspace</text><text x="1125" y="1269" font-family="Consolas, monospace" font-size="11">+workspaceId</text><text x="1125" y="1286" font-family="Consolas, monospace" font-size="11">+eventId</text><text x="1125" y="1303" font-family="Consolas, monospace" font-size="11">+workspaceName</text><text x="1125" y="1320" font-family="Consolas, monospace" font-size="11">+createdAt</text><text x="1125" y="1349" font-family="Consolas, monospace" font-size="11">+addParticipant()</text><text x="1125" y="1366" font-family="Consolas, monospace" font-size="11">+postMessage()</text><path d="M325 154.5 H367.5 V183 H410" fill="none" stroke="#111827" stroke-width="1.05" stroke-dasharray="5 4" marker-end="url(#hollowArrow)"/><path d="M325 309.5 H367.5 V183 H410" fill="none" stroke="#111827" stroke-width="1.05" stroke-dasharray="5 4" marker-end="url(#hollowArrow)"/><path d="M325 456 H367.5 V391 H410" fill="none" stroke="#111827" stroke-width="1.05" stroke-dasharray="5 4" marker-end="url(#hollowArrow)"/><path d="M325 609.5 H367.5 V391 H410" fill="none" stroke="#111827" stroke-width="1.05" stroke-dasharray="5 4" marker-end="url(#hollowArrow)"/><path d="M325 774.5 H367.5 V614.5 H410" fill="none" stroke="#111827" stroke-width="1.05" stroke-dasharray="5 4" marker-end="url(#hollowArrow)"/><path d="M325 939.5 H367.5 V838 H410" fill="none" stroke="#111827" stroke-width="1.05" stroke-dasharray="5 4" marker-end="url(#hollowArrow)"/><path d="M325 1104.5 H367.5 V1064.5 H410" fill="none" stroke="#111827" stroke-width="1.05" stroke-dasharray="5 4" marker-end="url(#hollowArrow)"/><path d="M325 1261 H367.5 V1266 H410" fill="none" stroke="#111827" stroke-width="1.05" stroke-dasharray="5 4" marker-end="url(#hollowArrow)"/><path d="M680 183 H720 V185.5 H760" fill="none" stroke="#111827" stroke-width="1.05" stroke-dasharray="5 4" marker-end="url(#hollowArrow)"/><path d="M1030 185.5 H895 V374.5 H760" fill="none" stroke="#111827" stroke-width="1.05" stroke-dasharray="5 4" marker-end="url(#hollowArrow)"/><path d="M680 183 H720 V633 H760" fill="none" stroke="#111827" stroke-width="1.05" stroke-dasharray="5 4" marker-end="url(#hollowArrow)"/><path d="M680 391 H720 V633 H760" fill="none" stroke="#111827" stroke-width="1.05" stroke-dasharray="5 4" marker-end="url(#hollowArrow)"/><path d="M680 614.5 H720 V633 H760" fill="none" stroke="#111827" stroke-width="1.05" stroke-dasharray="5 4" marker-end="url(#hollowArrow)"/><path d="M680 838 H720 V633 H760" fill="none" stroke="#111827" stroke-width="1.05" stroke-dasharray="5 4" marker-end="url(#hollowArrow)"/><path d="M680 1064.5 H720 V633 H760" fill="none" stroke="#111827" stroke-width="1.05" stroke-dasharray="5 4" marker-end="url(#hollowArrow)"/><path d="M680 1266 H720 V633 H760" fill="none" stroke="#111827" stroke-width="1.05" stroke-dasharray="5 4" marker-end="url(#hollowArrow)"/><path d="M680 838 H720 V827.5 H760" fill="none" stroke="#111827" stroke-width="1.05" stroke-dasharray="5 4" marker-end="url(#hollowArrow)"/><path d="M680 391 H720 V1073 H760" fill="none" stroke="#111827" stroke-width="1.05" stroke-dasharray="5 4" marker-end="url(#hollowArrow)"/><path d="M680 1064.5 H720 V1073 H760" fill="none" stroke="#111827" stroke-width="1.05" stroke-dasharray="5 4" marker-end="url(#hollowArrow)"/><path d="M680 1266 H720 V1073 H760" fill="none" stroke="#111827" stroke-width="1.05" stroke-dasharray="5 4" marker-end="url(#hollowArrow)"/><path d="M680 183 H897.5 V191 H1115" fill="none" stroke="#111827" stroke-width="1.05" stroke-dasharray="5 4" marker-end="url(#hollowArrow)"/><path d="M680 391 H897.5 V436 H1115" fill="none" stroke="#111827" stroke-width="1.05" stroke-dasharray="5 4" marker-end="url(#hollowArrow)"/><path d="M680 614.5 H897.5 V652.5 H1115" fill="none" stroke="#111827" stroke-width="1.05" stroke-dasharray="5 4" marker-end="url(#hollowArrow)"/><path d="M680 838 H897.5 V889.5 H1115" fill="none" stroke="#111827" stroke-width="1.05" stroke-dasharray="5 4" marker-end="url(#hollowArrow)"/><path d="M680 838 H1072.5 V881 H1465" fill="none" stroke="#111827" stroke-width="1.05" stroke-dasharray="5 4" marker-end="url(#hollowArrow)"/><path d="M680 1064.5 H897.5 V1092.5 H1115" fill="none" stroke="#111827" stroke-width="1.05" stroke-dasharray="5 4" marker-end="url(#hollowArrow)"/><path d="M680 1064.5 H1072.5 V1084 H1465" fill="none" stroke="#111827" stroke-width="1.05" stroke-dasharray="5 4" marker-end="url(#hollowArrow)"/><path d="M680 1266 H897.5 V1294 H1115" fill="none" stroke="#111827" stroke-width="1.05" stroke-dasharray="5 4" marker-end="url(#hollowArrow)"/><path d="M1385 436 H1425 V410.5 H1465" fill="none" stroke="#111827" stroke-width="1.05" marker-start="url(#diamond)"/><text x="1398" y="350" text-anchor="middle" font-family="Arial, sans-serif" font-size="11" font-weight="400" fill="#111827">1..*</text><path d="M1600 335 V70 H1385 V191" fill="none" stroke="#111827" stroke-width="1.05"/><text x="1550" y="84" text-anchor="middle" font-family="Arial, sans-serif" font-size="11" font-weight="400" fill="#111827">*</text><path d="M1250 537 V552 H1250 V560" fill="none" stroke="#111827" stroke-width="1.05" marker-start="url(#diamond)"/><text x="1398" y="552" text-anchor="middle" font-family="Arial, sans-serif" font-size="11" font-weight="400" fill="#111827">*</text><path d="M1385 436 H1408 V889.5 H1115" fill="none" stroke="#111827" stroke-width="1.05" marker-start="url(#diamond)"/><text x="1408" y="710" text-anchor="middle" font-family="Arial, sans-serif" font-size="11" font-weight="400" fill="#111827">*</text><path d="M1385 436 H1425 V1092.5 H1115" fill="none" stroke="#111827" stroke-width="1.05" marker-start="url(#diamond)"/><text x="1425" y="950" text-anchor="middle" font-family="Arial, sans-serif" font-size="11" font-weight="400" fill="#111827">*</text><path d="M1385 889.5 H1425 V881 H1465" fill="none" stroke="#111827" stroke-width="1.05" marker-start="url(#diamond)"/><text x="1400" y="795" text-anchor="middle" font-family="Arial, sans-serif" font-size="11" font-weight="400" fill="#111827">*</text><path d="M1385 1092.5 H1425 V1084 H1465" fill="none" stroke="#111827" stroke-width="1.05" marker-start="url(#diamond)"/><text x="1400" y="1015" text-anchor="middle" font-family="Arial, sans-serif" font-size="11" font-weight="400" fill="#111827">*</text><path d="M1250 1185 V1198 H1250 V1210" fill="none" stroke="#111827" stroke-width="1.05" marker-start="url(#diamond)"/><text x="1398" y="1198" text-anchor="middle" font-family="Arial, sans-serif" font-size="11" font-weight="400" fill="#111827">0..1</text><path d="M1385 1294 H1690 V292 H1250" fill="none" stroke="#111827" stroke-width="1.05"/><text x="1680" y="560" text-anchor="middle" font-family="Arial, sans-serif" font-size="11" font-weight="400" fill="#111827">*</text></svg>