<svg xmlns="http://www.w3.org/2000/svg" width="1925" height="1495" viewBox="0 0 1925 1495">
<defs>
  <marker id="arrow" viewBox="0 0 10 10" refX="9" refY="5" markerWidth="7" markerHeight="7" orient="auto"><path d="M0 0 L10 5 L0 10 z" fill="#111827"/></marker>
  <marker id="hollowArrow" viewBox="0 0 10 10" refX="9" refY="5" markerWidth="7" markerHeight="7" orient="auto"><path d="M0 0 L10 5 L0 10 z" fill="#fbfbfb" stroke="#111827"/></marker>
  <marker id="diamond" viewBox="0 0 16 10" refX="1" refY="5" markerWidth="11" markerHeight="9" orient="auto"><path d="M1 5 L8 1 L15 5 L8 9 z" fill="#111827" stroke="#111827"/></marker>
</defs>
<rect width="100%" height="100%" fill="#ffffff"/>
<rect x="18" y="18" width="1889" height="1459" fill="none" stroke="#111827" stroke-width="1"/>
<path d="M18 18 H190 L214 42 V58 H18 Z" fill="#fffef9" stroke="#111827" stroke-width="1"/>
<text x="36" y="39" font-family="Arial, sans-serif" font-size="13">class</text>
<text x="78" y="39" font-family="Arial, sans-serif" font-size="13" font-weight="700">Jo:YUl Design</text><rect x="60" y="95" width="270" height="129" fill="#fffef9" stroke="#111827" stroke-width="1.2"/><line x1="60" y1="137" x2="330" y2="137" stroke="#111827"/><line x1="60" y1="161" x2="330" y2="161" stroke="#111827"/><text x="195" y="110" text-anchor="middle" font-family="Arial, sans-serif" font-size="11" fill="#475569">&lt;&lt;boundary&gt;&gt;</text><text x="195" y="127" text-anchor="middle" font-family="Arial, sans-serif" font-size="14" font-weight="700" fill="#111827">LoginUI</text><text x="70" y="178" font-family="Consolas, monospace" font-size="11">+requestLogin()</text><text x="70" y="195" font-family="Consolas, monospace" font-size="11">+openRegisterUI()</text><text x="70" y="212" font-family="Consolas, monospace" font-size="11">+showError()</text><rect x="60" y="250" width="270" height="129" fill="#fffef9" stroke="#111827" stroke-width="1.2"/><line x1="60" y1="292" x2="330" y2="292" stroke="#111827"/><line x1="60" y1="316" x2="330" y2="316" stroke="#111827"/><text x="195" y="265" text-anchor="middle" font-family="Arial, sans-serif" font-size="11" fill="#475569">&lt;&lt;boundary&gt;&gt;</text><text x="195" y="282" text-anchor="middle" font-family="Arial, sans-serif" font-size="14" font-weight="700" fill="#111827">RegisterUI</text><text x="70" y="333" font-family="Consolas, monospace" font-size="11">+submitRegister()</text><text x="70" y="350" font-family="Consolas, monospace" font-size="11">+showSuccess()</text><text x="70" y="367" font-family="Consolas, monospace" font-size="11">+showError()</text><rect x="60" y="405" width="270" height="112" fill="#fffef9" stroke="#111827" stroke-width="1.2"/><line x1="60" y1="447" x2="330" y2="447" stroke="#111827"/><line x1="60" y1="471" x2="330" y2="471" stroke="#111827"/><text x="195" y="420" text-anchor="middle" font-family="Arial, sans-serif" font-size="11" fill="#475569">&lt;&lt;boundary&gt;&gt;</text><text x="195" y="437" text-anchor="middle" font-family="Arial, sans-serif" font-size="14" font-weight="700" fill="#111827">HomeUI</text><text x="70" y="488" font-family="Consolas, monospace" font-size="11">+showHome()</text><text x="70" y="505" font-family="Consolas, monospace" font-size="11">+updateTeamList()</text><rect x="60" y="550" width="270" height="129" fill="#fffef9" stroke="#111827" stroke-width="1.2"/><line x1="60" y1="592" x2="330" y2="592" stroke="#111827"/><line x1="60" y1="616" x2="330" y2="616" stroke="#111827"/><text x="195" y="565" text-anchor="middle" font-family="Arial, sans-serif" font-size="11" fill="#475569">&lt;&lt;boundary&gt;&gt;</text><text x="195" y="582" text-anchor="middle" font-family="Arial, sans-serif" font-size="14" font-weight="700" fill="#111827">TeamUI</text><text x="70" y="633" font-family="Consolas, monospace" font-size="11">+submitTeamData()</text><text x="70" y="650" font-family="Consolas, monospace" font-size="11">+selectInviteMember()</text><text x="70" y="667" font-family="Consolas, monospace" font-size="11">+showInviteResult()</text><rect x="60" y="715" width="270" height="129" fill="#fffef9" stroke="#111827" stroke-width="1.2"/><line x1="60" y1="757" x2="330" y2="757" stroke="#111827"/><line x1="60" y1="781" x2="330" y2="781" stroke="#111827"/><text x="195" y="730" text-anchor="middle" font-family="Arial, sans-serif" font-size="11" fill="#475569">&lt;&lt;boundary&gt;&gt;</text><text x="195" y="747" text-anchor="middle" font-family="Arial, sans-serif" font-size="14" font-weight="700" fill="#111827">ScheduleUI</text><text x="70" y="798" font-family="Consolas, monospace" font-size="11">+selectUnavailableTime()</text><text x="70" y="815" font-family="Consolas, monospace" font-size="11">+requestRecommendation()</text><text x="70" y="832" font-family="Consolas, monospace" font-size="11">+confirmSchedule()</text><rect x="60" y="880" width="270" height="129" fill="#fffef9" stroke="#111827" stroke-width="1.2"/><line x1="60" y1="922" x2="330" y2="922" stroke="#111827"/><line x1="60" y1="946" x2="330" y2="946" stroke="#111827"/><text x="195" y="895" text-anchor="middle" font-family="Arial, sans-serif" font-size="11" fill="#475569">&lt;&lt;boundary&gt;&gt;</text><text x="195" y="912" text-anchor="middle" font-family="Arial, sans-serif" font-size="14" font-weight="700" fill="#111827">TaskBoardUI</text><text x="70" y="963" font-family="Consolas, monospace" font-size="11">+requestUpload()</text><text x="70" y="980" font-family="Consolas, monospace" font-size="11">+showSubmissionDetail()</text><text x="70" y="997" font-family="Consolas, monospace" font-size="11">+requestApproval()</text><rect x="60" y="1045" width="270" height="129" fill="#fffef9" stroke="#111827" stroke-width="1.2"/><line x1="60" y1="1087" x2="330" y2="1087" stroke="#111827"/><line x1="60" y1="1111" x2="330" y2="1111" stroke="#111827"/><text x="195" y="1060" text-anchor="middle" font-family="Arial, sans-serif" font-size="11" fill="#475569">&lt;&lt;boundary&gt;&gt;</text><text x="195" y="1077" text-anchor="middle" font-family="Arial, sans-serif" font-size="14" font-weight="700" fill="#111827">EventUI</text><text x="70" y="1128" font-family="Consolas, monospace" font-size="11">+submitEventData()</text><text x="70" y="1145" font-family="Consolas, monospace" font-size="11">+submitVote()</text><text x="70" y="1162" font-family="Consolas, monospace" font-size="11">+requestDecision()</text><rect x="60" y="1210" width="270" height="112" fill="#fffef9" stroke="#111827" stroke-width="1.2"/><line x1="60" y1="1252" x2="330" y2="1252" stroke="#111827"/><line x1="60" y1="1276" x2="330" y2="1276" stroke="#111827"/><text x="195" y="1225" text-anchor="middle" font-family="Arial, sans-serif" font-size="11" fill="#475569">&lt;&lt;boundary&gt;&gt;</text><text x="195" y="1242" text-anchor="middle" font-family="Arial, sans-serif" font-size="14" font-weight="700" fill="#111827">WorkspaceUI</text><text x="70" y="1293" font-family="Consolas, monospace" font-size="11">+submitMessage()</text><text x="70" y="1310" font-family="Consolas, monospace" font-size="11">+updateMessageList()</text><rect x="430" y="115" width="270" height="146" fill="#fffef9" stroke="#111827" stroke-width="1.2"/><line x1="430" y1="157" x2="700" y2="157" stroke="#111827"/><line x1="430" y1="181" x2="700" y2="181" stroke="#111827"/><text x="565" y="130" text-anchor="middle" font-family="Arial, sans-serif" font-size="11" fill="#475569">&lt;&lt;control&gt;&gt;</text><text x="565" y="147" text-anchor="middle" font-family="Arial, sans-serif" font-size="14" font-weight="700" fill="#111827">AuthService</text><text x="440" y="198" font-family="Consolas, monospace" font-size="11">+registerMember()</text><text x="440" y="215" font-family="Consolas, monospace" font-size="11">+login()</text><text x="440" y="232" font-family="Consolas, monospace" font-size="11">+validateInput()</text><text x="440" y="249" font-family="Consolas, monospace" font-size="11">+createMemberProfile()</text><rect x="430" y="340" width="270" height="112" fill="#fffef9" stroke="#111827" stroke-width="1.2"/><line x1="430" y1="382" x2="700" y2="382" stroke="#111827"/><line x1="430" y1="406" x2="700" y2="406" stroke="#111827"/><text x="565" y="355" text-anchor="middle" font-family="Arial, sans-serif" font-size="11" fill="#475569">&lt;&lt;control&gt;&gt;</text><text x="565" y="372" text-anchor="middle" font-family="Arial, sans-serif" font-size="14" font-weight="700" fill="#111827">TeamService</text><text x="440" y="423" font-family="Consolas, monospace" font-size="11">+createTeam()</text><text x="440" y="440" font-family="Consolas, monospace" font-size="11">+inviteMember()</text><rect x="430" y="555" width="270" height="129" fill="#fffef9" stroke="#111827" stroke-width="1.2"/><line x1="430" y1="597" x2="700" y2="597" stroke="#111827"/><line x1="430" y1="621" x2="700" y2="621" stroke="#111827"/><text x="565" y="570" text-anchor="middle" font-family="Arial, sans-serif" font-size="11" fill="#475569">&lt;&lt;control&gt;&gt;</text><text x="565" y="587" text-anchor="middle" font-family="Arial, sans-serif" font-size="14" font-weight="700" fill="#111827">ScheduleService</text><text x="440" y="638" font-family="Consolas, monospace" font-size="11">+saveUnavailableTime()</text><text x="440" y="655" font-family="Consolas, monospace" font-size="11">+recommendTime()</text><text x="440" y="672" font-family="Consolas, monospace" font-size="11">+confirmSchedule()</text><rect x="430" y="770" width="270" height="146" fill="#fffef9" stroke="#111827" stroke-width="1.2"/><line x1="430" y1="812" x2="700" y2="812" stroke="#111827"/><line x1="430" y1="836" x2="700" y2="836" stroke="#111827"/><text x="565" y="785" text-anchor="middle" font-family="Arial, sans-serif" font-size="11" fill="#475569">&lt;&lt;control&gt;&gt;</text><text x="565" y="802" text-anchor="middle" font-family="Arial, sans-serif" font-size="14" font-weight="700" fill="#111827">TaskService</text><text x="440" y="853" font-family="Consolas, monospace" font-size="11">+uploadSubmission()</text><text x="440" y="870" font-family="Consolas, monospace" font-size="11">+approveSubmission()</text><text x="440" y="887" font-family="Consolas, monospace" font-size="11">+rejectSubmission()</text><text x="440" y="904" font-family="Consolas, monospace" font-size="11">+calculateProgress()</text><rect x="430" y="1005" width="270" height="129" fill="#fffef9" stroke="#111827" stroke-width="1.2"/><line x1="430" y1="1047" x2="700" y2="1047" stroke="#111827"/><line x1="430" y1="1071" x2="700" y2="1071" stroke="#111827"/><text x="565" y="1020" text-anchor="middle" font-family="Arial, sans-serif" font-size="11" fill="#475569">&lt;&lt;control&gt;&gt;</text><text x="565" y="1037" text-anchor="middle" font-family="Arial, sans-serif" font-size="14" font-weight="700" fill="#111827">EventService</text><text x="440" y="1088" font-family="Consolas, monospace" font-size="11">+createEvent()</text><text x="440" y="1105" font-family="Consolas, monospace" font-size="11">+vote()</text><text x="440" y="1122" font-family="Consolas, monospace" font-size="11">+decideEvent()</text><rect x="430" y="1215" width="270" height="112" fill="#fffef9" stroke="#111827" stroke-width="1.2"/><line x1="430" y1="1257" x2="700" y2="1257" stroke="#111827"/><line x1="430" y1="1281" x2="700" y2="1281" stroke="#111827"/><text x="565" y="1230" text-anchor="middle" font-family="Arial, sans-serif" font-size="11" fill="#475569">&lt;&lt;control&gt;&gt;</text><text x="565" y="1247" text-anchor="middle" font-family="Arial, sans-serif" font-size="14" font-weight="700" fill="#111827">WorkspaceService</text><text x="440" y="1298" font-family="Consolas, monospace" font-size="11">+createWorkspace()</text><text x="440" y="1315" font-family="Consolas, monospace" font-size="11">+sendMessage()</text><rect x="805" y="115" width="270" height="151" fill="#fffef9" stroke="#111827" stroke-width="1.2"/><line x1="805" y1="157" x2="1075" y2="157" stroke="#111827"/><line x1="805" y1="203" x2="1075" y2="203" stroke="#111827"/><text x="940" y="130" text-anchor="middle" font-family="Arial, sans-serif" font-size="11" fill="#475569">&lt;&lt;control&gt;&gt;</text><text x="940" y="147" text-anchor="middle" font-family="Arial, sans-serif" font-size="14" font-weight="700" fill="#111827">SupabaseAuthClient</text><text x="815" y="174" font-family="Consolas, monospace" font-size="11">-supabaseUrl</text><text x="815" y="191" font-family="Consolas, monospace" font-size="11">-anonKey</text><text x="815" y="220" font-family="Consolas, monospace" font-size="11">+signUp()</text><text x="815" y="237" font-family="Consolas, monospace" font-size="11">+signIn()</text><text x="815" y="254" font-family="Consolas, monospace" font-size="11">+handleAuthResponse()</text><rect x="805" y="315" width="270" height="129" fill="#fffef9" stroke="#111827" stroke-width="1.2"/><line x1="805" y1="357" x2="1075" y2="357" stroke="#111827"/><line x1="805" y1="381" x2="1075" y2="381" stroke="#111827"/><text x="940" y="330" text-anchor="middle" font-family="Arial, sans-serif" font-size="11" fill="#475569">&lt;&lt;external&gt;&gt;</text><text x="940" y="347" text-anchor="middle" font-family="Arial, sans-serif" font-size="14" font-weight="700" fill="#111827">SupabaseAuthAPI</text><text x="815" y="398" font-family="Consolas, monospace" font-size="11">+signUpEndpoint()</text><text x="815" y="415" font-family="Consolas, monospace" font-size="11">+passwordLoginEndpoint()</text><text x="815" y="432" font-family="Consolas, monospace" font-size="11">+returnSession()</text><rect x="805" y="515" width="270" height="146" fill="#fffef9" stroke="#111827" stroke-width="1.2"/><line x1="805" y1="557" x2="1075" y2="557" stroke="#111827"/><line x1="805" y1="581" x2="1075" y2="581" stroke="#111827"/><text x="940" y="530" text-anchor="middle" font-family="Arial, sans-serif" font-size="11" fill="#475569">&lt;&lt;control&gt;&gt;</text><text x="940" y="547" text-anchor="middle" font-family="Arial, sans-serif" font-size="14" font-weight="700" fill="#111827">NotificationService</text><text x="815" y="598" font-family="Consolas, monospace" font-size="11">+sendInvite()</text><text x="815" y="615" font-family="Consolas, monospace" font-size="11">+sendVoteRequest()</text><text x="815" y="632" font-family="Consolas, monospace" font-size="11">+sendVoteReminder()</text><text x="815" y="649" font-family="Consolas, monospace" font-size="11">+sendWorkspaceNotice()</text><rect x="805" y="765" width="270" height="146" fill="#fffef9" stroke="#111827" stroke-width="1.2"/><line x1="805" y1="807" x2="1075" y2="807" stroke="#111827"/><line x1="805" y1="831" x2="1075" y2="831" stroke="#111827"/><text x="940" y="780" text-anchor="middle" font-family="Arial, sans-serif" font-size="11" fill="#475569">&lt;&lt;storage&gt;&gt;</text><text x="940" y="797" text-anchor="middle" font-family="Arial, sans-serif" font-size="14" font-weight="700" fill="#111827">DataStore</text><text x="815" y="848" font-family="Consolas, monospace" font-size="11">+save()</text><text x="815" y="865" font-family="Consolas, monospace" font-size="11">+findById()</text><text x="815" y="882" font-family="Consolas, monospace" font-size="11">+findAll()</text><text x="815" y="899" font-family="Consolas, monospace" font-size="11">+update()</text><rect x="805" y="1010" width="270" height="95" fill="#fffef9" stroke="#111827" stroke-width="1.2"/><line x1="805" y1="1052" x2="1075" y2="1052" stroke="#111827"/><line x1="805" y1="1076" x2="1075" y2="1076" stroke="#111827"/><text x="940" y="1025" text-anchor="middle" font-family="Arial, sans-serif" font-size="11" fill="#475569">&lt;&lt;storage&gt;&gt;</text><text x="940" y="1042" text-anchor="middle" font-family="Arial, sans-serif" font-size="14" font-weight="700" fill="#111827">FileStorage</text><text x="815" y="1093" font-family="Consolas, monospace" font-size="11">+upload()</text><rect x="1205" y="95" width="270" height="202" fill="#fffef9" stroke="#111827" stroke-width="1.2"/><line x1="1205" y1="137" x2="1475" y2="137" stroke="#111827"/><line x1="1205" y1="251" x2="1475" y2="251" stroke="#111827"/><text x="1340" y="110" text-anchor="middle" font-family="Arial, sans-serif" font-size="11" fill="#475569">&lt;&lt;entity&gt;&gt;</text><text x="1340" y="127" text-anchor="middle" font-family="Arial, sans-serif" font-size="14" font-weight="700" fill="#111827">Member</text><text x="1215" y="154" font-family="Consolas, monospace" font-size="11">+memberId</text><text x="1215" y="171" font-family="Consolas, monospace" font-size="11">+supabaseUserId</text><text x="1215" y="188" font-family="Consolas, monospace" font-size="11">+studentNo</text><text x="1215" y="205" font-family="Consolas, monospace" font-size="11">+name</text><text x="1215" y="222" font-family="Consolas, monospace" font-size="11">+email</text><text x="1215" y="239" font-family="Consolas, monospace" font-size="11">+role</text><text x="1215" y="268" font-family="Consolas, monospace" font-size="11">+joinTeam()</text><text x="1215" y="285" font-family="Consolas, monospace" font-size="11">+voteEvent()</text><rect x="1205" y="335" width="270" height="202" fill="#fffef9" stroke="#111827" stroke-width="1.2"/><line x1="1205" y1="377" x2="1475" y2="377" stroke="#111827"/><line x1="1205" y1="474" x2="1475" y2="474" stroke="#111827"/><text x="1340" y="350" text-anchor="middle" font-family="Arial, sans-serif" font-size="11" fill="#475569">&lt;&lt;entity&gt;&gt;</text><text x="1340" y="367" text-anchor="middle" font-family="Arial, sans-serif" font-size="14" font-weight="700" fill="#111827">Team</text><text x="1215" y="394" font-family="Consolas, monospace" font-size="11">+teamId</text><text x="1215" y="411" font-family="Consolas, monospace" font-size="11">+teamName</text><text x="1215" y="428" font-family="Consolas, monospace" font-size="11">+description</text><text x="1215" y="445" font-family="Consolas, monospace" font-size="11">+adminId</text><text x="1215" y="462" font-family="Consolas, monospace" font-size="11">+createdAt</text><text x="1215" y="491" font-family="Consolas, monospace" font-size="11">+addMember()</text><text x="1215" y="508" font-family="Consolas, monospace" font-size="11">+createTask()</text><text x="1215" y="525" font-family="Consolas, monospace" font-size="11">+createEvent()</text><rect x="1205" y="585" width="270" height="185" fill="#fffef9" stroke="#111827" stroke-width="1.2"/><line x1="1205" y1="627" x2="1475" y2="627" stroke="#111827"/><line x1="1205" y1="741" x2="1475" y2="741" stroke="#111827"/><text x="1340" y="600" text-anchor="middle" font-family="Arial, sans-serif" font-size="11" fill="#475569">&lt;&lt;entity&gt;&gt;</text><text x="1340" y="617" text-anchor="middle" font-family="Arial, sans-serif" font-size="14" font-weight="700" fill="#111827">ScheduleBlock</text><text x="1215" y="644" font-family="Consolas, monospace" font-size="11">+scheduleId</text><text x="1215" y="661" font-family="Consolas, monospace" font-size="11">+teamId</text><text x="1215" y="678" font-family="Consolas, monospace" font-size="11">+memberId</text><text x="1215" y="695" font-family="Consolas, monospace" font-size="11">+day</text><text x="1215" y="712" font-family="Consolas, monospace" font-size="11">+startTime</text><text x="1215" y="729" font-family="Consolas, monospace" font-size="11">+endTime</text><text x="1215" y="758" font-family="Consolas, monospace" font-size="11">+overlaps()</text><rect x="1205" y="815" width="270" height="219" fill="#fffef9" stroke="#111827" stroke-width="1.2"/><line x1="1205" y1="857" x2="1475" y2="857" stroke="#111827"/><line x1="1205" y1="971" x2="1475" y2="971" stroke="#111827"/><text x="1340" y="830" text-anchor="middle" font-family="Arial, sans-serif" font-size="11" fill="#475569">&lt;&lt;entity&gt;&gt;</text><text x="1340" y="847" text-anchor="middle" font-family="Arial, sans-serif" font-size="14" font-weight="700" fill="#111827">Task</text><text x="1215" y="874" font-family="Consolas, monospace" font-size="11">+taskId</text><text x="1215" y="891" font-family="Consolas, monospace" font-size="11">+teamId</text><text x="1215" y="908" font-family="Consolas, monospace" font-size="11">+title</text><text x="1215" y="925" font-family="Consolas, monospace" font-size="11">+assigneeId</text><text x="1215" y="942" font-family="Consolas, monospace" font-size="11">+dueDate</text><text x="1215" y="959" font-family="Consolas, monospace" font-size="11">+status</text><text x="1215" y="988" font-family="Consolas, monospace" font-size="11">+submit()</text><text x="1215" y="1005" font-family="Consolas, monospace" font-size="11">+approve()</text><text x="1215" y="1022" font-family="Consolas, monospace" font-size="11">+reject()</text><rect x="1205" y="1060" width="270" height="185" fill="#fffef9" stroke="#111827" stroke-width="1.2"/><line x1="1205" y1="1102" x2="1475" y2="1102" stroke="#111827"/><line x1="1205" y1="1199" x2="1475" y2="1199" stroke="#111827"/><text x="1340" y="1075" text-anchor="middle" font-family="Arial, sans-serif" font-size="11" fill="#475569">&lt;&lt;entity&gt;&gt;</text><text x="1340" y="1092" text-anchor="middle" font-family="Arial, sans-serif" font-size="14" font-weight="700" fill="#111827">Event</text><text x="1215" y="1119" font-family="Consolas, monospace" font-size="11">+eventId</text><text x="1215" y="1136" font-family="Consolas, monospace" font-size="11">+teamId</text><text x="1215" y="1153" font-family="Consolas, monospace" font-size="11">+title</text><text x="1215" y="1170" font-family="Consolas, monospace" font-size="11">+voteDeadline</text><text x="1215" y="1187" font-family="Consolas, monospace" font-size="11">+status</text><text x="1215" y="1216" font-family="Consolas, monospace" font-size="11">+closeVote()</text><text x="1215" y="1233" font-family="Consolas, monospace" font-size="11">+cancel()</text><rect x="1205" y="1275" width="270" height="168" fill="#fffef9" stroke="#111827" stroke-width="1.2"/><line x1="1205" y1="1317" x2="1475" y2="1317" stroke="#111827"/><line x1="1205" y1="1397" x2="1475" y2="1397" stroke="#111827"/><text x="1340" y="1290" text-anchor="middle" font-family="Arial, sans-serif" font-size="11" fill="#475569">&lt;&lt;entity&gt;&gt;</text><text x="1340" y="1307" text-anchor="middle" font-family="Arial, sans-serif" font-size="14" font-weight="700" fill="#111827">TeamWorkspace</text><text x="1215" y="1334" font-family="Consolas, monospace" font-size="11">+workspaceId</text><text x="1215" y="1351" font-family="Consolas, monospace" font-size="11">+eventId</text><text x="1215" y="1368" font-family="Consolas, monospace" font-size="11">+workspaceName</text><text x="1215" y="1385" font-family="Consolas, monospace" font-size="11">+createdAt</text><text x="1215" y="1414" font-family="Consolas, monospace" font-size="11">+addParticipant()</text><text x="1215" y="1431" font-family="Consolas, monospace" font-size="11">+postMessage()</text><rect x="1585" y="335" width="270" height="151" fill="#fffef9" stroke="#111827" stroke-width="1.2"/><line x1="1585" y1="377" x2="1855" y2="377" stroke="#111827"/><line x1="1585" y1="457" x2="1855" y2="457" stroke="#111827"/><text x="1720" y="350" text-anchor="middle" font-family="Arial, sans-serif" font-size="11" fill="#475569">&lt;&lt;entity&gt;&gt;</text><text x="1720" y="367" text-anchor="middle" font-family="Arial, sans-serif" font-size="14" font-weight="700" fill="#111827">TeamMember</text><text x="1595" y="394" font-family="Consolas, monospace" font-size="11">+teamMemberId</text><text x="1595" y="411" font-family="Consolas, monospace" font-size="11">+teamId</text><text x="1595" y="428" font-family="Consolas, monospace" font-size="11">+memberId</text><text x="1595" y="445" font-family="Consolas, monospace" font-size="11">+joinedAt</text><text x="1595" y="474" font-family="Consolas, monospace" font-size="11">+assignRole()</text><rect x="1585" y="815" width="270" height="202" fill="#fffef9" stroke="#111827" stroke-width="1.2"/><line x1="1585" y1="857" x2="1855" y2="857" stroke="#111827"/><line x1="1585" y1="971" x2="1855" y2="971" stroke="#111827"/><text x="1720" y="830" text-anchor="middle" font-family="Arial, sans-serif" font-size="11" fill="#475569">&lt;&lt;entity&gt;&gt;</text><text x="1720" y="847" text-anchor="middle" font-family="Arial, sans-serif" font-size="14" font-weight="700" fill="#111827">Submission</text><text x="1595" y="874" font-family="Consolas, monospace" font-size="11">+submissionId</text><text x="1595" y="891" font-family="Consolas, monospace" font-size="11">+taskId</text><text x="1595" y="908" font-family="Consolas, monospace" font-size="11">+memberId</text><text x="1595" y="925" font-family="Consolas, monospace" font-size="11">+fileUrl</text><text x="1595" y="942" font-family="Consolas, monospace" font-size="11">+status</text><text x="1595" y="959" font-family="Consolas, monospace" font-size="11">+submittedAt</text><text x="1595" y="988" font-family="Consolas, monospace" font-size="11">+markApproved()</text><text x="1595" y="1005" font-family="Consolas, monospace" font-size="11">+markRejected()</text><rect x="1585" y="1060" width="270" height="168" fill="#fffef9" stroke="#111827" stroke-width="1.2"/><line x1="1585" y1="1102" x2="1855" y2="1102" stroke="#111827"/><line x1="1585" y1="1199" x2="1855" y2="1199" stroke="#111827"/><text x="1720" y="1075" text-anchor="middle" font-family="Arial, sans-serif" font-size="11" fill="#475569">&lt;&lt;entity&gt;&gt;</text><text x="1720" y="1092" text-anchor="middle" font-family="Arial, sans-serif" font-size="14" font-weight="700" fill="#111827">Vote</text><text x="1595" y="1119" font-family="Consolas, monospace" font-size="11">+voteId</text><text x="1595" y="1136" font-family="Consolas, monospace" font-size="11">+eventId</text><text x="1595" y="1153" font-family="Consolas, monospace" font-size="11">+memberId</text><text x="1595" y="1170" font-family="Consolas, monospace" font-size="11">+status</text><text x="1595" y="1187" font-family="Consolas, monospace" font-size="11">+votedAt</text><text x="1595" y="1216" font-family="Consolas, monospace" font-size="11">+submit()</text><path d="M330 159.5 H380 V188 H430" fill="none" stroke="#111827" stroke-width="1.05" stroke-dasharray="5 4" marker-end="url(#hollowArrow)"/><path d="M330 314.5 H380 V188 H430" fill="none" stroke="#111827" stroke-width="1.05" stroke-dasharray="5 4" marker-end="url(#hollowArrow)"/><path d="M330 461 H380 V396 H430" fill="none" stroke="#111827" stroke-width="1.05" stroke-dasharray="5 4" marker-end="url(#hollowArrow)"/><path d="M330 614.5 H380 V396 H430" fill="none" stroke="#111827" stroke-width="1.05" stroke-dasharray="5 4" marker-end="url(#hollowArrow)"/><path d="M330 779.5 H380 V619.5 H430" fill="none" stroke="#111827" stroke-width="1.05" stroke-dasharray="5 4" marker-end="url(#hollowArrow)"/><path d="M330 944.5 H380 V843 H430" fill="none" stroke="#111827" stroke-width="1.05" stroke-dasharray="5 4" marker-end="url(#hollowArrow)"/><path d="M330 1109.5 H380 V1069.5 H430" fill="none" stroke="#111827" stroke-width="1.05" stroke-dasharray="5 4" marker-end="url(#hollowArrow)"/><path d="M330 1266 H380 V1271 H430" fill="none" stroke="#111827" stroke-width="1.05" stroke-dasharray="5 4" marker-end="url(#hollowArrow)"/><path d="M700 188 H752.5 V190.5 H805" fill="none" stroke="#111827" stroke-width="1.05" stroke-dasharray="5 4" marker-end="url(#hollowArrow)"/><path d="M700 843 H752.5 V1057.5 H805" fill="none" stroke="#111827" stroke-width="1.05" stroke-dasharray="5 4" marker-end="url(#hollowArrow)"/><path d="M940 266 V292 H940 V315" fill="none" stroke="#111827" stroke-width="1.05" stroke-dasharray="5 4" marker-end="url(#hollowArrow)"/><path d="M1475 436 H1530 V410.5 H1585" fill="none" stroke="#111827" stroke-width="1.05" marker-start="url(#diamond)"/><path d="M1340 537 V558 H1340 V585" fill="none" stroke="#111827" stroke-width="1.05" marker-start="url(#diamond)"/><path d="M1475 436 H1510 V815 H1340" fill="none" stroke="#111827" stroke-width="1.05" marker-start="url(#diamond)"/><path d="M1475 436 H1525 V1060 H1340" fill="none" stroke="#111827" stroke-width="1.05" marker-start="url(#diamond)"/><path d="M1475 924.5 H1530 V916 H1585" fill="none" stroke="#111827" stroke-width="1.05" marker-start="url(#diamond)"/><path d="M1475 1152.5 H1530 V1144 H1585" fill="none" stroke="#111827" stroke-width="1.05" marker-start="url(#diamond)"/><path d="M1340 1245 V1262 H1340 V1275" fill="none" stroke="#111827" stroke-width="1.05" marker-start="url(#diamond)"/><text x="1516" y="390" text-anchor="middle" font-family="Arial, sans-serif" font-size="11" fill="#111827">1</text><text x="1565" y="390" text-anchor="middle" font-family="Arial, sans-serif" font-size="11" fill="#111827">1..*</text><text x="1370" y="566" text-anchor="middle" font-family="Arial, sans-serif" font-size="11" fill="#111827">*</text><text x="1535" y="795" text-anchor="middle" font-family="Arial, sans-serif" font-size="11" fill="#111827">*</text><text x="1550" y="1040" text-anchor="middle" font-family="Arial, sans-serif" font-size="11" fill="#111827">*</text><text x="1516" y="875" text-anchor="middle" font-family="Arial, sans-serif" font-size="11" fill="#111827">1</text><text x="1565" y="875" text-anchor="middle" font-family="Arial, sans-serif" font-size="11" fill="#111827">*</text><text x="1516" y="1105" text-anchor="middle" font-family="Arial, sans-serif" font-size="11" fill="#111827">1</text><text x="1565" y="1105" text-anchor="middle" font-family="Arial, sans-serif" font-size="11" fill="#111827">*</text><text x="1372" y="1268" text-anchor="middle" font-family="Arial, sans-serif" font-size="11" fill="#111827">0..1</text></svg>