<svg xmlns="http://www.w3.org/2000/svg" width="1520" height="700" viewBox="0 0 1520 700">
<defs>
  <marker id="arrow" viewBox="0 0 10 10" refX="9" refY="5" markerWidth="7" markerHeight="7" orient="auto"><path d="M0 0 L10 5 L0 10 z" fill="#111827"/></marker>
  <marker id="hollowArrow" viewBox="0 0 10 10" refX="9" refY="5" markerWidth="7" markerHeight="7" orient="auto"><path d="M0 0 L10 5 L0 10 z" fill="#fbfbfb" stroke="#111827"/></marker>
  <marker id="diamond" viewBox="0 0 16 10" refX="1" refY="5" markerWidth="11" markerHeight="9" orient="auto"><path d="M1 5 L8 1 L15 5 L8 9 z" fill="#111827" stroke="#111827"/></marker>
</defs>
<rect width="100%" height="100%" fill="#f3f4f6"/>
<text x="36" y="32" font-family="Arial, sans-serif" font-size="20" font-weight="700">3.9 Manage Event &amp; Notification</text><circle cx="110" cy="72" r="10" fill="#fbfbfb" stroke="#111827" stroke-width="1.3"/>
<line x1="110" y1="82" x2="110" y2="104" stroke="#111827" stroke-width="1.3"/>
<line x1="94" y1="90" x2="126" y2="90" stroke="#111827" stroke-width="1.3"/>
<line x1="110" y1="104" x2="94" y2="120" stroke="#111827" stroke-width="1.3"/>
<line x1="110" y1="104" x2="126" y2="120" stroke="#111827" stroke-width="1.3"/>
<text x="110" y="140" text-anchor="middle" font-family="Arial, sans-serif" font-size="13">admin:Administrator</text><line x1="110" y1="106" x2="110" y2="660" stroke="#111827" stroke-width="1" stroke-dasharray="6 6"/><rect x="256" y="62" width="168" height="44" fill="#fbfbfb" stroke="#111827" stroke-width="1.2"/>
<text x="340" y="89" text-anchor="middle" font-family="Arial, sans-serif" font-size="13" font-weight="700">EventUI</text><line x1="340" y1="106" x2="340" y2="660" stroke="#111827" stroke-width="1" stroke-dasharray="6 6"/><rect x="486" y="62" width="168" height="44" fill="#fbfbfb" stroke="#111827" stroke-width="1.2"/>
<text x="570" y="89" text-anchor="middle" font-family="Arial, sans-serif" font-size="13" font-weight="700">EventService</text><line x1="570" y1="106" x2="570" y2="660" stroke="#111827" stroke-width="1" stroke-dasharray="6 6"/><rect x="716" y="62" width="168" height="44" fill="#fbfbfb" stroke="#111827" stroke-width="1.2"/>
<text x="800" y="89" text-anchor="middle" font-family="Arial, sans-serif" font-size="13" font-weight="700">DataStore</text><line x1="800" y1="106" x2="800" y2="660" stroke="#111827" stroke-width="1" stroke-dasharray="6 6"/><rect x="946" y="62" width="168" height="44" fill="#fbfbfb" stroke="#111827" stroke-width="1.2"/>
<text x="1030" y="89" text-anchor="middle" font-family="Arial, sans-serif" font-size="13" font-weight="700">NotificationService</text><line x1="1030" y1="106" x2="1030" y2="660" stroke="#111827" stroke-width="1" stroke-dasharray="6 6"/><circle cx="1260" cy="72" r="10" fill="#fbfbfb" stroke="#111827" stroke-width="1.3"/>
<line x1="1260" y1="82" x2="1260" y2="104" stroke="#111827" stroke-width="1.3"/>
<line x1="1244" y1="90" x2="1276" y2="90" stroke="#111827" stroke-width="1.3"/>
<line x1="1260" y1="104" x2="1244" y2="120" stroke="#111827" stroke-width="1.3"/>
<line x1="1260" y1="104" x2="1276" y2="120" stroke="#111827" stroke-width="1.3"/>
<text x="1260" y="140" text-anchor="middle" font-family="Arial, sans-serif" font-size="13">member:Member</text><line x1="1260" y1="106" x2="1260" y2="660" stroke="#111827" stroke-width="1" stroke-dasharray="6 6"/><line x1="110" y1="154" x2="340" y2="154" stroke="#111827" stroke-width="1.05" marker-end="url(#arrow)"/><rect x="172.64" y="131" width="104.72" height="20" fill="#f3f4f6" opacity="0.96"/><text x="225" y="147" text-anchor="middle" font-family="Arial, sans-serif" font-size="12" font-weight="400" fill="#111827">이벤트 생성 정보 입력</text><path d="M340 208 h42 q18 0 18 18 q0 18 -18 18 h-42" fill="none" stroke="#111827" stroke-width="1.05" marker-end="url(#arrow)"/><rect x="387" y="186" width="210.56" height="20" fill="#f3f4f6" opacity="0.96"/><text x="390" y="202" text-anchor="start" font-family="Arial, sans-serif" font-size="12" font-weight="400" fill="#111827">submitEventData(eventData)</text><line x1="340" y1="262" x2="570" y2="262" stroke="#111827" stroke-width="1.05" marker-end="url(#arrow)"/><rect x="376.18" y="239" width="157.64000000000001" height="35" fill="#f3f4f6" opacity="0.96"/><text x="455" y="255" text-anchor="middle" font-family="Arial, sans-serif" font-size="12" font-weight="400" fill="#111827">createEvent(teamId,</text><text x="455" y="270" text-anchor="middle" font-family="Arial, sans-serif" font-size="12" font-weight="400" fill="#111827">eventData)</text><line x1="570" y1="329" x2="800" y2="329" stroke="#111827" stroke-width="1.05" marker-end="url(#arrow)"/><rect x="636.42" y="306" width="97.16" height="20" fill="#f3f4f6" opacity="0.96"/><text x="685" y="322" text-anchor="middle" font-family="Arial, sans-serif" font-size="12" font-weight="400" fill="#111827">save(Event)</text><line x1="800" y1="383" x2="570" y2="383" stroke="#111827" stroke-width="1.05" marker-end="url(#arrow)" stroke-dasharray="5 4"/><rect x="636.42" y="360" width="97.16" height="20" fill="#f3f4f6" opacity="0.96"/><text x="685" y="376" text-anchor="middle" font-family="Arial, sans-serif" font-size="12" font-weight="400" fill="#111827">event saved</text><line x1="570" y1="437" x2="1030" y2="437" stroke="#111827" stroke-width="1.05" marker-end="url(#arrow)"/><rect x="702.28" y="414" width="195.44" height="20" fill="#f3f4f6" opacity="0.96"/><text x="800" y="430" text-anchor="middle" font-family="Arial, sans-serif" font-size="12" font-weight="400" fill="#111827">sendVoteRequest(eventId)</text><line x1="1030" y1="491" x2="1260" y2="491" stroke="#111827" stroke-width="1.05" marker-end="url(#arrow)" stroke-dasharray="5 4"/><rect x="1092.64" y="468" width="104.72" height="20" fill="#f3f4f6" opacity="0.96"/><text x="1145" y="484" text-anchor="middle" font-family="Arial, sans-serif" font-size="12" font-weight="400" fill="#111827">이벤트 투표 요청 알림</text><line x1="570" y1="545" x2="340" y2="545" stroke="#111827" stroke-width="1.05" marker-end="url(#arrow)" stroke-dasharray="5 4"/><rect x="410.2" y="522" width="89.6" height="20" fill="#f3f4f6" opacity="0.96"/><text x="455" y="538" text-anchor="middle" font-family="Arial, sans-serif" font-size="12" font-weight="400" fill="#111827">event open</text><line x1="340" y1="599" x2="110" y2="599" stroke="#111827" stroke-width="1.05" marker-end="url(#arrow)" stroke-dasharray="5 4"/><rect x="183.98" y="576" width="82.04" height="20" fill="#f3f4f6" opacity="0.96"/><text x="225" y="592" text-anchor="middle" font-family="Arial, sans-serif" font-size="12" font-weight="400" fill="#111827">이벤트 카드 표시</text></svg>