<svg xmlns="http://www.w3.org/2000/svg" width="1060" height="1219" viewBox="0 0 1060 1219">
<defs>
  <marker id="arrow" viewBox="0 0 10 10" refX="9" refY="5" markerWidth="7" markerHeight="7" orient="auto"><path d="M0 0 L10 5 L0 10 z" fill="#111827"/></marker>
  <marker id="hollowArrow" viewBox="0 0 10 10" refX="9" refY="5" markerWidth="7" markerHeight="7" orient="auto"><path d="M0 0 L10 5 L0 10 z" fill="#fbfbfb" stroke="#111827"/></marker>
  <marker id="diamond" viewBox="0 0 16 10" refX="1" refY="5" markerWidth="11" markerHeight="9" orient="auto"><path d="M1 5 L8 1 L15 5 L8 9 z" fill="#111827" stroke="#111827"/></marker>
</defs>
<rect width="100%" height="100%" fill="#ffffff"/>
<text x="36" y="32" font-family="Arial, sans-serif" font-size="20" font-weight="700">3.8 Approve Task</text><rect x="26" y="62" width="168" height="44" fill="#fbfbfb" stroke="#111827" stroke-width="1.2"/>
<text x="110" y="89" text-anchor="middle" font-family="Arial, sans-serif" font-size="13" font-weight="700">TaskBoardUI</text><line x1="110" y1="106" x2="110" y2="1179" stroke="#111827" stroke-width="1" stroke-dasharray="6 6"/><rect x="256" y="62" width="168" height="44" fill="#fbfbfb" stroke="#111827" stroke-width="1.2"/>
<text x="340" y="89" text-anchor="middle" font-family="Arial, sans-serif" font-size="13" font-weight="700">TaskService</text><line x1="340" y1="106" x2="340" y2="1179" stroke="#111827" stroke-width="1" stroke-dasharray="6 6"/><rect x="486" y="62" width="168" height="44" fill="#fbfbfb" stroke="#111827" stroke-width="1.2"/>
<text x="570" y="89" text-anchor="middle" font-family="Arial, sans-serif" font-size="13" font-weight="700">DataStore</text><line x1="570" y1="106" x2="570" y2="1179" stroke="#111827" stroke-width="1" stroke-dasharray="6 6"/><rect x="716" y="62" width="168" height="44" fill="#fbfbfb" stroke="#111827" stroke-width="1.2"/>
<text x="800" y="89" text-anchor="middle" font-family="Arial, sans-serif" font-size="13" font-weight="700">NotificationService</text><line x1="800" y1="106" x2="800" y2="1179" stroke="#111827" stroke-width="1" stroke-dasharray="6 6"/><rect x="74" y="497" width="898" height="649" fill="none" stroke="#111827" stroke-dasharray="4 4"/><path d="M74 497 h72 l-12 22 h-60 z" fill="#fbfbfb" stroke="#111827"/><text x="108" y="512" text-anchor="middle" font-family="Arial, sans-serif" font-size="12" font-weight="700" fill="#111827">alt 승인 선택</text><line x1="74" y1="849" x2="972" y2="849" stroke="#111827" stroke-dasharray="4 4"/><text x="126" y="840" text-anchor="start" font-family="Arial, sans-serif" font-size="12" font-weight="700" fill="#111827">else 반려 선택</text><line x1="110" y1="162" x2="340" y2="162" stroke="#111827" stroke-width="1.05" marker-end="url(#arrow)"/><text x="225" y="144" text-anchor="middle" font-family="Arial, sans-serif" font-size="12" font-weight="400" fill="#111827">getSubmission(submissionId)</text><line x1="340" y1="234" x2="570" y2="234" stroke="#111827" stroke-width="1.05" marker-end="url(#arrow)"/><text x="455" y="216" text-anchor="middle" font-family="Arial, sans-serif" font-size="12" font-weight="400" fill="#111827">findById(submissionId)</text><line x1="570" y1="306" x2="340" y2="306" stroke="#111827" stroke-width="1.05" marker-end="url(#arrow)" stroke-dasharray="5 4"/><text x="455" y="288" text-anchor="middle" font-family="Arial, sans-serif" font-size="12" font-weight="400" fill="#111827">submission data</text><line x1="340" y1="378" x2="110" y2="378" stroke="#111827" stroke-width="1.05" marker-end="url(#arrow)" stroke-dasharray="5 4"/><text x="225" y="360" text-anchor="middle" font-family="Arial, sans-serif" font-size="12" font-weight="400" fill="#111827">submission detail</text><path d="M110 450 h42 q18 0 18 18 q0 18 -18 18 h-42" fill="none" stroke="#111827" stroke-width="1.05" marker-end="url(#arrow)"/><text x="164" y="432" text-anchor="start" font-family="Arial, sans-serif" font-size="12" font-weight="400" fill="#111827">showSubmissionDetail(submission)</text><line x1="110" y1="564" x2="340" y2="564" stroke="#111827" stroke-width="1.05" marker-end="url(#arrow)"/><text x="225" y="546" text-anchor="middle" font-family="Arial, sans-serif" font-size="12" font-weight="400" fill="#111827">approveSubmission(submissionId)</text><line x1="340" y1="636" x2="570" y2="636" stroke="#111827" stroke-width="1.05" marker-end="url(#arrow)"/><text x="455" y="618" text-anchor="middle" font-family="Arial, sans-serif" font-size="12" font-weight="400" fill="#111827">update(Submission APPROVED)</text><path d="M340 722 h42 q18 0 18 18 q0 18 -18 18 h-42" fill="none" stroke="#111827" stroke-width="1.05" marker-end="url(#arrow)"/><text x="394" y="704" text-anchor="start" font-family="Arial, sans-serif" font-size="12" font-weight="400" fill="#111827">calculateProgress(teamId)</text><line x1="340" y1="794" x2="800" y2="794" stroke="#111827" stroke-width="1.05" marker-end="url(#arrow)"/><text x="570" y="776" text-anchor="middle" font-family="Arial, sans-serif" font-size="12" font-weight="400" fill="#111827">sendApprovalNotice(submissionId)</text><line x1="110" y1="908" x2="340" y2="908" stroke="#111827" stroke-width="1.05" marker-end="url(#arrow)"/><text x="225" y="890" text-anchor="middle" font-family="Arial, sans-serif" font-size="12" font-weight="400" fill="#111827">rejectSubmission(submissionId)</text><line x1="340" y1="980" x2="570" y2="980" stroke="#111827" stroke-width="1.05" marker-end="url(#arrow)"/><text x="455" y="962" text-anchor="middle" font-family="Arial, sans-serif" font-size="12" font-weight="400" fill="#111827">update(Submission REJECTED)</text><line x1="340" y1="1066" x2="800" y2="1066" stroke="#111827" stroke-width="1.05" marker-end="url(#arrow)"/><text x="570" y="1048" text-anchor="middle" font-family="Arial, sans-serif" font-size="12" font-weight="400" fill="#111827">sendRejectionNotice(submissionId)</text></svg>