<svg xmlns="http://www.w3.org/2000/svg" width="1750" height="1709" viewBox="0 0 1750 1709">
<defs>
  <marker id="arrow" viewBox="0 0 10 10" refX="9" refY="5" markerWidth="7" markerHeight="7" orient="auto"><path d="M0 0 L10 5 L0 10 z" fill="#111827"/></marker>
  <marker id="hollowArrow" viewBox="0 0 10 10" refX="9" refY="5" markerWidth="7" markerHeight="7" orient="auto"><path d="M0 0 L10 5 L0 10 z" fill="#fbfbfb" stroke="#111827"/></marker>
  <marker id="diamond" viewBox="0 0 16 10" refX="1" refY="5" markerWidth="11" markerHeight="9" orient="auto"><path d="M1 5 L8 1 L15 5 L8 9 z" fill="#111827" stroke="#111827"/></marker>
</defs>
<rect width="100%" height="100%" fill="#ffffff"/>
<text x="36" y="32" font-family="Arial, sans-serif" font-size="20" font-weight="700">3.1 Register Member</text><circle cx="110" cy="72" r="10" fill="#fbfbfb" stroke="#111827" stroke-width="1.3"/>
<line x1="110" y1="82" x2="110" y2="104" stroke="#111827" stroke-width="1.3"/>
<line x1="94" y1="90" x2="126" y2="90" stroke="#111827" stroke-width="1.3"/>
<line x1="110" y1="104" x2="94" y2="120" stroke="#111827" stroke-width="1.3"/>
<line x1="110" y1="104" x2="126" y2="120" stroke="#111827" stroke-width="1.3"/>
<text x="110" y="140" text-anchor="middle" font-family="Arial, sans-serif" font-size="13">member:Member</text><line x1="110" y1="106" x2="110" y2="1669" stroke="#111827" stroke-width="1" stroke-dasharray="6 6"/><rect x="256" y="62" width="168" height="44" fill="#fbfbfb" stroke="#111827" stroke-width="1.2"/>
<text x="340" y="89" text-anchor="middle" font-family="Arial, sans-serif" font-size="13" font-weight="700">LoginUI</text><line x1="340" y1="106" x2="340" y2="1669" stroke="#111827" stroke-width="1" stroke-dasharray="6 6"/><rect x="486" y="62" width="168" height="44" fill="#fbfbfb" stroke="#111827" stroke-width="1.2"/>
<text x="570" y="89" text-anchor="middle" font-family="Arial, sans-serif" font-size="13" font-weight="700">RegisterUI</text><line x1="570" y1="106" x2="570" y2="1669" stroke="#111827" stroke-width="1" stroke-dasharray="6 6"/><rect x="716" y="62" width="168" height="44" fill="#fbfbfb" stroke="#111827" stroke-width="1.2"/>
<text x="800" y="89" text-anchor="middle" font-family="Arial, sans-serif" font-size="13" font-weight="700">AuthService</text><line x1="800" y1="106" x2="800" y2="1669" stroke="#111827" stroke-width="1" stroke-dasharray="6 6"/><rect x="946" y="62" width="168" height="44" fill="#fbfbfb" stroke="#111827" stroke-width="1.2"/>
<text x="1030" y="89" text-anchor="middle" font-family="Arial, sans-serif" font-size="13" font-weight="700">SupabaseAuthClient</text><line x1="1030" y1="106" x2="1030" y2="1669" stroke="#111827" stroke-width="1" stroke-dasharray="6 6"/><rect x="1176" y="62" width="168" height="44" fill="#fbfbfb" stroke="#111827" stroke-width="1.2"/>
<text x="1260" y="89" text-anchor="middle" font-family="Arial, sans-serif" font-size="13" font-weight="700">SupabaseAuthAPI</text><line x1="1260" y1="106" x2="1260" y2="1669" stroke="#111827" stroke-width="1" stroke-dasharray="6 6"/><rect x="1406" y="62" width="168" height="44" fill="#fbfbfb" stroke="#111827" stroke-width="1.2"/>
<text x="1490" y="89" text-anchor="middle" font-family="Arial, sans-serif" font-size="13" font-weight="700">DataStore</text><line x1="1490" y1="106" x2="1490" y2="1669" stroke="#111827" stroke-width="1" stroke-dasharray="6 6"/><rect x="74" y="871" width="1588" height="765" fill="none" stroke="#111827" stroke-dasharray="4 4"/><path d="M74 871 h72 l-12 22 h-60 z" fill="#fbfbfb" stroke="#111827"/><text x="108" y="886" text-anchor="middle" font-family="Arial, sans-serif" font-size="12" font-weight="700" fill="#111827">alt 회원가입 성공</text><line x1="74" y1="1281" x2="1662" y2="1281" stroke="#111827" stroke-dasharray="4 4"/><text x="126" y="1272" text-anchor="start" font-family="Arial, sans-serif" font-size="12" font-weight="700" fill="#111827">else 입력 오류 또는 이미 가입된</text><text x="126" y="1287" text-anchor="start" font-family="Arial, sans-serif" font-size="12" font-weight="700" fill="#111827">계정</text><line x1="110" y1="162" x2="340" y2="162" stroke="#111827" stroke-width="1.05" marker-end="url(#arrow)"/><text x="225" y="144" text-anchor="middle" font-family="Arial, sans-serif" font-size="12" font-weight="400" fill="#111827">회원가입 선택</text><path d="M340 234 h42 q18 0 18 18 q0 18 -18 18 h-42" fill="none" stroke="#111827" stroke-width="1.05" marker-end="url(#arrow)"/><text x="394" y="216" text-anchor="start" font-family="Arial, sans-serif" font-size="12" font-weight="400" fill="#111827">openRegisterUI()</text><line x1="340" y1="306" x2="570" y2="306" stroke="#111827" stroke-width="1.05" marker-end="url(#arrow)"/><text x="455" y="288" text-anchor="middle" font-family="Arial, sans-serif" font-size="12" font-weight="400" fill="#111827">display()</text><line x1="110" y1="378" x2="570" y2="378" stroke="#111827" stroke-width="1.05" marker-end="url(#arrow)"/><text x="340" y="360" text-anchor="middle" font-family="Arial, sans-serif" font-size="12" font-weight="400" fill="#111827">학번 또는 이메일, 비밀번호 입력</text><path d="M570 450 h42 q18 0 18 18 q0 18 -18 18 h-42" fill="none" stroke="#111827" stroke-width="1.05" marker-end="url(#arrow)"/><text x="624" y="432" text-anchor="start" font-family="Arial, sans-serif" font-size="12" font-weight="400" fill="#111827">submitRegister(data)</text><line x1="570" y1="522" x2="800" y2="522" stroke="#111827" stroke-width="1.05" marker-end="url(#arrow)"/><text x="685" y="504" text-anchor="middle" font-family="Arial, sans-serif" font-size="12" font-weight="400" fill="#111827">registerMember(data)</text><path d="M800 594 h42 q18 0 18 18 q0 18 -18 18 h-42" fill="none" stroke="#111827" stroke-width="1.05" marker-end="url(#arrow)"/><text x="854" y="576" text-anchor="start" font-family="Arial, sans-serif" font-size="12" font-weight="400" fill="#111827">validateInput(data)</text><line x1="800" y1="666" x2="1030" y2="666" stroke="#111827" stroke-width="1.05" marker-end="url(#arrow)"/><text x="915" y="648" text-anchor="middle" font-family="Arial, sans-serif" font-size="12" font-weight="400" fill="#111827">signUp(email, password)</text><line x1="1030" y1="738" x2="1260" y2="738" stroke="#111827" stroke-width="1.05" marker-end="url(#arrow)"/><text x="1145" y="720" text-anchor="middle" font-family="Arial, sans-serif" font-size="12" font-weight="400" fill="#111827">POST /auth/v1/signup</text><line x1="1260" y1="810" x2="1030" y2="810" stroke="#111827" stroke-width="1.05" marker-end="url(#arrow)" stroke-dasharray="5 4"/><text x="1145" y="792" text-anchor="middle" font-family="Arial, sans-serif" font-size="12" font-weight="400" fill="#111827">user and session response</text><line x1="1030" y1="938" x2="800" y2="938" stroke="#111827" stroke-width="1.05" marker-end="url(#arrow)" stroke-dasharray="5 4"/><text x="915" y="920" text-anchor="middle" font-family="Arial, sans-serif" font-size="12" font-weight="400" fill="#111827">auth session</text><line x1="800" y1="1010" x2="1490" y2="1010" stroke="#111827" stroke-width="1.05" marker-end="url(#arrow)"/><text x="1145" y="992" text-anchor="middle" font-family="Arial, sans-serif" font-size="12" font-weight="400" fill="#111827">save(Member profile)</text><line x1="1490" y1="1082" x2="800" y2="1082" stroke="#111827" stroke-width="1.05" marker-end="url(#arrow)" stroke-dasharray="5 4"/><text x="1145" y="1064" text-anchor="middle" font-family="Arial, sans-serif" font-size="12" font-weight="400" fill="#111827">profile save success</text><line x1="800" y1="1154" x2="570" y2="1154" stroke="#111827" stroke-width="1.05" marker-end="url(#arrow)" stroke-dasharray="5 4"/><text x="685" y="1136" text-anchor="middle" font-family="Arial, sans-serif" font-size="12" font-weight="400" fill="#111827">registration success</text><line x1="570" y1="1226" x2="110" y2="1226" stroke="#111827" stroke-width="1.05" marker-end="url(#arrow)" stroke-dasharray="5 4"/><text x="340" y="1208" text-anchor="middle" font-family="Arial, sans-serif" font-size="12" font-weight="400" fill="#111827">showSuccess()</text><line x1="1260" y1="1340" x2="1030" y2="1340" stroke="#111827" stroke-width="1.05" marker-end="url(#arrow)" stroke-dasharray="5 4"/><text x="1145" y="1322" text-anchor="middle" font-family="Arial, sans-serif" font-size="12" font-weight="400" fill="#111827">auth error</text><line x1="1030" y1="1412" x2="800" y2="1412" stroke="#111827" stroke-width="1.05" marker-end="url(#arrow)" stroke-dasharray="5 4"/><text x="915" y="1394" text-anchor="middle" font-family="Arial, sans-serif" font-size="12" font-weight="400" fill="#111827">error message</text><line x1="800" y1="1484" x2="570" y2="1484" stroke="#111827" stroke-width="1.05" marker-end="url(#arrow)" stroke-dasharray="5 4"/><text x="685" y="1466" text-anchor="middle" font-family="Arial, sans-serif" font-size="12" font-weight="400" fill="#111827">registration error</text><line x1="570" y1="1556" x2="110" y2="1556" stroke="#111827" stroke-width="1.05" marker-end="url(#arrow)" stroke-dasharray="5 4"/><text x="340" y="1538" text-anchor="middle" font-family="Arial, sans-serif" font-size="12" font-weight="400" fill="#111827">showError(message)</text></svg>