<svg xmlns="http://www.w3.org/2000/svg" width="1141" height="1262" viewBox="0 0 1141 1262">
<defs>
  <marker id="arrow" viewBox="0 0 10 10" refX="9" refY="5" markerWidth="7" markerHeight="7" orient="auto-start-reverse">
    <path d="M0 0 L10 5 L0 10 z" fill="#1f2937"/>
  </marker>
</defs>
<rect width="100%" height="100%" fill="#ffffff"/>
<text x="28" y="28" font-family="Arial, sans-serif" font-size="20" font-weight="700" fill="#1f2937">3.8 approve task sequence</text><circle cx="48" cy="70" r="10" fill="#fff" stroke="#6d5dfc" stroke-width="1.5"/>
<line x1="48" y1="80" x2="48" y2="102" stroke="#6d5dfc" stroke-width="1.5"/>
<line x1="32" y1="88" x2="64" y2="88" stroke="#6d5dfc" stroke-width="1.5"/>
<line x1="48" y1="102" x2="32" y2="118" stroke="#6d5dfc" stroke-width="1.5"/>
<line x1="48" y1="102" x2="64" y2="118" stroke="#6d5dfc" stroke-width="1.5"/>
<text x="48" y="138" text-anchor="middle" font-family="Arial, sans-serif" font-size="13" fill="#111827">Administrator</text><line x1="48" y1="102" x2="48" y2="1214" stroke="#7c3aed" stroke-width="1.2" stroke-dasharray="6 6"/><rect x="165" y="60" width="136" height="42" rx="4" fill="#eef2ff" stroke="#7c3aed" stroke-width="1"/>
<text x="233" y="86" text-anchor="middle" font-family="Arial, sans-serif" font-size="13" font-weight="700" fill="#111827">TaskBoardUI</text><line x1="233" y1="102" x2="233" y2="1214" stroke="#7c3aed" stroke-width="1.2" stroke-dasharray="6 6"/><rect x="350" y="60" width="136" height="42" rx="4" fill="#eef2ff" stroke="#7c3aed" stroke-width="1"/>
<text x="418" y="86" text-anchor="middle" font-family="Arial, sans-serif" font-size="13" font-weight="700" fill="#111827">TaskService</text><line x1="418" y1="102" x2="418" y2="1214" stroke="#7c3aed" stroke-width="1.2" stroke-dasharray="6 6"/><rect x="535" y="60" width="136" height="42" rx="4" fill="#eef2ff" stroke="#7c3aed" stroke-width="1"/>
<text x="603" y="86" text-anchor="middle" font-family="Arial, sans-serif" font-size="13" font-weight="700" fill="#111827">DataStore</text><line x1="603" y1="102" x2="603" y2="1214" stroke="#7c3aed" stroke-width="1.2" stroke-dasharray="6 6"/><rect x="720" y="60" width="136" height="42" rx="4" fill="#eef2ff" stroke="#7c3aed" stroke-width="1"/>
<text x="788" y="86" text-anchor="middle" font-family="Arial, sans-serif" font-size="13" font-weight="700" fill="#111827">NotificationService</text><line x1="788" y1="102" x2="788" y2="1214" stroke="#7c3aed" stroke-width="1.2" stroke-dasharray="6 6"/><circle cx="973" cy="70" r="10" fill="#fff" stroke="#6d5dfc" stroke-width="1.5"/>
<line x1="973" y1="80" x2="973" y2="102" stroke="#6d5dfc" stroke-width="1.5"/>
<line x1="957" y1="88" x2="989" y2="88" stroke="#6d5dfc" stroke-width="1.5"/>
<line x1="973" y1="102" x2="957" y2="118" stroke="#6d5dfc" stroke-width="1.5"/>
<line x1="973" y1="102" x2="989" y2="118" stroke="#6d5dfc" stroke-width="1.5"/>
<text x="973" y="138" text-anchor="middle" font-family="Arial, sans-serif" font-size="13" fill="#111827">Member</text><line x1="973" y1="102" x2="973" y2="1214" stroke="#7c3aed" stroke-width="1.2" stroke-dasharray="6 6"/><line x1="48" y1="136" x2="233" y2="136" stroke="#1f2937" stroke-width="1.2" marker-end="url(#arrow)"/><text x="140.5" y="129" text-anchor="middle" font-family="Arial, sans-serif" font-size="12" fill="#111827">제출물 확인</text><line x1="233" y1="182" x2="418" y2="182" stroke="#1f2937" stroke-width="1.2" marker-end="url(#arrow)"/><text x="325.5" y="175" text-anchor="middle" font-family="Arial, sans-serif" font-size="12" fill="#111827">getSubmission(submissionId)</text><line x1="418" y1="228" x2="603" y2="228" stroke="#1f2937" stroke-width="1.2" marker-end="url(#arrow)"/><text x="510.5" y="221" text-anchor="middle" font-family="Arial, sans-serif" font-size="12" fill="#111827">findById(submissionId)</text><line x1="603" y1="274" x2="418" y2="274" stroke="#1f2937" stroke-width="1.2" marker-end="url(#arrow)" stroke-dasharray="4 4"/><text x="510.5" y="267" text-anchor="middle" font-family="Arial, sans-serif" font-size="12" fill="#111827">submission data</text><line x1="418" y1="320" x2="233" y2="320" stroke="#1f2937" stroke-width="1.2" marker-end="url(#arrow)" stroke-dasharray="4 4"/><text x="325.5" y="313" text-anchor="middle" font-family="Arial, sans-serif" font-size="12" fill="#111827">submission detail</text><path d="M233 366 h34 q18 0 18 18 q0 18 -18 18 h-34" fill="none" stroke="#1f2937" stroke-width="1.2" marker-end="url(#arrow)"/><text x="281" y="361" font-family="Arial, sans-serif" font-size="12" fill="#111827">showSubmissionDetail(submission)</text><rect x="30" y="388" width="1055" height="138" fill="none" stroke="#7c3aed" stroke-width="1.1" stroke-dasharray="3 3"/>
<path d="M30 388 h54 l-10 18 h-44 z" fill="#faf5ff" stroke="#7c3aed" stroke-width="1"/>
<text x="40" y="401" font-family="Arial, sans-serif" font-size="12" font-weight="700" fill="#111827">alt 승인 선택</text><line x1="48" y1="439.6" x2="233" y2="439.6" stroke="#1f2937" stroke-width="1.2" marker-end="url(#arrow)"/><text x="140.5" y="432.6" text-anchor="middle" font-family="Arial, sans-serif" font-size="12" fill="#111827">승인 선택</text><path d="M233 485.6 h34 q18 0 18 18 q0 18 -18 18 h-34" fill="none" stroke="#1f2937" stroke-width="1.2" marker-end="url(#arrow)"/><text x="281" y="480.6" font-family="Arial, sans-serif" font-size="12" fill="#111827">requestApproval(submissionId)</text><line x1="233" y1="531.6" x2="418" y2="531.6" stroke="#1f2937" stroke-width="1.2" marker-end="url(#arrow)"/><text x="325.5" y="524.6" text-anchor="middle" font-family="Arial, sans-serif" font-size="12" fill="#111827">approveSubmission(submissionId)</text><line x1="418" y1="577.6" x2="603" y2="577.6" stroke="#1f2937" stroke-width="1.2" marker-end="url(#arrow)"/><text x="510.5" y="570.6" text-anchor="middle" font-family="Arial, sans-serif" font-size="12" fill="#111827">update(Submission</text><text x="510.5" y="584.6" text-anchor="middle" font-family="Arial, sans-serif" font-size="12" fill="#111827">APPROVED)</text><path d="M418 623.6 h34 q18 0 18 18 q0 18 -18 18 h-34" fill="none" stroke="#1f2937" stroke-width="1.2" marker-end="url(#arrow)"/><text x="466" y="618.6" font-family="Arial, sans-serif" font-size="12" fill="#111827">calculateProgress(teamId)</text><line x1="418" y1="669.6" x2="788" y2="669.6" stroke="#1f2937" stroke-width="1.2" marker-end="url(#arrow)"/><text x="603" y="662.6" text-anchor="middle" font-family="Arial, sans-serif" font-size="12" fill="#111827">sendApprovalNotice(submissionId)</text><line x1="788" y1="715.6" x2="973" y2="715.6" stroke="#1f2937" stroke-width="1.2" marker-end="url(#arrow)" stroke-dasharray="4 4"/><text x="880.5" y="708.6" text-anchor="middle" font-family="Arial, sans-serif" font-size="12" fill="#111827">승인 알림</text><line x1="233" y1="761.6" x2="48" y2="761.6" stroke="#1f2937" stroke-width="1.2" marker-end="url(#arrow)" stroke-dasharray="4 4"/><text x="140.5" y="754.6" text-anchor="middle" font-family="Arial, sans-serif" font-size="12" fill="#111827">updateProgress(progress)</text><line x1="30" y1="795.6" x2="1085" y2="795.6" stroke="#7c3aed" stroke-width="1" stroke-dasharray="3 3"/>
<text x="56" y="789.6" font-family="Arial, sans-serif" font-size="12" font-weight="700" fill="#111827">else 반려 선택</text><line x1="48" y1="835.2" x2="233" y2="835.2" stroke="#1f2937" stroke-width="1.2" marker-end="url(#arrow)"/><text x="140.5" y="828.2" text-anchor="middle" font-family="Arial, sans-serif" font-size="12" fill="#111827">반려 선택</text><path d="M233 881.2 h34 q18 0 18 18 q0 18 -18 18 h-34" fill="none" stroke="#1f2937" stroke-width="1.2" marker-end="url(#arrow)"/><text x="281" y="876.2" font-family="Arial, sans-serif" font-size="12" fill="#111827">requestRejection(submissionId)</text><line x1="233" y1="927.2" x2="418" y2="927.2" stroke="#1f2937" stroke-width="1.2" marker-end="url(#arrow)"/><text x="325.5" y="920.2" text-anchor="middle" font-family="Arial, sans-serif" font-size="12" fill="#111827">rejectSubmission(submissionId)</text><line x1="418" y1="973.2" x2="603" y2="973.2" stroke="#1f2937" stroke-width="1.2" marker-end="url(#arrow)"/><text x="510.5" y="966.2" text-anchor="middle" font-family="Arial, sans-serif" font-size="12" fill="#111827">update(Submission</text><text x="510.5" y="980.2" text-anchor="middle" font-family="Arial, sans-serif" font-size="12" fill="#111827">REJECTED)</text><line x1="418" y1="1019.2" x2="788" y2="1019.2" stroke="#1f2937" stroke-width="1.2" marker-end="url(#arrow)"/><text x="603" y="1012.2" text-anchor="middle" font-family="Arial, sans-serif" font-size="12" fill="#111827">sendRejectionNotice(submissionId)</text><line x1="788" y1="1065.2" x2="973" y2="1065.2" stroke="#1f2937" stroke-width="1.2" marker-end="url(#arrow)" stroke-dasharray="4 4"/><text x="880.5" y="1058.2" text-anchor="middle" font-family="Arial, sans-serif" font-size="12" fill="#111827">재제출 요청 알림</text></svg>