<svg xmlns="http://www.w3.org/2000/svg" width="956" height="710" viewBox="0 0 956 710">
<defs>
  <marker id="arrow" viewBox="0 0 10 10" refX="9" refY="5" markerWidth="7" markerHeight="7" orient="auto-start-reverse">
    <path d="M0 0 L10 5 L0 10 z" fill="#1f2937"/>
  </marker>
</defs>
<rect width="100%" height="100%" fill="#ffffff"/>
<text x="28" y="28" font-family="Arial, sans-serif" font-size="20" font-weight="700" fill="#1f2937">3.3 create team sequence</text><circle cx="48" cy="70" r="10" fill="#fff" stroke="#6d5dfc" stroke-width="1.5"/>
<line x1="48" y1="80" x2="48" y2="102" stroke="#6d5dfc" stroke-width="1.5"/>
<line x1="32" y1="88" x2="64" y2="88" stroke="#6d5dfc" stroke-width="1.5"/>
<line x1="48" y1="102" x2="32" y2="118" stroke="#6d5dfc" stroke-width="1.5"/>
<line x1="48" y1="102" x2="64" y2="118" stroke="#6d5dfc" stroke-width="1.5"/>
<text x="48" y="138" text-anchor="middle" font-family="Arial, sans-serif" font-size="13" fill="#111827">Administrator</text><line x1="48" y1="102" x2="48" y2="662" stroke="#7c3aed" stroke-width="1.2" stroke-dasharray="6 6"/><rect x="165" y="60" width="136" height="42" rx="4" fill="#eef2ff" stroke="#7c3aed" stroke-width="1"/>
<text x="233" y="86" text-anchor="middle" font-family="Arial, sans-serif" font-size="13" font-weight="700" fill="#111827">HomeUI</text><line x1="233" y1="102" x2="233" y2="662" stroke="#7c3aed" stroke-width="1.2" stroke-dasharray="6 6"/><rect x="350" y="60" width="136" height="42" rx="4" fill="#eef2ff" stroke="#7c3aed" stroke-width="1"/>
<text x="418" y="86" text-anchor="middle" font-family="Arial, sans-serif" font-size="13" font-weight="700" fill="#111827">TeamUI</text><line x1="418" y1="102" x2="418" y2="662" stroke="#7c3aed" stroke-width="1.2" stroke-dasharray="6 6"/><rect x="535" y="60" width="136" height="42" rx="4" fill="#eef2ff" stroke="#7c3aed" stroke-width="1"/>
<text x="603" y="86" text-anchor="middle" font-family="Arial, sans-serif" font-size="13" font-weight="700" fill="#111827">TeamService</text><line x1="603" y1="102" x2="603" y2="662" stroke="#7c3aed" stroke-width="1.2" stroke-dasharray="6 6"/><rect x="720" y="60" width="136" height="42" rx="4" fill="#eef2ff" stroke="#7c3aed" stroke-width="1"/>
<text x="788" y="86" text-anchor="middle" font-family="Arial, sans-serif" font-size="13" font-weight="700" fill="#111827">DataStore</text><line x1="788" y1="102" x2="788" y2="662" stroke="#7c3aed" stroke-width="1.2" stroke-dasharray="6 6"/><line x1="48" y1="136" x2="233" y2="136" stroke="#1f2937" stroke-width="1.2" marker-end="url(#arrow)"/><text x="140.5" y="129" text-anchor="middle" font-family="Arial, sans-serif" font-size="12" fill="#111827">+ 팀 생성 선택</text><path d="M233 182 h34 q18 0 18 18 q0 18 -18 18 h-34" fill="none" stroke="#1f2937" stroke-width="1.2" marker-end="url(#arrow)"/><text x="281" y="177" font-family="Arial, sans-serif" font-size="12" fill="#111827">openTeamUI()</text><line x1="233" y1="228" x2="418" y2="228" stroke="#1f2937" stroke-width="1.2" marker-end="url(#arrow)"/><text x="325.5" y="221" text-anchor="middle" font-family="Arial, sans-serif" font-size="12" fill="#111827">displayTeamForm()</text><line x1="48" y1="274" x2="418" y2="274" stroke="#1f2937" stroke-width="1.2" marker-end="url(#arrow)"/><text x="233" y="267" text-anchor="middle" font-family="Arial, sans-serif" font-size="12" fill="#111827">팀명, 설명 입력</text><path d="M418 320 h34 q18 0 18 18 q0 18 -18 18 h-34" fill="none" stroke="#1f2937" stroke-width="1.2" marker-end="url(#arrow)"/><text x="466" y="315" font-family="Arial, sans-serif" font-size="12" fill="#111827">submitTeamData(teamData)</text><line x1="418" y1="366" x2="603" y2="366" stroke="#1f2937" stroke-width="1.2" marker-end="url(#arrow)"/><text x="510.5" y="359" text-anchor="middle" font-family="Arial, sans-serif" font-size="12" fill="#111827">createTeam(adminId,</text><text x="510.5" y="373" text-anchor="middle" font-family="Arial, sans-serif" font-size="12" fill="#111827">teamData)</text><line x1="603" y1="412" x2="788" y2="412" stroke="#1f2937" stroke-width="1.2" marker-end="url(#arrow)"/><text x="695.5" y="405" text-anchor="middle" font-family="Arial, sans-serif" font-size="12" fill="#111827">save(Team)</text><line x1="788" y1="458" x2="603" y2="458" stroke="#1f2937" stroke-width="1.2" marker-end="url(#arrow)" stroke-dasharray="4 4"/><text x="695.5" y="451" text-anchor="middle" font-family="Arial, sans-serif" font-size="12" fill="#111827">created Team</text><line x1="603" y1="504" x2="418" y2="504" stroke="#1f2937" stroke-width="1.2" marker-end="url(#arrow)" stroke-dasharray="4 4"/><text x="510.5" y="497" text-anchor="middle" font-family="Arial, sans-serif" font-size="12" fill="#111827">create success</text><line x1="418" y1="550" x2="233" y2="550" stroke="#1f2937" stroke-width="1.2" marker-end="url(#arrow)" stroke-dasharray="4 4"/><text x="325.5" y="543" text-anchor="middle" font-family="Arial, sans-serif" font-size="12" fill="#111827">updateTeamList(team)</text><line x1="233" y1="596" x2="48" y2="596" stroke="#1f2937" stroke-width="1.2" marker-end="url(#arrow)" stroke-dasharray="4 4"/><text x="140.5" y="589" text-anchor="middle" font-family="Arial, sans-serif" font-size="12" fill="#111827">새 팀 카드 표시</text></svg>