<svg xmlns="http://www.w3.org/2000/svg" width="1141" height="1032" viewBox="0 0 1141 1032">
<defs>
  <marker id="arrow" viewBox="0 0 10 10" refX="9" refY="5" markerWidth="7" markerHeight="7" orient="auto-start-reverse">
    <path d="M0 0 L10 5 L0 10 z" fill="#1f2937"/>
  </marker>
</defs>
<rect width="100%" height="100%" fill="#ffffff"/>
<text x="28" y="28" font-family="Arial, sans-serif" font-size="20" font-weight="700" fill="#1f2937">3.2 login sequence</text><circle cx="48" cy="70" r="10" fill="#fff" stroke="#6d5dfc" stroke-width="1.5"/>
<line x1="48" y1="80" x2="48" y2="102" stroke="#6d5dfc" stroke-width="1.5"/>
<line x1="32" y1="88" x2="64" y2="88" stroke="#6d5dfc" stroke-width="1.5"/>
<line x1="48" y1="102" x2="32" y2="118" stroke="#6d5dfc" stroke-width="1.5"/>
<line x1="48" y1="102" x2="64" y2="118" stroke="#6d5dfc" stroke-width="1.5"/>
<text x="48" y="138" text-anchor="middle" font-family="Arial, sans-serif" font-size="13" fill="#111827">Member</text><line x1="48" y1="102" x2="48" y2="984" stroke="#7c3aed" stroke-width="1.2" stroke-dasharray="6 6"/><rect x="165" y="60" width="136" height="42" rx="4" fill="#eef2ff" stroke="#7c3aed" stroke-width="1"/>
<text x="233" y="86" text-anchor="middle" font-family="Arial, sans-serif" font-size="13" font-weight="700" fill="#111827">LoginUI</text><line x1="233" y1="102" x2="233" y2="984" stroke="#7c3aed" stroke-width="1.2" stroke-dasharray="6 6"/><rect x="350" y="60" width="136" height="42" rx="4" fill="#eef2ff" stroke="#7c3aed" stroke-width="1"/>
<text x="418" y="86" text-anchor="middle" font-family="Arial, sans-serif" font-size="13" font-weight="700" fill="#111827">AuthService</text><line x1="418" y1="102" x2="418" y2="984" stroke="#7c3aed" stroke-width="1.2" stroke-dasharray="6 6"/><rect x="535" y="60" width="136" height="42" rx="4" fill="#eef2ff" stroke="#7c3aed" stroke-width="1"/>
<text x="603" y="86" text-anchor="middle" font-family="Arial, sans-serif" font-size="13" font-weight="700" fill="#111827">SupabaseAuthClient</text><line x1="603" y1="102" x2="603" y2="984" stroke="#7c3aed" stroke-width="1.2" stroke-dasharray="6 6"/><rect x="720" y="60" width="136" height="42" rx="4" fill="#eef2ff" stroke="#7c3aed" stroke-width="1"/>
<text x="788" y="86" text-anchor="middle" font-family="Arial, sans-serif" font-size="13" font-weight="700" fill="#111827">SupabaseAuthAPI</text><line x1="788" y1="102" x2="788" y2="984" stroke="#7c3aed" stroke-width="1.2" stroke-dasharray="6 6"/><rect x="905" y="60" width="136" height="42" rx="4" fill="#eef2ff" stroke="#7c3aed" stroke-width="1"/>
<text x="973" y="86" text-anchor="middle" font-family="Arial, sans-serif" font-size="13" font-weight="700" fill="#111827">HomeUI</text><line x1="973" y1="102" x2="973" y2="984" stroke="#7c3aed" stroke-width="1.2" stroke-dasharray="6 6"/><line x1="48" y1="136" x2="233" y2="136" stroke="#1f2937" stroke-width="1.2" marker-end="url(#arrow)"/><text x="140.5" y="129" text-anchor="middle" font-family="Arial, sans-serif" font-size="12" fill="#111827">학번과 비밀번호 입력</text><path d="M233 182 h34 q18 0 18 18 q0 18 -18 18 h-34" fill="none" stroke="#1f2937" stroke-width="1.2" marker-end="url(#arrow)"/><text x="281" y="177" font-family="Arial, sans-serif" font-size="12" fill="#111827">requestLogin(studentNo,</text><text x="281" y="191" font-family="Arial, sans-serif" font-size="12" fill="#111827">password)</text><line x1="233" y1="228" x2="418" y2="228" stroke="#1f2937" stroke-width="1.2" marker-end="url(#arrow)"/><text x="325.5" y="221" text-anchor="middle" font-family="Arial, sans-serif" font-size="12" fill="#111827">login(studentNo,</text><text x="325.5" y="235" text-anchor="middle" font-family="Arial, sans-serif" font-size="12" fill="#111827">password)</text><path d="M418 274 h34 q18 0 18 18 q0 18 -18 18 h-34" fill="none" stroke="#1f2937" stroke-width="1.2" marker-end="url(#arrow)"/><text x="466" y="269" font-family="Arial, sans-serif" font-size="12" fill="#111827">convertStudentNoToEmail(studentNo)</text><line x1="418" y1="320" x2="603" y2="320" stroke="#1f2937" stroke-width="1.2" marker-end="url(#arrow)"/><text x="510.5" y="313" text-anchor="middle" font-family="Arial, sans-serif" font-size="12" fill="#111827">signIn(email, password)</text><line x1="603" y1="366" x2="788" y2="366" stroke="#1f2937" stroke-width="1.2" marker-end="url(#arrow)"/><text x="695.5" y="359" text-anchor="middle" font-family="Arial, sans-serif" font-size="12" fill="#111827">POST</text><text x="695.5" y="373" text-anchor="middle" font-family="Arial, sans-serif" font-size="12" fill="#111827">/auth/v1/token?grant_type=password</text><line x1="788" y1="412" x2="603" y2="412" stroke="#1f2937" stroke-width="1.2" marker-end="url(#arrow)" stroke-dasharray="4 4"/><text x="695.5" y="405" text-anchor="middle" font-family="Arial, sans-serif" font-size="12" fill="#111827">auth response</text><rect x="30" y="434" width="1055" height="138" fill="none" stroke="#7c3aed" stroke-width="1.1" stroke-dasharray="3 3"/>
<path d="M30 434 h54 l-10 18 h-44 z" fill="#faf5ff" stroke="#7c3aed" stroke-width="1"/>
<text x="40" y="447" font-family="Arial, sans-serif" font-size="12" font-weight="700" fill="#111827">alt 로그인 성공</text><line x1="603" y1="485.6" x2="418" y2="485.6" stroke="#1f2937" stroke-width="1.2" marker-end="url(#arrow)" stroke-dasharray="4 4"/><text x="510.5" y="478.6" text-anchor="middle" font-family="Arial, sans-serif" font-size="12" fill="#111827">auth session</text><line x1="418" y1="531.6" x2="233" y2="531.6" stroke="#1f2937" stroke-width="1.2" marker-end="url(#arrow)" stroke-dasharray="4 4"/><text x="325.5" y="524.6" text-anchor="middle" font-family="Arial, sans-serif" font-size="12" fill="#111827">auth success</text><path d="M233 577.6 h34 q18 0 18 18 q0 18 -18 18 h-34" fill="none" stroke="#1f2937" stroke-width="1.2" marker-end="url(#arrow)"/><text x="281" y="572.6" font-family="Arial, sans-serif" font-size="12" fill="#111827">navigateHome()</text><line x1="233" y1="623.6" x2="973" y2="623.6" stroke="#1f2937" stroke-width="1.2" marker-end="url(#arrow)"/><text x="603" y="616.6" text-anchor="middle" font-family="Arial, sans-serif" font-size="12" fill="#111827">showHome()</text><line x1="973" y1="669.6" x2="48" y2="669.6" stroke="#1f2937" stroke-width="1.2" marker-end="url(#arrow)" stroke-dasharray="4 4"/><text x="510.5" y="662.6" text-anchor="middle" font-family="Arial, sans-serif" font-size="12" fill="#111827">홈 화면 표시</text><line x1="30" y1="703.6" x2="1085" y2="703.6" stroke="#7c3aed" stroke-width="1" stroke-dasharray="3 3"/>
<text x="56" y="697.6" font-family="Arial, sans-serif" font-size="12" font-weight="700" fill="#111827">else 로그인 실패</text><line x1="603" y1="743.2" x2="418" y2="743.2" stroke="#1f2937" stroke-width="1.2" marker-end="url(#arrow)" stroke-dasharray="4 4"/><text x="510.5" y="736.2" text-anchor="middle" font-family="Arial, sans-serif" font-size="12" fill="#111827">error message</text><line x1="418" y1="789.2" x2="233" y2="789.2" stroke="#1f2937" stroke-width="1.2" marker-end="url(#arrow)" stroke-dasharray="4 4"/><text x="325.5" y="782.2" text-anchor="middle" font-family="Arial, sans-serif" font-size="12" fill="#111827">auth failure</text><line x1="233" y1="835.2" x2="48" y2="835.2" stroke="#1f2937" stroke-width="1.2" marker-end="url(#arrow)" stroke-dasharray="4 4"/><text x="140.5" y="828.2" text-anchor="middle" font-family="Arial, sans-serif" font-size="12" fill="#111827">showError(message)</text></svg>