<svg xmlns="http://www.w3.org/2000/svg" width="950" height="565" viewBox="0 0 950 565">
<style>text{font-family:Arial,'Malgun Gothic',sans-serif}.title{font-size:22px;font-weight:700;fill:#1f2937}.boxTitle{font-size:14px;font-weight:700;fill:#111827}.small{font-size:12px;fill:#374151}.msg{font-size:12px;fill:#111827}.muted{font-size:11px;fill:#6b7280}</style>
<rect width="100%" height="100%" fill="#ffffff"/>
<defs><marker id="arrow" markerWidth="10" markerHeight="10" refX="8" refY="3" orient="auto"><path d="M0,0 L0,6 L9,3 z" fill="#2563eb"/></marker></defs>
<text x="40" y="44" class="title">Sequence Diagram 6</text>
<rect x="5" y="58" width="130" height="38" rx="8" fill="#eff6ff" stroke="#2563eb"/>
<text x="70" y="82" text-anchor="middle" class="boxTitle">Admin</text>
<line x1="70" y1="96" x2="70" y2="530" stroke="#cbd5e1" stroke-dasharray="5,5"/>
<rect x="195" y="58" width="130" height="38" rx="8" fill="#eff6ff" stroke="#2563eb"/>
<text x="260" y="82" text-anchor="middle" class="boxTitle">MainActivity</text>
<line x1="260" y1="96" x2="260" y2="530" stroke="#cbd5e1" stroke-dasharray="5,5"/>
<rect x="385" y="58" width="130" height="38" rx="8" fill="#eff6ff" stroke="#2563eb"/>
<text x="450" y="82" text-anchor="middle" class="boxTitle">teamScheduleCells</text>
<line x1="450" y1="96" x2="450" y2="530" stroke="#cbd5e1" stroke-dasharray="5,5"/>
<rect x="575" y="58" width="130" height="38" rx="8" fill="#eff6ff" stroke="#2563eb"/>
<text x="640" y="82" text-anchor="middle" class="boxTitle">confirmedMeetings</text>
<line x1="640" y1="96" x2="640" y2="530" stroke="#cbd5e1" stroke-dasharray="5,5"/>
<line x1="70" y1="145" x2="260" y2="145" stroke="#2563eb" stroke-width="1.8" marker-end="url(#arrow)"/>
<text x="165.0" y="137" text-anchor="middle" class="msg">최적 시간 추천받기</text>
<line x1="260" y1="200" x2="450" y2="200" stroke="#2563eb" stroke-width="1.8" marker-end="url(#arrow)"/>
<text x="355.0" y="192" text-anchor="middle" class="msg">현재 팀 불가능 시간 조회</text>
<path d="M260 255 C330 255 330 285 260 285" fill="none" stroke="#2563eb" stroke-width="1.8" marker-end="url(#arrow)"/>
<text x="338" y="260" text-anchor="middle" class="msg">unavailable=0인 Slot 계산</text>
<line x1="260" y1="310" x2="70" y2="310" stroke="#2563eb" stroke-width="1.8" marker-end="url(#arrow)"/>
<text x="165.0" y="302" text-anchor="middle" class="msg">가능한 cell을 초록색으로 표시</text>
<line x1="70" y1="365" x2="260" y2="365" stroke="#2563eb" stroke-width="1.8" marker-end="url(#arrow)"/>
<text x="165.0" y="357" text-anchor="middle" class="msg">년/월/일/시/분 선택 후 일정 확정</text>
<line x1="260" y1="420" x2="640" y2="420" stroke="#2563eb" stroke-width="1.8" marker-end="url(#arrow)"/>
<text x="450.0" y="412" text-anchor="middle" class="msg">upsertMeeting(teamId, teamName, text)</text>
<line x1="260" y1="475" x2="70" y2="475" stroke="#2563eb" stroke-width="1.8" marker-end="url(#arrow)"/>
<text x="165.0" y="467" text-anchor="middle" class="msg">Home 확정 일정 카드 표시</text>
</svg>