<svg xmlns="http://www.w3.org/2000/svg" width="1520" height="1139" viewBox="0 0 1520 1139">
<defs>
  <marker id="arrow" viewBox="0 0 10 10" refX="9" refY="5" markerWidth="7" markerHeight="7" orient="auto"><path d="M0 0 L10 5 L0 10 z" fill="#111827"/></marker>
  <marker id="hollowArrow" viewBox="0 0 10 10" refX="9" refY="5" markerWidth="7" markerHeight="7" orient="auto"><path d="M0 0 L10 5 L0 10 z" fill="#fbfbfb" stroke="#111827"/></marker>
  <marker id="diamond" viewBox="0 0 16 10" refX="1" refY="5" markerWidth="11" markerHeight="9" orient="auto"><path d="M1 5 L8 1 L15 5 L8 9 z" fill="#111827" stroke="#111827"/></marker>
</defs>
<rect width="100%" height="100%" fill="#f3f4f6"/>
<text x="36" y="32" font-family="Arial, sans-serif" font-size="20" font-weight="700">3.2 Login</text><circle cx="110" cy="72" r="10" fill="#fbfbfb" stroke="#111827" stroke-width="1.3"/>
<line x1="110" y1="82" x2="110" y2="104" stroke="#111827" stroke-width="1.3"/>
<line x1="94" y1="90" x2="126" y2="90" stroke="#111827" stroke-width="1.3"/>
<line x1="110" y1="104" x2="94" y2="120" stroke="#111827" stroke-width="1.3"/>
<line x1="110" y1="104" x2="126" y2="120" stroke="#111827" stroke-width="1.3"/>
<text x="110" y="140" text-anchor="middle" font-family="Arial, sans-serif" font-size="13">member:Member</text><line x1="110" y1="106" x2="110" y2="1099" stroke="#111827" stroke-width="1" stroke-dasharray="6 6"/><rect x="256" y="62" width="168" height="44" fill="#fbfbfb" stroke="#111827" stroke-width="1.2"/>
<text x="340" y="89" text-anchor="middle" font-family="Arial, sans-serif" font-size="13" font-weight="700">LoginUI</text><line x1="340" y1="106" x2="340" y2="1099" stroke="#111827" stroke-width="1" stroke-dasharray="6 6"/><rect x="486" y="62" width="168" height="44" fill="#fbfbfb" stroke="#111827" stroke-width="1.2"/>
<text x="570" y="89" text-anchor="middle" font-family="Arial, sans-serif" font-size="13" font-weight="700">AuthService</text><line x1="570" y1="106" x2="570" y2="1099" stroke="#111827" stroke-width="1" stroke-dasharray="6 6"/><rect x="716" y="62" width="168" height="44" fill="#fbfbfb" stroke="#111827" stroke-width="1.2"/>
<text x="800" y="89" text-anchor="middle" font-family="Arial, sans-serif" font-size="13" font-weight="700">SupabaseAuthClient</text><line x1="800" y1="106" x2="800" y2="1099" stroke="#111827" stroke-width="1" stroke-dasharray="6 6"/><rect x="946" y="62" width="168" height="44" fill="#fbfbfb" stroke="#111827" stroke-width="1.2"/>
<text x="1030" y="89" text-anchor="middle" font-family="Arial, sans-serif" font-size="13" font-weight="700">SupabaseAuthAPI</text><line x1="1030" y1="106" x2="1030" y2="1099" stroke="#111827" stroke-width="1" stroke-dasharray="6 6"/><rect x="1176" y="62" width="168" height="44" fill="#fbfbfb" stroke="#111827" stroke-width="1.2"/>
<text x="1260" y="89" text-anchor="middle" font-family="Arial, sans-serif" font-size="13" font-weight="700">HomeUI</text><line x1="1260" y1="106" x2="1260" y2="1099" stroke="#111827" stroke-width="1" stroke-dasharray="6 6"/><rect x="74" y="533" width="1358" height="533" fill="none" stroke="#111827" stroke-dasharray="4 4"/><path d="M74 533 h72 l-12 22 h-60 z" fill="#fbfbfb" stroke="#111827"/><text x="108" y="548" text-anchor="middle" font-family="Arial, sans-serif" font-size="12" font-weight="700" fill="#111827">alt 로그인 성공</text><line x1="74" y1="845" x2="1432" y2="845" stroke="#111827" stroke-dasharray="4 4"/><rect x="123" y="823" width="97.16" height="20" fill="#f3f4f6" opacity="0.96"/><text x="126" y="839" text-anchor="start" font-family="Arial, sans-serif" font-size="12" font-weight="700" fill="#111827">else 로그인 실패</text><line x1="110" y1="154" x2="340" y2="154" stroke="#111827" stroke-width="1.05" marker-end="url(#arrow)"/><rect x="176.42000000000002" y="131" width="97.16" height="20" fill="#f3f4f6" opacity="0.96"/><text x="225" y="147" text-anchor="middle" font-family="Arial, sans-serif" font-size="12" font-weight="400" fill="#111827">학번과 비밀번호 입력</text><path d="M340 208 h42 q18 0 18 18 q0 18 -18 18 h-42" fill="none" stroke="#111827" stroke-width="1.05" marker-end="url(#arrow)"/><rect x="387" y="186" width="187.88" height="35" fill="#f3f4f6" opacity="0.96"/><text x="390" y="202" text-anchor="start" font-family="Arial, sans-serif" font-size="12" font-weight="400" fill="#111827">requestLogin(studentNo,</text><text x="390" y="217" text-anchor="start" font-family="Arial, sans-serif" font-size="12" font-weight="400" fill="#111827">password)</text><line x1="340" y1="275" x2="570" y2="275" stroke="#111827" stroke-width="1.05" marker-end="url(#arrow)"/><rect x="349.72" y="252" width="210.56" height="20" fill="#f3f4f6" opacity="0.96"/><text x="455" y="268" text-anchor="middle" font-family="Arial, sans-serif" font-size="12" font-weight="400" fill="#111827">login(studentNo, password)</text><path d="M570 342 h42 q18 0 18 18 q0 18 -18 18 h-42" fill="none" stroke="#111827" stroke-width="1.05" marker-end="url(#arrow)"/><rect x="617" y="320" width="271.04" height="20" fill="#f3f4f6" opacity="0.96"/><text x="620" y="336" text-anchor="start" font-family="Arial, sans-serif" font-size="12" font-weight="400" fill="#111827">convertStudentNoToEmail(studentNo)</text><line x1="570" y1="396" x2="800" y2="396" stroke="#111827" stroke-width="1.05" marker-end="url(#arrow)"/><rect x="591.06" y="373" width="187.88" height="20" fill="#f3f4f6" opacity="0.96"/><text x="685" y="389" text-anchor="middle" font-family="Arial, sans-serif" font-size="12" font-weight="400" fill="#111827">signIn(email, password)</text><line x1="800" y1="450" x2="1030" y2="450" stroke="#111827" stroke-width="1.05" marker-end="url(#arrow)"/><rect x="836.18" y="427" width="157.64000000000001" height="20" fill="#f3f4f6" opacity="0.96"/><text x="915" y="443" text-anchor="middle" font-family="Arial, sans-serif" font-size="12" font-weight="400" fill="#111827">POST /auth/v1/token</text><line x1="1030" y1="504" x2="800" y2="504" stroke="#111827" stroke-width="1.05" marker-end="url(#arrow)" stroke-dasharray="5 4"/><rect x="858.86" y="481" width="112.28" height="20" fill="#f3f4f6" opacity="0.96"/><text x="915" y="497" text-anchor="middle" font-family="Arial, sans-serif" font-size="12" font-weight="400" fill="#111827">auth response</text><line x1="800" y1="592" x2="570" y2="592" stroke="#111827" stroke-width="1.05" marker-end="url(#arrow)" stroke-dasharray="5 4"/><rect x="632.64" y="569" width="104.72" height="20" fill="#f3f4f6" opacity="0.96"/><text x="685" y="585" text-anchor="middle" font-family="Arial, sans-serif" font-size="12" font-weight="400" fill="#111827">auth session</text><line x1="570" y1="646" x2="340" y2="646" stroke="#111827" stroke-width="1.05" marker-end="url(#arrow)" stroke-dasharray="5 4"/><rect x="402.64" y="623" width="104.72" height="20" fill="#f3f4f6" opacity="0.96"/><text x="455" y="639" text-anchor="middle" font-family="Arial, sans-serif" font-size="12" font-weight="400" fill="#111827">auth success</text><path d="M340 700 h42 q18 0 18 18 q0 18 -18 18 h-42" fill="none" stroke="#111827" stroke-width="1.05" marker-end="url(#arrow)"/><rect x="387" y="678" width="119.84" height="20" fill="#f3f4f6" opacity="0.96"/><text x="390" y="694" text-anchor="start" font-family="Arial, sans-serif" font-size="12" font-weight="400" fill="#111827">navigateHome()</text><line x1="340" y1="754" x2="1260" y2="754" stroke="#111827" stroke-width="1.05" marker-end="url(#arrow)"/><rect x="755.2" y="731" width="89.6" height="20" fill="#f3f4f6" opacity="0.96"/><text x="800" y="747" text-anchor="middle" font-family="Arial, sans-serif" font-size="12" font-weight="400" fill="#111827">showHome()</text><line x1="1260" y1="808" x2="110" y2="808" stroke="#111827" stroke-width="1.05" marker-end="url(#arrow)" stroke-dasharray="5 4"/><rect x="651.54" y="785" width="66.92" height="20" fill="#f3f4f6" opacity="0.96"/><text x="685" y="801" text-anchor="middle" font-family="Arial, sans-serif" font-size="12" font-weight="400" fill="#111827">홈 화면 표시</text><line x1="800" y1="896" x2="570" y2="896" stroke="#111827" stroke-width="1.05" marker-end="url(#arrow)" stroke-dasharray="5 4"/><rect x="628.86" y="873" width="112.28" height="20" fill="#f3f4f6" opacity="0.96"/><text x="685" y="889" text-anchor="middle" font-family="Arial, sans-serif" font-size="12" font-weight="400" fill="#111827">error message</text><line x1="570" y1="950" x2="340" y2="950" stroke="#111827" stroke-width="1.05" marker-end="url(#arrow)" stroke-dasharray="5 4"/><rect x="402.64" y="927" width="104.72" height="20" fill="#f3f4f6" opacity="0.96"/><text x="455" y="943" text-anchor="middle" font-family="Arial, sans-serif" font-size="12" font-weight="400" fill="#111827">auth failure</text><line x1="340" y1="1004" x2="110" y2="1004" stroke="#111827" stroke-width="1.05" marker-end="url(#arrow)" stroke-dasharray="5 4"/><rect x="149.95999999999998" y="981" width="150.08" height="20" fill="#f3f4f6" opacity="0.96"/><text x="225" y="997" text-anchor="middle" font-family="Arial, sans-serif" font-size="12" font-weight="400" fill="#111827">showError(message)</text></svg>