<svg xmlns="http://www.w3.org/2000/svg" width="1326" height="1216" viewBox="0 0 1326 1216">
<defs>
  <marker id="arrow" viewBox="0 0 10 10" refX="9" refY="5" markerWidth="7" markerHeight="7" orient="auto-start-reverse">
    <path d="M0 0 L10 5 L0 10 z" fill="#1f2937"/>
  </marker>
</defs>
<rect width="100%" height="100%" fill="#ffffff"/>
<text x="28" y="28" font-family="Arial, sans-serif" font-size="20" font-weight="700" fill="#1f2937">3.1 register member sequence</text><circle cx="48" cy="70" r="10" fill="#fff" stroke="#6d5dfc" stroke-width="1.5"/>
<line x1="48" y1="80" x2="48" y2="102" stroke="#6d5dfc" stroke-width="1.5"/>
<line x1="32" y1="88" x2="64" y2="88" stroke="#6d5dfc" stroke-width="1.5"/>
<line x1="48" y1="102" x2="32" y2="118" stroke="#6d5dfc" stroke-width="1.5"/>
<line x1="48" y1="102" x2="64" y2="118" stroke="#6d5dfc" stroke-width="1.5"/>
<text x="48" y="138" text-anchor="middle" font-family="Arial, sans-serif" font-size="13" fill="#111827">Member</text><line x1="48" y1="102" x2="48" y2="1168" stroke="#7c3aed" stroke-width="1.2" stroke-dasharray="6 6"/><rect x="165" y="60" width="136" height="42" rx="4" fill="#eef2ff" stroke="#7c3aed" stroke-width="1"/>
<text x="233" y="86" text-anchor="middle" font-family="Arial, sans-serif" font-size="13" font-weight="700" fill="#111827">LoginUI</text><line x1="233" y1="102" x2="233" y2="1168" stroke="#7c3aed" stroke-width="1.2" stroke-dasharray="6 6"/><rect x="350" y="60" width="136" height="42" rx="4" fill="#eef2ff" stroke="#7c3aed" stroke-width="1"/>
<text x="418" y="86" text-anchor="middle" font-family="Arial, sans-serif" font-size="13" font-weight="700" fill="#111827">RegisterUI</text><line x1="418" y1="102" x2="418" y2="1168" stroke="#7c3aed" stroke-width="1.2" stroke-dasharray="6 6"/><rect x="535" y="60" width="136" height="42" rx="4" fill="#eef2ff" stroke="#7c3aed" stroke-width="1"/>
<text x="603" y="86" text-anchor="middle" font-family="Arial, sans-serif" font-size="13" font-weight="700" fill="#111827">AuthService</text><line x1="603" y1="102" x2="603" y2="1168" stroke="#7c3aed" stroke-width="1.2" stroke-dasharray="6 6"/><rect x="720" y="60" width="136" height="42" rx="4" fill="#eef2ff" stroke="#7c3aed" stroke-width="1"/>
<text x="788" y="86" text-anchor="middle" font-family="Arial, sans-serif" font-size="13" font-weight="700" fill="#111827">SupabaseAuthClient</text><line x1="788" y1="102" x2="788" y2="1168" stroke="#7c3aed" stroke-width="1.2" stroke-dasharray="6 6"/><rect x="905" y="60" width="136" height="42" rx="4" fill="#eef2ff" stroke="#7c3aed" stroke-width="1"/>
<text x="973" y="86" text-anchor="middle" font-family="Arial, sans-serif" font-size="13" font-weight="700" fill="#111827">SupabaseAuthAPI</text><line x1="973" y1="102" x2="973" y2="1168" stroke="#7c3aed" stroke-width="1.2" stroke-dasharray="6 6"/><rect x="1090" y="60" width="136" height="42" rx="4" fill="#eef2ff" stroke="#7c3aed" stroke-width="1"/>
<text x="1158" y="86" text-anchor="middle" font-family="Arial, sans-serif" font-size="13" font-weight="700" fill="#111827">DataStore</text><line x1="1158" y1="102" x2="1158" y2="1168" stroke="#7c3aed" stroke-width="1.2" stroke-dasharray="6 6"/><line x1="48" y1="136" x2="233" y2="136" stroke="#1f2937" stroke-width="1.2" marker-end="url(#arrow)"/><text x="140.5" y="129" text-anchor="middle" font-family="Arial, sans-serif" font-size="12" fill="#111827">회원가입 선택</text><path d="M233 182 h34 q18 0 18 18 q0 18 -18 18 h-34" fill="none" stroke="#1f2937" stroke-width="1.2" marker-end="url(#arrow)"/><text x="281" y="177" font-family="Arial, sans-serif" font-size="12" fill="#111827">openRegisterUI()</text><line x1="233" y1="228" x2="418" y2="228" stroke="#1f2937" stroke-width="1.2" marker-end="url(#arrow)"/><text x="325.5" y="221" text-anchor="middle" font-family="Arial, sans-serif" font-size="12" fill="#111827">display()</text><line x1="48" y1="274" x2="418" y2="274" stroke="#1f2937" stroke-width="1.2" marker-end="url(#arrow)"/><text x="233" y="267" text-anchor="middle" font-family="Arial, sans-serif" font-size="12" fill="#111827">학번 또는 이메일, 비밀번호 입력</text><path d="M418 320 h34 q18 0 18 18 q0 18 -18 18 h-34" fill="none" stroke="#1f2937" stroke-width="1.2" marker-end="url(#arrow)"/><text x="466" y="315" font-family="Arial, sans-serif" font-size="12" fill="#111827">submitRegister(data)</text><line x1="418" y1="366" x2="603" y2="366" stroke="#1f2937" stroke-width="1.2" marker-end="url(#arrow)"/><text x="510.5" y="359" text-anchor="middle" font-family="Arial, sans-serif" font-size="12" fill="#111827">registerMember(data)</text><path d="M603 412 h34 q18 0 18 18 q0 18 -18 18 h-34" fill="none" stroke="#1f2937" stroke-width="1.2" marker-end="url(#arrow)"/><text x="651" y="407" font-family="Arial, sans-serif" font-size="12" fill="#111827">validateInput(data)</text><line x1="603" y1="458" x2="788" y2="458" stroke="#1f2937" stroke-width="1.2" marker-end="url(#arrow)"/><text x="695.5" y="451" text-anchor="middle" font-family="Arial, sans-serif" font-size="12" fill="#111827">signUp(email, password)</text><line x1="788" y1="504" x2="973" y2="504" stroke="#1f2937" stroke-width="1.2" marker-end="url(#arrow)"/><text x="880.5" y="497" text-anchor="middle" font-family="Arial, sans-serif" font-size="12" fill="#111827">POST /auth/v1/signup</text><line x1="973" y1="550" x2="788" y2="550" stroke="#1f2937" stroke-width="1.2" marker-end="url(#arrow)" stroke-dasharray="4 4"/><text x="880.5" y="543" text-anchor="middle" font-family="Arial, sans-serif" font-size="12" fill="#111827">user and session</text><text x="880.5" y="557" text-anchor="middle" font-family="Arial, sans-serif" font-size="12" fill="#111827">response</text><rect x="30" y="572" width="1240" height="138" fill="none" stroke="#7c3aed" stroke-width="1.1" stroke-dasharray="3 3"/>
<path d="M30 572 h54 l-10 18 h-44 z" fill="#faf5ff" stroke="#7c3aed" stroke-width="1"/>
<text x="40" y="585" font-family="Arial, sans-serif" font-size="12" font-weight="700" fill="#111827">alt 회원가입 성공</text><line x1="788" y1="623.6" x2="603" y2="623.6" stroke="#1f2937" stroke-width="1.2" marker-end="url(#arrow)" stroke-dasharray="4 4"/><text x="695.5" y="616.6" text-anchor="middle" font-family="Arial, sans-serif" font-size="12" fill="#111827">auth session</text><line x1="603" y1="669.6" x2="1158" y2="669.6" stroke="#1f2937" stroke-width="1.2" marker-end="url(#arrow)"/><text x="880.5" y="662.6" text-anchor="middle" font-family="Arial, sans-serif" font-size="12" fill="#111827">save(Member profile)</text><line x1="1158" y1="715.6" x2="603" y2="715.6" stroke="#1f2937" stroke-width="1.2" marker-end="url(#arrow)" stroke-dasharray="4 4"/><text x="880.5" y="708.6" text-anchor="middle" font-family="Arial, sans-serif" font-size="12" fill="#111827">profile save success</text><line x1="603" y1="761.6" x2="418" y2="761.6" stroke="#1f2937" stroke-width="1.2" marker-end="url(#arrow)" stroke-dasharray="4 4"/><text x="510.5" y="754.6" text-anchor="middle" font-family="Arial, sans-serif" font-size="12" fill="#111827">registration success</text><line x1="418" y1="807.6" x2="48" y2="807.6" stroke="#1f2937" stroke-width="1.2" marker-end="url(#arrow)" stroke-dasharray="4 4"/><text x="233" y="800.6" text-anchor="middle" font-family="Arial, sans-serif" font-size="12" fill="#111827">showSuccess()</text><line x1="30" y1="841.6" x2="1270" y2="841.6" stroke="#7c3aed" stroke-width="1" stroke-dasharray="3 3"/>
<text x="56" y="835.6" font-family="Arial, sans-serif" font-size="12" font-weight="700" fill="#111827">else 입력 오류 또는 이미 가입된 계정</text><line x1="973" y1="881.2" x2="788" y2="881.2" stroke="#1f2937" stroke-width="1.2" marker-end="url(#arrow)" stroke-dasharray="4 4"/><text x="880.5" y="874.2" text-anchor="middle" font-family="Arial, sans-serif" font-size="12" fill="#111827">auth error</text><line x1="788" y1="927.2" x2="603" y2="927.2" stroke="#1f2937" stroke-width="1.2" marker-end="url(#arrow)" stroke-dasharray="4 4"/><text x="695.5" y="920.2" text-anchor="middle" font-family="Arial, sans-serif" font-size="12" fill="#111827">error message</text><line x1="603" y1="973.2" x2="418" y2="973.2" stroke="#1f2937" stroke-width="1.2" marker-end="url(#arrow)" stroke-dasharray="4 4"/><text x="510.5" y="966.2" text-anchor="middle" font-family="Arial, sans-serif" font-size="12" fill="#111827">registration error</text><line x1="418" y1="1019.2" x2="48" y2="1019.2" stroke="#1f2937" stroke-width="1.2" marker-end="url(#arrow)" stroke-dasharray="4 4"/><text x="233" y="1012.2" text-anchor="middle" font-family="Arial, sans-serif" font-size="12" fill="#111827">showError(message)</text></svg>