<svg xmlns="http://www.w3.org/2000/svg" width="1520" height="1421" viewBox="0 0 1520 1421">
<defs>
  <marker id="arrow" viewBox="0 0 10 10" refX="9" refY="5" markerWidth="7" markerHeight="7" orient="auto"><path d="M0 0 L10 5 L0 10 z" fill="#111827"/></marker>
  <marker id="hollowArrow" viewBox="0 0 10 10" refX="9" refY="5" markerWidth="7" markerHeight="7" orient="auto"><path d="M0 0 L10 5 L0 10 z" fill="#fbfbfb" stroke="#111827"/></marker>
  <marker id="diamond" viewBox="0 0 16 10" refX="1" refY="5" markerWidth="11" markerHeight="9" orient="auto"><path d="M1 5 L8 1 L15 5 L8 9 z" fill="#111827" stroke="#111827"/></marker>
</defs>
<rect width="100%" height="100%" fill="#ffffff"/>
<text x="36" y="32" font-family="Arial, sans-serif" font-size="20" font-weight="700">3.1 Register Member</text><rect x="26" y="62" width="168" height="44" fill="#fbfbfb" stroke="#111827" stroke-width="1.2"/>
<text x="110" y="89" text-anchor="middle" font-family="Arial, sans-serif" font-size="13" font-weight="700">LoginUI</text><line x1="110" y1="106" x2="110" y2="1381" stroke="#111827" stroke-width="1" stroke-dasharray="6 6"/><rect x="256" y="62" width="168" height="44" fill="#fbfbfb" stroke="#111827" stroke-width="1.2"/>
<text x="340" y="89" text-anchor="middle" font-family="Arial, sans-serif" font-size="13" font-weight="700">RegisterUI</text><line x1="340" y1="106" x2="340" y2="1381" stroke="#111827" stroke-width="1" stroke-dasharray="6 6"/><rect x="486" y="62" width="168" height="44" fill="#fbfbfb" stroke="#111827" stroke-width="1.2"/>
<text x="570" y="89" text-anchor="middle" font-family="Arial, sans-serif" font-size="13" font-weight="700">AuthService</text><line x1="570" y1="106" x2="570" y2="1381" stroke="#111827" stroke-width="1" stroke-dasharray="6 6"/><rect x="716" y="62" width="168" height="44" fill="#fbfbfb" stroke="#111827" stroke-width="1.2"/>
<text x="800" y="89" text-anchor="middle" font-family="Arial, sans-serif" font-size="13" font-weight="700">SupabaseAuthClient</text><line x1="800" y1="106" x2="800" y2="1381" stroke="#111827" stroke-width="1" stroke-dasharray="6 6"/><rect x="946" y="62" width="168" height="44" fill="#fbfbfb" stroke="#111827" stroke-width="1.2"/>
<text x="1030" y="89" text-anchor="middle" font-family="Arial, sans-serif" font-size="13" font-weight="700">SupabaseAuthAPI</text><line x1="1030" y1="106" x2="1030" y2="1381" stroke="#111827" stroke-width="1" stroke-dasharray="6 6"/><rect x="1176" y="62" width="168" height="44" fill="#fbfbfb" stroke="#111827" stroke-width="1.2"/>
<text x="1260" y="89" text-anchor="middle" font-family="Arial, sans-serif" font-size="13" font-weight="700">DataStore</text><line x1="1260" y1="106" x2="1260" y2="1381" stroke="#111827" stroke-width="1" stroke-dasharray="6 6"/><rect x="74" y="727" width="1358" height="621" fill="none" stroke="#111827" stroke-dasharray="4 4"/><path d="M74 727 h72 l-12 22 h-60 z" fill="#fbfbfb" stroke="#111827"/><text x="108" y="742" text-anchor="middle" font-family="Arial, sans-serif" font-size="12" font-weight="700" fill="#111827">alt 회원가입 성공</text><line x1="74" y1="1065" x2="1432" y2="1065" stroke="#111827" stroke-dasharray="4 4"/><text x="126" y="1056" text-anchor="start" font-family="Arial, sans-serif" font-size="12" font-weight="700" fill="#111827">else 입력 오류 또는 이미 가입된</text><text x="126" y="1071" text-anchor="start" font-family="Arial, sans-serif" font-size="12" font-weight="700" fill="#111827">계정</text><path d="M110 162 h42 q18 0 18 18 q0 18 -18 18 h-42" fill="none" stroke="#111827" stroke-width="1.05" marker-end="url(#arrow)"/><text x="164" y="144" text-anchor="start" font-family="Arial, sans-serif" font-size="12" font-weight="400" fill="#111827">openRegisterUI()</text><line x1="110" y1="234" x2="340" y2="234" stroke="#111827" stroke-width="1.05" marker-end="url(#arrow)"/><text x="225" y="216" text-anchor="middle" font-family="Arial, sans-serif" font-size="12" font-weight="400" fill="#111827">display()</text><path d="M340 306 h42 q18 0 18 18 q0 18 -18 18 h-42" fill="none" stroke="#111827" stroke-width="1.05" marker-end="url(#arrow)"/><text x="394" y="288" text-anchor="start" font-family="Arial, sans-serif" font-size="12" font-weight="400" fill="#111827">submitRegister(data)</text><line x1="340" y1="378" x2="570" y2="378" stroke="#111827" stroke-width="1.05" marker-end="url(#arrow)"/><text x="455" y="360" text-anchor="middle" font-family="Arial, sans-serif" font-size="12" font-weight="400" fill="#111827">registerMember(data)</text><path d="M570 450 h42 q18 0 18 18 q0 18 -18 18 h-42" fill="none" stroke="#111827" stroke-width="1.05" marker-end="url(#arrow)"/><text x="624" y="432" text-anchor="start" font-family="Arial, sans-serif" font-size="12" font-weight="400" fill="#111827">validateInput(data)</text><line x1="570" y1="522" x2="800" y2="522" stroke="#111827" stroke-width="1.05" marker-end="url(#arrow)"/><text x="685" y="504" text-anchor="middle" font-family="Arial, sans-serif" font-size="12" font-weight="400" fill="#111827">signUp(email, password)</text><line x1="800" y1="594" x2="1030" y2="594" stroke="#111827" stroke-width="1.05" marker-end="url(#arrow)"/><text x="915" y="576" text-anchor="middle" font-family="Arial, sans-serif" font-size="12" font-weight="400" fill="#111827">POST /auth/v1/signup</text><line x1="1030" y1="666" x2="800" y2="666" stroke="#111827" stroke-width="1.05" marker-end="url(#arrow)" stroke-dasharray="5 4"/><text x="915" y="648" text-anchor="middle" font-family="Arial, sans-serif" font-size="12" font-weight="400" fill="#111827">user and session response</text><line x1="800" y1="794" x2="570" y2="794" stroke="#111827" stroke-width="1.05" marker-end="url(#arrow)" stroke-dasharray="5 4"/><text x="685" y="776" text-anchor="middle" font-family="Arial, sans-serif" font-size="12" font-weight="400" fill="#111827">auth session</text><line x1="570" y1="866" x2="1260" y2="866" stroke="#111827" stroke-width="1.05" marker-end="url(#arrow)"/><text x="915" y="848" text-anchor="middle" font-family="Arial, sans-serif" font-size="12" font-weight="400" fill="#111827">save(Member profile)</text><line x1="1260" y1="938" x2="570" y2="938" stroke="#111827" stroke-width="1.05" marker-end="url(#arrow)" stroke-dasharray="5 4"/><text x="915" y="920" text-anchor="middle" font-family="Arial, sans-serif" font-size="12" font-weight="400" fill="#111827">profile save success</text><line x1="570" y1="1010" x2="340" y2="1010" stroke="#111827" stroke-width="1.05" marker-end="url(#arrow)" stroke-dasharray="5 4"/><text x="455" y="992" text-anchor="middle" font-family="Arial, sans-serif" font-size="12" font-weight="400" fill="#111827">registration success</text><line x1="1030" y1="1124" x2="800" y2="1124" stroke="#111827" stroke-width="1.05" marker-end="url(#arrow)" stroke-dasharray="5 4"/><text x="915" y="1106" text-anchor="middle" font-family="Arial, sans-serif" font-size="12" font-weight="400" fill="#111827">auth error</text><line x1="800" y1="1196" x2="570" y2="1196" stroke="#111827" stroke-width="1.05" marker-end="url(#arrow)" stroke-dasharray="5 4"/><text x="685" y="1178" text-anchor="middle" font-family="Arial, sans-serif" font-size="12" font-weight="400" fill="#111827">error message</text><line x1="570" y1="1268" x2="340" y2="1268" stroke="#111827" stroke-width="1.05" marker-end="url(#arrow)" stroke-dasharray="5 4"/><text x="455" y="1250" text-anchor="middle" font-family="Arial, sans-serif" font-size="12" font-weight="400" fill="#111827">registration error</text></svg>