<svg xmlns="http://www.w3.org/2000/svg" width="1750" height="821" viewBox="0 0 1750 821">
<defs>
  <marker id="arrow" viewBox="0 0 10 10" refX="9" refY="5" markerWidth="7" markerHeight="7" orient="auto"><path d="M0 0 L10 5 L0 10 z" fill="#111827"/></marker>
  <marker id="hollowArrow" viewBox="0 0 10 10" refX="9" refY="5" markerWidth="7" markerHeight="7" orient="auto"><path d="M0 0 L10 5 L0 10 z" fill="#fff" stroke="#111827"/></marker>
  <marker id="diamond" viewBox="0 0 16 10" refX="1" refY="5" markerWidth="11" markerHeight="9" orient="auto"><path d="M1 5 L8 1 L15 5 L8 9 z" fill="#111827" stroke="#111827"/></marker>
</defs>
<rect width="100%" height="100%" fill="#ffffff"/>
<text x="36" y="32" font-family="Arial, sans-serif" font-size="20" font-weight="700">3.7 Upload Task</text><circle cx="110" cy="72" r="10" fill="#fff" stroke="#111827" stroke-width="1.3"/>
<line x1="110" y1="82" x2="110" y2="104" stroke="#111827" stroke-width="1.3"/>
<line x1="94" y1="90" x2="126" y2="90" stroke="#111827" stroke-width="1.3"/>
<line x1="110" y1="104" x2="94" y2="120" stroke="#111827" stroke-width="1.3"/>
<line x1="110" y1="104" x2="126" y2="120" stroke="#111827" stroke-width="1.3"/>
<text x="110" y="140" text-anchor="middle" font-family="Arial, sans-serif" font-size="13">member:Member</text><line x1="110" y1="106" x2="110" y2="781" stroke="#111827" stroke-width="1" stroke-dasharray="6 6"/><rect x="256" y="62" width="168" height="44" fill="#fff" stroke="#111827" stroke-width="1.2"/>
<text x="340" y="89" text-anchor="middle" font-family="Arial, sans-serif" font-size="13" font-weight="700">TaskBoardUI</text><line x1="340" y1="106" x2="340" y2="781" stroke="#111827" stroke-width="1" stroke-dasharray="6 6"/><rect x="486" y="62" width="168" height="44" fill="#fff" stroke="#111827" stroke-width="1.2"/>
<text x="570" y="89" text-anchor="middle" font-family="Arial, sans-serif" font-size="13" font-weight="700">TaskService</text><line x1="570" y1="106" x2="570" y2="781" stroke="#111827" stroke-width="1" stroke-dasharray="6 6"/><rect x="716" y="62" width="168" height="44" fill="#fff" stroke="#111827" stroke-width="1.2"/>
<text x="800" y="89" text-anchor="middle" font-family="Arial, sans-serif" font-size="13" font-weight="700">FileStorage</text><line x1="800" y1="106" x2="800" y2="781" stroke="#111827" stroke-width="1" stroke-dasharray="6 6"/><rect x="946" y="62" width="168" height="44" fill="#fff" stroke="#111827" stroke-width="1.2"/>
<text x="1030" y="89" text-anchor="middle" font-family="Arial, sans-serif" font-size="13" font-weight="700">DataStore</text><line x1="1030" y1="106" x2="1030" y2="781" stroke="#111827" stroke-width="1" stroke-dasharray="6 6"/><rect x="1176" y="62" width="168" height="44" fill="#fff" stroke="#111827" stroke-width="1.2"/>
<text x="1260" y="89" text-anchor="middle" font-family="Arial, sans-serif" font-size="13" font-weight="700">NotificationService</text><line x1="1260" y1="106" x2="1260" y2="781" stroke="#111827" stroke-width="1" stroke-dasharray="6 6"/><circle cx="1490" cy="72" r="10" fill="#fff" stroke="#111827" stroke-width="1.3"/>
<line x1="1490" y1="82" x2="1490" y2="104" stroke="#111827" stroke-width="1.3"/>
<line x1="1474" y1="90" x2="1506" y2="90" stroke="#111827" stroke-width="1.3"/>
<line x1="1490" y1="104" x2="1474" y2="120" stroke="#111827" stroke-width="1.3"/>
<line x1="1490" y1="104" x2="1506" y2="120" stroke="#111827" stroke-width="1.3"/>
<text x="1490" y="140" text-anchor="middle" font-family="Arial, sans-serif" font-size="13">admin:Administrator</text><line x1="1490" y1="106" x2="1490" y2="781" stroke="#111827" stroke-width="1" stroke-dasharray="6 6"/><line x1="110" y1="154" x2="340" y2="154" stroke="#111827" stroke-width="1.05" marker-end="url(#arrow)"/><rect x="180.2" y="131" width="89.6" height="20" fill="#fff" opacity="0.94"/><text x="225" y="147" text-anchor="middle" font-family="Arial, sans-serif" font-size="12" font-weight="400" fill="#111827">제출물 업로드 선택</text><path d="M340 208 h42 q18 0 18 18 q0 18 -18 18 h-42" fill="none" stroke="#111827" stroke-width="1.05" marker-end="url(#arrow)"/><rect x="387" y="186" width="218.12" height="20" fill="#fff" opacity="0.94"/><text x="390" y="202" text-anchor="start" font-family="Arial, sans-serif" font-size="12" font-weight="400" fill="#111827">requestUpload(taskId, file)</text><line x1="340" y1="275" x2="570" y2="275" stroke="#111827" stroke-width="1.05" marker-end="url(#arrow)"/><rect x="357.28" y="252" width="195.44" height="35" fill="#fff" opacity="0.94"/><text x="455" y="268" text-anchor="middle" font-family="Arial, sans-serif" font-size="12" font-weight="400" fill="#111827">uploadSubmission(taskId,</text><text x="455" y="283" text-anchor="middle" font-family="Arial, sans-serif" font-size="12" font-weight="400" fill="#111827">memberId, file)</text><line x1="570" y1="342" x2="800" y2="342" stroke="#111827" stroke-width="1.05" marker-end="url(#arrow)"/><rect x="632.64" y="319" width="104.72" height="20" fill="#fff" opacity="0.94"/><text x="685" y="335" text-anchor="middle" font-family="Arial, sans-serif" font-size="12" font-weight="400" fill="#111827">upload(file)</text><line x1="800" y1="396" x2="570" y2="396" stroke="#111827" stroke-width="1.05" marker-end="url(#arrow)" stroke-dasharray="5 4"/><rect x="651.54" y="373" width="66.92" height="20" fill="#fff" opacity="0.94"/><text x="685" y="389" text-anchor="middle" font-family="Arial, sans-serif" font-size="12" font-weight="400" fill="#111827">fileUrl</text><line x1="570" y1="450" x2="1030" y2="450" stroke="#111827" stroke-width="1.05" marker-end="url(#arrow)"/><rect x="732.52" y="427" width="134.96" height="20" fill="#fff" opacity="0.94"/><text x="800" y="443" text-anchor="middle" font-family="Arial, sans-serif" font-size="12" font-weight="400" fill="#111827">save(Submission)</text><line x1="1030" y1="504" x2="570" y2="504" stroke="#111827" stroke-width="1.05" marker-end="url(#arrow)" stroke-dasharray="5 4"/><rect x="747.64" y="481" width="104.72" height="20" fill="#fff" opacity="0.94"/><text x="800" y="497" text-anchor="middle" font-family="Arial, sans-serif" font-size="12" font-weight="400" fill="#111827">save success</text><line x1="570" y1="558" x2="1260" y2="558" stroke="#111827" stroke-width="1.05" marker-end="url(#arrow)"/><rect x="802.16" y="535" width="225.68" height="20" fill="#fff" opacity="0.94"/><text x="915" y="551" text-anchor="middle" font-family="Arial, sans-serif" font-size="12" font-weight="400" fill="#111827">sendSubmissionNotice(taskId)</text><line x1="1260" y1="612" x2="1490" y2="612" stroke="#111827" stroke-width="1.05" marker-end="url(#arrow)" stroke-dasharray="5 4"/><rect x="1348" y="589" width="54" height="20" fill="#fff" opacity="0.94"/><text x="1375" y="605" text-anchor="middle" font-family="Arial, sans-serif" font-size="12" font-weight="400" fill="#111827">제출 알림</text><line x1="570" y1="666" x2="340" y2="666" stroke="#111827" stroke-width="1.05" marker-end="url(#arrow)" stroke-dasharray="5 4"/><rect x="395.08" y="643" width="119.84" height="20" fill="#fff" opacity="0.94"/><text x="455" y="659" text-anchor="middle" font-family="Arial, sans-serif" font-size="12" font-weight="400" fill="#111827">upload success</text><line x1="340" y1="720" x2="110" y2="720" stroke="#111827" stroke-width="1.05" marker-end="url(#arrow)" stroke-dasharray="5 4"/><rect x="187.76" y="697" width="74.48" height="20" fill="#fff" opacity="0.94"/><text x="225" y="713" text-anchor="middle" font-family="Arial, sans-serif" font-size="12" font-weight="400" fill="#111827">제출 상태 표시</text></svg>