<svg xmlns="http://www.w3.org/2000/svg" width="1520" height="1435" viewBox="0 0 1520 1435">
<defs>
  <marker id="arrow" viewBox="0 0 10 10" refX="9" refY="5" markerWidth="7" markerHeight="7" orient="auto"><path d="M0 0 L10 5 L0 10 z" fill="#111827"/></marker>
  <marker id="hollowArrow" viewBox="0 0 10 10" refX="9" refY="5" markerWidth="7" markerHeight="7" orient="auto"><path d="M0 0 L10 5 L0 10 z" fill="#fbfbfb" stroke="#111827"/></marker>
  <marker id="diamond" viewBox="0 0 16 10" refX="1" refY="5" markerWidth="11" markerHeight="9" orient="auto"><path d="M1 5 L8 1 L15 5 L8 9 z" fill="#111827" stroke="#111827"/></marker>
</defs>
<rect width="100%" height="100%" fill="#ffffff"/>
<text x="36" y="32" font-family="Arial, sans-serif" font-size="20" font-weight="700">3.2 Login</text><circle cx="110" cy="72" r="10" fill="#fbfbfb" stroke="#111827" stroke-width="1.3"/>
<line x1="110" y1="82" x2="110" y2="104" stroke="#111827" stroke-width="1.3"/>
<line x1="94" y1="90" x2="126" y2="90" stroke="#111827" stroke-width="1.3"/>
<line x1="110" y1="104" x2="94" y2="120" stroke="#111827" stroke-width="1.3"/>
<line x1="110" y1="104" x2="126" y2="120" stroke="#111827" stroke-width="1.3"/>
<text x="110" y="140" text-anchor="middle" font-family="Arial, sans-serif" font-size="13">member:Member</text><line x1="110" y1="106" x2="110" y2="1395" stroke="#111827" stroke-width="1" stroke-dasharray="6 6"/><rect x="256" y="62" width="168" height="44" fill="#fbfbfb" stroke="#111827" stroke-width="1.2"/>
<text x="340" y="89" text-anchor="middle" font-family="Arial, sans-serif" font-size="13" font-weight="700">LoginUI</text><line x1="340" y1="106" x2="340" y2="1395" stroke="#111827" stroke-width="1" stroke-dasharray="6 6"/><rect x="486" y="62" width="168" height="44" fill="#fbfbfb" stroke="#111827" stroke-width="1.2"/>
<text x="570" y="89" text-anchor="middle" font-family="Arial, sans-serif" font-size="13" font-weight="700">AuthService</text><line x1="570" y1="106" x2="570" y2="1395" stroke="#111827" stroke-width="1" stroke-dasharray="6 6"/><rect x="716" y="62" width="168" height="44" fill="#fbfbfb" stroke="#111827" stroke-width="1.2"/>
<text x="800" y="89" text-anchor="middle" font-family="Arial, sans-serif" font-size="13" font-weight="700">SupabaseAuthClient</text><line x1="800" y1="106" x2="800" y2="1395" stroke="#111827" stroke-width="1" stroke-dasharray="6 6"/><rect x="946" y="62" width="168" height="44" fill="#fbfbfb" stroke="#111827" stroke-width="1.2"/>
<text x="1030" y="89" text-anchor="middle" font-family="Arial, sans-serif" font-size="13" font-weight="700">SupabaseAuthAPI</text><line x1="1030" y1="106" x2="1030" y2="1395" stroke="#111827" stroke-width="1" stroke-dasharray="6 6"/><rect x="1176" y="62" width="168" height="44" fill="#fbfbfb" stroke="#111827" stroke-width="1.2"/>
<text x="1260" y="89" text-anchor="middle" font-family="Arial, sans-serif" font-size="13" font-weight="700">HomeUI</text><line x1="1260" y1="106" x2="1260" y2="1395" stroke="#111827" stroke-width="1" stroke-dasharray="6 6"/><rect x="74" y="669" width="1358" height="693" fill="none" stroke="#111827" stroke-dasharray="4 4"/><path d="M74 669 h72 l-12 22 h-60 z" fill="#fbfbfb" stroke="#111827"/><text x="108" y="684" text-anchor="middle" font-family="Arial, sans-serif" font-size="12" font-weight="700" fill="#111827">alt 로그인 성공</text><line x1="74" y1="1079" x2="1432" y2="1079" stroke="#111827" stroke-dasharray="4 4"/><text x="126" y="1070" text-anchor="start" font-family="Arial, sans-serif" font-size="12" font-weight="700" fill="#111827">else 로그인 실패</text><line x1="110" y1="162" x2="340" y2="162" stroke="#111827" stroke-width="1.05" marker-end="url(#arrow)"/><text x="225" y="144" text-anchor="middle" font-family="Arial, sans-serif" font-size="12" font-weight="400" fill="#111827">학번과 비밀번호 입력</text><path d="M340 234 h42 q18 0 18 18 q0 18 -18 18 h-42" fill="none" stroke="#111827" stroke-width="1.05" marker-end="url(#arrow)"/><text x="394" y="216" text-anchor="start" font-family="Arial, sans-serif" font-size="12" font-weight="400" fill="#111827">requestLogin(studentNo,</text><text x="394" y="231" text-anchor="start" font-family="Arial, sans-serif" font-size="12" font-weight="400" fill="#111827">password)</text><line x1="340" y1="320" x2="570" y2="320" stroke="#111827" stroke-width="1.05" marker-end="url(#arrow)"/><text x="455" y="302" text-anchor="middle" font-family="Arial, sans-serif" font-size="12" font-weight="400" fill="#111827">login(studentNo, password)</text><path d="M570 406 h42 q18 0 18 18 q0 18 -18 18 h-42" fill="none" stroke="#111827" stroke-width="1.05" marker-end="url(#arrow)"/><text x="624" y="388" text-anchor="start" font-family="Arial, sans-serif" font-size="12" font-weight="400" fill="#111827">convertStudentNoToEmail(studentNo)</text><line x1="570" y1="478" x2="800" y2="478" stroke="#111827" stroke-width="1.05" marker-end="url(#arrow)"/><text x="685" y="460" text-anchor="middle" font-family="Arial, sans-serif" font-size="12" font-weight="400" fill="#111827">signIn(email, password)</text><line x1="800" y1="550" x2="1030" y2="550" stroke="#111827" stroke-width="1.05" marker-end="url(#arrow)"/><text x="915" y="532" text-anchor="middle" font-family="Arial, sans-serif" font-size="12" font-weight="400" fill="#111827">POST /auth/v1/token</text><line x1="1030" y1="622" x2="800" y2="622" stroke="#111827" stroke-width="1.05" marker-end="url(#arrow)" stroke-dasharray="5 4"/><text x="915" y="604" text-anchor="middle" font-family="Arial, sans-serif" font-size="12" font-weight="400" fill="#111827">auth response</text><line x1="800" y1="736" x2="570" y2="736" stroke="#111827" stroke-width="1.05" marker-end="url(#arrow)" stroke-dasharray="5 4"/><text x="685" y="718" text-anchor="middle" font-family="Arial, sans-serif" font-size="12" font-weight="400" fill="#111827">auth session</text><line x1="570" y1="808" x2="340" y2="808" stroke="#111827" stroke-width="1.05" marker-end="url(#arrow)" stroke-dasharray="5 4"/><text x="455" y="790" text-anchor="middle" font-family="Arial, sans-serif" font-size="12" font-weight="400" fill="#111827">auth success</text><path d="M340 880 h42 q18 0 18 18 q0 18 -18 18 h-42" fill="none" stroke="#111827" stroke-width="1.05" marker-end="url(#arrow)"/><text x="394" y="862" text-anchor="start" font-family="Arial, sans-serif" font-size="12" font-weight="400" fill="#111827">navigateHome()</text><line x1="340" y1="952" x2="1260" y2="952" stroke="#111827" stroke-width="1.05" marker-end="url(#arrow)"/><text x="800" y="934" text-anchor="middle" font-family="Arial, sans-serif" font-size="12" font-weight="400" fill="#111827">showHome()</text><line x1="1260" y1="1024" x2="110" y2="1024" stroke="#111827" stroke-width="1.05" marker-end="url(#arrow)" stroke-dasharray="5 4"/><text x="685" y="1006" text-anchor="middle" font-family="Arial, sans-serif" font-size="12" font-weight="400" fill="#111827">홈 화면 표시</text><line x1="800" y1="1138" x2="570" y2="1138" stroke="#111827" stroke-width="1.05" marker-end="url(#arrow)" stroke-dasharray="5 4"/><text x="685" y="1120" text-anchor="middle" font-family="Arial, sans-serif" font-size="12" font-weight="400" fill="#111827">error message</text><line x1="570" y1="1210" x2="340" y2="1210" stroke="#111827" stroke-width="1.05" marker-end="url(#arrow)" stroke-dasharray="5 4"/><text x="455" y="1192" text-anchor="middle" font-family="Arial, sans-serif" font-size="12" font-weight="400" fill="#111827">auth failure</text><line x1="340" y1="1282" x2="110" y2="1282" stroke="#111827" stroke-width="1.05" marker-end="url(#arrow)" stroke-dasharray="5 4"/><text x="225" y="1264" text-anchor="middle" font-family="Arial, sans-serif" font-size="12" font-weight="400" fill="#111827">showError(message)</text></svg>