<svg xmlns="http://www.w3.org/2000/svg" width="1520" height="888" viewBox="0 0 1520 888">
<defs>
  <marker id="arrow" viewBox="0 0 10 10" refX="9" refY="5" markerWidth="7" markerHeight="7" orient="auto"><path d="M0 0 L10 5 L0 10 z" fill="#111827"/></marker>
  <marker id="hollowArrow" viewBox="0 0 10 10" refX="9" refY="5" markerWidth="7" markerHeight="7" orient="auto"><path d="M0 0 L10 5 L0 10 z" fill="#fbfbfb" stroke="#111827"/></marker>
  <marker id="diamond" viewBox="0 0 16 10" refX="1" refY="5" markerWidth="11" markerHeight="9" orient="auto"><path d="M1 5 L8 1 L15 5 L8 9 z" fill="#111827" stroke="#111827"/></marker>
</defs>
<rect width="100%" height="100%" fill="#f3f4f6"/>
<text x="36" y="32" font-family="Arial, sans-serif" font-size="20" font-weight="700">3.6 Decide Schedule</text><circle cx="110" cy="72" r="10" fill="#fbfbfb" stroke="#111827" stroke-width="1.3"/>
<line x1="110" y1="82" x2="110" y2="104" stroke="#111827" stroke-width="1.3"/>
<line x1="94" y1="90" x2="126" y2="90" stroke="#111827" stroke-width="1.3"/>
<line x1="110" y1="104" x2="94" y2="120" stroke="#111827" stroke-width="1.3"/>
<line x1="110" y1="104" x2="126" y2="120" stroke="#111827" stroke-width="1.3"/>
<text x="110" y="140" text-anchor="middle" font-family="Arial, sans-serif" font-size="13">admin:Administrator</text><line x1="110" y1="106" x2="110" y2="848" stroke="#111827" stroke-width="1" stroke-dasharray="6 6"/><rect x="256" y="62" width="168" height="44" fill="#fbfbfb" stroke="#111827" stroke-width="1.2"/>
<text x="340" y="89" text-anchor="middle" font-family="Arial, sans-serif" font-size="13" font-weight="700">ScheduleUI</text><line x1="340" y1="106" x2="340" y2="848" stroke="#111827" stroke-width="1" stroke-dasharray="6 6"/><rect x="486" y="62" width="168" height="44" fill="#fbfbfb" stroke="#111827" stroke-width="1.2"/>
<text x="570" y="89" text-anchor="middle" font-family="Arial, sans-serif" font-size="13" font-weight="700">ScheduleService</text><line x1="570" y1="106" x2="570" y2="848" stroke="#111827" stroke-width="1" stroke-dasharray="6 6"/><rect x="716" y="62" width="168" height="44" fill="#fbfbfb" stroke="#111827" stroke-width="1.2"/>
<text x="800" y="89" text-anchor="middle" font-family="Arial, sans-serif" font-size="13" font-weight="700">DataStore</text><line x1="800" y1="106" x2="800" y2="848" stroke="#111827" stroke-width="1" stroke-dasharray="6 6"/><rect x="946" y="62" width="168" height="44" fill="#fbfbfb" stroke="#111827" stroke-width="1.2"/>
<text x="1030" y="89" text-anchor="middle" font-family="Arial, sans-serif" font-size="13" font-weight="700">NotificationService</text><line x1="1030" y1="106" x2="1030" y2="848" stroke="#111827" stroke-width="1" stroke-dasharray="6 6"/><circle cx="1260" cy="72" r="10" fill="#fbfbfb" stroke="#111827" stroke-width="1.3"/>
<line x1="1260" y1="82" x2="1260" y2="104" stroke="#111827" stroke-width="1.3"/>
<line x1="1244" y1="90" x2="1276" y2="90" stroke="#111827" stroke-width="1.3"/>
<line x1="1260" y1="104" x2="1244" y2="120" stroke="#111827" stroke-width="1.3"/>
<line x1="1260" y1="104" x2="1276" y2="120" stroke="#111827" stroke-width="1.3"/>
<text x="1260" y="140" text-anchor="middle" font-family="Arial, sans-serif" font-size="13">member:Member</text><line x1="1260" y1="106" x2="1260" y2="848" stroke="#111827" stroke-width="1" stroke-dasharray="6 6"/><line x1="110" y1="154" x2="340" y2="154" stroke="#111827" stroke-width="1.05" marker-end="url(#arrow)"/><rect x="168.86" y="131" width="112.28" height="20" fill="#f3f4f6" opacity="0.96"/><text x="225" y="147" text-anchor="middle" font-family="Arial, sans-serif" font-size="12" font-weight="400" fill="#111827">최적 시간 추천받기 선택</text><path d="M340 208 h42 q18 0 18 18 q0 18 -18 18 h-42" fill="none" stroke="#111827" stroke-width="1.05" marker-end="url(#arrow)"/><rect x="387" y="186" width="233.24" height="20" fill="#f3f4f6" opacity="0.96"/><text x="390" y="202" text-anchor="start" font-family="Arial, sans-serif" font-size="12" font-weight="400" fill="#111827">requestRecommendation(teamId)</text><line x1="340" y1="262" x2="570" y2="262" stroke="#111827" stroke-width="1.05" marker-end="url(#arrow)"/><rect x="368.62" y="239" width="172.76" height="20" fill="#f3f4f6" opacity="0.96"/><text x="455" y="255" text-anchor="middle" font-family="Arial, sans-serif" font-size="12" font-weight="400" fill="#111827">recommendTime(teamId)</text><line x1="570" y1="316" x2="800" y2="316" stroke="#111827" stroke-width="1.05" marker-end="url(#arrow)"/><rect x="621.3" y="293" width="127.4" height="20" fill="#f3f4f6" opacity="0.96"/><text x="685" y="309" text-anchor="middle" font-family="Arial, sans-serif" font-size="12" font-weight="400" fill="#111827">findAll(teamId)</text><line x1="800" y1="370" x2="570" y2="370" stroke="#111827" stroke-width="1.05" marker-end="url(#arrow)" stroke-dasharray="5 4"/><rect x="594.84" y="347" width="180.32" height="20" fill="#f3f4f6" opacity="0.96"/><text x="685" y="363" text-anchor="middle" font-family="Arial, sans-serif" font-size="12" font-weight="400" fill="#111827">all unavailable blocks</text><path d="M570 424 h42 q18 0 18 18 q0 18 -18 18 h-42" fill="none" stroke="#111827" stroke-width="1.05" marker-end="url(#arrow)"/><rect x="617" y="402" width="203" height="20" fill="#f3f4f6" opacity="0.96"/><text x="620" y="418" text-anchor="start" font-family="Arial, sans-serif" font-size="12" font-weight="400" fill="#111827">calculate available slots</text><line x1="570" y1="491" x2="340" y2="491" stroke="#111827" stroke-width="1.05" marker-end="url(#arrow)" stroke-dasharray="5 4"/><rect x="383.74" y="468" width="142.52" height="20" fill="#f3f4f6" opacity="0.96"/><text x="455" y="484" text-anchor="middle" font-family="Arial, sans-serif" font-size="12" font-weight="400" fill="#111827">recommended slots</text><line x1="340" y1="545" x2="110" y2="545" stroke="#111827" stroke-width="1.05" marker-end="url(#arrow)" stroke-dasharray="5 4"/><rect x="104.6" y="522" width="240.8" height="20" fill="#f3f4f6" opacity="0.96"/><text x="225" y="538" text-anchor="middle" font-family="Arial, sans-serif" font-size="12" font-weight="400" fill="#111827">highlightRecommendedSlot(slot)</text><line x1="110" y1="599" x2="340" y2="599" stroke="#111827" stroke-width="1.05" marker-end="url(#arrow)"/><rect x="187.76" y="576" width="74.48" height="20" fill="#f3f4f6" opacity="0.96"/><text x="225" y="592" text-anchor="middle" font-family="Arial, sans-serif" font-size="12" font-weight="400" fill="#111827">추천 시간 확정</text><line x1="340" y1="653" x2="570" y2="653" stroke="#111827" stroke-width="1.05" marker-end="url(#arrow)"/><rect x="361.06" y="630" width="187.88" height="35" fill="#f3f4f6" opacity="0.96"/><text x="455" y="646" text-anchor="middle" font-family="Arial, sans-serif" font-size="12" font-weight="400" fill="#111827">confirmSchedule(teamId,</text><text x="455" y="661" text-anchor="middle" font-family="Arial, sans-serif" font-size="12" font-weight="400" fill="#111827">slot)</text><line x1="570" y1="720" x2="1030" y2="720" stroke="#111827" stroke-width="1.05" marker-end="url(#arrow)"/><rect x="672.04" y="697" width="255.92000000000002" height="20" fill="#f3f4f6" opacity="0.96"/><text x="800" y="713" text-anchor="middle" font-family="Arial, sans-serif" font-size="12" font-weight="400" fill="#111827">sendScheduleNotice(teamId, slot)</text><line x1="1030" y1="787" x2="1260" y2="787" stroke="#111827" stroke-width="1.05" marker-end="url(#arrow)" stroke-dasharray="5 4"/><rect x="1107.76" y="764" width="74.48" height="20" fill="#f3f4f6" opacity="0.96"/><text x="1145" y="780" text-anchor="middle" font-family="Arial, sans-serif" font-size="12" font-weight="400" fill="#111827">일정 확정 알림</text></svg>