<svg xmlns="http://www.w3.org/2000/svg" width="1060" height="705" viewBox="0 0 1060 705">
<defs>
  <marker id="arrow" viewBox="0 0 10 10" refX="9" refY="5" markerWidth="7" markerHeight="7" orient="auto"><path d="M0 0 L10 5 L0 10 z" fill="#111827"/></marker>
  <marker id="hollowArrow" viewBox="0 0 10 10" refX="9" refY="5" markerWidth="7" markerHeight="7" orient="auto"><path d="M0 0 L10 5 L0 10 z" fill="#fbfbfb" stroke="#111827"/></marker>
  <marker id="diamond" viewBox="0 0 16 10" refX="1" refY="5" markerWidth="11" markerHeight="9" orient="auto"><path d="M1 5 L8 1 L15 5 L8 9 z" fill="#111827" stroke="#111827"/></marker>
</defs>
<rect width="100%" height="100%" fill="#ffffff"/>
<text x="36" y="32" font-family="Arial, sans-serif" font-size="20" font-weight="700">3.5 Input Schedule</text><circle cx="110" cy="72" r="10" fill="#fbfbfb" stroke="#111827" stroke-width="1.3"/>
<line x1="110" y1="82" x2="110" y2="104" stroke="#111827" stroke-width="1.3"/>
<line x1="94" y1="90" x2="126" y2="90" stroke="#111827" stroke-width="1.3"/>
<line x1="110" y1="104" x2="94" y2="120" stroke="#111827" stroke-width="1.3"/>
<line x1="110" y1="104" x2="126" y2="120" stroke="#111827" stroke-width="1.3"/>
<text x="110" y="140" text-anchor="middle" font-family="Arial, sans-serif" font-size="13">member:Member</text><line x1="110" y1="106" x2="110" y2="665" stroke="#111827" stroke-width="1" stroke-dasharray="6 6"/><rect x="256" y="62" width="168" height="44" fill="#fbfbfb" stroke="#111827" stroke-width="1.2"/>
<text x="340" y="89" text-anchor="middle" font-family="Arial, sans-serif" font-size="13" font-weight="700">ScheduleUI</text><line x1="340" y1="106" x2="340" y2="665" stroke="#111827" stroke-width="1" stroke-dasharray="6 6"/><rect x="486" y="62" width="168" height="44" fill="#fbfbfb" stroke="#111827" stroke-width="1.2"/>
<text x="570" y="89" text-anchor="middle" font-family="Arial, sans-serif" font-size="13" font-weight="700">ScheduleService</text><line x1="570" y1="106" x2="570" y2="665" stroke="#111827" stroke-width="1" stroke-dasharray="6 6"/><rect x="716" y="62" width="168" height="44" fill="#fbfbfb" stroke="#111827" stroke-width="1.2"/>
<text x="800" y="89" text-anchor="middle" font-family="Arial, sans-serif" font-size="13" font-weight="700">DataStore</text><line x1="800" y1="106" x2="800" y2="665" stroke="#111827" stroke-width="1" stroke-dasharray="6 6"/><line x1="110" y1="162" x2="340" y2="162" stroke="#111827" stroke-width="1.05" marker-end="url(#arrow)"/><text x="225" y="144" text-anchor="middle" font-family="Arial, sans-serif" font-size="12" font-weight="400" fill="#111827">불가능 시간 cell 터치</text><path d="M340 234 h42 q18 0 18 18 q0 18 -18 18 h-42" fill="none" stroke="#111827" stroke-width="1.05" marker-end="url(#arrow)"/><text x="394" y="216" text-anchor="start" font-family="Arial, sans-serif" font-size="12" font-weight="400" fill="#111827">selectUnavailableTime(block)</text><line x1="340" y1="306" x2="570" y2="306" stroke="#111827" stroke-width="1.05" marker-end="url(#arrow)"/><text x="455" y="288" text-anchor="middle" font-family="Arial, sans-serif" font-size="12" font-weight="400" fill="#111827">saveUnavailableTime(block)</text><line x1="570" y1="378" x2="800" y2="378" stroke="#111827" stroke-width="1.05" marker-end="url(#arrow)"/><text x="685" y="360" text-anchor="middle" font-family="Arial, sans-serif" font-size="12" font-weight="400" fill="#111827">save(ScheduleBlock)</text><line x1="800" y1="450" x2="570" y2="450" stroke="#111827" stroke-width="1.05" marker-end="url(#arrow)" stroke-dasharray="5 4"/><text x="685" y="432" text-anchor="middle" font-family="Arial, sans-serif" font-size="12" font-weight="400" fill="#111827">save success</text><line x1="570" y1="522" x2="340" y2="522" stroke="#111827" stroke-width="1.05" marker-end="url(#arrow)" stroke-dasharray="5 4"/><text x="455" y="504" text-anchor="middle" font-family="Arial, sans-serif" font-size="12" font-weight="400" fill="#111827">update result</text><line x1="340" y1="594" x2="110" y2="594" stroke="#111827" stroke-width="1.05" marker-end="url(#arrow)" stroke-dasharray="5 4"/><text x="225" y="576" text-anchor="middle" font-family="Arial, sans-serif" font-size="12" font-weight="400" fill="#111827">선택한 불가능 시간 표시</text></svg>