<svg xmlns="http://www.w3.org/2000/svg" width="1750" height="1021" viewBox="0 0 1750 1021">
<defs>
  <marker id="arrow" viewBox="0 0 10 10" refX="9" refY="5" markerWidth="7" markerHeight="7" orient="auto"><path d="M0 0 L10 5 L0 10 z" fill="#111827"/></marker>
  <marker id="hollowArrow" viewBox="0 0 10 10" refX="9" refY="5" markerWidth="7" markerHeight="7" orient="auto"><path d="M0 0 L10 5 L0 10 z" fill="#fbfbfb" stroke="#111827"/></marker>
  <marker id="diamond" viewBox="0 0 16 10" refX="1" refY="5" markerWidth="11" markerHeight="9" orient="auto"><path d="M1 5 L8 1 L15 5 L8 9 z" fill="#111827" stroke="#111827"/></marker>
</defs>
<rect width="100%" height="100%" fill="#ffffff"/>
<text x="36" y="32" font-family="Arial, sans-serif" font-size="20" font-weight="700">3.7 Upload Task</text><circle cx="110" cy="72" r="10" fill="#fbfbfb" stroke="#111827" stroke-width="1.3"/>
<line x1="110" y1="82" x2="110" y2="104" stroke="#111827" stroke-width="1.3"/>
<line x1="94" y1="90" x2="126" y2="90" stroke="#111827" stroke-width="1.3"/>
<line x1="110" y1="104" x2="94" y2="120" stroke="#111827" stroke-width="1.3"/>
<line x1="110" y1="104" x2="126" y2="120" stroke="#111827" stroke-width="1.3"/>
<text x="110" y="140" text-anchor="middle" font-family="Arial, sans-serif" font-size="13">member:Member</text><line x1="110" y1="106" x2="110" y2="981" stroke="#111827" stroke-width="1" stroke-dasharray="6 6"/><rect x="256" y="62" width="168" height="44" fill="#fbfbfb" stroke="#111827" stroke-width="1.2"/>
<text x="340" y="89" text-anchor="middle" font-family="Arial, sans-serif" font-size="13" font-weight="700">TaskBoardUI</text><line x1="340" y1="106" x2="340" y2="981" stroke="#111827" stroke-width="1" stroke-dasharray="6 6"/><rect x="486" y="62" width="168" height="44" fill="#fbfbfb" stroke="#111827" stroke-width="1.2"/>
<text x="570" y="89" text-anchor="middle" font-family="Arial, sans-serif" font-size="13" font-weight="700">TaskService</text><line x1="570" y1="106" x2="570" y2="981" stroke="#111827" stroke-width="1" stroke-dasharray="6 6"/><rect x="716" y="62" width="168" height="44" fill="#fbfbfb" stroke="#111827" stroke-width="1.2"/>
<text x="800" y="89" text-anchor="middle" font-family="Arial, sans-serif" font-size="13" font-weight="700">FileStorage</text><line x1="800" y1="106" x2="800" y2="981" stroke="#111827" stroke-width="1" stroke-dasharray="6 6"/><rect x="946" y="62" width="168" height="44" fill="#fbfbfb" stroke="#111827" stroke-width="1.2"/>
<text x="1030" y="89" text-anchor="middle" font-family="Arial, sans-serif" font-size="13" font-weight="700">DataStore</text><line x1="1030" y1="106" x2="1030" y2="981" stroke="#111827" stroke-width="1" stroke-dasharray="6 6"/><rect x="1176" y="62" width="168" height="44" fill="#fbfbfb" stroke="#111827" stroke-width="1.2"/>
<text x="1260" y="89" text-anchor="middle" font-family="Arial, sans-serif" font-size="13" font-weight="700">NotificationService</text><line x1="1260" y1="106" x2="1260" y2="981" stroke="#111827" stroke-width="1" stroke-dasharray="6 6"/><circle cx="1490" cy="72" r="10" fill="#fbfbfb" stroke="#111827" stroke-width="1.3"/>
<line x1="1490" y1="82" x2="1490" y2="104" stroke="#111827" stroke-width="1.3"/>
<line x1="1474" y1="90" x2="1506" y2="90" stroke="#111827" stroke-width="1.3"/>
<line x1="1490" y1="104" x2="1474" y2="120" stroke="#111827" stroke-width="1.3"/>
<line x1="1490" y1="104" x2="1506" y2="120" stroke="#111827" stroke-width="1.3"/>
<text x="1490" y="140" text-anchor="middle" font-family="Arial, sans-serif" font-size="13">admin:Administrator</text><line x1="1490" y1="106" x2="1490" y2="981" stroke="#111827" stroke-width="1" stroke-dasharray="6 6"/><line x1="110" y1="162" x2="340" y2="162" stroke="#111827" stroke-width="1.05" marker-end="url(#arrow)"/><text x="225" y="144" text-anchor="middle" font-family="Arial, sans-serif" font-size="12" font-weight="400" fill="#111827">제출물 업로드 선택</text><path d="M340 234 h42 q18 0 18 18 q0 18 -18 18 h-42" fill="none" stroke="#111827" stroke-width="1.05" marker-end="url(#arrow)"/><text x="394" y="216" text-anchor="start" font-family="Arial, sans-serif" font-size="12" font-weight="400" fill="#111827">requestUpload(taskId, file)</text><line x1="340" y1="320" x2="570" y2="320" stroke="#111827" stroke-width="1.05" marker-end="url(#arrow)"/><text x="455" y="302" text-anchor="middle" font-family="Arial, sans-serif" font-size="12" font-weight="400" fill="#111827">uploadSubmission(taskId,</text><text x="455" y="317" text-anchor="middle" font-family="Arial, sans-serif" font-size="12" font-weight="400" fill="#111827">memberId, file)</text><line x1="570" y1="406" x2="800" y2="406" stroke="#111827" stroke-width="1.05" marker-end="url(#arrow)"/><text x="685" y="388" text-anchor="middle" font-family="Arial, sans-serif" font-size="12" font-weight="400" fill="#111827">upload(file)</text><line x1="800" y1="478" x2="570" y2="478" stroke="#111827" stroke-width="1.05" marker-end="url(#arrow)" stroke-dasharray="5 4"/><text x="685" y="460" text-anchor="middle" font-family="Arial, sans-serif" font-size="12" font-weight="400" fill="#111827">fileUrl</text><line x1="570" y1="550" x2="1030" y2="550" stroke="#111827" stroke-width="1.05" marker-end="url(#arrow)"/><text x="800" y="532" text-anchor="middle" font-family="Arial, sans-serif" font-size="12" font-weight="400" fill="#111827">save(Submission)</text><line x1="1030" y1="622" x2="570" y2="622" stroke="#111827" stroke-width="1.05" marker-end="url(#arrow)" stroke-dasharray="5 4"/><text x="800" y="604" text-anchor="middle" font-family="Arial, sans-serif" font-size="12" font-weight="400" fill="#111827">save success</text><line x1="570" y1="694" x2="1260" y2="694" stroke="#111827" stroke-width="1.05" marker-end="url(#arrow)"/><text x="915" y="676" text-anchor="middle" font-family="Arial, sans-serif" font-size="12" font-weight="400" fill="#111827">sendSubmissionNotice(taskId)</text><line x1="1260" y1="766" x2="1490" y2="766" stroke="#111827" stroke-width="1.05" marker-end="url(#arrow)" stroke-dasharray="5 4"/><text x="1375" y="748" text-anchor="middle" font-family="Arial, sans-serif" font-size="12" font-weight="400" fill="#111827">제출 알림</text><line x1="570" y1="838" x2="340" y2="838" stroke="#111827" stroke-width="1.05" marker-end="url(#arrow)" stroke-dasharray="5 4"/><text x="455" y="820" text-anchor="middle" font-family="Arial, sans-serif" font-size="12" font-weight="400" fill="#111827">upload success</text><line x1="340" y1="910" x2="110" y2="910" stroke="#111827" stroke-width="1.05" marker-end="url(#arrow)" stroke-dasharray="5 4"/><text x="225" y="892" text-anchor="middle" font-family="Arial, sans-serif" font-size="12" font-weight="400" fill="#111827">제출 상태 표시</text></svg>