<svg xmlns="http://www.w3.org/2000/svg" width="1520" height="1377" viewBox="0 0 1520 1377">
<defs>
  <marker id="arrow" viewBox="0 0 10 10" refX="9" refY="5" markerWidth="7" markerHeight="7" orient="auto"><path d="M0 0 L10 5 L0 10 z" fill="#111827"/></marker>
  <marker id="hollowArrow" viewBox="0 0 10 10" refX="9" refY="5" markerWidth="7" markerHeight="7" orient="auto"><path d="M0 0 L10 5 L0 10 z" fill="#fbfbfb" stroke="#111827"/></marker>
  <marker id="diamond" viewBox="0 0 16 10" refX="1" refY="5" markerWidth="11" markerHeight="9" orient="auto"><path d="M1 5 L8 1 L15 5 L8 9 z" fill="#111827" stroke="#111827"/></marker>
</defs>
<rect width="100%" height="100%" fill="#ffffff"/>
<text x="36" y="32" font-family="Arial, sans-serif" font-size="20" font-weight="700">3.1 Register Member</text><rect x="26" y="62" width="168" height="44" fill="#fbfbfb" stroke="#111827" stroke-width="1.2"/>
<text x="110" y="89" text-anchor="middle" font-family="Arial, sans-serif" font-size="13" font-weight="700">LoginUI</text><line x1="110" y1="106" x2="110" y2="1337" stroke="#111827" stroke-width="1" stroke-dasharray="6 6"/><rect x="256" y="62" width="168" height="44" fill="#fbfbfb" stroke="#111827" stroke-width="1.2"/>
<text x="340" y="89" text-anchor="middle" font-family="Arial, sans-serif" font-size="13" font-weight="700">RegisterUI</text><line x1="340" y1="106" x2="340" y2="1337" stroke="#111827" stroke-width="1" stroke-dasharray="6 6"/><rect x="486" y="62" width="168" height="44" fill="#fbfbfb" stroke="#111827" stroke-width="1.2"/>
<text x="570" y="89" text-anchor="middle" font-family="Arial, sans-serif" font-size="13" font-weight="700">AuthService</text><line x1="570" y1="106" x2="570" y2="1337" stroke="#111827" stroke-width="1" stroke-dasharray="6 6"/><rect x="716" y="62" width="168" height="44" fill="#fbfbfb" stroke="#111827" stroke-width="1.2"/>
<text x="800" y="89" text-anchor="middle" font-family="Arial, sans-serif" font-size="13" font-weight="700">SupabaseAuthClient</text><line x1="800" y1="106" x2="800" y2="1337" stroke="#111827" stroke-width="1" stroke-dasharray="6 6"/><rect x="946" y="62" width="168" height="44" fill="#fbfbfb" stroke="#111827" stroke-width="1.2"/>
<text x="1030" y="89" text-anchor="middle" font-family="Arial, sans-serif" font-size="13" font-weight="700">SupabaseAuthAPI</text><line x1="1030" y1="106" x2="1030" y2="1337" stroke="#111827" stroke-width="1" stroke-dasharray="6 6"/><rect x="1176" y="62" width="168" height="44" fill="#fbfbfb" stroke="#111827" stroke-width="1.2"/>
<text x="1260" y="89" text-anchor="middle" font-family="Arial, sans-serif" font-size="13" font-weight="700">HomeUI</text><line x1="1260" y1="106" x2="1260" y2="1337" stroke="#111827" stroke-width="1" stroke-dasharray="6 6"/><rect x="74" y="741" width="1358" height="563" fill="none" stroke="#111827" stroke-dasharray="4 4"/><path d="M74 741 h72 l-12 22 h-60 z" fill="#fbfbfb" stroke="#111827"/><text x="108" y="756" text-anchor="middle" font-family="Arial, sans-serif" font-size="12" font-weight="700" fill="#111827">alt 회원가입 성공</text><line x1="74" y1="1021" x2="1432" y2="1021" stroke="#111827" stroke-dasharray="4 4"/><text x="126" y="1012" text-anchor="start" font-family="Arial, sans-serif" font-size="12" font-weight="700" fill="#111827">else 입력 오류 또는 이미 가입된</text><text x="126" y="1027" text-anchor="start" font-family="Arial, sans-serif" font-size="12" font-weight="700" fill="#111827">계정</text><line x1="110" y1="162" x2="340" y2="162" stroke="#111827" stroke-width="1.05" marker-end="url(#arrow)"/><text x="225" y="144" text-anchor="middle" font-family="Arial, sans-serif" font-size="12" font-weight="400" fill="#111827">showRegister()</text><path d="M340 234 h42 q18 0 18 18 q0 18 -18 18 h-42" fill="none" stroke="#111827" stroke-width="1.05" marker-end="url(#arrow)"/><text x="394" y="216" text-anchor="start" font-family="Arial, sans-serif" font-size="12" font-weight="400" fill="#111827">submitRegister(data)</text><line x1="340" y1="306" x2="570" y2="306" stroke="#111827" stroke-width="1.05" marker-end="url(#arrow)"/><text x="455" y="288" text-anchor="middle" font-family="Arial, sans-serif" font-size="12" font-weight="400" fill="#111827">registerMember(data)</text><path d="M570 378 h42 q18 0 18 18 q0 18 -18 18 h-42" fill="none" stroke="#111827" stroke-width="1.05" marker-end="url(#arrow)"/><text x="624" y="360" text-anchor="start" font-family="Arial, sans-serif" font-size="12" font-weight="400" fill="#111827">validateRequiredAndPasswordConfirm()</text><path d="M570 450 h42 q18 0 18 18 q0 18 -18 18 h-42" fill="none" stroke="#111827" stroke-width="1.05" marker-end="url(#arrow)"/><text x="624" y="432" text-anchor="start" font-family="Arial, sans-serif" font-size="12" font-weight="400" fill="#111827">validateNicknameUnique(nickname)</text><line x1="570" y1="522" x2="800" y2="522" stroke="#111827" stroke-width="1.05" marker-end="url(#arrow)"/><text x="685" y="504" text-anchor="middle" font-family="Arial, sans-serif" font-size="12" font-weight="400" fill="#111827">signUp(email, password,</text><text x="685" y="519" text-anchor="middle" font-family="Arial, sans-serif" font-size="12" font-weight="400" fill="#111827">nickname, role)</text><line x1="800" y1="608" x2="1030" y2="608" stroke="#111827" stroke-width="1.05" marker-end="url(#arrow)"/><text x="915" y="590" text-anchor="middle" font-family="Arial, sans-serif" font-size="12" font-weight="400" fill="#111827">POST /auth/v1/signup</text><line x1="1030" y1="680" x2="800" y2="680" stroke="#111827" stroke-width="1.05" marker-end="url(#arrow)" stroke-dasharray="5 4"/><text x="915" y="662" text-anchor="middle" font-family="Arial, sans-serif" font-size="12" font-weight="400" fill="#111827">user and session response</text><line x1="800" y1="808" x2="570" y2="808" stroke="#111827" stroke-width="1.05" marker-end="url(#arrow)" stroke-dasharray="5 4"/><text x="685" y="790" text-anchor="middle" font-family="Arial, sans-serif" font-size="12" font-weight="400" fill="#111827">auth session with metadata</text><line x1="570" y1="894" x2="340" y2="894" stroke="#111827" stroke-width="1.05" marker-end="url(#arrow)" stroke-dasharray="5 4"/><text x="455" y="876" text-anchor="middle" font-family="Arial, sans-serif" font-size="12" font-weight="400" fill="#111827">registration success</text><line x1="340" y1="966" x2="1260" y2="966" stroke="#111827" stroke-width="1.05" marker-end="url(#arrow)"/><text x="800" y="948" text-anchor="middle" font-family="Arial, sans-serif" font-size="12" font-weight="400" fill="#111827">showHome()</text><line x1="1030" y1="1080" x2="800" y2="1080" stroke="#111827" stroke-width="1.05" marker-end="url(#arrow)" stroke-dasharray="5 4"/><text x="915" y="1062" text-anchor="middle" font-family="Arial, sans-serif" font-size="12" font-weight="400" fill="#111827">auth error</text><line x1="800" y1="1152" x2="570" y2="1152" stroke="#111827" stroke-width="1.05" marker-end="url(#arrow)" stroke-dasharray="5 4"/><text x="685" y="1134" text-anchor="middle" font-family="Arial, sans-serif" font-size="12" font-weight="400" fill="#111827">error message</text><line x1="570" y1="1224" x2="340" y2="1224" stroke="#111827" stroke-width="1.05" marker-end="url(#arrow)" stroke-dasharray="5 4"/><text x="455" y="1206" text-anchor="middle" font-family="Arial, sans-serif" font-size="12" font-weight="400" fill="#111827">registration error</text></svg>