<svg xmlns="http://www.w3.org/2000/svg" width="1750" height="1342" viewBox="0 0 1750 1342">
<defs>
  <marker id="arrow" viewBox="0 0 10 10" refX="9" refY="5" markerWidth="7" markerHeight="7" orient="auto"><path d="M0 0 L10 5 L0 10 z" fill="#111827"/></marker>
  <marker id="hollowArrow" viewBox="0 0 10 10" refX="9" refY="5" markerWidth="7" markerHeight="7" orient="auto"><path d="M0 0 L10 5 L0 10 z" fill="#fff" stroke="#111827"/></marker>
  <marker id="diamond" viewBox="0 0 16 10" refX="1" refY="5" markerWidth="11" markerHeight="9" orient="auto"><path d="M1 5 L8 1 L15 5 L8 9 z" fill="#111827" stroke="#111827"/></marker>
</defs>
<rect width="100%" height="100%" fill="#ffffff"/>
<text x="36" y="32" font-family="Arial, sans-serif" font-size="20" font-weight="700">3.1 Register Member</text><circle cx="110" cy="72" r="10" fill="#fff" stroke="#111827" stroke-width="1.3"/>
<line x1="110" y1="82" x2="110" y2="104" stroke="#111827" stroke-width="1.3"/>
<line x1="94" y1="90" x2="126" y2="90" stroke="#111827" stroke-width="1.3"/>
<line x1="110" y1="104" x2="94" y2="120" stroke="#111827" stroke-width="1.3"/>
<line x1="110" y1="104" x2="126" y2="120" stroke="#111827" stroke-width="1.3"/>
<text x="110" y="140" text-anchor="middle" font-family="Arial, sans-serif" font-size="13">member:Member</text><line x1="110" y1="106" x2="110" y2="1302" stroke="#111827" stroke-width="1" stroke-dasharray="6 6"/><rect x="256" y="62" width="168" height="44" fill="#fff" stroke="#111827" stroke-width="1.2"/>
<text x="340" y="89" text-anchor="middle" font-family="Arial, sans-serif" font-size="13" font-weight="700">LoginUI</text><line x1="340" y1="106" x2="340" y2="1302" stroke="#111827" stroke-width="1" stroke-dasharray="6 6"/><rect x="486" y="62" width="168" height="44" fill="#fff" stroke="#111827" stroke-width="1.2"/>
<text x="570" y="89" text-anchor="middle" font-family="Arial, sans-serif" font-size="13" font-weight="700">RegisterUI</text><line x1="570" y1="106" x2="570" y2="1302" stroke="#111827" stroke-width="1" stroke-dasharray="6 6"/><rect x="716" y="62" width="168" height="44" fill="#fff" stroke="#111827" stroke-width="1.2"/>
<text x="800" y="89" text-anchor="middle" font-family="Arial, sans-serif" font-size="13" font-weight="700">AuthService</text><line x1="800" y1="106" x2="800" y2="1302" stroke="#111827" stroke-width="1" stroke-dasharray="6 6"/><rect x="946" y="62" width="168" height="44" fill="#fff" stroke="#111827" stroke-width="1.2"/>
<text x="1030" y="89" text-anchor="middle" font-family="Arial, sans-serif" font-size="13" font-weight="700">SupabaseAuthClient</text><line x1="1030" y1="106" x2="1030" y2="1302" stroke="#111827" stroke-width="1" stroke-dasharray="6 6"/><rect x="1176" y="62" width="168" height="44" fill="#fff" stroke="#111827" stroke-width="1.2"/>
<text x="1260" y="89" text-anchor="middle" font-family="Arial, sans-serif" font-size="13" font-weight="700">SupabaseAuthAPI</text><line x1="1260" y1="106" x2="1260" y2="1302" stroke="#111827" stroke-width="1" stroke-dasharray="6 6"/><rect x="1406" y="62" width="168" height="44" fill="#fff" stroke="#111827" stroke-width="1.2"/>
<text x="1490" y="89" text-anchor="middle" font-family="Arial, sans-serif" font-size="13" font-weight="700">DataStore</text><line x1="1490" y1="106" x2="1490" y2="1302" stroke="#111827" stroke-width="1" stroke-dasharray="6 6"/><rect x="74" y="682" width="1588" height="587" fill="none" stroke="#111827" stroke-dasharray="4 4"/><path d="M74 682 h72 l-12 22 h-60 z" fill="#fff" stroke="#111827"/><text x="108" y="697" text-anchor="middle" font-family="Arial, sans-serif" font-size="12" font-weight="700" fill="#111827">alt 회원가입 성공</text><line x1="74" y1="994" x2="1662" y2="994" stroke="#111827" stroke-dasharray="4 4"/><rect x="123" y="972" width="165.2" height="35" fill="#fff" opacity="0.94"/><text x="126" y="988" text-anchor="start" font-family="Arial, sans-serif" font-size="12" font-weight="700" fill="#111827">else 입력 오류 또는 이미 가입된</text><text x="126" y="1003" text-anchor="start" font-family="Arial, sans-serif" font-size="12" font-weight="700" fill="#111827">계정</text><line x1="110" y1="154" x2="340" y2="154" stroke="#111827" stroke-width="1.05" marker-end="url(#arrow)"/><rect x="191.54" y="131" width="66.92" height="20" fill="#fff" opacity="0.94"/><text x="225" y="147" text-anchor="middle" font-family="Arial, sans-serif" font-size="12" font-weight="400" fill="#111827">회원가입 선택</text><path d="M340 208 h42 q18 0 18 18 q0 18 -18 18 h-42" fill="none" stroke="#111827" stroke-width="1.05" marker-end="url(#arrow)"/><rect x="387" y="186" width="134.96" height="20" fill="#fff" opacity="0.94"/><text x="390" y="202" text-anchor="start" font-family="Arial, sans-serif" font-size="12" font-weight="400" fill="#111827">openRegisterUI()</text><line x1="340" y1="262" x2="570" y2="262" stroke="#111827" stroke-width="1.05" marker-end="url(#arrow)"/><rect x="413.98" y="239" width="82.04" height="20" fill="#fff" opacity="0.94"/><text x="455" y="255" text-anchor="middle" font-family="Arial, sans-serif" font-size="12" font-weight="400" fill="#111827">display()</text><line x1="110" y1="316" x2="570" y2="316" stroke="#111827" stroke-width="1.05" marker-end="url(#arrow)"/><rect x="264.96" y="293" width="150.08" height="20" fill="#fff" opacity="0.94"/><text x="340" y="309" text-anchor="middle" font-family="Arial, sans-serif" font-size="12" font-weight="400" fill="#111827">학번 또는 이메일, 비밀번호 입력</text><path d="M570 370 h42 q18 0 18 18 q0 18 -18 18 h-42" fill="none" stroke="#111827" stroke-width="1.05" marker-end="url(#arrow)"/><rect x="617" y="348" width="165.2" height="20" fill="#fff" opacity="0.94"/><text x="620" y="364" text-anchor="start" font-family="Arial, sans-serif" font-size="12" font-weight="400" fill="#111827">submitRegister(data)</text><line x1="570" y1="424" x2="800" y2="424" stroke="#111827" stroke-width="1.05" marker-end="url(#arrow)"/><rect x="602.4" y="401" width="165.2" height="20" fill="#fff" opacity="0.94"/><text x="685" y="417" text-anchor="middle" font-family="Arial, sans-serif" font-size="12" font-weight="400" fill="#111827">registerMember(data)</text><path d="M800 478 h42 q18 0 18 18 q0 18 -18 18 h-42" fill="none" stroke="#111827" stroke-width="1.05" marker-end="url(#arrow)"/><rect x="847" y="456" width="157.64000000000001" height="20" fill="#fff" opacity="0.94"/><text x="850" y="472" text-anchor="start" font-family="Arial, sans-serif" font-size="12" font-weight="400" fill="#111827">validateInput(data)</text><line x1="800" y1="532" x2="1030" y2="532" stroke="#111827" stroke-width="1.05" marker-end="url(#arrow)"/><rect x="821.06" y="509" width="187.88" height="20" fill="#fff" opacity="0.94"/><text x="915" y="525" text-anchor="middle" font-family="Arial, sans-serif" font-size="12" font-weight="400" fill="#111827">signUp(email, password)</text><line x1="1030" y1="586" x2="1260" y2="586" stroke="#111827" stroke-width="1.05" marker-end="url(#arrow)"/><rect x="1062.4" y="563" width="165.2" height="20" fill="#fff" opacity="0.94"/><text x="1145" y="579" text-anchor="middle" font-family="Arial, sans-serif" font-size="12" font-weight="400" fill="#111827">POST /auth/v1/signup</text><line x1="1260" y1="640" x2="1030" y2="640" stroke="#111827" stroke-width="1.05" marker-end="url(#arrow)" stroke-dasharray="5 4"/><rect x="1043.5" y="617" width="203" height="20" fill="#fff" opacity="0.94"/><text x="1145" y="633" text-anchor="middle" font-family="Arial, sans-serif" font-size="12" font-weight="400" fill="#111827">user and session response</text><line x1="1030" y1="741" x2="800" y2="741" stroke="#111827" stroke-width="1.05" marker-end="url(#arrow)" stroke-dasharray="5 4"/><rect x="862.64" y="718" width="104.72" height="20" fill="#fff" opacity="0.94"/><text x="915" y="734" text-anchor="middle" font-family="Arial, sans-serif" font-size="12" font-weight="400" fill="#111827">auth session</text><line x1="800" y1="795" x2="1490" y2="795" stroke="#111827" stroke-width="1.05" marker-end="url(#arrow)"/><rect x="1062.4" y="772" width="165.2" height="20" fill="#fff" opacity="0.94"/><text x="1145" y="788" text-anchor="middle" font-family="Arial, sans-serif" font-size="12" font-weight="400" fill="#111827">save(Member profile)</text><line x1="1490" y1="849" x2="800" y2="849" stroke="#111827" stroke-width="1.05" marker-end="url(#arrow)" stroke-dasharray="5 4"/><rect x="1062.4" y="826" width="165.2" height="20" fill="#fff" opacity="0.94"/><text x="1145" y="842" text-anchor="middle" font-family="Arial, sans-serif" font-size="12" font-weight="400" fill="#111827">profile save success</text><line x1="800" y1="903" x2="570" y2="903" stroke="#111827" stroke-width="1.05" marker-end="url(#arrow)" stroke-dasharray="5 4"/><rect x="602.4" y="880" width="165.2" height="20" fill="#fff" opacity="0.94"/><text x="685" y="896" text-anchor="middle" font-family="Arial, sans-serif" font-size="12" font-weight="400" fill="#111827">registration success</text><line x1="570" y1="957" x2="110" y2="957" stroke="#111827" stroke-width="1.05" marker-end="url(#arrow)" stroke-dasharray="5 4"/><rect x="283.86" y="934" width="112.28" height="20" fill="#fff" opacity="0.94"/><text x="340" y="950" text-anchor="middle" font-family="Arial, sans-serif" font-size="12" font-weight="400" fill="#111827">showSuccess()</text><line x1="1260" y1="1045" x2="1030" y2="1045" stroke="#111827" stroke-width="1.05" marker-end="url(#arrow)" stroke-dasharray="5 4"/><rect x="1100.2" y="1022" width="89.6" height="20" fill="#fff" opacity="0.94"/><text x="1145" y="1038" text-anchor="middle" font-family="Arial, sans-serif" font-size="12" font-weight="400" fill="#111827">auth error</text><line x1="1030" y1="1099" x2="800" y2="1099" stroke="#111827" stroke-width="1.05" marker-end="url(#arrow)" stroke-dasharray="5 4"/><rect x="858.86" y="1076" width="112.28" height="20" fill="#fff" opacity="0.94"/><text x="915" y="1092" text-anchor="middle" font-family="Arial, sans-serif" font-size="12" font-weight="400" fill="#111827">error message</text><line x1="800" y1="1153" x2="570" y2="1153" stroke="#111827" stroke-width="1.05" marker-end="url(#arrow)" stroke-dasharray="5 4"/><rect x="609.96" y="1130" width="150.08" height="20" fill="#fff" opacity="0.94"/><text x="685" y="1146" text-anchor="middle" font-family="Arial, sans-serif" font-size="12" font-weight="400" fill="#111827">registration error</text><line x1="570" y1="1207" x2="110" y2="1207" stroke="#111827" stroke-width="1.05" marker-end="url(#arrow)" stroke-dasharray="5 4"/><rect x="264.96" y="1184" width="150.08" height="20" fill="#fff" opacity="0.94"/><text x="340" y="1200" text-anchor="middle" font-family="Arial, sans-serif" font-size="12" font-weight="400" fill="#111827">showError(message)</text></svg>