<svg xmlns="http://www.w3.org/2000/svg" width="1520" height="1651" viewBox="0 0 1520 1651">
<defs>
  <marker id="arrow" viewBox="0 0 10 10" refX="9" refY="5" markerWidth="7" markerHeight="7" orient="auto"><path d="M0 0 L10 5 L0 10 z" fill="#111827"/></marker>
  <marker id="hollowArrow" viewBox="0 0 10 10" refX="9" refY="5" markerWidth="7" markerHeight="7" orient="auto"><path d="M0 0 L10 5 L0 10 z" fill="#fbfbfb" stroke="#111827"/></marker>
  <marker id="diamond" viewBox="0 0 16 10" refX="1" refY="5" markerWidth="11" markerHeight="9" orient="auto"><path d="M1 5 L8 1 L15 5 L8 9 z" fill="#111827" stroke="#111827"/></marker>
</defs>
<rect width="100%" height="100%" fill="#ffffff"/>
<text x="36" y="32" font-family="Arial, sans-serif" font-size="20" font-weight="700">3.8 Approve Task</text><circle cx="110" cy="72" r="10" fill="#fbfbfb" stroke="#111827" stroke-width="1.3"/>
<line x1="110" y1="82" x2="110" y2="104" stroke="#111827" stroke-width="1.3"/>
<line x1="94" y1="90" x2="126" y2="90" stroke="#111827" stroke-width="1.3"/>
<line x1="110" y1="104" x2="94" y2="120" stroke="#111827" stroke-width="1.3"/>
<line x1="110" y1="104" x2="126" y2="120" stroke="#111827" stroke-width="1.3"/>
<text x="110" y="140" text-anchor="middle" font-family="Arial, sans-serif" font-size="13">admin:Administrator</text><line x1="110" y1="106" x2="110" y2="1611" stroke="#111827" stroke-width="1" stroke-dasharray="6 6"/><rect x="256" y="62" width="168" height="44" fill="#fbfbfb" stroke="#111827" stroke-width="1.2"/>
<text x="340" y="89" text-anchor="middle" font-family="Arial, sans-serif" font-size="13" font-weight="700">TaskBoardUI</text><line x1="340" y1="106" x2="340" y2="1611" stroke="#111827" stroke-width="1" stroke-dasharray="6 6"/><rect x="486" y="62" width="168" height="44" fill="#fbfbfb" stroke="#111827" stroke-width="1.2"/>
<text x="570" y="89" text-anchor="middle" font-family="Arial, sans-serif" font-size="13" font-weight="700">TaskService</text><line x1="570" y1="106" x2="570" y2="1611" stroke="#111827" stroke-width="1" stroke-dasharray="6 6"/><rect x="716" y="62" width="168" height="44" fill="#fbfbfb" stroke="#111827" stroke-width="1.2"/>
<text x="800" y="89" text-anchor="middle" font-family="Arial, sans-serif" font-size="13" font-weight="700">DataStore</text><line x1="800" y1="106" x2="800" y2="1611" stroke="#111827" stroke-width="1" stroke-dasharray="6 6"/><rect x="946" y="62" width="168" height="44" fill="#fbfbfb" stroke="#111827" stroke-width="1.2"/>
<text x="1030" y="89" text-anchor="middle" font-family="Arial, sans-serif" font-size="13" font-weight="700">NotificationService</text><line x1="1030" y1="106" x2="1030" y2="1611" stroke="#111827" stroke-width="1" stroke-dasharray="6 6"/><circle cx="1260" cy="72" r="10" fill="#fbfbfb" stroke="#111827" stroke-width="1.3"/>
<line x1="1260" y1="82" x2="1260" y2="104" stroke="#111827" stroke-width="1.3"/>
<line x1="1244" y1="90" x2="1276" y2="90" stroke="#111827" stroke-width="1.3"/>
<line x1="1260" y1="104" x2="1244" y2="120" stroke="#111827" stroke-width="1.3"/>
<line x1="1260" y1="104" x2="1276" y2="120" stroke="#111827" stroke-width="1.3"/>
<text x="1260" y="140" text-anchor="middle" font-family="Arial, sans-serif" font-size="13">member:Member</text><line x1="1260" y1="106" x2="1260" y2="1611" stroke="#111827" stroke-width="1" stroke-dasharray="6 6"/><rect x="74" y="569" width="1358" height="1009" fill="none" stroke="#111827" stroke-dasharray="4 4"/><path d="M74 569 h72 l-12 22 h-60 z" fill="#fbfbfb" stroke="#111827"/><text x="108" y="584" text-anchor="middle" font-family="Arial, sans-serif" font-size="12" font-weight="700" fill="#111827">alt 승인 선택</text><line x1="74" y1="1137" x2="1432" y2="1137" stroke="#111827" stroke-dasharray="4 4"/><text x="126" y="1128" text-anchor="start" font-family="Arial, sans-serif" font-size="12" font-weight="700" fill="#111827">else 반려 선택</text><line x1="110" y1="162" x2="340" y2="162" stroke="#111827" stroke-width="1.05" marker-end="url(#arrow)"/><text x="225" y="144" text-anchor="middle" font-family="Arial, sans-serif" font-size="12" font-weight="400" fill="#111827">제출물 확인</text><line x1="340" y1="234" x2="570" y2="234" stroke="#111827" stroke-width="1.05" marker-end="url(#arrow)"/><text x="455" y="216" text-anchor="middle" font-family="Arial, sans-serif" font-size="12" font-weight="400" fill="#111827">getSubmission(submissionId)</text><line x1="570" y1="306" x2="800" y2="306" stroke="#111827" stroke-width="1.05" marker-end="url(#arrow)"/><text x="685" y="288" text-anchor="middle" font-family="Arial, sans-serif" font-size="12" font-weight="400" fill="#111827">findById(submissionId)</text><line x1="800" y1="378" x2="570" y2="378" stroke="#111827" stroke-width="1.05" marker-end="url(#arrow)" stroke-dasharray="5 4"/><text x="685" y="360" text-anchor="middle" font-family="Arial, sans-serif" font-size="12" font-weight="400" fill="#111827">submission data</text><line x1="570" y1="450" x2="340" y2="450" stroke="#111827" stroke-width="1.05" marker-end="url(#arrow)" stroke-dasharray="5 4"/><text x="455" y="432" text-anchor="middle" font-family="Arial, sans-serif" font-size="12" font-weight="400" fill="#111827">submission detail</text><path d="M340 522 h42 q18 0 18 18 q0 18 -18 18 h-42" fill="none" stroke="#111827" stroke-width="1.05" marker-end="url(#arrow)"/><text x="394" y="504" text-anchor="start" font-family="Arial, sans-serif" font-size="12" font-weight="400" fill="#111827">showSubmissionDetail(submission)</text><line x1="110" y1="636" x2="340" y2="636" stroke="#111827" stroke-width="1.05" marker-end="url(#arrow)"/><text x="225" y="618" text-anchor="middle" font-family="Arial, sans-serif" font-size="12" font-weight="400" fill="#111827">승인 선택</text><line x1="340" y1="708" x2="570" y2="708" stroke="#111827" stroke-width="1.05" marker-end="url(#arrow)"/><text x="455" y="690" text-anchor="middle" font-family="Arial, sans-serif" font-size="12" font-weight="400" fill="#111827">approveSubmission(submissionId)</text><line x1="570" y1="780" x2="800" y2="780" stroke="#111827" stroke-width="1.05" marker-end="url(#arrow)"/><text x="685" y="762" text-anchor="middle" font-family="Arial, sans-serif" font-size="12" font-weight="400" fill="#111827">update(Submission APPROVED)</text><path d="M570 866 h42 q18 0 18 18 q0 18 -18 18 h-42" fill="none" stroke="#111827" stroke-width="1.05" marker-end="url(#arrow)"/><text x="624" y="848" text-anchor="start" font-family="Arial, sans-serif" font-size="12" font-weight="400" fill="#111827">calculateProgress(teamId)</text><line x1="570" y1="938" x2="1030" y2="938" stroke="#111827" stroke-width="1.05" marker-end="url(#arrow)"/><text x="800" y="920" text-anchor="middle" font-family="Arial, sans-serif" font-size="12" font-weight="400" fill="#111827">sendApprovalNotice(submissionId)</text><line x1="1030" y1="1010" x2="1260" y2="1010" stroke="#111827" stroke-width="1.05" marker-end="url(#arrow)" stroke-dasharray="5 4"/><text x="1145" y="992" text-anchor="middle" font-family="Arial, sans-serif" font-size="12" font-weight="400" fill="#111827">승인 알림</text><line x1="340" y1="1082" x2="110" y2="1082" stroke="#111827" stroke-width="1.05" marker-end="url(#arrow)" stroke-dasharray="5 4"/><text x="225" y="1064" text-anchor="middle" font-family="Arial, sans-serif" font-size="12" font-weight="400" fill="#111827">updateProgress(progress)</text><line x1="110" y1="1196" x2="340" y2="1196" stroke="#111827" stroke-width="1.05" marker-end="url(#arrow)"/><text x="225" y="1178" text-anchor="middle" font-family="Arial, sans-serif" font-size="12" font-weight="400" fill="#111827">반려 선택</text><line x1="340" y1="1268" x2="570" y2="1268" stroke="#111827" stroke-width="1.05" marker-end="url(#arrow)"/><text x="455" y="1250" text-anchor="middle" font-family="Arial, sans-serif" font-size="12" font-weight="400" fill="#111827">rejectSubmission(submissionId)</text><line x1="570" y1="1340" x2="800" y2="1340" stroke="#111827" stroke-width="1.05" marker-end="url(#arrow)"/><text x="685" y="1322" text-anchor="middle" font-family="Arial, sans-serif" font-size="12" font-weight="400" fill="#111827">update(Submission REJECTED)</text><line x1="570" y1="1426" x2="1030" y2="1426" stroke="#111827" stroke-width="1.05" marker-end="url(#arrow)"/><text x="800" y="1408" text-anchor="middle" font-family="Arial, sans-serif" font-size="12" font-weight="400" fill="#111827">sendRejectionNotice(submissionId)</text><line x1="1030" y1="1498" x2="1260" y2="1498" stroke="#111827" stroke-width="1.05" marker-end="url(#arrow)" stroke-dasharray="5 4"/><text x="1145" y="1480" text-anchor="middle" font-family="Arial, sans-serif" font-size="12" font-weight="400" fill="#111827">재제출 요청 알림</text></svg>