<svg xmlns="http://www.w3.org/2000/svg" width="1520" height="1301" viewBox="0 0 1520 1301">
<defs>
  <marker id="arrow" viewBox="0 0 10 10" refX="9" refY="5" markerWidth="7" markerHeight="7" orient="auto"><path d="M0 0 L10 5 L0 10 z" fill="#111827"/></marker>
  <marker id="hollowArrow" viewBox="0 0 10 10" refX="9" refY="5" markerWidth="7" markerHeight="7" orient="auto"><path d="M0 0 L10 5 L0 10 z" fill="#fbfbfb" stroke="#111827"/></marker>
  <marker id="diamond" viewBox="0 0 16 10" refX="1" refY="5" markerWidth="11" markerHeight="9" orient="auto"><path d="M1 5 L8 1 L15 5 L8 9 z" fill="#111827" stroke="#111827"/></marker>
</defs>
<rect width="100%" height="100%" fill="#f3f4f6"/>
<text x="36" y="32" font-family="Arial, sans-serif" font-size="20" font-weight="700">3.8 Approve Task</text><circle cx="110" cy="72" r="10" fill="#fbfbfb" stroke="#111827" stroke-width="1.3"/>
<line x1="110" y1="82" x2="110" y2="104" stroke="#111827" stroke-width="1.3"/>
<line x1="94" y1="90" x2="126" y2="90" stroke="#111827" stroke-width="1.3"/>
<line x1="110" y1="104" x2="94" y2="120" stroke="#111827" stroke-width="1.3"/>
<line x1="110" y1="104" x2="126" y2="120" stroke="#111827" stroke-width="1.3"/>
<text x="110" y="140" text-anchor="middle" font-family="Arial, sans-serif" font-size="13">admin:Administrator</text><line x1="110" y1="106" x2="110" y2="1261" stroke="#111827" stroke-width="1" stroke-dasharray="6 6"/><rect x="256" y="62" width="168" height="44" fill="#fbfbfb" stroke="#111827" stroke-width="1.2"/>
<text x="340" y="89" text-anchor="middle" font-family="Arial, sans-serif" font-size="13" font-weight="700">TaskBoardUI</text><line x1="340" y1="106" x2="340" y2="1261" stroke="#111827" stroke-width="1" stroke-dasharray="6 6"/><rect x="486" y="62" width="168" height="44" fill="#fbfbfb" stroke="#111827" stroke-width="1.2"/>
<text x="570" y="89" text-anchor="middle" font-family="Arial, sans-serif" font-size="13" font-weight="700">TaskService</text><line x1="570" y1="106" x2="570" y2="1261" stroke="#111827" stroke-width="1" stroke-dasharray="6 6"/><rect x="716" y="62" width="168" height="44" fill="#fbfbfb" stroke="#111827" stroke-width="1.2"/>
<text x="800" y="89" text-anchor="middle" font-family="Arial, sans-serif" font-size="13" font-weight="700">DataStore</text><line x1="800" y1="106" x2="800" y2="1261" stroke="#111827" stroke-width="1" stroke-dasharray="6 6"/><rect x="946" y="62" width="168" height="44" fill="#fbfbfb" stroke="#111827" stroke-width="1.2"/>
<text x="1030" y="89" text-anchor="middle" font-family="Arial, sans-serif" font-size="13" font-weight="700">NotificationService</text><line x1="1030" y1="106" x2="1030" y2="1261" stroke="#111827" stroke-width="1" stroke-dasharray="6 6"/><circle cx="1260" cy="72" r="10" fill="#fbfbfb" stroke="#111827" stroke-width="1.3"/>
<line x1="1260" y1="82" x2="1260" y2="104" stroke="#111827" stroke-width="1.3"/>
<line x1="1244" y1="90" x2="1276" y2="90" stroke="#111827" stroke-width="1.3"/>
<line x1="1260" y1="104" x2="1244" y2="120" stroke="#111827" stroke-width="1.3"/>
<line x1="1260" y1="104" x2="1276" y2="120" stroke="#111827" stroke-width="1.3"/>
<text x="1260" y="140" text-anchor="middle" font-family="Arial, sans-serif" font-size="13">member:Member</text><line x1="1260" y1="106" x2="1260" y2="1261" stroke="#111827" stroke-width="1" stroke-dasharray="6 6"/><rect x="74" y="453" width="1358" height="775" fill="none" stroke="#111827" stroke-dasharray="4 4"/><path d="M74 453 h72 l-12 22 h-60 z" fill="#fbfbfb" stroke="#111827"/><text x="108" y="468" text-anchor="middle" font-family="Arial, sans-serif" font-size="12" font-weight="700" fill="#111827">alt 승인 선택</text><line x1="74" y1="886" x2="1432" y2="886" stroke="#111827" stroke-dasharray="4 4"/><rect x="123" y="864" width="89.6" height="20" fill="#f3f4f6" opacity="0.96"/><text x="126" y="880" text-anchor="start" font-family="Arial, sans-serif" font-size="12" font-weight="700" fill="#111827">else 반려 선택</text><line x1="110" y1="154" x2="340" y2="154" stroke="#111827" stroke-width="1.05" marker-end="url(#arrow)"/><rect x="195.32" y="131" width="59.36" height="20" fill="#f3f4f6" opacity="0.96"/><text x="225" y="147" text-anchor="middle" font-family="Arial, sans-serif" font-size="12" font-weight="400" fill="#111827">제출물 확인</text><line x1="340" y1="208" x2="570" y2="208" stroke="#111827" stroke-width="1.05" marker-end="url(#arrow)"/><rect x="345.94" y="185" width="218.12" height="20" fill="#f3f4f6" opacity="0.96"/><text x="455" y="201" text-anchor="middle" font-family="Arial, sans-serif" font-size="12" font-weight="400" fill="#111827">getSubmission(submissionId)</text><line x1="570" y1="262" x2="800" y2="262" stroke="#111827" stroke-width="1.05" marker-end="url(#arrow)"/><rect x="594.84" y="239" width="180.32" height="20" fill="#f3f4f6" opacity="0.96"/><text x="685" y="255" text-anchor="middle" font-family="Arial, sans-serif" font-size="12" font-weight="400" fill="#111827">findById(submissionId)</text><line x1="800" y1="316" x2="570" y2="316" stroke="#111827" stroke-width="1.05" marker-end="url(#arrow)" stroke-dasharray="5 4"/><rect x="621.3" y="293" width="127.4" height="20" fill="#f3f4f6" opacity="0.96"/><text x="685" y="309" text-anchor="middle" font-family="Arial, sans-serif" font-size="12" font-weight="400" fill="#111827">submission data</text><line x1="570" y1="370" x2="340" y2="370" stroke="#111827" stroke-width="1.05" marker-end="url(#arrow)" stroke-dasharray="5 4"/><rect x="383.74" y="347" width="142.52" height="20" fill="#f3f4f6" opacity="0.96"/><text x="455" y="363" text-anchor="middle" font-family="Arial, sans-serif" font-size="12" font-weight="400" fill="#111827">submission detail</text><path d="M340 424 h42 q18 0 18 18 q0 18 -18 18 h-42" fill="none" stroke="#111827" stroke-width="1.05" marker-end="url(#arrow)"/><rect x="387" y="402" width="255.92000000000002" height="20" fill="#f3f4f6" opacity="0.96"/><text x="390" y="418" text-anchor="start" font-family="Arial, sans-serif" font-size="12" font-weight="400" fill="#111827">showSubmissionDetail(submission)</text><line x1="110" y1="512" x2="340" y2="512" stroke="#111827" stroke-width="1.05" marker-end="url(#arrow)"/><rect x="198" y="489" width="54" height="20" fill="#f3f4f6" opacity="0.96"/><text x="225" y="505" text-anchor="middle" font-family="Arial, sans-serif" font-size="12" font-weight="400" fill="#111827">승인 선택</text><line x1="340" y1="566" x2="570" y2="566" stroke="#111827" stroke-width="1.05" marker-end="url(#arrow)"/><rect x="330.82" y="543" width="248.36" height="20" fill="#f3f4f6" opacity="0.96"/><text x="455" y="559" text-anchor="middle" font-family="Arial, sans-serif" font-size="12" font-weight="400" fill="#111827">approveSubmission(submissionId)</text><line x1="570" y1="620" x2="800" y2="620" stroke="#111827" stroke-width="1.05" marker-end="url(#arrow)"/><rect x="575.94" y="597" width="218.12" height="20" fill="#f3f4f6" opacity="0.96"/><text x="685" y="613" text-anchor="middle" font-family="Arial, sans-serif" font-size="12" font-weight="400" fill="#111827">update(Submission APPROVED)</text><path d="M570 687 h42 q18 0 18 18 q0 18 -18 18 h-42" fill="none" stroke="#111827" stroke-width="1.05" marker-end="url(#arrow)"/><rect x="617" y="665" width="203" height="20" fill="#f3f4f6" opacity="0.96"/><text x="620" y="681" text-anchor="start" font-family="Arial, sans-serif" font-size="12" font-weight="400" fill="#111827">calculateProgress(teamId)</text><line x1="570" y1="741" x2="1030" y2="741" stroke="#111827" stroke-width="1.05" marker-end="url(#arrow)"/><rect x="672.04" y="718" width="255.92000000000002" height="20" fill="#f3f4f6" opacity="0.96"/><text x="800" y="734" text-anchor="middle" font-family="Arial, sans-serif" font-size="12" font-weight="400" fill="#111827">sendApprovalNotice(submissionId)</text><line x1="1030" y1="795" x2="1260" y2="795" stroke="#111827" stroke-width="1.05" marker-end="url(#arrow)" stroke-dasharray="5 4"/><rect x="1118" y="772" width="54" height="20" fill="#f3f4f6" opacity="0.96"/><text x="1145" y="788" text-anchor="middle" font-family="Arial, sans-serif" font-size="12" font-weight="400" fill="#111827">승인 알림</text><line x1="340" y1="849" x2="110" y2="849" stroke="#111827" stroke-width="1.05" marker-end="url(#arrow)" stroke-dasharray="5 4"/><rect x="127.28" y="826" width="195.44" height="20" fill="#f3f4f6" opacity="0.96"/><text x="225" y="842" text-anchor="middle" font-family="Arial, sans-serif" font-size="12" font-weight="400" fill="#111827">updateProgress(progress)</text><line x1="110" y1="937" x2="340" y2="937" stroke="#111827" stroke-width="1.05" marker-end="url(#arrow)"/><rect x="198" y="914" width="54" height="20" fill="#f3f4f6" opacity="0.96"/><text x="225" y="930" text-anchor="middle" font-family="Arial, sans-serif" font-size="12" font-weight="400" fill="#111827">반려 선택</text><line x1="340" y1="991" x2="570" y2="991" stroke="#111827" stroke-width="1.05" marker-end="url(#arrow)"/><rect x="334.6" y="968" width="240.8" height="20" fill="#f3f4f6" opacity="0.96"/><text x="455" y="984" text-anchor="middle" font-family="Arial, sans-serif" font-size="12" font-weight="400" fill="#111827">rejectSubmission(submissionId)</text><line x1="570" y1="1045" x2="800" y2="1045" stroke="#111827" stroke-width="1.05" marker-end="url(#arrow)"/><rect x="575.94" y="1022" width="218.12" height="20" fill="#f3f4f6" opacity="0.96"/><text x="685" y="1038" text-anchor="middle" font-family="Arial, sans-serif" font-size="12" font-weight="400" fill="#111827">update(Submission REJECTED)</text><line x1="570" y1="1112" x2="1030" y2="1112" stroke="#111827" stroke-width="1.05" marker-end="url(#arrow)"/><rect x="668.26" y="1089" width="263.48" height="20" fill="#f3f4f6" opacity="0.96"/><text x="800" y="1105" text-anchor="middle" font-family="Arial, sans-serif" font-size="12" font-weight="400" fill="#111827">sendRejectionNotice(submissionId)</text><line x1="1030" y1="1166" x2="1260" y2="1166" stroke="#111827" stroke-width="1.05" marker-end="url(#arrow)" stroke-dasharray="5 4"/><rect x="1103.98" y="1143" width="82.04" height="20" fill="#f3f4f6" opacity="0.96"/><text x="1145" y="1159" text-anchor="middle" font-family="Arial, sans-serif" font-size="12" font-weight="400" fill="#111827">재제출 요청 알림</text></svg>