<svg xmlns="http://www.w3.org/2000/svg" width="1290" height="808" viewBox="0 0 1290 808">
<defs>
  <marker id="arrow" viewBox="0 0 10 10" refX="9" refY="5" markerWidth="7" markerHeight="7" orient="auto"><path d="M0 0 L10 5 L0 10 z" fill="#111827"/></marker>
  <marker id="hollowArrow" viewBox="0 0 10 10" refX="9" refY="5" markerWidth="7" markerHeight="7" orient="auto"><path d="M0 0 L10 5 L0 10 z" fill="#fff" stroke="#111827"/></marker>
  <marker id="diamond" viewBox="0 0 16 10" refX="1" refY="5" markerWidth="11" markerHeight="9" orient="auto"><path d="M1 5 L8 1 L15 5 L8 9 z" fill="#111827" stroke="#111827"/></marker>
</defs>
<rect width="100%" height="100%" fill="#ffffff"/>
<text x="36" y="32" font-family="Arial, sans-serif" font-size="20" font-weight="700">3.3 Create Team</text><circle cx="110" cy="72" r="10" fill="#fff" stroke="#111827" stroke-width="1.3"/>
<line x1="110" y1="82" x2="110" y2="104" stroke="#111827" stroke-width="1.3"/>
<line x1="94" y1="90" x2="126" y2="90" stroke="#111827" stroke-width="1.3"/>
<line x1="110" y1="104" x2="94" y2="120" stroke="#111827" stroke-width="1.3"/>
<line x1="110" y1="104" x2="126" y2="120" stroke="#111827" stroke-width="1.3"/>
<text x="110" y="140" text-anchor="middle" font-family="Arial, sans-serif" font-size="13">admin:Administrator</text><line x1="110" y1="106" x2="110" y2="768" stroke="#111827" stroke-width="1" stroke-dasharray="6 6"/><rect x="256" y="62" width="168" height="44" fill="#fff" stroke="#111827" stroke-width="1.2"/>
<text x="340" y="89" text-anchor="middle" font-family="Arial, sans-serif" font-size="13" font-weight="700">HomeUI</text><line x1="340" y1="106" x2="340" y2="768" stroke="#111827" stroke-width="1" stroke-dasharray="6 6"/><rect x="486" y="62" width="168" height="44" fill="#fff" stroke="#111827" stroke-width="1.2"/>
<text x="570" y="89" text-anchor="middle" font-family="Arial, sans-serif" font-size="13" font-weight="700">TeamUI</text><line x1="570" y1="106" x2="570" y2="768" stroke="#111827" stroke-width="1" stroke-dasharray="6 6"/><rect x="716" y="62" width="168" height="44" fill="#fff" stroke="#111827" stroke-width="1.2"/>
<text x="800" y="89" text-anchor="middle" font-family="Arial, sans-serif" font-size="13" font-weight="700">TeamService</text><line x1="800" y1="106" x2="800" y2="768" stroke="#111827" stroke-width="1" stroke-dasharray="6 6"/><rect x="946" y="62" width="168" height="44" fill="#fff" stroke="#111827" stroke-width="1.2"/>
<text x="1030" y="89" text-anchor="middle" font-family="Arial, sans-serif" font-size="13" font-weight="700">DataStore</text><line x1="1030" y1="106" x2="1030" y2="768" stroke="#111827" stroke-width="1" stroke-dasharray="6 6"/><line x1="110" y1="154" x2="340" y2="154" stroke="#111827" stroke-width="1.05" marker-end="url(#arrow)"/><rect x="183.98" y="131" width="82.04" height="20" fill="#fff" opacity="0.94"/><text x="225" y="147" text-anchor="middle" font-family="Arial, sans-serif" font-size="12" font-weight="400" fill="#111827">+ 팀 생성 선택</text><path d="M340 208 h42 q18 0 18 18 q0 18 -18 18 h-42" fill="none" stroke="#111827" stroke-width="1.05" marker-end="url(#arrow)"/><rect x="387" y="186" width="104.72" height="20" fill="#fff" opacity="0.94"/><text x="390" y="202" text-anchor="start" font-family="Arial, sans-serif" font-size="12" font-weight="400" fill="#111827">openTeamUI()</text><line x1="340" y1="262" x2="570" y2="262" stroke="#111827" stroke-width="1.05" marker-end="url(#arrow)"/><rect x="383.74" y="239" width="142.52" height="20" fill="#fff" opacity="0.94"/><text x="455" y="255" text-anchor="middle" font-family="Arial, sans-serif" font-size="12" font-weight="400" fill="#111827">displayTeamForm()</text><line x1="110" y1="316" x2="570" y2="316" stroke="#111827" stroke-width="1.05" marker-end="url(#arrow)"/><rect x="298.98" y="293" width="82.04" height="20" fill="#fff" opacity="0.94"/><text x="340" y="309" text-anchor="middle" font-family="Arial, sans-serif" font-size="12" font-weight="400" fill="#111827">팀명, 설명 입력</text><path d="M570 370 h42 q18 0 18 18 q0 18 -18 18 h-42" fill="none" stroke="#111827" stroke-width="1.05" marker-end="url(#arrow)"/><rect x="617" y="348" width="195.44" height="20" fill="#fff" opacity="0.94"/><text x="620" y="364" text-anchor="start" font-family="Arial, sans-serif" font-size="12" font-weight="400" fill="#111827">submitTeamData(teamData)</text><line x1="570" y1="424" x2="800" y2="424" stroke="#111827" stroke-width="1.05" marker-end="url(#arrow)"/><rect x="606.18" y="401" width="157.64000000000001" height="35" fill="#fff" opacity="0.94"/><text x="685" y="417" text-anchor="middle" font-family="Arial, sans-serif" font-size="12" font-weight="400" fill="#111827">createTeam(adminId,</text><text x="685" y="432" text-anchor="middle" font-family="Arial, sans-serif" font-size="12" font-weight="400" fill="#111827">teamData)</text><line x1="800" y1="491" x2="1030" y2="491" stroke="#111827" stroke-width="1.05" marker-end="url(#arrow)"/><rect x="870.2" y="468" width="89.6" height="20" fill="#fff" opacity="0.94"/><text x="915" y="484" text-anchor="middle" font-family="Arial, sans-serif" font-size="12" font-weight="400" fill="#111827">save(Team)</text><line x1="1030" y1="545" x2="800" y2="545" stroke="#111827" stroke-width="1.05" marker-end="url(#arrow)" stroke-dasharray="5 4"/><rect x="862.64" y="522" width="104.72" height="20" fill="#fff" opacity="0.94"/><text x="915" y="538" text-anchor="middle" font-family="Arial, sans-serif" font-size="12" font-weight="400" fill="#111827">created Team</text><line x1="800" y1="599" x2="570" y2="599" stroke="#111827" stroke-width="1.05" marker-end="url(#arrow)" stroke-dasharray="5 4"/><rect x="625.08" y="576" width="119.84" height="20" fill="#fff" opacity="0.94"/><text x="685" y="592" text-anchor="middle" font-family="Arial, sans-serif" font-size="12" font-weight="400" fill="#111827">create success</text><line x1="570" y1="653" x2="340" y2="653" stroke="#111827" stroke-width="1.05" marker-end="url(#arrow)" stroke-dasharray="5 4"/><rect x="372.4" y="630" width="165.2" height="20" fill="#fff" opacity="0.94"/><text x="455" y="646" text-anchor="middle" font-family="Arial, sans-serif" font-size="12" font-weight="400" fill="#111827">updateTeamList(team)</text><line x1="340" y1="707" x2="110" y2="707" stroke="#111827" stroke-width="1.05" marker-end="url(#arrow)" stroke-dasharray="5 4"/><rect x="183.98" y="684" width="82.04" height="20" fill="#fff" opacity="0.94"/><text x="225" y="700" text-anchor="middle" font-family="Arial, sans-serif" font-size="12" font-weight="400" fill="#111827">새 팀 카드 표시</text></svg>