<svg xmlns="http://www.w3.org/2000/svg" width="950" height="730" viewBox="0 0 950 730">
<style>text{font-family:Arial,'Malgun Gothic',sans-serif}.title{font-size:22px;font-weight:700;fill:#1f2937}.boxTitle{font-size:14px;font-weight:700;fill:#111827}.small{font-size:12px;fill:#374151}.msg{font-size:12px;fill:#111827}.muted{font-size:11px;fill:#6b7280}</style>
<rect width="100%" height="100%" fill="#ffffff"/>
<defs><marker id="arrow" markerWidth="10" markerHeight="10" refX="8" refY="3" orient="auto"><path d="M0,0 L0,6 L9,3 z" fill="#2563eb"/></marker></defs>
<text x="40" y="44" class="title">Sequence Diagram 1</text>
<rect x="5" y="58" width="130" height="38" rx="8" fill="#eff6ff" stroke="#2563eb"/>
<text x="70" y="82" text-anchor="middle" class="boxTitle">User</text>
<line x1="70" y1="96" x2="70" y2="695" stroke="#cbd5e1" stroke-dasharray="5,5"/>
<rect x="195" y="58" width="130" height="38" rx="8" fill="#eff6ff" stroke="#2563eb"/>
<text x="260" y="82" text-anchor="middle" class="boxTitle">MainActivity</text>
<line x1="260" y1="96" x2="260" y2="695" stroke="#cbd5e1" stroke-dasharray="5,5"/>
<rect x="385" y="58" width="130" height="38" rx="8" fill="#eff6ff" stroke="#2563eb"/>
<text x="450" y="82" text-anchor="middle" class="boxTitle">SupabaseAuthClient</text>
<line x1="450" y1="96" x2="450" y2="695" stroke="#cbd5e1" stroke-dasharray="5,5"/>
<rect x="575" y="58" width="130" height="38" rx="8" fill="#eff6ff" stroke="#2563eb"/>
<text x="640" y="82" text-anchor="middle" class="boxTitle">Supabase</text>
<line x1="640" y1="96" x2="640" y2="695" stroke="#cbd5e1" stroke-dasharray="5,5"/>
<line x1="70" y1="145" x2="260" y2="145" stroke="#2563eb" stroke-width="1.8" marker-end="url(#arrow)"/>
<text x="165.0" y="137" text-anchor="middle" class="msg">회원가입 선택</text>
<path d="M260 200 C330 200 330 230 260 230" fill="none" stroke="#2563eb" stroke-width="1.8" marker-end="url(#arrow)"/>
<text x="338" y="205" text-anchor="middle" class="msg">닉네임/이메일/비밀번호/권한 검증</text>
<line x1="260" y1="255" x2="450" y2="255" stroke="#2563eb" stroke-width="1.8" marker-end="url(#arrow)"/>
<text x="355.0" y="247" text-anchor="middle" class="msg">signUp(email, password, nickname, role</text>
<text x="355.0" y="262" text-anchor="middle" class="msg">)</text>
<line x1="450" y1="322" x2="640" y2="322" stroke="#2563eb" stroke-width="1.8" marker-end="url(#arrow)"/>
<text x="545.0" y="314" text-anchor="middle" class="msg">members 닉네임 중복 조회</text>
<line x1="450" y1="377" x2="640" y2="377" stroke="#2563eb" stroke-width="1.8" marker-end="url(#arrow)"/>
<text x="545.0" y="369" text-anchor="middle" class="msg">/auth/v1/signup 요청</text>
<line x1="450" y1="432" x2="640" y2="432" stroke="#2563eb" stroke-width="1.8" marker-end="url(#arrow)"/>
<text x="545.0" y="424" text-anchor="middle" class="msg">members 프로필 insert</text>
<line x1="640" y1="487" x2="450" y2="487" stroke="#2563eb" stroke-width="1.8" marker-end="url(#arrow)"/>
<text x="545.0" y="479" text-anchor="middle" class="msg">AuthSession</text>
<line x1="450" y1="542" x2="260" y2="542" stroke="#2563eb" stroke-width="1.8" marker-end="url(#arrow)"/>
<text x="355.0" y="534" text-anchor="middle" class="msg">onSuccess(session)</text>
<path d="M260 597 C330 597 330 627 260 627" fill="none" stroke="#2563eb" stroke-width="1.8" marker-end="url(#arrow)"/>
<text x="338" y="602" text-anchor="middle" class="msg">currentUserName/currentUserRole 설정</text>
<line x1="260" y1="652" x2="70" y2="652" stroke="#2563eb" stroke-width="1.8" marker-end="url(#arrow)"/>
<text x="165.0" y="644" text-anchor="middle" class="msg">Home 화면 표시</text>
</svg>