<svg xmlns="http://www.w3.org/2000/svg" width="1290" height="1291" viewBox="0 0 1290 1291">
<defs>
  <marker id="arrow" viewBox="0 0 10 10" refX="9" refY="5" markerWidth="7" markerHeight="7" orient="auto"><path d="M0 0 L10 5 L0 10 z" fill="#111827"/></marker>
  <marker id="hollowArrow" viewBox="0 0 10 10" refX="9" refY="5" markerWidth="7" markerHeight="7" orient="auto"><path d="M0 0 L10 5 L0 10 z" fill="#fbfbfb" stroke="#111827"/></marker>
  <marker id="diamond" viewBox="0 0 16 10" refX="1" refY="5" markerWidth="11" markerHeight="9" orient="auto"><path d="M1 5 L8 1 L15 5 L8 9 z" fill="#111827" stroke="#111827"/></marker>
</defs>
<rect width="100%" height="100%" fill="#ffffff"/>
<text x="36" y="32" font-family="Arial, sans-serif" font-size="20" font-weight="700">3.2 Login</text><rect x="26" y="62" width="168" height="44" fill="#fbfbfb" stroke="#111827" stroke-width="1.2"/>
<text x="110" y="89" text-anchor="middle" font-family="Arial, sans-serif" font-size="13" font-weight="700">LoginUI</text><line x1="110" y1="106" x2="110" y2="1251" stroke="#111827" stroke-width="1" stroke-dasharray="6 6"/><rect x="256" y="62" width="168" height="44" fill="#fbfbfb" stroke="#111827" stroke-width="1.2"/>
<text x="340" y="89" text-anchor="middle" font-family="Arial, sans-serif" font-size="13" font-weight="700">AuthService</text><line x1="340" y1="106" x2="340" y2="1251" stroke="#111827" stroke-width="1" stroke-dasharray="6 6"/><rect x="486" y="62" width="168" height="44" fill="#fbfbfb" stroke="#111827" stroke-width="1.2"/>
<text x="570" y="89" text-anchor="middle" font-family="Arial, sans-serif" font-size="13" font-weight="700">SupabaseAuthClient</text><line x1="570" y1="106" x2="570" y2="1251" stroke="#111827" stroke-width="1" stroke-dasharray="6 6"/><rect x="716" y="62" width="168" height="44" fill="#fbfbfb" stroke="#111827" stroke-width="1.2"/>
<text x="800" y="89" text-anchor="middle" font-family="Arial, sans-serif" font-size="13" font-weight="700">SupabaseAuthAPI</text><line x1="800" y1="106" x2="800" y2="1251" stroke="#111827" stroke-width="1" stroke-dasharray="6 6"/><rect x="946" y="62" width="168" height="44" fill="#fbfbfb" stroke="#111827" stroke-width="1.2"/>
<text x="1030" y="89" text-anchor="middle" font-family="Arial, sans-serif" font-size="13" font-weight="700">HomeUI</text><line x1="1030" y1="106" x2="1030" y2="1251" stroke="#111827" stroke-width="1" stroke-dasharray="6 6"/><rect x="74" y="583" width="1128" height="635" fill="none" stroke="#111827" stroke-dasharray="4 4"/><path d="M74 583 h72 l-12 22 h-60 z" fill="#fbfbfb" stroke="#111827"/><text x="108" y="598" text-anchor="middle" font-family="Arial, sans-serif" font-size="12" font-weight="700" fill="#111827">alt 로그인 성공</text><line x1="74" y1="921" x2="1202" y2="921" stroke="#111827" stroke-dasharray="4 4"/><text x="126" y="912" text-anchor="start" font-family="Arial, sans-serif" font-size="12" font-weight="700" fill="#111827">else 로그인 실패</text><path d="M110 162 h42 q18 0 18 18 q0 18 -18 18 h-42" fill="none" stroke="#111827" stroke-width="1.05" marker-end="url(#arrow)"/><text x="164" y="144" text-anchor="start" font-family="Arial, sans-serif" font-size="12" font-weight="400" fill="#111827">requestLogin(email, password)</text><line x1="110" y1="248" x2="340" y2="248" stroke="#111827" stroke-width="1.05" marker-end="url(#arrow)"/><text x="225" y="230" text-anchor="middle" font-family="Arial, sans-serif" font-size="12" font-weight="400" fill="#111827">login(email, password)</text><path d="M340 320 h42 q18 0 18 18 q0 18 -18 18 h-42" fill="none" stroke="#111827" stroke-width="1.05" marker-end="url(#arrow)"/><text x="394" y="302" text-anchor="start" font-family="Arial, sans-serif" font-size="12" font-weight="400" fill="#111827">validateEmailFormat(email)</text><line x1="340" y1="392" x2="570" y2="392" stroke="#111827" stroke-width="1.05" marker-end="url(#arrow)"/><text x="455" y="374" text-anchor="middle" font-family="Arial, sans-serif" font-size="12" font-weight="400" fill="#111827">signIn(email, password)</text><line x1="570" y1="464" x2="800" y2="464" stroke="#111827" stroke-width="1.05" marker-end="url(#arrow)"/><text x="685" y="446" text-anchor="middle" font-family="Arial, sans-serif" font-size="12" font-weight="400" fill="#111827">POST /auth/v1/token</text><line x1="800" y1="536" x2="570" y2="536" stroke="#111827" stroke-width="1.05" marker-end="url(#arrow)" stroke-dasharray="5 4"/><text x="685" y="518" text-anchor="middle" font-family="Arial, sans-serif" font-size="12" font-weight="400" fill="#111827">auth response</text><line x1="570" y1="650" x2="340" y2="650" stroke="#111827" stroke-width="1.05" marker-end="url(#arrow)" stroke-dasharray="5 4"/><text x="455" y="632" text-anchor="middle" font-family="Arial, sans-serif" font-size="12" font-weight="400" fill="#111827">auth session</text><line x1="340" y1="722" x2="110" y2="722" stroke="#111827" stroke-width="1.05" marker-end="url(#arrow)" stroke-dasharray="5 4"/><text x="225" y="704" text-anchor="middle" font-family="Arial, sans-serif" font-size="12" font-weight="400" fill="#111827">auth success</text><path d="M110 794 h42 q18 0 18 18 q0 18 -18 18 h-42" fill="none" stroke="#111827" stroke-width="1.05" marker-end="url(#arrow)"/><text x="164" y="776" text-anchor="start" font-family="Arial, sans-serif" font-size="12" font-weight="400" fill="#111827">navigateHome()</text><line x1="110" y1="866" x2="1030" y2="866" stroke="#111827" stroke-width="1.05" marker-end="url(#arrow)"/><text x="570" y="848" text-anchor="middle" font-family="Arial, sans-serif" font-size="12" font-weight="400" fill="#111827">showHome()</text><line x1="570" y1="980" x2="340" y2="980" stroke="#111827" stroke-width="1.05" marker-end="url(#arrow)" stroke-dasharray="5 4"/><text x="455" y="962" text-anchor="middle" font-family="Arial, sans-serif" font-size="12" font-weight="400" fill="#111827">Invalid login credentials</text><path d="M340 1066 h42 q18 0 18 18 q0 18 -18 18 h-42" fill="none" stroke="#111827" stroke-width="1.05" marker-end="url(#arrow)"/><text x="394" y="1048" text-anchor="start" font-family="Arial, sans-serif" font-size="12" font-weight="400" fill="#111827">mapToKoreanNotMemberMessage()</text><line x1="340" y1="1138" x2="110" y2="1138" stroke="#111827" stroke-width="1.05" marker-end="url(#arrow)" stroke-dasharray="5 4"/><text x="225" y="1120" text-anchor="middle" font-family="Arial, sans-serif" font-size="12" font-weight="400" fill="#111827">회원이 아닙니다. 회원가입을 진행해주세요.</text></svg>