<svg xmlns="http://www.w3.org/2000/svg" width="1290" height="1305" viewBox="0 0 1290 1305">
<defs>
  <marker id="arrow" viewBox="0 0 10 10" refX="9" refY="5" markerWidth="7" markerHeight="7" orient="auto"><path d="M0 0 L10 5 L0 10 z" fill="#111827"/></marker>
  <marker id="hollowArrow" viewBox="0 0 10 10" refX="9" refY="5" markerWidth="7" markerHeight="7" orient="auto"><path d="M0 0 L10 5 L0 10 z" fill="#fbfbfb" stroke="#111827"/></marker>
  <marker id="diamond" viewBox="0 0 16 10" refX="1" refY="5" markerWidth="11" markerHeight="9" orient="auto"><path d="M1 5 L8 1 L15 5 L8 9 z" fill="#111827" stroke="#111827"/></marker>
</defs>
<rect width="100%" height="100%" fill="#ffffff"/>
<text x="36" y="32" font-family="Arial, sans-serif" font-size="20" font-weight="700">3.7 Upload Task</text><rect x="26" y="62" width="168" height="44" fill="#fbfbfb" stroke="#111827" stroke-width="1.2"/>
<text x="110" y="89" text-anchor="middle" font-family="Arial, sans-serif" font-size="13" font-weight="700">TaskBoardUI</text><line x1="110" y1="106" x2="110" y2="1265" stroke="#111827" stroke-width="1" stroke-dasharray="6 6"/><rect x="256" y="62" width="168" height="44" fill="#fbfbfb" stroke="#111827" stroke-width="1.2"/>
<text x="340" y="89" text-anchor="middle" font-family="Arial, sans-serif" font-size="13" font-weight="700">TaskService</text><line x1="340" y1="106" x2="340" y2="1265" stroke="#111827" stroke-width="1" stroke-dasharray="6 6"/><rect x="486" y="62" width="168" height="44" fill="#fbfbfb" stroke="#111827" stroke-width="1.2"/>
<text x="570" y="89" text-anchor="middle" font-family="Arial, sans-serif" font-size="13" font-weight="700">FileStorage</text><line x1="570" y1="106" x2="570" y2="1265" stroke="#111827" stroke-width="1" stroke-dasharray="6 6"/><rect x="716" y="62" width="168" height="44" fill="#fbfbfb" stroke="#111827" stroke-width="1.2"/>
<text x="800" y="89" text-anchor="middle" font-family="Arial, sans-serif" font-size="13" font-weight="700">DataStore</text><line x1="800" y1="106" x2="800" y2="1265" stroke="#111827" stroke-width="1" stroke-dasharray="6 6"/><rect x="946" y="62" width="168" height="44" fill="#fbfbfb" stroke="#111827" stroke-width="1.2"/>
<text x="1030" y="89" text-anchor="middle" font-family="Arial, sans-serif" font-size="13" font-weight="700">NotificationService</text><line x1="1030" y1="106" x2="1030" y2="1265" stroke="#111827" stroke-width="1" stroke-dasharray="6 6"/><rect x="74" y="367" width="1128" height="865" fill="none" stroke="#111827" stroke-dasharray="4 4"/><path d="M74 367 h72 l-12 22 h-60 z" fill="#fbfbfb" stroke="#111827"/><text x="108" y="382" text-anchor="middle" font-family="Arial, sans-serif" font-size="12" font-weight="700" fill="#111827">alt 제출물 없음 또는 같은</text><text x="108" y="397" text-anchor="middle" font-family="Arial, sans-serif" font-size="12" font-weight="700" fill="#111827">제출자</text><line x1="74" y1="1093" x2="1202" y2="1093" stroke="#111827" stroke-dasharray="4 4"/><text x="126" y="1084" text-anchor="start" font-family="Arial, sans-serif" font-size="12" font-weight="700" fill="#111827">else 다른 제출자 존재</text><line x1="110" y1="162" x2="340" y2="162" stroke="#111827" stroke-width="1.05" marker-end="url(#arrow)"/><text x="225" y="144" text-anchor="middle" font-family="Arial, sans-serif" font-size="12" font-weight="400" fill="#111827">canReupload(taskId,</text><text x="225" y="159" text-anchor="middle" font-family="Arial, sans-serif" font-size="12" font-weight="400" fill="#111827">memberId)</text><line x1="340" y1="248" x2="800" y2="248" stroke="#111827" stroke-width="1.05" marker-end="url(#arrow)"/><text x="570" y="230" text-anchor="middle" font-family="Arial, sans-serif" font-size="12" font-weight="400" fill="#111827">findSubmission(taskId)</text><line x1="800" y1="320" x2="340" y2="320" stroke="#111827" stroke-width="1.05" marker-end="url(#arrow)" stroke-dasharray="5 4"/><text x="570" y="302" text-anchor="middle" font-family="Arial, sans-serif" font-size="12" font-weight="400" fill="#111827">submission or empty</text><line x1="340" y1="434" x2="110" y2="434" stroke="#111827" stroke-width="1.05" marker-end="url(#arrow)" stroke-dasharray="5 4"/><text x="225" y="416" text-anchor="middle" font-family="Arial, sans-serif" font-size="12" font-weight="400" fill="#111827">upload allowed</text><path d="M110 506 h42 q18 0 18 18 q0 18 -18 18 h-42" fill="none" stroke="#111827" stroke-width="1.05" marker-end="url(#arrow)"/><text x="164" y="488" text-anchor="start" font-family="Arial, sans-serif" font-size="12" font-weight="400" fill="#111827">openAndroidFilePicker()</text><line x1="110" y1="578" x2="340" y2="578" stroke="#111827" stroke-width="1.05" marker-end="url(#arrow)"/><text x="225" y="560" text-anchor="middle" font-family="Arial, sans-serif" font-size="12" font-weight="400" fill="#111827">uploadSubmission(taskId,</text><text x="225" y="575" text-anchor="middle" font-family="Arial, sans-serif" font-size="12" font-weight="400" fill="#111827">memberId, uri)</text><line x1="340" y1="664" x2="570" y2="664" stroke="#111827" stroke-width="1.05" marker-end="url(#arrow)"/><text x="455" y="646" text-anchor="middle" font-family="Arial, sans-serif" font-size="12" font-weight="400" fill="#111827">uploadToSupabaseStorage(file)</text><line x1="570" y1="736" x2="340" y2="736" stroke="#111827" stroke-width="1.05" marker-end="url(#arrow)" stroke-dasharray="5 4"/><text x="455" y="718" text-anchor="middle" font-family="Arial, sans-serif" font-size="12" font-weight="400" fill="#111827">objectPath</text><line x1="340" y1="808" x2="800" y2="808" stroke="#111827" stroke-width="1.05" marker-end="url(#arrow)"/><text x="570" y="790" text-anchor="middle" font-family="Arial, sans-serif" font-size="12" font-weight="400" fill="#111827">save(Submission with submittedBy)</text><line x1="800" y1="894" x2="340" y2="894" stroke="#111827" stroke-width="1.05" marker-end="url(#arrow)" stroke-dasharray="5 4"/><text x="570" y="876" text-anchor="middle" font-family="Arial, sans-serif" font-size="12" font-weight="400" fill="#111827">save success</text><line x1="340" y1="966" x2="1030" y2="966" stroke="#111827" stroke-width="1.05" marker-end="url(#arrow)"/><text x="685" y="948" text-anchor="middle" font-family="Arial, sans-serif" font-size="12" font-weight="400" fill="#111827">sendSubmissionNotice(taskId)</text><line x1="340" y1="1038" x2="110" y2="1038" stroke="#111827" stroke-width="1.05" marker-end="url(#arrow)" stroke-dasharray="5 4"/><text x="225" y="1020" text-anchor="middle" font-family="Arial, sans-serif" font-size="12" font-weight="400" fill="#111827">upload success</text><line x1="340" y1="1152" x2="110" y2="1152" stroke="#111827" stroke-width="1.05" marker-end="url(#arrow)" stroke-dasharray="5 4"/><text x="225" y="1134" text-anchor="middle" font-family="Arial, sans-serif" font-size="12" font-weight="400" fill="#111827">reupload blocked</text></svg>