<svg xmlns="http://www.w3.org/2000/svg" width="1520" height="821" viewBox="0 0 1520 821">
<defs>
  <marker id="arrow" viewBox="0 0 10 10" refX="9" refY="5" markerWidth="7" markerHeight="7" orient="auto"><path d="M0 0 L10 5 L0 10 z" fill="#111827"/></marker>
  <marker id="hollowArrow" viewBox="0 0 10 10" refX="9" refY="5" markerWidth="7" markerHeight="7" orient="auto"><path d="M0 0 L10 5 L0 10 z" fill="#fff" stroke="#111827"/></marker>
  <marker id="diamond" viewBox="0 0 16 10" refX="1" refY="5" markerWidth="11" markerHeight="9" orient="auto"><path d="M1 5 L8 1 L15 5 L8 9 z" fill="#111827" stroke="#111827"/></marker>
</defs>
<rect width="100%" height="100%" fill="#ffffff"/>
<text x="36" y="32" font-family="Arial, sans-serif" font-size="20" font-weight="700">3.4 Invite Member</text><circle cx="110" cy="72" r="10" fill="#fff" stroke="#111827" stroke-width="1.3"/>
<line x1="110" y1="82" x2="110" y2="104" stroke="#111827" stroke-width="1.3"/>
<line x1="94" y1="90" x2="126" y2="90" stroke="#111827" stroke-width="1.3"/>
<line x1="110" y1="104" x2="94" y2="120" stroke="#111827" stroke-width="1.3"/>
<line x1="110" y1="104" x2="126" y2="120" stroke="#111827" stroke-width="1.3"/>
<text x="110" y="140" text-anchor="middle" font-family="Arial, sans-serif" font-size="13">admin:Administrator</text><line x1="110" y1="106" x2="110" y2="781" stroke="#111827" stroke-width="1" stroke-dasharray="6 6"/><rect x="256" y="62" width="168" height="44" fill="#fff" stroke="#111827" stroke-width="1.2"/>
<text x="340" y="89" text-anchor="middle" font-family="Arial, sans-serif" font-size="13" font-weight="700">TeamUI</text><line x1="340" y1="106" x2="340" y2="781" stroke="#111827" stroke-width="1" stroke-dasharray="6 6"/><rect x="486" y="62" width="168" height="44" fill="#fff" stroke="#111827" stroke-width="1.2"/>
<text x="570" y="89" text-anchor="middle" font-family="Arial, sans-serif" font-size="13" font-weight="700">TeamService</text><line x1="570" y1="106" x2="570" y2="781" stroke="#111827" stroke-width="1" stroke-dasharray="6 6"/><rect x="716" y="62" width="168" height="44" fill="#fff" stroke="#111827" stroke-width="1.2"/>
<text x="800" y="89" text-anchor="middle" font-family="Arial, sans-serif" font-size="13" font-weight="700">DataStore</text><line x1="800" y1="106" x2="800" y2="781" stroke="#111827" stroke-width="1" stroke-dasharray="6 6"/><rect x="946" y="62" width="168" height="44" fill="#fff" stroke="#111827" stroke-width="1.2"/>
<text x="1030" y="89" text-anchor="middle" font-family="Arial, sans-serif" font-size="13" font-weight="700">NotificationService</text><line x1="1030" y1="106" x2="1030" y2="781" stroke="#111827" stroke-width="1" stroke-dasharray="6 6"/><circle cx="1260" cy="72" r="10" fill="#fff" stroke="#111827" stroke-width="1.3"/>
<line x1="1260" y1="82" x2="1260" y2="104" stroke="#111827" stroke-width="1.3"/>
<line x1="1244" y1="90" x2="1276" y2="90" stroke="#111827" stroke-width="1.3"/>
<line x1="1260" y1="104" x2="1244" y2="120" stroke="#111827" stroke-width="1.3"/>
<line x1="1260" y1="104" x2="1276" y2="120" stroke="#111827" stroke-width="1.3"/>
<text x="1260" y="140" text-anchor="middle" font-family="Arial, sans-serif" font-size="13">invitee:Member</text><line x1="1260" y1="106" x2="1260" y2="781" stroke="#111827" stroke-width="1" stroke-dasharray="6 6"/><line x1="110" y1="154" x2="340" y2="154" stroke="#111827" stroke-width="1.05" marker-end="url(#arrow)"/><rect x="183.98" y="131" width="82.04" height="20" fill="#fff" opacity="0.94"/><text x="225" y="147" text-anchor="middle" font-family="Arial, sans-serif" font-size="12" font-weight="400" fill="#111827">초대할 멤버 선택</text><path d="M340 208 h42 q18 0 18 18 q0 18 -18 18 h-42" fill="none" stroke="#111827" stroke-width="1.05" marker-end="url(#arrow)"/><rect x="387" y="186" width="225.68" height="20" fill="#fff" opacity="0.94"/><text x="390" y="202" text-anchor="start" font-family="Arial, sans-serif" font-size="12" font-weight="400" fill="#111827">selectInviteMember(memberId)</text><line x1="340" y1="262" x2="570" y2="262" stroke="#111827" stroke-width="1.05" marker-end="url(#arrow)"/><rect x="372.4" y="239" width="165.2" height="35" fill="#fff" opacity="0.94"/><text x="455" y="255" text-anchor="middle" font-family="Arial, sans-serif" font-size="12" font-weight="400" fill="#111827">inviteMember(teamId,</text><text x="455" y="270" text-anchor="middle" font-family="Arial, sans-serif" font-size="12" font-weight="400" fill="#111827">memberId)</text><line x1="570" y1="329" x2="800" y2="329" stroke="#111827" stroke-width="1.05" marker-end="url(#arrow)"/><rect x="609.96" y="306" width="150.08" height="20" fill="#fff" opacity="0.94"/><text x="685" y="322" text-anchor="middle" font-family="Arial, sans-serif" font-size="12" font-weight="400" fill="#111827">findById(memberId)</text><line x1="800" y1="383" x2="570" y2="383" stroke="#111827" stroke-width="1.05" marker-end="url(#arrow)" stroke-dasharray="5 4"/><rect x="636.42" y="360" width="97.16" height="20" fill="#fff" opacity="0.94"/><text x="685" y="376" text-anchor="middle" font-family="Arial, sans-serif" font-size="12" font-weight="400" fill="#111827">Member data</text><line x1="570" y1="437" x2="800" y2="437" stroke="#111827" stroke-width="1.05" marker-end="url(#arrow)"/><rect x="617.52" y="414" width="134.96" height="20" fill="#fff" opacity="0.94"/><text x="685" y="430" text-anchor="middle" font-family="Arial, sans-serif" font-size="12" font-weight="400" fill="#111827">save(TeamMember)</text><line x1="800" y1="491" x2="570" y2="491" stroke="#111827" stroke-width="1.05" marker-end="url(#arrow)" stroke-dasharray="5 4"/><rect x="632.64" y="468" width="104.72" height="20" fill="#fff" opacity="0.94"/><text x="685" y="484" text-anchor="middle" font-family="Arial, sans-serif" font-size="12" font-weight="400" fill="#111827">invite saved</text><line x1="570" y1="545" x2="1030" y2="545" stroke="#111827" stroke-width="1.05" marker-end="url(#arrow)"/><rect x="687.16" y="522" width="225.68" height="20" fill="#fff" opacity="0.94"/><text x="800" y="538" text-anchor="middle" font-family="Arial, sans-serif" font-size="12" font-weight="400" fill="#111827">sendInvite(memberId, teamId)</text><line x1="1030" y1="612" x2="1260" y2="612" stroke="#111827" stroke-width="1.05" marker-end="url(#arrow)" stroke-dasharray="5 4"/><rect x="1111.54" y="589" width="66.92" height="20" fill="#fff" opacity="0.94"/><text x="1145" y="605" text-anchor="middle" font-family="Arial, sans-serif" font-size="12" font-weight="400" fill="#111827">팀 초대 알림</text><line x1="570" y1="666" x2="340" y2="666" stroke="#111827" stroke-width="1.05" marker-end="url(#arrow)" stroke-dasharray="5 4"/><rect x="379.96" y="643" width="150.08" height="20" fill="#fff" opacity="0.94"/><text x="455" y="659" text-anchor="middle" font-family="Arial, sans-serif" font-size="12" font-weight="400" fill="#111827">invitation success</text><path d="M340 720 h42 q18 0 18 18 q0 18 -18 18 h-42" fill="none" stroke="#111827" stroke-width="1.05" marker-end="url(#arrow)"/><rect x="387" y="698" width="150.08" height="20" fill="#fff" opacity="0.94"/><text x="390" y="714" text-anchor="start" font-family="Arial, sans-serif" font-size="12" font-weight="400" fill="#111827">showInviteResult()</text></svg>