<svg xmlns="http://www.w3.org/2000/svg" width="1060" height="719" viewBox="0 0 1060 719">
<defs>
  <marker id="arrow" viewBox="0 0 10 10" refX="9" refY="5" markerWidth="7" markerHeight="7" orient="auto"><path d="M0 0 L10 5 L0 10 z" fill="#111827"/></marker>
  <marker id="hollowArrow" viewBox="0 0 10 10" refX="9" refY="5" markerWidth="7" markerHeight="7" orient="auto"><path d="M0 0 L10 5 L0 10 z" fill="#fbfbfb" stroke="#111827"/></marker>
  <marker id="diamond" viewBox="0 0 16 10" refX="1" refY="5" markerWidth="11" markerHeight="9" orient="auto"><path d="M1 5 L8 1 L15 5 L8 9 z" fill="#111827" stroke="#111827"/></marker>
</defs>
<rect width="100%" height="100%" fill="#ffffff"/>
<text x="36" y="32" font-family="Arial, sans-serif" font-size="20" font-weight="700">3.10 Vote Event</text><rect x="26" y="62" width="168" height="44" fill="#fbfbfb" stroke="#111827" stroke-width="1.2"/>
<text x="110" y="89" text-anchor="middle" font-family="Arial, sans-serif" font-size="13" font-weight="700">member:Member</text><line x1="110" y1="106" x2="110" y2="679" stroke="#111827" stroke-width="1" stroke-dasharray="6 6"/><rect x="256" y="62" width="168" height="44" fill="#fbfbfb" stroke="#111827" stroke-width="1.2"/>
<text x="340" y="89" text-anchor="middle" font-family="Arial, sans-serif" font-size="13" font-weight="700">EventUI</text><line x1="340" y1="106" x2="340" y2="679" stroke="#111827" stroke-width="1" stroke-dasharray="6 6"/><rect x="486" y="62" width="168" height="44" fill="#fbfbfb" stroke="#111827" stroke-width="1.2"/>
<text x="570" y="89" text-anchor="middle" font-family="Arial, sans-serif" font-size="13" font-weight="700">EventService</text><line x1="570" y1="106" x2="570" y2="679" stroke="#111827" stroke-width="1" stroke-dasharray="6 6"/><rect x="716" y="62" width="168" height="44" fill="#fbfbfb" stroke="#111827" stroke-width="1.2"/>
<text x="800" y="89" text-anchor="middle" font-family="Arial, sans-serif" font-size="13" font-weight="700">DataStore</text><line x1="800" y1="106" x2="800" y2="679" stroke="#111827" stroke-width="1" stroke-dasharray="6 6"/><line x1="110" y1="162" x2="340" y2="162" stroke="#111827" stroke-width="1.05" marker-end="url(#arrow)"/><text x="225" y="144" text-anchor="middle" font-family="Arial, sans-serif" font-size="12" font-weight="400" fill="#111827">참여/불참 선택</text><path d="M340 234 h42 q18 0 18 18 q0 18 -18 18 h-42" fill="none" stroke="#111827" stroke-width="1.05" marker-end="url(#arrow)"/><text x="394" y="216" text-anchor="start" font-family="Arial, sans-serif" font-size="12" font-weight="400" fill="#111827">submitVote(voteStatus)</text><line x1="340" y1="306" x2="570" y2="306" stroke="#111827" stroke-width="1.05" marker-end="url(#arrow)"/><text x="455" y="288" text-anchor="middle" font-family="Arial, sans-serif" font-size="12" font-weight="400" fill="#111827">vote(eventId, memberId,</text><text x="455" y="303" text-anchor="middle" font-family="Arial, sans-serif" font-size="12" font-weight="400" fill="#111827">voteStatus)</text><line x1="570" y1="392" x2="800" y2="392" stroke="#111827" stroke-width="1.05" marker-end="url(#arrow)"/><text x="685" y="374" text-anchor="middle" font-family="Arial, sans-serif" font-size="12" font-weight="400" fill="#111827">save(Vote)</text><line x1="800" y1="464" x2="570" y2="464" stroke="#111827" stroke-width="1.05" marker-end="url(#arrow)" stroke-dasharray="5 4"/><text x="685" y="446" text-anchor="middle" font-family="Arial, sans-serif" font-size="12" font-weight="400" fill="#111827">vote saved</text><line x1="570" y1="536" x2="340" y2="536" stroke="#111827" stroke-width="1.05" marker-end="url(#arrow)" stroke-dasharray="5 4"/><text x="455" y="518" text-anchor="middle" font-family="Arial, sans-serif" font-size="12" font-weight="400" fill="#111827">vote success</text><line x1="340" y1="608" x2="110" y2="608" stroke="#111827" stroke-width="1.05" marker-end="url(#arrow)" stroke-dasharray="5 4"/><text x="225" y="590" text-anchor="middle" font-family="Arial, sans-serif" font-size="12" font-weight="400" fill="#111827">투표 완료 상태 표시</text></svg>