<svg xmlns="http://www.w3.org/2000/svg" width="1367" height="638" viewBox="0 0 1367 638">
<defs><marker id="arrow" viewBox="0 0 10 10" refX="9" refY="5" markerWidth="7" markerHeight="7" orient="auto"><path d="M0 0 L10 5 L0 10 z" fill="#111827"/></marker></defs>
<rect width="100%" height="100%" fill="#ffffff"/>
<text x="36" y="32" font-family="Arial, sans-serif" font-size="20" font-weight="700" fill="#111827">3.14 Manage Team Workspace</text><circle cx="96" cy="72" r="10" fill="#fff" stroke="#111827" stroke-width="1.3"/>
<line x1="96" y1="82" x2="96" y2="104" stroke="#111827" stroke-width="1.3"/>
<line x1="80" y1="90" x2="112" y2="90" stroke="#111827" stroke-width="1.3"/>
<line x1="96" y1="104" x2="80" y2="120" stroke="#111827" stroke-width="1.3"/>
<line x1="96" y1="104" x2="112" y2="120" stroke="#111827" stroke-width="1.3"/>
<text x="96" y="140" text-anchor="middle" font-family="Arial, sans-serif" font-size="13" fill="#111827">sender:Member</text><line x1="96" y1="106" x2="96" y2="594" stroke="#111827" stroke-width="1" stroke-dasharray="6 6"/><rect x="225" y="62" width="152" height="44" fill="#fff" stroke="#111827" stroke-width="1.2"/>
<text x="301" y="89" text-anchor="middle" font-family="Arial, sans-serif" font-size="13" font-weight="700" fill="#111827">WorkspaceUI</text><line x1="301" y1="106" x2="301" y2="594" stroke="#111827" stroke-width="1" stroke-dasharray="6 6"/><rect x="430" y="62" width="152" height="44" fill="#fff" stroke="#111827" stroke-width="1.2"/>
<text x="506" y="89" text-anchor="middle" font-family="Arial, sans-serif" font-size="13" font-weight="700" fill="#111827">WorkspaceService</text><line x1="506" y1="106" x2="506" y2="594" stroke="#111827" stroke-width="1" stroke-dasharray="6 6"/><rect x="635" y="62" width="152" height="44" fill="#fff" stroke="#111827" stroke-width="1.2"/>
<text x="711" y="89" text-anchor="middle" font-family="Arial, sans-serif" font-size="13" font-weight="700" fill="#111827">DataStore</text><line x1="711" y1="106" x2="711" y2="594" stroke="#111827" stroke-width="1" stroke-dasharray="6 6"/><rect x="840" y="62" width="152" height="44" fill="#fff" stroke="#111827" stroke-width="1.2"/>
<text x="916" y="89" text-anchor="middle" font-family="Arial, sans-serif" font-size="13" font-weight="700" fill="#111827">NotificationService</text><line x1="916" y1="106" x2="916" y2="594" stroke="#111827" stroke-width="1" stroke-dasharray="6 6"/><circle cx="1121" cy="72" r="10" fill="#fff" stroke="#111827" stroke-width="1.3"/>
<line x1="1121" y1="82" x2="1121" y2="104" stroke="#111827" stroke-width="1.3"/>
<line x1="1105" y1="90" x2="1137" y2="90" stroke="#111827" stroke-width="1.3"/>
<line x1="1121" y1="104" x2="1105" y2="120" stroke="#111827" stroke-width="1.3"/>
<line x1="1121" y1="104" x2="1137" y2="120" stroke="#111827" stroke-width="1.3"/>
<text x="1121" y="140" text-anchor="middle" font-family="Arial, sans-serif" font-size="13" fill="#111827">recipient:Member</text><line x1="1121" y1="106" x2="1121" y2="594" stroke="#111827" stroke-width="1" stroke-dasharray="6 6"/><line x1="96" y1="148" x2="301" y2="148" stroke="#111827" stroke-width="1.1" marker-end="url(#arrow)"/><text x="198.5" y="141" text-anchor="middle" font-family="Arial, sans-serif" font-size="12" fill="#111827">메시지 입력 후 전송</text><path d="M301 196 h36 q18 0 18 18 q0 18 -18 18 h-36" fill="none" stroke="#111827" stroke-width="1.1" marker-end="url(#arrow)"/><text x="347" y="191" font-family="Arial, sans-serif" font-size="12" fill="#111827">submitMessage(message)</text><line x1="301" y1="244" x2="506" y2="244" stroke="#111827" stroke-width="1.1" marker-end="url(#arrow)"/><text x="403.5" y="237" text-anchor="middle" font-family="Arial, sans-serif" font-size="12" fill="#111827">sendMessage(workspaceId,</text><text x="403.5" y="251" text-anchor="middle" font-family="Arial, sans-serif" font-size="12" fill="#111827">memberId, message)</text><line x1="506" y1="292" x2="711" y2="292" stroke="#111827" stroke-width="1.1" marker-end="url(#arrow)"/><text x="608.5" y="285" text-anchor="middle" font-family="Arial, sans-serif" font-size="12" fill="#111827">save(message)</text><line x1="711" y1="340" x2="506" y2="340" stroke="#111827" stroke-width="1.1" marker-end="url(#arrow)" stroke-dasharray="4 4"/><text x="608.5" y="333" text-anchor="middle" font-family="Arial, sans-serif" font-size="12" fill="#111827">save success</text><line x1="506" y1="388" x2="916" y2="388" stroke="#111827" stroke-width="1.1" marker-end="url(#arrow)"/><text x="711" y="381" text-anchor="middle" font-family="Arial, sans-serif" font-size="12" fill="#111827">sendWorkspaceNotice(workspaceId)</text><line x1="916" y1="436" x2="1121" y2="436" stroke="#111827" stroke-width="1.1" marker-end="url(#arrow)" stroke-dasharray="4 4"/><text x="1018.5" y="429" text-anchor="middle" font-family="Arial, sans-serif" font-size="12" fill="#111827">새 메시지 알림</text><line x1="506" y1="484" x2="301" y2="484" stroke="#111827" stroke-width="1.1" marker-end="url(#arrow)" stroke-dasharray="4 4"/><text x="403.5" y="477" text-anchor="middle" font-family="Arial, sans-serif" font-size="12" fill="#111827">message sent</text><line x1="301" y1="532" x2="96" y2="532" stroke="#111827" stroke-width="1.1" marker-end="url(#arrow)" stroke-dasharray="4 4"/><text x="198.5" y="525" text-anchor="middle" font-family="Arial, sans-serif" font-size="12" fill="#111827">updateMessageList(message)</text></svg>