<svg xmlns="http://www.w3.org/2000/svg" width="771" height="802" viewBox="0 0 771 802">
<defs>
  <marker id="arrow" viewBox="0 0 10 10" refX="9" refY="5" markerWidth="7" markerHeight="7" orient="auto-start-reverse">
    <path d="M0 0 L10 5 L0 10 z" fill="#1f2937"/>
  </marker>
</defs>
<rect width="100%" height="100%" fill="#ffffff"/>
<text x="28" y="28" font-family="Arial, sans-serif" font-size="20" font-weight="700" fill="#1f2937">3.12 decide event sequence</text><circle cx="48" cy="70" r="10" fill="#fff" stroke="#6d5dfc" stroke-width="1.5"/>
<line x1="48" y1="80" x2="48" y2="102" stroke="#6d5dfc" stroke-width="1.5"/>
<line x1="32" y1="88" x2="64" y2="88" stroke="#6d5dfc" stroke-width="1.5"/>
<line x1="48" y1="102" x2="32" y2="118" stroke="#6d5dfc" stroke-width="1.5"/>
<line x1="48" y1="102" x2="64" y2="118" stroke="#6d5dfc" stroke-width="1.5"/>
<text x="48" y="138" text-anchor="middle" font-family="Arial, sans-serif" font-size="13" fill="#111827">Administrator</text><line x1="48" y1="102" x2="48" y2="754" stroke="#7c3aed" stroke-width="1.2" stroke-dasharray="6 6"/><rect x="165" y="60" width="136" height="42" rx="4" fill="#eef2ff" stroke="#7c3aed" stroke-width="1"/>
<text x="233" y="86" text-anchor="middle" font-family="Arial, sans-serif" font-size="13" font-weight="700" fill="#111827">EventUI</text><line x1="233" y1="102" x2="233" y2="754" stroke="#7c3aed" stroke-width="1.2" stroke-dasharray="6 6"/><rect x="350" y="60" width="136" height="42" rx="4" fill="#eef2ff" stroke="#7c3aed" stroke-width="1"/>
<text x="418" y="86" text-anchor="middle" font-family="Arial, sans-serif" font-size="13" font-weight="700" fill="#111827">EventService</text><line x1="418" y1="102" x2="418" y2="754" stroke="#7c3aed" stroke-width="1.2" stroke-dasharray="6 6"/><rect x="535" y="60" width="136" height="42" rx="4" fill="#eef2ff" stroke="#7c3aed" stroke-width="1"/>
<text x="603" y="86" text-anchor="middle" font-family="Arial, sans-serif" font-size="13" font-weight="700" fill="#111827">DataStore</text><line x1="603" y1="102" x2="603" y2="754" stroke="#7c3aed" stroke-width="1.2" stroke-dasharray="6 6"/><line x1="48" y1="136" x2="233" y2="136" stroke="#1f2937" stroke-width="1.2" marker-end="url(#arrow)"/><text x="140.5" y="129" text-anchor="middle" font-family="Arial, sans-serif" font-size="12" fill="#111827">투표 마감 또는 결과 확인</text><path d="M233 182 h34 q18 0 18 18 q0 18 -18 18 h-34" fill="none" stroke="#1f2937" stroke-width="1.2" marker-end="url(#arrow)"/><text x="281" y="177" font-family="Arial, sans-serif" font-size="12" fill="#111827">requestDecision(eventId)</text><line x1="233" y1="228" x2="418" y2="228" stroke="#1f2937" stroke-width="1.2" marker-end="url(#arrow)"/><text x="325.5" y="221" text-anchor="middle" font-family="Arial, sans-serif" font-size="12" fill="#111827">decideEvent(eventId)</text><line x1="418" y1="274" x2="603" y2="274" stroke="#1f2937" stroke-width="1.2" marker-end="url(#arrow)"/><text x="510.5" y="267" text-anchor="middle" font-family="Arial, sans-serif" font-size="12" fill="#111827">findAll(eventId)</text><line x1="603" y1="320" x2="418" y2="320" stroke="#1f2937" stroke-width="1.2" marker-end="url(#arrow)" stroke-dasharray="4 4"/><text x="510.5" y="313" text-anchor="middle" font-family="Arial, sans-serif" font-size="12" fill="#111827">vote result</text><path d="M418 366 h34 q18 0 18 18 q0 18 -18 18 h-34" fill="none" stroke="#1f2937" stroke-width="1.2" marker-end="url(#arrow)"/><text x="466" y="361" font-family="Arial, sans-serif" font-size="12" fill="#111827">count attend and absent</text><rect x="30" y="388" width="685" height="138" fill="none" stroke="#7c3aed" stroke-width="1.1" stroke-dasharray="3 3"/>
<path d="M30 388 h54 l-10 18 h-44 z" fill="#faf5ff" stroke="#7c3aed" stroke-width="1"/>
<text x="40" y="401" font-family="Arial, sans-serif" font-size="12" font-weight="700" fill="#111827">alt 참여자 1명 이상</text><line x1="418" y1="439.6" x2="603" y2="439.6" stroke="#1f2937" stroke-width="1.2" marker-end="url(#arrow)"/><text x="510.5" y="432.6" text-anchor="middle" font-family="Arial, sans-serif" font-size="12" fill="#111827">update(Event CLOSED)</text><line x1="418" y1="485.6" x2="233" y2="485.6" stroke="#1f2937" stroke-width="1.2" marker-end="url(#arrow)" stroke-dasharray="4 4"/><text x="325.5" y="478.6" text-anchor="middle" font-family="Arial, sans-serif" font-size="12" fill="#111827">showEventResult(CLOSED)</text><line x1="30" y1="519.6" x2="715" y2="519.6" stroke="#7c3aed" stroke-width="1" stroke-dasharray="3 3"/>
<text x="56" y="513.6" font-family="Arial, sans-serif" font-size="12" font-weight="700" fill="#111827">else 참여자 없음</text><line x1="418" y1="559.2" x2="603" y2="559.2" stroke="#1f2937" stroke-width="1.2" marker-end="url(#arrow)"/><text x="510.5" y="552.2" text-anchor="middle" font-family="Arial, sans-serif" font-size="12" fill="#111827">update(Event CANCELED)</text><line x1="418" y1="605.2" x2="233" y2="605.2" stroke="#1f2937" stroke-width="1.2" marker-end="url(#arrow)" stroke-dasharray="4 4"/><text x="325.5" y="598.2" text-anchor="middle" font-family="Arial, sans-serif" font-size="12" fill="#111827">showEventResult(CANCELED)</text></svg>