<svg xmlns="http://www.w3.org/2000/svg" width="1060" height="647" viewBox="0 0 1060 647">
<defs>
  <marker id="arrow" viewBox="0 0 10 10" refX="9" refY="5" markerWidth="7" markerHeight="7" orient="auto"><path d="M0 0 L10 5 L0 10 z" fill="#111827"/></marker>
  <marker id="hollowArrow" viewBox="0 0 10 10" refX="9" refY="5" markerWidth="7" markerHeight="7" orient="auto"><path d="M0 0 L10 5 L0 10 z" fill="#fbfbfb" stroke="#111827"/></marker>
  <marker id="diamond" viewBox="0 0 16 10" refX="1" refY="5" markerWidth="11" markerHeight="9" orient="auto"><path d="M1 5 L8 1 L15 5 L8 9 z" fill="#111827" stroke="#111827"/></marker>
</defs>
<rect width="100%" height="100%" fill="#ffffff"/>
<text x="36" y="32" font-family="Arial, sans-serif" font-size="20" font-weight="700">3.14 Manage Team Workspace</text><rect x="26" y="62" width="168" height="44" fill="#fbfbfb" stroke="#111827" stroke-width="1.2"/>
<text x="110" y="89" text-anchor="middle" font-family="Arial, sans-serif" font-size="13" font-weight="700">WorkspaceUI</text><line x1="110" y1="106" x2="110" y2="607" stroke="#111827" stroke-width="1" stroke-dasharray="6 6"/><rect x="256" y="62" width="168" height="44" fill="#fbfbfb" stroke="#111827" stroke-width="1.2"/>
<text x="340" y="89" text-anchor="middle" font-family="Arial, sans-serif" font-size="13" font-weight="700">WorkspaceService</text><line x1="340" y1="106" x2="340" y2="607" stroke="#111827" stroke-width="1" stroke-dasharray="6 6"/><rect x="486" y="62" width="168" height="44" fill="#fbfbfb" stroke="#111827" stroke-width="1.2"/>
<text x="570" y="89" text-anchor="middle" font-family="Arial, sans-serif" font-size="13" font-weight="700">DataStore</text><line x1="570" y1="106" x2="570" y2="607" stroke="#111827" stroke-width="1" stroke-dasharray="6 6"/><rect x="716" y="62" width="168" height="44" fill="#fbfbfb" stroke="#111827" stroke-width="1.2"/>
<text x="800" y="89" text-anchor="middle" font-family="Arial, sans-serif" font-size="13" font-weight="700">NotificationService</text><line x1="800" y1="106" x2="800" y2="607" stroke="#111827" stroke-width="1" stroke-dasharray="6 6"/><path d="M110 162 h42 q18 0 18 18 q0 18 -18 18 h-42" fill="none" stroke="#111827" stroke-width="1.05" marker-end="url(#arrow)"/><text x="164" y="144" text-anchor="start" font-family="Arial, sans-serif" font-size="12" font-weight="400" fill="#111827">submitMessage(message)</text><line x1="110" y1="234" x2="340" y2="234" stroke="#111827" stroke-width="1.05" marker-end="url(#arrow)"/><text x="225" y="216" text-anchor="middle" font-family="Arial, sans-serif" font-size="12" font-weight="400" fill="#111827">sendMessage(workspaceId,</text><text x="225" y="231" text-anchor="middle" font-family="Arial, sans-serif" font-size="12" font-weight="400" fill="#111827">memberId, message)</text><line x1="340" y1="320" x2="570" y2="320" stroke="#111827" stroke-width="1.05" marker-end="url(#arrow)"/><text x="455" y="302" text-anchor="middle" font-family="Arial, sans-serif" font-size="12" font-weight="400" fill="#111827">save(message)</text><line x1="570" y1="392" x2="340" y2="392" stroke="#111827" stroke-width="1.05" marker-end="url(#arrow)" stroke-dasharray="5 4"/><text x="455" y="374" text-anchor="middle" font-family="Arial, sans-serif" font-size="12" font-weight="400" fill="#111827">save success</text><line x1="340" y1="464" x2="800" y2="464" stroke="#111827" stroke-width="1.05" marker-end="url(#arrow)"/><text x="570" y="446" text-anchor="middle" font-family="Arial, sans-serif" font-size="12" font-weight="400" fill="#111827">createMessageNotice(workspaceId)</text><line x1="340" y1="536" x2="110" y2="536" stroke="#111827" stroke-width="1.05" marker-end="url(#arrow)" stroke-dasharray="5 4"/><text x="225" y="518" text-anchor="middle" font-family="Arial, sans-serif" font-size="12" font-weight="400" fill="#111827">message sent</text></svg>