<svg xmlns="http://www.w3.org/2000/svg" width="950" height="455" viewBox="0 0 950 455">
<style>text{font-family:Arial,'Malgun Gothic',sans-serif}.title{font-size:22px;font-weight:700;fill:#1f2937}.boxTitle{font-size:14px;font-weight:700;fill:#111827}.small{font-size:12px;fill:#374151}.msg{font-size:12px;fill:#111827}.muted{font-size:11px;fill:#6b7280}</style>
<rect width="100%" height="100%" fill="#ffffff"/>
<defs><marker id="arrow" markerWidth="10" markerHeight="10" refX="8" refY="3" orient="auto"><path d="M0,0 L0,6 L9,3 z" fill="#2563eb"/></marker></defs>
<text x="40" y="44" class="title">Sequence Diagram 12</text>
<rect x="5" y="58" width="130" height="38" rx="8" fill="#eff6ff" stroke="#2563eb"/>
<text x="70" y="82" text-anchor="middle" class="boxTitle">Member</text>
<line x1="70" y1="96" x2="70" y2="420" stroke="#cbd5e1" stroke-dasharray="5,5"/>
<rect x="195" y="58" width="130" height="38" rx="8" fill="#eff6ff" stroke="#2563eb"/>
<text x="260" y="82" text-anchor="middle" class="boxTitle">MainActivity</text>
<line x1="260" y1="96" x2="260" y2="420" stroke="#cbd5e1" stroke-dasharray="5,5"/>
<rect x="385" y="58" width="130" height="38" rx="8" fill="#eff6ff" stroke="#2563eb"/>
<text x="450" y="82" text-anchor="middle" class="boxTitle">EventItem</text>
<line x1="450" y1="96" x2="450" y2="420" stroke="#cbd5e1" stroke-dasharray="5,5"/>
<rect x="575" y="58" width="130" height="38" rx="8" fill="#eff6ff" stroke="#2563eb"/>
<text x="640" y="82" text-anchor="middle" class="boxTitle">workspaceMessagesByEvent</text>
<line x1="640" y1="96" x2="640" y2="420" stroke="#cbd5e1" stroke-dasharray="5,5"/>
<line x1="70" y1="145" x2="260" y2="145" stroke="#2563eb" stroke-width="1.8" marker-end="url(#arrow)"/>
<text x="165.0" y="137" text-anchor="middle" class="msg">참여 투표</text>
<line x1="260" y1="200" x2="450" y2="200" stroke="#2563eb" stroke-width="1.8" marker-end="url(#arrow)"/>
<text x="355.0" y="192" text-anchor="middle" class="msg">vote(currentUserName, &quot;참여&quot;)</text>
<line x1="260" y1="255" x2="640" y2="255" stroke="#2563eb" stroke-width="1.8" marker-end="url(#arrow)"/>
<text x="450.0" y="247" text-anchor="middle" class="msg">workspaceMessagesFor(eventId)</text>
<line x1="260" y1="310" x2="70" y2="310" stroke="#2563eb" stroke-width="1.8" marker-end="url(#arrow)"/>
<text x="165.0" y="302" text-anchor="middle" class="msg">해당 이벤트 워크스페이스 카드 표시</text>
<rect x="35" y="343" width="880" height="32" rx="6" fill="#f1f5f9" stroke="#f59e0b" opacity="0.9"/>
<text x="50" y="365" class="small">Note: over UI,Workspace: 별도 관리자 확정 단계 없이 참여 투표 결과로 표시 여부 결정</text>
</svg>