<svg xmlns="http://www.w3.org/2000/svg" width="1520" height="700" viewBox="0 0 1520 700">
<defs>
  <marker id="arrow" viewBox="0 0 10 10" refX="9" refY="5" markerWidth="7" markerHeight="7" orient="auto"><path d="M0 0 L10 5 L0 10 z" fill="#111827"/></marker>
  <marker id="hollowArrow" viewBox="0 0 10 10" refX="9" refY="5" markerWidth="7" markerHeight="7" orient="auto"><path d="M0 0 L10 5 L0 10 z" fill="#fff" stroke="#111827"/></marker>
  <marker id="diamond" viewBox="0 0 16 10" refX="1" refY="5" markerWidth="11" markerHeight="9" orient="auto"><path d="M1 5 L8 1 L15 5 L8 9 z" fill="#111827" stroke="#111827"/></marker>
</defs>
<rect width="100%" height="100%" fill="#ffffff"/>
<text x="36" y="32" font-family="Arial, sans-serif" font-size="20" font-weight="700">3.14 Manage Team Workspace</text><circle cx="110" cy="72" r="10" fill="#fff" stroke="#111827" stroke-width="1.3"/>
<line x1="110" y1="82" x2="110" y2="104" stroke="#111827" stroke-width="1.3"/>
<line x1="94" y1="90" x2="126" y2="90" stroke="#111827" stroke-width="1.3"/>
<line x1="110" y1="104" x2="94" y2="120" stroke="#111827" stroke-width="1.3"/>
<line x1="110" y1="104" x2="126" y2="120" stroke="#111827" stroke-width="1.3"/>
<text x="110" y="140" text-anchor="middle" font-family="Arial, sans-serif" font-size="13">sender:Member</text><line x1="110" y1="106" x2="110" y2="660" stroke="#111827" stroke-width="1" stroke-dasharray="6 6"/><rect x="256" y="62" width="168" height="44" fill="#fff" stroke="#111827" stroke-width="1.2"/>
<text x="340" y="89" text-anchor="middle" font-family="Arial, sans-serif" font-size="13" font-weight="700">WorkspaceUI</text><line x1="340" y1="106" x2="340" y2="660" stroke="#111827" stroke-width="1" stroke-dasharray="6 6"/><rect x="486" y="62" width="168" height="44" fill="#fff" stroke="#111827" stroke-width="1.2"/>
<text x="570" y="89" text-anchor="middle" font-family="Arial, sans-serif" font-size="13" font-weight="700">WorkspaceService</text><line x1="570" y1="106" x2="570" y2="660" stroke="#111827" stroke-width="1" stroke-dasharray="6 6"/><rect x="716" y="62" width="168" height="44" fill="#fff" stroke="#111827" stroke-width="1.2"/>
<text x="800" y="89" text-anchor="middle" font-family="Arial, sans-serif" font-size="13" font-weight="700">DataStore</text><line x1="800" y1="106" x2="800" y2="660" stroke="#111827" stroke-width="1" stroke-dasharray="6 6"/><rect x="946" y="62" width="168" height="44" fill="#fff" stroke="#111827" stroke-width="1.2"/>
<text x="1030" y="89" text-anchor="middle" font-family="Arial, sans-serif" font-size="13" font-weight="700">NotificationService</text><line x1="1030" y1="106" x2="1030" y2="660" stroke="#111827" stroke-width="1" stroke-dasharray="6 6"/><circle cx="1260" cy="72" r="10" fill="#fff" stroke="#111827" stroke-width="1.3"/>
<line x1="1260" y1="82" x2="1260" y2="104" stroke="#111827" stroke-width="1.3"/>
<line x1="1244" y1="90" x2="1276" y2="90" stroke="#111827" stroke-width="1.3"/>
<line x1="1260" y1="104" x2="1244" y2="120" stroke="#111827" stroke-width="1.3"/>
<line x1="1260" y1="104" x2="1276" y2="120" stroke="#111827" stroke-width="1.3"/>
<text x="1260" y="140" text-anchor="middle" font-family="Arial, sans-serif" font-size="13">recipient:Member</text><line x1="1260" y1="106" x2="1260" y2="660" stroke="#111827" stroke-width="1" stroke-dasharray="6 6"/><line x1="110" y1="154" x2="340" y2="154" stroke="#111827" stroke-width="1.05" marker-end="url(#arrow)"/><rect x="176.42000000000002" y="131" width="97.16" height="20" fill="#fff" opacity="0.94"/><text x="225" y="147" text-anchor="middle" font-family="Arial, sans-serif" font-size="12" font-weight="400" fill="#111827">메시지 입력 후 전송</text><path d="M340 208 h42 q18 0 18 18 q0 18 -18 18 h-42" fill="none" stroke="#111827" stroke-width="1.05" marker-end="url(#arrow)"/><rect x="387" y="186" width="180.32" height="20" fill="#fff" opacity="0.94"/><text x="390" y="202" text-anchor="start" font-family="Arial, sans-serif" font-size="12" font-weight="400" fill="#111827">submitMessage(message)</text><line x1="340" y1="262" x2="570" y2="262" stroke="#111827" stroke-width="1.05" marker-end="url(#arrow)"/><rect x="357.28" y="239" width="195.44" height="35" fill="#fff" opacity="0.94"/><text x="455" y="255" text-anchor="middle" font-family="Arial, sans-serif" font-size="12" font-weight="400" fill="#111827">sendMessage(workspaceId,</text><text x="455" y="270" text-anchor="middle" font-family="Arial, sans-serif" font-size="12" font-weight="400" fill="#111827">memberId, message)</text><line x1="570" y1="329" x2="800" y2="329" stroke="#111827" stroke-width="1.05" marker-end="url(#arrow)"/><rect x="628.86" y="306" width="112.28" height="20" fill="#fff" opacity="0.94"/><text x="685" y="322" text-anchor="middle" font-family="Arial, sans-serif" font-size="12" font-weight="400" fill="#111827">save(message)</text><line x1="800" y1="383" x2="570" y2="383" stroke="#111827" stroke-width="1.05" marker-end="url(#arrow)" stroke-dasharray="5 4"/><rect x="632.64" y="360" width="104.72" height="20" fill="#fff" opacity="0.94"/><text x="685" y="376" text-anchor="middle" font-family="Arial, sans-serif" font-size="12" font-weight="400" fill="#111827">save success</text><line x1="570" y1="437" x2="1030" y2="437" stroke="#111827" stroke-width="1.05" marker-end="url(#arrow)"/><rect x="672.04" y="414" width="255.92000000000002" height="20" fill="#fff" opacity="0.94"/><text x="800" y="430" text-anchor="middle" font-family="Arial, sans-serif" font-size="12" font-weight="400" fill="#111827">sendWorkspaceNotice(workspaceId)</text><line x1="1030" y1="491" x2="1260" y2="491" stroke="#111827" stroke-width="1.05" marker-end="url(#arrow)" stroke-dasharray="5 4"/><rect x="1107.76" y="468" width="74.48" height="20" fill="#fff" opacity="0.94"/><text x="1145" y="484" text-anchor="middle" font-family="Arial, sans-serif" font-size="12" font-weight="400" fill="#111827">새 메시지 알림</text><line x1="570" y1="545" x2="340" y2="545" stroke="#111827" stroke-width="1.05" marker-end="url(#arrow)" stroke-dasharray="5 4"/><rect x="402.64" y="522" width="104.72" height="20" fill="#fff" opacity="0.94"/><text x="455" y="538" text-anchor="middle" font-family="Arial, sans-serif" font-size="12" font-weight="400" fill="#111827">message sent</text><line x1="340" y1="599" x2="110" y2="599" stroke="#111827" stroke-width="1.05" marker-end="url(#arrow)" stroke-dasharray="5 4"/><rect x="119.72" y="576" width="210.56" height="20" fill="#fff" opacity="0.94"/><text x="225" y="592" text-anchor="middle" font-family="Arial, sans-serif" font-size="12" font-weight="400" fill="#111827">updateMessageList(message)</text></svg>