<svg xmlns="http://www.w3.org/2000/svg" width="830" height="989" viewBox="0 0 830 989">
<defs>
  <marker id="arrow" viewBox="0 0 10 10" refX="9" refY="5" markerWidth="7" markerHeight="7" orient="auto"><path d="M0 0 L10 5 L0 10 z" fill="#111827"/></marker>
  <marker id="hollowArrow" viewBox="0 0 10 10" refX="9" refY="5" markerWidth="7" markerHeight="7" orient="auto"><path d="M0 0 L10 5 L0 10 z" fill="#fbfbfb" stroke="#111827"/></marker>
  <marker id="diamond" viewBox="0 0 16 10" refX="1" refY="5" markerWidth="11" markerHeight="9" orient="auto"><path d="M1 5 L8 1 L15 5 L8 9 z" fill="#111827" stroke="#111827"/></marker>
</defs>
<rect width="100%" height="100%" fill="#ffffff"/>
<text x="36" y="32" font-family="Arial, sans-serif" font-size="20" font-weight="700">3.10 Vote Event</text><rect x="26" y="62" width="168" height="44" fill="#fbfbfb" stroke="#111827" stroke-width="1.2"/>
<text x="110" y="89" text-anchor="middle" font-family="Arial, sans-serif" font-size="13" font-weight="700">EventUI</text><line x1="110" y1="106" x2="110" y2="949" stroke="#111827" stroke-width="1" stroke-dasharray="6 6"/><rect x="256" y="62" width="168" height="44" fill="#fbfbfb" stroke="#111827" stroke-width="1.2"/>
<text x="340" y="89" text-anchor="middle" font-family="Arial, sans-serif" font-size="13" font-weight="700">EventService</text><line x1="340" y1="106" x2="340" y2="949" stroke="#111827" stroke-width="1" stroke-dasharray="6 6"/><rect x="486" y="62" width="168" height="44" fill="#fbfbfb" stroke="#111827" stroke-width="1.2"/>
<text x="570" y="89" text-anchor="middle" font-family="Arial, sans-serif" font-size="13" font-weight="700">DataStore</text><line x1="570" y1="106" x2="570" y2="949" stroke="#111827" stroke-width="1" stroke-dasharray="6 6"/><rect x="74" y="353" width="668" height="563" fill="none" stroke="#111827" stroke-dasharray="4 4"/><path d="M74 353 h72 l-12 22 h-60 z" fill="#fbfbfb" stroke="#111827"/><text x="108" y="368" text-anchor="middle" font-family="Arial, sans-serif" font-size="12" font-weight="700" fill="#111827">alt 마감 전</text><line x1="74" y1="777" x2="742" y2="777" stroke="#111827" stroke-dasharray="4 4"/><text x="126" y="768" text-anchor="start" font-family="Arial, sans-serif" font-size="12" font-weight="700" fill="#111827">else 마감 후</text><line x1="110" y1="162" x2="340" y2="162" stroke="#111827" stroke-width="1.05" marker-end="url(#arrow)"/><text x="225" y="144" text-anchor="middle" font-family="Arial, sans-serif" font-size="12" font-weight="400" fill="#111827">isVoteOpen(eventId)</text><line x1="340" y1="234" x2="570" y2="234" stroke="#111827" stroke-width="1.05" marker-end="url(#arrow)"/><text x="455" y="216" text-anchor="middle" font-family="Arial, sans-serif" font-size="12" font-weight="400" fill="#111827">findEvent(eventId)</text><line x1="570" y1="306" x2="340" y2="306" stroke="#111827" stroke-width="1.05" marker-end="url(#arrow)" stroke-dasharray="5 4"/><text x="455" y="288" text-anchor="middle" font-family="Arial, sans-serif" font-size="12" font-weight="400" fill="#111827">deadline</text><path d="M110 420 h42 q18 0 18 18 q0 18 -18 18 h-42" fill="none" stroke="#111827" stroke-width="1.05" marker-end="url(#arrow)"/><text x="164" y="402" text-anchor="start" font-family="Arial, sans-serif" font-size="12" font-weight="400" fill="#111827">submitVote(voteStatus)</text><line x1="110" y1="492" x2="340" y2="492" stroke="#111827" stroke-width="1.05" marker-end="url(#arrow)"/><text x="225" y="474" text-anchor="middle" font-family="Arial, sans-serif" font-size="12" font-weight="400" fill="#111827">vote(eventId, memberId,</text><text x="225" y="489" text-anchor="middle" font-family="Arial, sans-serif" font-size="12" font-weight="400" fill="#111827">voteStatus)</text><line x1="340" y1="578" x2="570" y2="578" stroke="#111827" stroke-width="1.05" marker-end="url(#arrow)"/><text x="455" y="560" text-anchor="middle" font-family="Arial, sans-serif" font-size="12" font-weight="400" fill="#111827">save(Vote)</text><line x1="570" y1="650" x2="340" y2="650" stroke="#111827" stroke-width="1.05" marker-end="url(#arrow)" stroke-dasharray="5 4"/><text x="455" y="632" text-anchor="middle" font-family="Arial, sans-serif" font-size="12" font-weight="400" fill="#111827">vote saved</text><line x1="340" y1="722" x2="110" y2="722" stroke="#111827" stroke-width="1.05" marker-end="url(#arrow)" stroke-dasharray="5 4"/><text x="225" y="704" text-anchor="middle" font-family="Arial, sans-serif" font-size="12" font-weight="400" fill="#111827">vote success</text><line x1="340" y1="836" x2="110" y2="836" stroke="#111827" stroke-width="1.05" marker-end="url(#arrow)" stroke-dasharray="5 4"/><text x="225" y="818" text-anchor="middle" font-family="Arial, sans-serif" font-size="12" font-weight="400" fill="#111827">vote closed</text></svg>