<svg xmlns="http://www.w3.org/2000/svg" width="1060" height="773" viewBox="0 0 1060 773">
<defs>
  <marker id="arrow" viewBox="0 0 10 10" refX="9" refY="5" markerWidth="7" markerHeight="7" orient="auto"><path d="M0 0 L10 5 L0 10 z" fill="#111827"/></marker>
  <marker id="hollowArrow" viewBox="0 0 10 10" refX="9" refY="5" markerWidth="7" markerHeight="7" orient="auto"><path d="M0 0 L10 5 L0 10 z" fill="#fbfbfb" stroke="#111827"/></marker>
  <marker id="diamond" viewBox="0 0 16 10" refX="1" refY="5" markerWidth="11" markerHeight="9" orient="auto"><path d="M1 5 L8 1 L15 5 L8 9 z" fill="#111827" stroke="#111827"/></marker>
</defs>
<rect width="100%" height="100%" fill="#ffffff"/>
<text x="36" y="32" font-family="Arial, sans-serif" font-size="20" font-weight="700">3.11 Alert Vote</text><rect x="26" y="62" width="168" height="44" fill="#fbfbfb" stroke="#111827" stroke-width="1.2"/>
<text x="110" y="89" text-anchor="middle" font-family="Arial, sans-serif" font-size="13" font-weight="700">EventService</text><line x1="110" y1="106" x2="110" y2="733" stroke="#111827" stroke-width="1" stroke-dasharray="6 6"/><rect x="256" y="62" width="168" height="44" fill="#fbfbfb" stroke="#111827" stroke-width="1.2"/>
<text x="340" y="89" text-anchor="middle" font-family="Arial, sans-serif" font-size="13" font-weight="700">DataStore</text><line x1="340" y1="106" x2="340" y2="733" stroke="#111827" stroke-width="1" stroke-dasharray="6 6"/><rect x="486" y="62" width="168" height="44" fill="#fbfbfb" stroke="#111827" stroke-width="1.2"/>
<text x="570" y="89" text-anchor="middle" font-family="Arial, sans-serif" font-size="13" font-weight="700">NotificationService</text><line x1="570" y1="106" x2="570" y2="733" stroke="#111827" stroke-width="1" stroke-dasharray="6 6"/><circle cx="800" cy="72" r="10" fill="#fbfbfb" stroke="#111827" stroke-width="1.3"/>
<line x1="800" y1="82" x2="800" y2="104" stroke="#111827" stroke-width="1.3"/>
<line x1="784" y1="90" x2="816" y2="90" stroke="#111827" stroke-width="1.3"/>
<line x1="800" y1="104" x2="784" y2="120" stroke="#111827" stroke-width="1.3"/>
<line x1="800" y1="104" x2="816" y2="120" stroke="#111827" stroke-width="1.3"/>
<text x="800" y="140" text-anchor="middle" font-family="Arial, sans-serif" font-size="13">member:Member</text><line x1="800" y1="106" x2="800" y2="733" stroke="#111827" stroke-width="1" stroke-dasharray="6 6"/><rect x="74" y="367" width="898" height="333" fill="none" stroke="#111827" stroke-dasharray="4 4"/><path d="M74 367 h72 l-12 22 h-60 z" fill="#fbfbfb" stroke="#111827"/><text x="108" y="382" text-anchor="middle" font-family="Arial, sans-serif" font-size="12" font-weight="700" fill="#111827">alt 미투표자 존재</text><line x1="74" y1="561" x2="972" y2="561" stroke="#111827" stroke-dasharray="4 4"/><text x="126" y="552" text-anchor="start" font-family="Arial, sans-serif" font-size="12" font-weight="700" fill="#111827">else 모든 멤버 투표 완료</text><line x1="110" y1="162" x2="340" y2="162" stroke="#111827" stroke-width="1.05" marker-end="url(#arrow)"/><text x="225" y="144" text-anchor="middle" font-family="Arial, sans-serif" font-size="12" font-weight="400" fill="#111827">findAll(eventId)</text><line x1="340" y1="234" x2="110" y2="234" stroke="#111827" stroke-width="1.05" marker-end="url(#arrow)" stroke-dasharray="5 4"/><text x="225" y="216" text-anchor="middle" font-family="Arial, sans-serif" font-size="12" font-weight="400" fill="#111827">vote list</text><path d="M110 306 h42 q18 0 18 18 q0 18 -18 18 h-42" fill="none" stroke="#111827" stroke-width="1.05" marker-end="url(#arrow)"/><text x="164" y="288" text-anchor="start" font-family="Arial, sans-serif" font-size="12" font-weight="400" fill="#111827">filter NOT_RESPONDED members</text><line x1="110" y1="434" x2="570" y2="434" stroke="#111827" stroke-width="1.05" marker-end="url(#arrow)"/><text x="340" y="416" text-anchor="middle" font-family="Arial, sans-serif" font-size="12" font-weight="400" fill="#111827">sendVoteReminder(eventId)</text><line x1="570" y1="506" x2="800" y2="506" stroke="#111827" stroke-width="1.05" marker-end="url(#arrow)" stroke-dasharray="5 4"/><text x="685" y="488" text-anchor="middle" font-family="Arial, sans-serif" font-size="12" font-weight="400" fill="#111827">투표 리마인드 알림</text><path d="M110 620 h42 q18 0 18 18 q0 18 -18 18 h-42" fill="none" stroke="#111827" stroke-width="1.05" marker-end="url(#arrow)"/><text x="164" y="602" text-anchor="start" font-family="Arial, sans-serif" font-size="12" font-weight="400" fill="#111827">skip reminder</text></svg>