<svg xmlns="http://www.w3.org/2000/svg" width="771" height="618" viewBox="0 0 771 618">
<defs>
  <marker id="arrow" viewBox="0 0 10 10" refX="9" refY="5" markerWidth="7" markerHeight="7" orient="auto-start-reverse">
    <path d="M0 0 L10 5 L0 10 z" fill="#1f2937"/>
  </marker>
</defs>
<rect width="100%" height="100%" fill="#ffffff"/>
<text x="28" y="28" font-family="Arial, sans-serif" font-size="20" font-weight="700" fill="#1f2937">3.11 alert vote sequence</text><rect x="-20" y="60" width="136" height="42" rx="4" fill="#eef2ff" stroke="#7c3aed" stroke-width="1"/>
<text x="48" y="86" text-anchor="middle" font-family="Arial, sans-serif" font-size="13" font-weight="700" fill="#111827">EventService</text><line x1="48" y1="102" x2="48" y2="570" stroke="#7c3aed" stroke-width="1.2" stroke-dasharray="6 6"/><rect x="165" y="60" width="136" height="42" rx="4" fill="#eef2ff" stroke="#7c3aed" stroke-width="1"/>
<text x="233" y="86" text-anchor="middle" font-family="Arial, sans-serif" font-size="13" font-weight="700" fill="#111827">DataStore</text><line x1="233" y1="102" x2="233" y2="570" stroke="#7c3aed" stroke-width="1.2" stroke-dasharray="6 6"/><rect x="350" y="60" width="136" height="42" rx="4" fill="#eef2ff" stroke="#7c3aed" stroke-width="1"/>
<text x="418" y="86" text-anchor="middle" font-family="Arial, sans-serif" font-size="13" font-weight="700" fill="#111827">NotificationService</text><line x1="418" y1="102" x2="418" y2="570" stroke="#7c3aed" stroke-width="1.2" stroke-dasharray="6 6"/><circle cx="603" cy="70" r="10" fill="#fff" stroke="#6d5dfc" stroke-width="1.5"/>
<line x1="603" y1="80" x2="603" y2="102" stroke="#6d5dfc" stroke-width="1.5"/>
<line x1="587" y1="88" x2="619" y2="88" stroke="#6d5dfc" stroke-width="1.5"/>
<line x1="603" y1="102" x2="587" y2="118" stroke="#6d5dfc" stroke-width="1.5"/>
<line x1="603" y1="102" x2="619" y2="118" stroke="#6d5dfc" stroke-width="1.5"/>
<text x="603" y="138" text-anchor="middle" font-family="Arial, sans-serif" font-size="13" fill="#111827">Member</text><line x1="603" y1="102" x2="603" y2="570" stroke="#7c3aed" stroke-width="1.2" stroke-dasharray="6 6"/><line x1="48" y1="136" x2="233" y2="136" stroke="#1f2937" stroke-width="1.2" marker-end="url(#arrow)"/><text x="140.5" y="129" text-anchor="middle" font-family="Arial, sans-serif" font-size="12" fill="#111827">findAll(eventId)</text><line x1="233" y1="182" x2="48" y2="182" stroke="#1f2937" stroke-width="1.2" marker-end="url(#arrow)" stroke-dasharray="4 4"/><text x="140.5" y="175" text-anchor="middle" font-family="Arial, sans-serif" font-size="12" fill="#111827">vote list</text><path d="M48 228 h34 q18 0 18 18 q0 18 -18 18 h-34" fill="none" stroke="#1f2937" stroke-width="1.2" marker-end="url(#arrow)"/><text x="96" y="223" font-family="Arial, sans-serif" font-size="12" fill="#111827">filter NOT_RESPONDED</text><text x="96" y="237" font-family="Arial, sans-serif" font-size="12" fill="#111827">members</text><rect x="30" y="250" width="685" height="138" fill="none" stroke="#7c3aed" stroke-width="1.1" stroke-dasharray="3 3"/>
<path d="M30 250 h54 l-10 18 h-44 z" fill="#faf5ff" stroke="#7c3aed" stroke-width="1"/>
<text x="40" y="263" font-family="Arial, sans-serif" font-size="12" font-weight="700" fill="#111827">alt 미투표자 존재</text><line x1="48" y1="301.6" x2="418" y2="301.6" stroke="#1f2937" stroke-width="1.2" marker-end="url(#arrow)"/><text x="233" y="294.6" text-anchor="middle" font-family="Arial, sans-serif" font-size="12" fill="#111827">sendVoteReminder(eventId)</text><line x1="418" y1="347.6" x2="603" y2="347.6" stroke="#1f2937" stroke-width="1.2" marker-end="url(#arrow)" stroke-dasharray="4 4"/><text x="510.5" y="340.6" text-anchor="middle" font-family="Arial, sans-serif" font-size="12" fill="#111827">투표 리마인드 알림</text><line x1="30" y1="381.6" x2="715" y2="381.6" stroke="#7c3aed" stroke-width="1" stroke-dasharray="3 3"/>
<text x="56" y="375.6" font-family="Arial, sans-serif" font-size="12" font-weight="700" fill="#111827">else 모든 멤버 투표 완료</text><path d="M48 421.20000000000005 h34 q18 0 18 18 q0 18 -18 18 h-34" fill="none" stroke="#1f2937" stroke-width="1.2" marker-end="url(#arrow)"/><text x="96" y="416.20000000000005" font-family="Arial, sans-serif" font-size="12" fill="#111827">skip reminder</text></svg>