<svg xmlns="http://www.w3.org/2000/svg" width="1060" height="843" viewBox="0 0 1060 843">
<defs>
  <marker id="arrow" viewBox="0 0 10 10" refX="9" refY="5" markerWidth="7" markerHeight="7" orient="auto"><path d="M0 0 L10 5 L0 10 z" fill="#111827"/></marker>
  <marker id="hollowArrow" viewBox="0 0 10 10" refX="9" refY="5" markerWidth="7" markerHeight="7" orient="auto"><path d="M0 0 L10 5 L0 10 z" fill="#fbfbfb" stroke="#111827"/></marker>
  <marker id="diamond" viewBox="0 0 16 10" refX="1" refY="5" markerWidth="11" markerHeight="9" orient="auto"><path d="M1 5 L8 1 L15 5 L8 9 z" fill="#111827" stroke="#111827"/></marker>
</defs>
<rect width="100%" height="100%" fill="#f3f4f6"/>
<text x="36" y="32" font-family="Arial, sans-serif" font-size="20" font-weight="700">3.12 Decide Event</text><circle cx="110" cy="72" r="10" fill="#fbfbfb" stroke="#111827" stroke-width="1.3"/>
<line x1="110" y1="82" x2="110" y2="104" stroke="#111827" stroke-width="1.3"/>
<line x1="94" y1="90" x2="126" y2="90" stroke="#111827" stroke-width="1.3"/>
<line x1="110" y1="104" x2="94" y2="120" stroke="#111827" stroke-width="1.3"/>
<line x1="110" y1="104" x2="126" y2="120" stroke="#111827" stroke-width="1.3"/>
<text x="110" y="140" text-anchor="middle" font-family="Arial, sans-serif" font-size="13">admin:Administrator</text><line x1="110" y1="106" x2="110" y2="803" stroke="#111827" stroke-width="1" stroke-dasharray="6 6"/><rect x="256" y="62" width="168" height="44" fill="#fbfbfb" stroke="#111827" stroke-width="1.2"/>
<text x="340" y="89" text-anchor="middle" font-family="Arial, sans-serif" font-size="13" font-weight="700">EventUI</text><line x1="340" y1="106" x2="340" y2="803" stroke="#111827" stroke-width="1" stroke-dasharray="6 6"/><rect x="486" y="62" width="168" height="44" fill="#fbfbfb" stroke="#111827" stroke-width="1.2"/>
<text x="570" y="89" text-anchor="middle" font-family="Arial, sans-serif" font-size="13" font-weight="700">EventService</text><line x1="570" y1="106" x2="570" y2="803" stroke="#111827" stroke-width="1" stroke-dasharray="6 6"/><rect x="716" y="62" width="168" height="44" fill="#fbfbfb" stroke="#111827" stroke-width="1.2"/>
<text x="800" y="89" text-anchor="middle" font-family="Arial, sans-serif" font-size="13" font-weight="700">DataStore</text><line x1="800" y1="106" x2="800" y2="803" stroke="#111827" stroke-width="1" stroke-dasharray="6 6"/><rect x="74" y="453" width="898" height="317" fill="none" stroke="#111827" stroke-dasharray="4 4"/><path d="M74 453 h72 l-12 22 h-60 z" fill="#fbfbfb" stroke="#111827"/><text x="108" y="468" text-anchor="middle" font-family="Arial, sans-serif" font-size="12" font-weight="700" fill="#111827">alt 참여자 1명 이상</text><line x1="74" y1="603" x2="972" y2="603" stroke="#111827" stroke-dasharray="4 4"/><rect x="123" y="581" width="97.16" height="20" fill="#f3f4f6" opacity="0.96"/><text x="126" y="597" text-anchor="start" font-family="Arial, sans-serif" font-size="12" font-weight="700" fill="#111827">else 참여자 없음</text><line x1="110" y1="154" x2="340" y2="154" stroke="#111827" stroke-width="1.05" marker-end="url(#arrow)"/><rect x="165.07999999999998" y="131" width="119.84" height="20" fill="#f3f4f6" opacity="0.96"/><text x="225" y="147" text-anchor="middle" font-family="Arial, sans-serif" font-size="12" font-weight="400" fill="#111827">투표 마감 또는 결과 확인</text><path d="M340 208 h42 q18 0 18 18 q0 18 -18 18 h-42" fill="none" stroke="#111827" stroke-width="1.05" marker-end="url(#arrow)"/><rect x="387" y="186" width="195.44" height="20" fill="#f3f4f6" opacity="0.96"/><text x="390" y="202" text-anchor="start" font-family="Arial, sans-serif" font-size="12" font-weight="400" fill="#111827">requestDecision(eventId)</text><line x1="340" y1="262" x2="570" y2="262" stroke="#111827" stroke-width="1.05" marker-end="url(#arrow)"/><rect x="372.4" y="239" width="165.2" height="20" fill="#f3f4f6" opacity="0.96"/><text x="455" y="255" text-anchor="middle" font-family="Arial, sans-serif" font-size="12" font-weight="400" fill="#111827">decideEvent(eventId)</text><line x1="570" y1="316" x2="800" y2="316" stroke="#111827" stroke-width="1.05" marker-end="url(#arrow)"/><rect x="617.52" y="293" width="134.96" height="20" fill="#f3f4f6" opacity="0.96"/><text x="685" y="309" text-anchor="middle" font-family="Arial, sans-serif" font-size="12" font-weight="400" fill="#111827">findAll(eventId)</text><line x1="800" y1="370" x2="570" y2="370" stroke="#111827" stroke-width="1.05" marker-end="url(#arrow)" stroke-dasharray="5 4"/><rect x="636.42" y="347" width="97.16" height="20" fill="#f3f4f6" opacity="0.96"/><text x="685" y="363" text-anchor="middle" font-family="Arial, sans-serif" font-size="12" font-weight="400" fill="#111827">vote result</text><path d="M570 424 h42 q18 0 18 18 q0 18 -18 18 h-42" fill="none" stroke="#111827" stroke-width="1.05" marker-end="url(#arrow)"/><rect x="617" y="402" width="187.88" height="20" fill="#f3f4f6" opacity="0.96"/><text x="620" y="418" text-anchor="start" font-family="Arial, sans-serif" font-size="12" font-weight="400" fill="#111827">count attend and absent</text><line x1="570" y1="512" x2="800" y2="512" stroke="#111827" stroke-width="1.05" marker-end="url(#arrow)"/><rect x="602.4" y="489" width="165.2" height="20" fill="#f3f4f6" opacity="0.96"/><text x="685" y="505" text-anchor="middle" font-family="Arial, sans-serif" font-size="12" font-weight="400" fill="#111827">update(Event CLOSED)</text><line x1="570" y1="566" x2="340" y2="566" stroke="#111827" stroke-width="1.05" marker-end="url(#arrow)" stroke-dasharray="5 4"/><rect x="361.06" y="543" width="187.88" height="20" fill="#f3f4f6" opacity="0.96"/><text x="455" y="559" text-anchor="middle" font-family="Arial, sans-serif" font-size="12" font-weight="400" fill="#111827">showEventResult(CLOSED)</text><line x1="570" y1="654" x2="800" y2="654" stroke="#111827" stroke-width="1.05" marker-end="url(#arrow)"/><rect x="594.84" y="631" width="180.32" height="20" fill="#f3f4f6" opacity="0.96"/><text x="685" y="647" text-anchor="middle" font-family="Arial, sans-serif" font-size="12" font-weight="400" fill="#111827">update(Event CANCELED)</text><line x1="570" y1="708" x2="340" y2="708" stroke="#111827" stroke-width="1.05" marker-end="url(#arrow)" stroke-dasharray="5 4"/><rect x="353.5" y="685" width="203" height="20" fill="#f3f4f6" opacity="0.96"/><text x="455" y="701" text-anchor="middle" font-family="Arial, sans-serif" font-size="12" font-weight="400" fill="#111827">showEventResult(CANCELED)</text></svg>