<svg xmlns="http://www.w3.org/2000/svg" width="1060" height="1047" viewBox="0 0 1060 1047">
<defs>
  <marker id="arrow" viewBox="0 0 10 10" refX="9" refY="5" markerWidth="7" markerHeight="7" orient="auto"><path d="M0 0 L10 5 L0 10 z" fill="#111827"/></marker>
  <marker id="hollowArrow" viewBox="0 0 10 10" refX="9" refY="5" markerWidth="7" markerHeight="7" orient="auto"><path d="M0 0 L10 5 L0 10 z" fill="#fbfbfb" stroke="#111827"/></marker>
  <marker id="diamond" viewBox="0 0 16 10" refX="1" refY="5" markerWidth="11" markerHeight="9" orient="auto"><path d="M1 5 L8 1 L15 5 L8 9 z" fill="#111827" stroke="#111827"/></marker>
</defs>
<rect width="100%" height="100%" fill="#ffffff"/>
<text x="36" y="32" font-family="Arial, sans-serif" font-size="20" font-weight="700">3.12 Decide Event</text><rect x="26" y="62" width="168" height="44" fill="#fbfbfb" stroke="#111827" stroke-width="1.2"/>
<text x="110" y="89" text-anchor="middle" font-family="Arial, sans-serif" font-size="13" font-weight="700">admin:Administrator</text><line x1="110" y1="106" x2="110" y2="1007" stroke="#111827" stroke-width="1" stroke-dasharray="6 6"/><rect x="256" y="62" width="168" height="44" fill="#fbfbfb" stroke="#111827" stroke-width="1.2"/>
<text x="340" y="89" text-anchor="middle" font-family="Arial, sans-serif" font-size="13" font-weight="700">EventUI</text><line x1="340" y1="106" x2="340" y2="1007" stroke="#111827" stroke-width="1" stroke-dasharray="6 6"/><rect x="486" y="62" width="168" height="44" fill="#fbfbfb" stroke="#111827" stroke-width="1.2"/>
<text x="570" y="89" text-anchor="middle" font-family="Arial, sans-serif" font-size="13" font-weight="700">EventService</text><line x1="570" y1="106" x2="570" y2="1007" stroke="#111827" stroke-width="1" stroke-dasharray="6 6"/><rect x="716" y="62" width="168" height="44" fill="#fbfbfb" stroke="#111827" stroke-width="1.2"/>
<text x="800" y="89" text-anchor="middle" font-family="Arial, sans-serif" font-size="13" font-weight="700">DataStore</text><line x1="800" y1="106" x2="800" y2="1007" stroke="#111827" stroke-width="1" stroke-dasharray="6 6"/><rect x="74" y="569" width="898" height="405" fill="none" stroke="#111827" stroke-dasharray="4 4"/><path d="M74 569 h72 l-12 22 h-60 z" fill="#fbfbfb" stroke="#111827"/><text x="108" y="584" text-anchor="middle" font-family="Arial, sans-serif" font-size="12" font-weight="700" fill="#111827">alt 참여자 1명 이상</text><line x1="74" y1="763" x2="972" y2="763" stroke="#111827" stroke-dasharray="4 4"/><text x="126" y="754" text-anchor="start" font-family="Arial, sans-serif" font-size="12" font-weight="700" fill="#111827">else 참여자 없음</text><line x1="110" y1="162" x2="340" y2="162" stroke="#111827" stroke-width="1.05" marker-end="url(#arrow)"/><text x="225" y="144" text-anchor="middle" font-family="Arial, sans-serif" font-size="12" font-weight="400" fill="#111827">투표 마감 또는 결과 확인</text><path d="M340 234 h42 q18 0 18 18 q0 18 -18 18 h-42" fill="none" stroke="#111827" stroke-width="1.05" marker-end="url(#arrow)"/><text x="394" y="216" text-anchor="start" font-family="Arial, sans-serif" font-size="12" font-weight="400" fill="#111827">requestDecision(eventId)</text><line x1="340" y1="306" x2="570" y2="306" stroke="#111827" stroke-width="1.05" marker-end="url(#arrow)"/><text x="455" y="288" text-anchor="middle" font-family="Arial, sans-serif" font-size="12" font-weight="400" fill="#111827">decideEvent(eventId)</text><line x1="570" y1="378" x2="800" y2="378" stroke="#111827" stroke-width="1.05" marker-end="url(#arrow)"/><text x="685" y="360" text-anchor="middle" font-family="Arial, sans-serif" font-size="12" font-weight="400" fill="#111827">findAll(eventId)</text><line x1="800" y1="450" x2="570" y2="450" stroke="#111827" stroke-width="1.05" marker-end="url(#arrow)" stroke-dasharray="5 4"/><text x="685" y="432" text-anchor="middle" font-family="Arial, sans-serif" font-size="12" font-weight="400" fill="#111827">vote result</text><path d="M570 522 h42 q18 0 18 18 q0 18 -18 18 h-42" fill="none" stroke="#111827" stroke-width="1.05" marker-end="url(#arrow)"/><text x="624" y="504" text-anchor="start" font-family="Arial, sans-serif" font-size="12" font-weight="400" fill="#111827">count attend and absent</text><line x1="570" y1="636" x2="800" y2="636" stroke="#111827" stroke-width="1.05" marker-end="url(#arrow)"/><text x="685" y="618" text-anchor="middle" font-family="Arial, sans-serif" font-size="12" font-weight="400" fill="#111827">update(Event CLOSED)</text><line x1="570" y1="708" x2="340" y2="708" stroke="#111827" stroke-width="1.05" marker-end="url(#arrow)" stroke-dasharray="5 4"/><text x="455" y="690" text-anchor="middle" font-family="Arial, sans-serif" font-size="12" font-weight="400" fill="#111827">showEventResult(CLOSED)</text><line x1="570" y1="822" x2="800" y2="822" stroke="#111827" stroke-width="1.05" marker-end="url(#arrow)"/><text x="685" y="804" text-anchor="middle" font-family="Arial, sans-serif" font-size="12" font-weight="400" fill="#111827">update(Event CANCELED)</text><line x1="570" y1="894" x2="340" y2="894" stroke="#111827" stroke-width="1.05" marker-end="url(#arrow)" stroke-dasharray="5 4"/><text x="455" y="876" text-anchor="middle" font-family="Arial, sans-serif" font-size="12" font-weight="400" fill="#111827">showEventResult(CANCELED)</text></svg>