<svg xmlns="http://www.w3.org/2000/svg" width="1290" height="592" viewBox="0 0 1290 592">
<defs>
  <marker id="arrow" viewBox="0 0 10 10" refX="9" refY="5" markerWidth="7" markerHeight="7" orient="auto"><path d="M0 0 L10 5 L0 10 z" fill="#111827"/></marker>
  <marker id="hollowArrow" viewBox="0 0 10 10" refX="9" refY="5" markerWidth="7" markerHeight="7" orient="auto"><path d="M0 0 L10 5 L0 10 z" fill="#fbfbfb" stroke="#111827"/></marker>
  <marker id="diamond" viewBox="0 0 16 10" refX="1" refY="5" markerWidth="11" markerHeight="9" orient="auto"><path d="M1 5 L8 1 L15 5 L8 9 z" fill="#111827" stroke="#111827"/></marker>
</defs>
<rect width="100%" height="100%" fill="#f3f4f6"/>
<text x="36" y="32" font-family="Arial, sans-serif" font-size="20" font-weight="700">3.13 Create Team Workspace</text><rect x="26" y="62" width="168" height="44" fill="#fbfbfb" stroke="#111827" stroke-width="1.2"/>
<text x="110" y="89" text-anchor="middle" font-family="Arial, sans-serif" font-size="13" font-weight="700">EventService</text><line x1="110" y1="106" x2="110" y2="552" stroke="#111827" stroke-width="1" stroke-dasharray="6 6"/><rect x="256" y="62" width="168" height="44" fill="#fbfbfb" stroke="#111827" stroke-width="1.2"/>
<text x="340" y="89" text-anchor="middle" font-family="Arial, sans-serif" font-size="13" font-weight="700">WorkspaceService</text><line x1="340" y1="106" x2="340" y2="552" stroke="#111827" stroke-width="1" stroke-dasharray="6 6"/><rect x="486" y="62" width="168" height="44" fill="#fbfbfb" stroke="#111827" stroke-width="1.2"/>
<text x="570" y="89" text-anchor="middle" font-family="Arial, sans-serif" font-size="13" font-weight="700">DataStore</text><line x1="570" y1="106" x2="570" y2="552" stroke="#111827" stroke-width="1" stroke-dasharray="6 6"/><rect x="716" y="62" width="168" height="44" fill="#fbfbfb" stroke="#111827" stroke-width="1.2"/>
<text x="800" y="89" text-anchor="middle" font-family="Arial, sans-serif" font-size="13" font-weight="700">NotificationService</text><line x1="800" y1="106" x2="800" y2="552" stroke="#111827" stroke-width="1" stroke-dasharray="6 6"/><circle cx="1030" cy="72" r="10" fill="#fbfbfb" stroke="#111827" stroke-width="1.3"/>
<line x1="1030" y1="82" x2="1030" y2="104" stroke="#111827" stroke-width="1.3"/>
<line x1="1014" y1="90" x2="1046" y2="90" stroke="#111827" stroke-width="1.3"/>
<line x1="1030" y1="104" x2="1014" y2="120" stroke="#111827" stroke-width="1.3"/>
<line x1="1030" y1="104" x2="1046" y2="120" stroke="#111827" stroke-width="1.3"/>
<text x="1030" y="140" text-anchor="middle" font-family="Arial, sans-serif" font-size="13">member:Member</text><line x1="1030" y1="106" x2="1030" y2="552" stroke="#111827" stroke-width="1" stroke-dasharray="6 6"/><line x1="110" y1="154" x2="570" y2="154" stroke="#111827" stroke-width="1.05" marker-end="url(#arrow)"/><rect x="253.62" y="131" width="172.76" height="20" fill="#f3f4f6" opacity="0.96"/><text x="340" y="147" text-anchor="middle" font-family="Arial, sans-serif" font-size="12" font-weight="400" fill="#111827">findAll(ATTEND votes)</text><line x1="570" y1="208" x2="110" y2="208" stroke="#111827" stroke-width="1.05" marker-end="url(#arrow)" stroke-dasharray="5 4"/><rect x="283.86" y="185" width="112.28" height="20" fill="#f3f4f6" opacity="0.96"/><text x="340" y="201" text-anchor="middle" font-family="Arial, sans-serif" font-size="12" font-weight="400" fill="#111827">attendee list</text><line x1="110" y1="262" x2="340" y2="262" stroke="#111827" stroke-width="1.05" marker-end="url(#arrow)"/><rect x="127.28" y="239" width="195.44" height="35" fill="#f3f4f6" opacity="0.96"/><text x="225" y="255" text-anchor="middle" font-family="Arial, sans-serif" font-size="12" font-weight="400" fill="#111827">createWorkspace(eventId,</text><text x="225" y="270" text-anchor="middle" font-family="Arial, sans-serif" font-size="12" font-weight="400" fill="#111827">attendees)</text><line x1="340" y1="329" x2="570" y2="329" stroke="#111827" stroke-width="1.05" marker-end="url(#arrow)"/><rect x="376.18" y="306" width="157.64000000000001" height="20" fill="#f3f4f6" opacity="0.96"/><text x="455" y="322" text-anchor="middle" font-family="Arial, sans-serif" font-size="12" font-weight="400" fill="#111827">save(TeamWorkspace)</text><line x1="570" y1="383" x2="340" y2="383" stroke="#111827" stroke-width="1.05" marker-end="url(#arrow)" stroke-dasharray="5 4"/><rect x="391.3" y="360" width="127.4" height="20" fill="#f3f4f6" opacity="0.96"/><text x="455" y="376" text-anchor="middle" font-family="Arial, sans-serif" font-size="12" font-weight="400" fill="#111827">workspace saved</text><line x1="340" y1="437" x2="800" y2="437" stroke="#111827" stroke-width="1.05" marker-end="url(#arrow)"/><rect x="442.03999999999996" y="414" width="255.92000000000002" height="20" fill="#f3f4f6" opacity="0.96"/><text x="570" y="430" text-anchor="middle" font-family="Arial, sans-serif" font-size="12" font-weight="400" fill="#111827">sendWorkspaceNotice(workspaceId)</text><line x1="800" y1="491" x2="1030" y2="491" stroke="#111827" stroke-width="1.05" marker-end="url(#arrow)" stroke-dasharray="5 4"/><rect x="847.52" y="468" width="134.96" height="20" fill="#f3f4f6" opacity="0.96"/><text x="915" y="484" text-anchor="middle" font-family="Arial, sans-serif" font-size="12" font-weight="400" fill="#111827">참여자 전용 워크스페이스 알림</text></svg>