<svg xmlns="http://www.w3.org/2000/svg" width="1700" height="1500" viewBox="0 0 1700 1500">
<defs>
  <marker id="arrow" viewBox="0 0 10 10" refX="9" refY="5" markerWidth="7" markerHeight="7" orient="auto"><path d="M0 0 L10 5 L0 10 z" fill="#111827"/></marker>
  <marker id="hollowArrow" viewBox="0 0 10 10" refX="9" refY="5" markerWidth="7" markerHeight="7" orient="auto"><path d="M0 0 L10 5 L0 10 z" fill="#fbfbfb" stroke="#111827"/></marker>
  <marker id="diamond" viewBox="0 0 16 10" refX="1" refY="5" markerWidth="11" markerHeight="9" orient="auto"><path d="M1 5 L8 1 L15 5 L8 9 z" fill="#111827" stroke="#111827"/></marker>
</defs>
<rect width="100%" height="100%" fill="#ffffff"/>
<rect x="18" y="18" width="1664" height="1464" fill="none" stroke="#111827" stroke-width="1"/>
<path d="M18 18 H220 L244 42 V58 H18 Z" fill="#fffef9" stroke="#111827" stroke-width="1"/>
<text x="36" y="39" font-family="Arial, sans-serif" font-size="13">stm</text>
<text x="78" y="39" font-family="Arial, sans-serif" font-size="13" font-weight="700">Jo:YUl Application</text><rect x="60" y="88" width="1500" height="360" rx="16" fill="#fffef9" stroke="#111827" stroke-width="1.1"/><line x1="60" y1="120" x2="1560" y2="120" stroke="#111827" stroke-width="1"/><text x="72" y="110" font-family="Arial, sans-serif" font-size="14" font-weight="700">Authentication</text><rect x="60" y="515" width="430" height="330" rx="16" fill="#fffef9" stroke="#111827" stroke-width="1.1"/><line x1="60" y1="547" x2="490" y2="547" stroke="#111827" stroke-width="1"/><text x="72" y="537" font-family="Arial, sans-serif" font-size="14" font-weight="700">Team Management</text><rect x="535" y="515" width="430" height="330" rx="16" fill="#fffef9" stroke="#111827" stroke-width="1.1"/><line x1="535" y1="547" x2="965" y2="547" stroke="#111827" stroke-width="1"/><text x="547" y="537" font-family="Arial, sans-serif" font-size="14" font-weight="700">Schedule Management</text><rect x="1010" y="515" width="550" height="430" rx="16" fill="#fffef9" stroke="#111827" stroke-width="1.1"/><line x1="1010" y1="547" x2="1560" y2="547" stroke="#111827" stroke-width="1"/><text x="1022" y="537" font-family="Arial, sans-serif" font-size="14" font-weight="700">Task Management</text><rect x="60" y="970" width="1500" height="400" rx="16" fill="#fffef9" stroke="#111827" stroke-width="1.1"/><line x1="60" y1="1002" x2="1560" y2="1002" stroke="#111827" stroke-width="1"/><text x="72" y="992" font-family="Arial, sans-serif" font-size="14" font-weight="700">Event / Workspace</text><path d="M115 160 H120 V160 H125" fill="none" stroke="#111827" stroke-width="1.05" marker-end="url(#arrow)"/><path d="M210 186 V230 H210 V274" fill="none" stroke="#111827" stroke-width="1.05" marker-end="url(#arrow)"/><text x="270" y="232" text-anchor="middle" font-family="Arial, sans-serif" font-size="11" font-weight="400" fill="#111827">show login</text><path d="M125 160 H112 V435 H125" fill="none" stroke="#111827" stroke-width="1.05" marker-end="url(#arrow)"/><text x="166" y="348" text-anchor="middle" font-family="Arial, sans-serif" font-size="11" font-weight="400" fill="#111827">select sign up</text><path d="M295 300 H337.5 V300 H380" fill="none" stroke="#111827" stroke-width="1.05" marker-end="url(#arrow)"/><text x="337.5" y="275" text-anchor="middle" font-family="Arial, sans-serif" font-size="11" font-weight="400" fill="#111827">submit login</text><path d="M465 326 V365 H210 V326" fill="none" stroke="#111827" stroke-width="1.05" marker-end="url(#arrow)"/><text x="355" y="392" text-anchor="middle" font-family="Arial, sans-serif" font-size="11" font-weight="400" fill="#111827">[failure]</text><path d="M550 300 H610 V250 H1130" fill="none" stroke="#111827" stroke-width="1.05" marker-end="url(#arrow)"/><text x="815" y="238" text-anchor="middle" font-family="Arial, sans-serif" font-size="11" font-weight="400" fill="#111827">[success]</text><path d="M295 435 H337.5 V435 H380" fill="none" stroke="#111827" stroke-width="1.05" marker-end="url(#arrow)"/><text x="337.5" y="410" text-anchor="middle" font-family="Arial, sans-serif" font-size="11" font-weight="400" fill="#111827">submit data</text><path d="M465 409 V380 H300 V435 H295" fill="none" stroke="#111827" stroke-width="1.05" marker-end="url(#arrow)"/><text x="430" y="360" text-anchor="middle" font-family="Arial, sans-serif" font-size="11" font-weight="400" fill="#111827">[invalid]</text><path d="M465 409 V372 H735 V326" fill="none" stroke="#111827" stroke-width="1.05" marker-end="url(#arrow)"/><text x="605" y="362" text-anchor="middle" font-family="Arial, sans-serif" font-size="11" font-weight="400" fill="#111827">[valid]</text><path d="M820 300 H1035 V190 H1130" fill="none" stroke="#111827" stroke-width="1.05" marker-end="url(#arrow)"/><text x="1000" y="175" text-anchor="middle" font-family="Arial, sans-serif" font-size="11" font-weight="400" fill="#111827">session created</text><path d="M1300 190 H1375.5 V190 H1451" fill="none" stroke="#111827" stroke-width="1.05" marker-end="url(#arrow)"/><text x="1340" y="170" text-anchor="middle" font-family="Arial, sans-serif" font-size="11" font-weight="400" fill="#111827">logout / exit</text><path d="M115 650 H140 V650 H165" fill="none" stroke="#111827" stroke-width="1.05" marker-end="url(#arrow)"/><text x="140" y="626" text-anchor="middle" font-family="Arial, sans-serif" font-size="11" font-weight="400" fill="#111827">team tab</text><path d="M220 676 V730 H165 V764" fill="none" stroke="#111827" stroke-width="1.05" marker-end="url(#arrow)"/><text x="140" y="720" text-anchor="middle" font-family="Arial, sans-serif" font-size="11" font-weight="400" fill="#111827">create</text><path d="M145 764 V710 H220 V676" fill="none" stroke="#111827" stroke-width="1.05" marker-end="url(#arrow)"/><text x="115" y="700" text-anchor="middle" font-family="Arial, sans-serif" font-size="11" font-weight="400" fill="#111827">done</text><path d="M280 676 V730 H365 V764" fill="none" stroke="#111827" stroke-width="1.05" marker-end="url(#arrow)"/><text x="392" y="720" text-anchor="middle" font-family="Arial, sans-serif" font-size="11" font-weight="400" fill="#111827">invite</text><path d="M390 764 V710 H280 V676" fill="none" stroke="#111827" stroke-width="1.05" marker-end="url(#arrow)"/><text x="418" y="700" text-anchor="middle" font-family="Arial, sans-serif" font-size="11" font-weight="400" fill="#111827">done</text><path d="M595 625 H630 V625 H665" fill="none" stroke="#111827" stroke-width="1.05" marker-end="url(#arrow)"/><text x="630" y="602" text-anchor="middle" font-family="Arial, sans-serif" font-size="11" font-weight="400" fill="#111827">schedule tab</text><path d="M750 651 V675 H750 V699" fill="none" stroke="#111827" stroke-width="1.05" marker-end="url(#arrow)"/><text x="650" y="682" text-anchor="middle" font-family="Arial, sans-serif" font-size="11" font-weight="400" fill="#111827">recommend</text><path d="M750 751 V770 H750 V789" fill="none" stroke="#111827" stroke-width="1.05" marker-end="url(#arrow)"/><text x="650" y="775" text-anchor="middle" font-family="Arial, sans-serif" font-size="11" font-weight="400" fill="#111827">confirm</text><path d="M835 815 H860.5 V815 H886" fill="none" stroke="#111827" stroke-width="1.05" marker-end="url(#arrow)"/><text x="860.5" y="790" text-anchor="middle" font-family="Arial, sans-serif" font-size="11" font-weight="400" fill="#111827">return home</text><path d="M1065 625 H1122.5 V625 H1180" fill="none" stroke="#111827" stroke-width="1.05" marker-end="url(#arrow)"/><text x="1122.5" y="602" text-anchor="middle" font-family="Arial, sans-serif" font-size="11" font-weight="400" fill="#111827">task tab</text><path d="M1265 651 V700 H1135 V739" fill="none" stroke="#111827" stroke-width="1.05" marker-end="url(#arrow)"/><text x="1180" y="695" text-anchor="middle" font-family="Arial, sans-serif" font-size="11" font-weight="400" fill="#111827">upload</text><path d="M1220 765 H1267.5 V765 H1315" fill="none" stroke="#111827" stroke-width="1.05" marker-end="url(#arrow)"/><text x="1267.5" y="740" text-anchor="middle" font-family="Arial, sans-serif" font-size="11" font-weight="400" fill="#111827">submitted</text><path d="M1400 791 V805 H1282 V835" fill="none" stroke="#111827" stroke-width="1.05" marker-end="url(#arrow)"/><text x="1325" y="800" text-anchor="middle" font-family="Arial, sans-serif" font-size="11" font-weight="400" fill="#111827">review</text><path d="M1248 835 H1135 V859" fill="none" stroke="#111827" stroke-width="1.05" marker-end="url(#arrow)"/><text x="1195" y="820" text-anchor="middle" font-family="Arial, sans-serif" font-size="11" font-weight="400" fill="#111827">[approved]</text><path d="M1282 835 H1435 V859" fill="none" stroke="#111827" stroke-width="1.05" marker-end="url(#arrow)"/><text x="1468" y="815" text-anchor="start" font-family="Arial, sans-serif" font-size="11" font-weight="400" fill="#111827">[rejected]</text><path d="M1435 911 V925 H1080 V765 H1050" fill="none" stroke="#111827" stroke-width="1.05" marker-end="url(#arrow)"/><text x="1230" y="940" text-anchor="middle" font-family="Arial, sans-serif" font-size="11" font-weight="400" fill="#111827">resubmit</text><path d="M1050 885 H1035 V585 H1265 V599" fill="none" stroke="#111827" stroke-width="1.05" marker-end="url(#arrow)"/><text x="1125" y="580" text-anchor="middle" font-family="Arial, sans-serif" font-size="11" font-weight="400" fill="#111827">progress updated</text><path d="M1350 625 H1425.5 V625 H1501" fill="none" stroke="#111827" stroke-width="1.05" marker-end="url(#arrow)"/><text x="1425.5" y="602" text-anchor="middle" font-family="Arial, sans-serif" font-size="11" font-weight="400" fill="#111827">back</text><path d="M115 1100 H120 V1100 H125" fill="none" stroke="#111827" stroke-width="1.05" marker-end="url(#arrow)"/><text x="120" y="1076" text-anchor="middle" font-family="Arial, sans-serif" font-size="11" font-weight="400" fill="#111827">event tab</text><path d="M295 1100 H355 V1100 H415" fill="none" stroke="#111827" stroke-width="1.05" marker-end="url(#arrow)"/><text x="355" y="1076" text-anchor="middle" font-family="Arial, sans-serif" font-size="11" font-weight="400" fill="#111827">attend / absent</text><path d="M210 1126 V1180 H210 V1229" fill="none" stroke="#111827" stroke-width="1.05" marker-end="url(#arrow)"/><text x="112" y="1185" text-anchor="middle" font-family="Arial, sans-serif" font-size="11" font-weight="400" fill="#111827">not responded</text><path d="M295 1255 H355 V1100 H295" fill="none" stroke="#111827" stroke-width="1.05" marker-end="url(#arrow)"/><text x="382" y="1188" text-anchor="middle" font-family="Arial, sans-serif" font-size="11" font-weight="400" fill="#111827">reminder</text><path d="M585 1100 H632.5 V1100 H680" fill="none" stroke="#111827" stroke-width="1.05" marker-end="url(#arrow)"/><text x="632.5" y="1076" text-anchor="middle" font-family="Arial, sans-serif" font-size="11" font-weight="400" fill="#111827">deadline</text><path d="M850 1100 H916.5 V1100 H983" fill="none" stroke="#111827" stroke-width="1.05" marker-end="url(#arrow)"/><text x="916.5" y="1076" text-anchor="middle" font-family="Arial, sans-serif" font-size="11" font-weight="400" fill="#111827">count votes</text><path d="M1000 1117 V1180 H1010 V1229" fill="none" stroke="#111827" stroke-width="1.05" marker-end="url(#arrow)"/><text x="900" y="1185" text-anchor="middle" font-family="Arial, sans-serif" font-size="11" font-weight="400" fill="#111827">[no attendee]</text><path d="M1017 1100 H1091 V1100 H1165" fill="none" stroke="#111827" stroke-width="1.05" marker-end="url(#arrow)"/><text x="1091" y="1076" text-anchor="middle" font-family="Arial, sans-serif" font-size="11" font-weight="400" fill="#111827">[attendee exists]</text><path d="M1250 1126 V1180 H1250 V1229" fill="none" stroke="#111827" stroke-width="1.05" marker-end="url(#arrow)"/><text x="1170" y="1185" text-anchor="middle" font-family="Arial, sans-serif" font-size="11" font-weight="400" fill="#111827">enter</text><path d="M1335 1255 H1385.5 V1255 H1436" fill="none" stroke="#111827" stroke-width="1.05" marker-end="url(#arrow)"/><text x="1385.5" y="1230" text-anchor="middle" font-family="Arial, sans-serif" font-size="11" font-weight="400" fill="#111827">work finished</text><path d="M1010 1281 V1325 H1450 V1269" fill="none" stroke="#111827" stroke-width="1.05" marker-end="url(#arrow)"/><text x="1230" y="1340" text-anchor="middle" font-family="Arial, sans-serif" font-size="11" font-weight="400" fill="#111827">cancel</text><rect x="125" y="134" width="170" height="52" rx="16" fill="#fffef9" stroke="#111827" stroke-width="1.2"/><text x="210" y="165" text-anchor="middle" font-family="Arial, sans-serif" font-size="12" font-weight="700">LaunchSystem</text><rect x="125" y="274" width="170" height="52" rx="16" fill="#fffef9" stroke="#111827" stroke-width="1.2"/><text x="210" y="305" text-anchor="middle" font-family="Arial, sans-serif" font-size="12" font-weight="700">WaitLoginInput</text><rect x="380" y="274" width="170" height="52" rx="16" fill="#fffef9" stroke="#111827" stroke-width="1.2"/><text x="465" y="305" text-anchor="middle" font-family="Arial, sans-serif" font-size="12" font-weight="700">WaitLoginValidation</text><rect x="125" y="409" width="170" height="52" rx="16" fill="#fffef9" stroke="#111827" stroke-width="1.2"/><text x="210" y="440" text-anchor="middle" font-family="Arial, sans-serif" font-size="12" font-weight="700">RegisterMember</text><rect x="380" y="409" width="170" height="52" rx="16" fill="#fffef9" stroke="#111827" stroke-width="1.2"/><text x="465" y="440" text-anchor="middle" font-family="Arial, sans-serif" font-size="12" font-weight="700">WaitRegisterValidation</text><rect x="650" y="274" width="170" height="52" rx="16" fill="#fffef9" stroke="#111827" stroke-width="1.2"/><text x="735" y="305" text-anchor="middle" font-family="Arial, sans-serif" font-size="12" font-weight="700">RegisterInformation</text><rect x="1130" y="164" width="170" height="52" rx="16" fill="#fffef9" stroke="#111827" stroke-width="1.2"/><text x="1215" y="195" text-anchor="middle" font-family="Arial, sans-serif" font-size="12" font-weight="700">Home</text><rect x="165" y="624" width="170" height="52" rx="16" fill="#fffef9" stroke="#111827" stroke-width="1.2"/><text x="250" y="655" text-anchor="middle" font-family="Arial, sans-serif" font-size="12" font-weight="700">TeamList</text><rect x="80" y="764" width="170" height="52" rx="16" fill="#fffef9" stroke="#111827" stroke-width="1.2"/><text x="165" y="795" text-anchor="middle" font-family="Arial, sans-serif" font-size="12" font-weight="700">TeamCreating</text><rect x="280" y="764" width="170" height="52" rx="16" fill="#fffef9" stroke="#111827" stroke-width="1.2"/><text x="365" y="795" text-anchor="middle" font-family="Arial, sans-serif" font-size="12" font-weight="700">MemberInviting</text><rect x="665" y="599" width="170" height="52" rx="16" fill="#fffef9" stroke="#111827" stroke-width="1.2"/><text x="750" y="630" text-anchor="middle" font-family="Arial, sans-serif" font-size="12" font-weight="700">ScheduleEditing</text><rect x="665" y="699" width="170" height="52" rx="16" fill="#fffef9" stroke="#111827" stroke-width="1.2"/><text x="750" y="730" text-anchor="middle" font-family="Arial, sans-serif" font-size="12" font-weight="700">ScheduleRecommending</text><rect x="665" y="789" width="170" height="52" rx="16" fill="#fffef9" stroke="#111827" stroke-width="1.2"/><text x="750" y="820" text-anchor="middle" font-family="Arial, sans-serif" font-size="12" font-weight="700">ScheduleConfirmed</text><rect x="1180" y="599" width="170" height="52" rx="16" fill="#fffef9" stroke="#111827" stroke-width="1.2"/><text x="1265" y="630" text-anchor="middle" font-family="Arial, sans-serif" font-size="12" font-weight="700">TaskViewing</text><rect x="1050" y="739" width="170" height="52" rx="16" fill="#fffef9" stroke="#111827" stroke-width="1.2"/><text x="1135" y="770" text-anchor="middle" font-family="Arial, sans-serif" font-size="12" font-weight="700">TaskUploading</text><rect x="1315" y="739" width="170" height="52" rx="16" fill="#fffef9" stroke="#111827" stroke-width="1.2"/><text x="1400" y="770" text-anchor="middle" font-family="Arial, sans-serif" font-size="12" font-weight="700">TaskSubmitted</text><rect x="1050" y="859" width="170" height="52" rx="16" fill="#fffef9" stroke="#111827" stroke-width="1.2"/><text x="1135" y="890" text-anchor="middle" font-family="Arial, sans-serif" font-size="12" font-weight="700">TaskApproved</text><rect x="1350" y="859" width="170" height="52" rx="16" fill="#fffef9" stroke="#111827" stroke-width="1.2"/><text x="1435" y="890" text-anchor="middle" font-family="Arial, sans-serif" font-size="12" font-weight="700">TaskRejected</text><rect x="125" y="1074" width="170" height="52" rx="16" fill="#fffef9" stroke="#111827" stroke-width="1.2"/><text x="210" y="1105" text-anchor="middle" font-family="Arial, sans-serif" font-size="12" font-weight="700">EventVoting</text><rect x="125" y="1229" width="170" height="52" rx="16" fill="#fffef9" stroke="#111827" stroke-width="1.2"/><text x="210" y="1260" text-anchor="middle" font-family="Arial, sans-serif" font-size="12" font-weight="700">VoteReminderWaiting</text><rect x="415" y="1074" width="170" height="52" rx="16" fill="#fffef9" stroke="#111827" stroke-width="1.2"/><text x="500" y="1105" text-anchor="middle" font-family="Arial, sans-serif" font-size="12" font-weight="700">VoteSubmitted</text><rect x="680" y="1074" width="170" height="52" rx="16" fill="#fffef9" stroke="#111827" stroke-width="1.2"/><text x="765" y="1105" text-anchor="middle" font-family="Arial, sans-serif" font-size="12" font-weight="700">EventDeciding</text><rect x="925" y="1229" width="170" height="52" rx="16" fill="#fffef9" stroke="#111827" stroke-width="1.2"/><text x="1010" y="1260" text-anchor="middle" font-family="Arial, sans-serif" font-size="12" font-weight="700">EventCanceled</text><rect x="1165" y="1074" width="170" height="52" rx="16" fill="#fffef9" stroke="#111827" stroke-width="1.2"/><text x="1250" y="1105" text-anchor="middle" font-family="Arial, sans-serif" font-size="12" font-weight="700">WorkspaceCreated</text><rect x="1165" y="1229" width="170" height="52" rx="16" fill="#fffef9" stroke="#111827" stroke-width="1.2"/><text x="1250" y="1260" text-anchor="middle" font-family="Arial, sans-serif" font-size="12" font-weight="700">WorkspaceManaging</text><circle cx="105" cy="160" r="10" fill="#111827"/><circle cx="1465" cy="190" r="14" fill="#fffef9" stroke="#111827" stroke-width="1.4"/><circle cx="1465" cy="190" r="8" fill="#111827"/><circle cx="105" cy="650" r="10" fill="#111827"/><circle cx="585" cy="625" r="10" fill="#111827"/><circle cx="1055" cy="625" r="10" fill="#111827"/><circle cx="105" cy="1100" r="10" fill="#111827"/><circle cx="900" cy="815" r="14" fill="#fffef9" stroke="#111827" stroke-width="1.4"/><circle cx="900" cy="815" r="8" fill="#111827"/><path d="M1265 818 L1282 835 L1265 852 L1248 835 Z" fill="#fffef9" stroke="#111827" stroke-width="1.2"/><circle cx="1515" cy="625" r="14" fill="#fffef9" stroke="#111827" stroke-width="1.4"/><circle cx="1515" cy="625" r="8" fill="#111827"/><path d="M1000 1083 L1017 1100 L1000 1117 L983 1100 Z" fill="#fffef9" stroke="#111827" stroke-width="1.2"/><circle cx="1450" cy="1255" r="14" fill="#fffef9" stroke="#111827" stroke-width="1.4"/><circle cx="1450" cy="1255" r="8" fill="#111827"/></svg>