<svg xmlns="http://www.w3.org/2000/svg" width="1420" height="980" viewBox="0 0 1420 980">
<defs><marker id="arrow" viewBox="0 0 10 10" refX="9" refY="5" markerWidth="7" markerHeight="7" orient="auto"><path d="M0 0 L10 5 L0 10 z" fill="#111827"/></marker></defs>
<rect width="100%" height="100%" fill="#ffffff"/>
<text x="36" y="34" font-family="Arial, sans-serif" font-size="22" font-weight="700" fill="#111827">Jo:YUl State Machine Diagram</text>
<circle cx="700" cy="45" r="10" fill="#111827"/>
<line x1="700" y1="55" x2="700" y2="56" stroke="#111827" stroke-width="1.2" marker-end="url(#arrow)"/><line x1="700" y1="104" x2="700" y2="161" stroke="#111827" stroke-width="1.05" marker-end="url(#arrow)"/><text x="700" y="127.5" text-anchor="middle" font-family="Arial, sans-serif" font-size="11" fill="#111827">로그인 화면</text><line x1="621.6510753231056" y1="87.08175359346392" x2="438.3489246768944" y2="177.9182464065361" stroke="#111827" stroke-width="1.05" marker-end="url(#arrow)"/><text x="530" y="127.5" text-anchor="middle" font-family="Arial, sans-serif" font-size="11" fill="#111827">회원가입 선택</text><line x1="360" y1="209" x2="360" y2="266" stroke="#111827" stroke-width="1.05" marker-end="url(#arrow)"/><text x="360" y="232.5" text-anchor="middle" font-family="Arial, sans-serif" font-size="11" fill="#111827">입력 완료</text><line x1="360" y1="266" x2="360" y2="209" stroke="#111827" stroke-width="1.05" marker-end="url(#arrow)"/><text x="360" y="232.5" text-anchor="middle" font-family="Arial, sans-serif" font-size="11" fill="#111827">입력 오류</text><line x1="360" y1="314" x2="360" y2="381" stroke="#111827" stroke-width="1.05" marker-end="url(#arrow)"/><text x="360" y="342.5" text-anchor="middle" font-family="Arial, sans-serif" font-size="11" fill="#111827">Supabase 인증 성공</text><line x1="442" y1="405" x2="618" y2="405" stroke="#111827" stroke-width="1.05" marker-end="url(#arrow)"/><text x="530" y="400" text-anchor="middle" font-family="Arial, sans-serif" font-size="11" fill="#111827">세션 생성</text><line x1="700" y1="209" x2="700" y2="266" stroke="#111827" stroke-width="1.05" marker-end="url(#arrow)"/><text x="700" y="232.5" text-anchor="middle" font-family="Arial, sans-serif" font-size="11" fill="#111827">학번/비밀번호 입력</text><line x1="700" y1="266" x2="700" y2="209" stroke="#111827" stroke-width="1.05" marker-end="url(#arrow)"/><text x="700" y="232.5" text-anchor="middle" font-family="Arial, sans-serif" font-size="11" fill="#111827">로그인 실패</text><line x1="700" y1="314" x2="700" y2="381" stroke="#111827" stroke-width="1.05" marker-end="url(#arrow)"/><text x="700" y="342.5" text-anchor="middle" font-family="Arial, sans-serif" font-size="11" fill="#111827">로그인 성공</text><line x1="621.2124655231667" y1="411.6518556312524" x2="258.78753447683334" y2="548.3481443687476" stroke="#111827" stroke-width="1.05" marker-end="url(#arrow)"/><text x="440" y="475" text-anchor="middle" font-family="Arial, sans-serif" font-size="11" fill="#111827">팀</text><line x1="127.50487922751265" y1="573.437310710337" x2="132.49512077248735" y2="656.562689289663" stroke="#111827" stroke-width="1.05" marker-end="url(#arrow)"/><text x="130" y="610" text-anchor="middle" font-family="Arial, sans-serif" font-size="11" fill="#111827">생성</text><line x1="132.49512077248735" y1="656.562689289663" x2="127.50487922751265" y2="573.437310710337" stroke="#111827" stroke-width="1.05" marker-end="url(#arrow)"/><text x="130" y="610" text-anchor="middle" font-family="Arial, sans-serif" font-size="11" fill="#111827">완료</text><line x1="232.49512077248735" y1="573.437310710337" x2="227.50487922751265" y2="656.562689289663" stroke="#111827" stroke-width="1.05" marker-end="url(#arrow)"/><text x="230" y="610" text-anchor="middle" font-family="Arial, sans-serif" font-size="11" fill="#111827">초대</text><line x1="227.50487922751265" y1="656.562689289663" x2="232.49512077248735" y2="573.437310710337" stroke="#111827" stroke-width="1.05" marker-end="url(#arrow)"/><text x="230" y="610" text-anchor="middle" font-family="Arial, sans-serif" font-size="11" fill="#111827">완료</text><line x1="634.4" y1="419.4" x2="565.6" y2="540.6" stroke="#111827" stroke-width="1.05" marker-end="url(#arrow)"/><text x="600" y="475" text-anchor="middle" font-family="Arial, sans-serif" font-size="11" fill="#111827">일정</text><line x1="500" y1="579" x2="500" y2="651" stroke="#111827" stroke-width="1.05" marker-end="url(#arrow)"/><text x="500" y="610" text-anchor="middle" font-family="Arial, sans-serif" font-size="11" fill="#111827">추천</text><line x1="500" y1="699" x2="500" y2="771" stroke="#111827" stroke-width="1.05" marker-end="url(#arrow)"/><text x="500" y="730" text-anchor="middle" font-family="Arial, sans-serif" font-size="11" fill="#111827">확정</text><line x1="537.4179651028946" y1="773.6443808924943" x2="662.5820348971054" y2="426.3556191075057" stroke="#111827" stroke-width="1.05" marker-end="url(#arrow)"/><text x="600" y="595" text-anchor="middle" font-family="Arial, sans-serif" font-size="11" fill="#111827">복귀</text><line x1="738.5882352941177" y1="426.1764705882353" x2="741.4117647058823" y2="533.8235294117648" stroke="#111827" stroke-width="1.05" marker-end="url(#arrow)"/><text x="740" y="475" text-anchor="middle" font-family="Arial, sans-serif" font-size="11" fill="#111827">과제</text><line x1="780" y1="579" x2="780" y2="651" stroke="#111827" stroke-width="1.05" marker-end="url(#arrow)"/><text x="780" y="610" text-anchor="middle" font-family="Arial, sans-serif" font-size="11" fill="#111827">업로드</text><line x1="780" y1="699" x2="780" y2="771" stroke="#111827" stroke-width="1.05" marker-end="url(#arrow)"/><text x="780" y="730" text-anchor="middle" font-family="Arial, sans-serif" font-size="11" fill="#111827">제출</text><line x1="719.5533605035392" y1="811.2173910844164" x2="720.4466394964608" y2="888.7826089155836" stroke="#111827" stroke-width="1.05" marker-end="url(#arrow)"/><text x="720" y="845" text-anchor="middle" font-family="Arial, sans-serif" font-size="11" fill="#111827">승인</text><line x1="840.4466394964608" y1="811.2173910844164" x2="839.5533605035392" y2="888.7826089155836" stroke="#111827" stroke-width="1.05" marker-end="url(#arrow)"/><text x="840" y="845" text-anchor="middle" font-family="Arial, sans-serif" font-size="11" fill="#111827">반려</text><line x1="862.0695874510084" y1="883.7219636920291" x2="817.9304125489916" y2="696.2780363079709" stroke="#111827" stroke-width="1.05" marker-end="url(#arrow)"/><text x="840" y="785" text-anchor="middle" font-family="Arial, sans-serif" font-size="11" fill="#111827">재제출</text><line x1="686.5945945945946" y1="882.2972972972973" x2="753.4054054054054" y2="577.7027027027027" stroke="#111827" stroke-width="1.05" marker-end="url(#arrow)"/><text x="720" y="725" text-anchor="middle" font-family="Arial, sans-serif" font-size="11" fill="#111827">갱신</text><line x1="777.0080738738664" y1="413.24595675032475" x2="1032.9919261261336" y2="546.7540432496752" stroke="#111827" stroke-width="1.05" marker-end="url(#arrow)"/><text x="905" y="475" text-anchor="middle" font-family="Arial, sans-serif" font-size="11" fill="#111827">이벤트</text><line x1="1054.5905804615777" y1="572.6916993648179" x2="1055.4094195384223" y2="657.3083006351821" stroke="#111827" stroke-width="1.05" marker-end="url(#arrow)"/><text x="1055" y="610" text-anchor="middle" font-family="Arial, sans-serif" font-size="11" fill="#111827">미투표</text><line x1="1055.4094195384223" y1="657.3083006351821" x2="1054.5905804615777" y2="572.6916993648179" stroke="#111827" stroke-width="1.05" marker-end="url(#arrow)"/><text x="1055" y="610" text-anchor="middle" font-family="Arial, sans-serif" font-size="11" fill="#111827">리마인드</text><line x1="1165.4094195384223" y1="572.6916993648179" x2="1164.5905804615777" y2="657.3083006351821" stroke="#111827" stroke-width="1.05" marker-end="url(#arrow)"/><text x="1165" y="610" text-anchor="middle" font-family="Arial, sans-serif" font-size="11" fill="#111827">투표</text><line x1="1220" y1="699" x2="1220" y2="771" stroke="#111827" stroke-width="1.05" marker-end="url(#arrow)"/><text x="1220" y="730" text-anchor="middle" font-family="Arial, sans-serif" font-size="11" fill="#111827">마감</text><line x1="1155.5218962165613" y1="809.8277172463656" x2="1144.4781037834387" y2="890.1722827536344" stroke="#111827" stroke-width="1.05" marker-end="url(#arrow)"/><text x="1150" y="845" text-anchor="middle" font-family="Arial, sans-serif" font-size="11" fill="#111827">참여자 없음</text><line x1="1280.4466394964609" y1="811.2173910844164" x2="1279.5533605035391" y2="888.7826089155836" stroke="#111827" stroke-width="1.05" marker-end="url(#arrow)"/><text x="1280" y="845" text-anchor="middle" font-family="Arial, sans-serif" font-size="11" fill="#111827">참여자 있음</text><rect x="618" y="56" width="164" height="48" rx="18" fill="#fff" stroke="#111827" stroke-width="1.2"/><text x="700" y="85" text-anchor="middle" font-family="Arial, sans-serif" font-size="12" font-weight="700" fill="#111827">LaunchSystem</text><rect x="618" y="161" width="164" height="48" rx="18" fill="#fff" stroke="#111827" stroke-width="1.2"/><text x="700" y="190" text-anchor="middle" font-family="Arial, sans-serif" font-size="12" font-weight="700" fill="#111827">WaitLoginInput</text><rect x="618" y="266" width="164" height="48" rx="18" fill="#fff" stroke="#111827" stroke-width="1.2"/><text x="700" y="295" text-anchor="middle" font-family="Arial, sans-serif" font-size="12" font-weight="700" fill="#111827">WaitLoginValidation</text><rect x="618" y="381" width="164" height="48" rx="18" fill="#fff" stroke="#111827" stroke-width="1.2"/><text x="700" y="410" text-anchor="middle" font-family="Arial, sans-serif" font-size="12" font-weight="700" fill="#111827">Home</text><rect x="278" y="161" width="164" height="48" rx="18" fill="#fff" stroke="#111827" stroke-width="1.2"/><text x="360" y="190" text-anchor="middle" font-family="Arial, sans-serif" font-size="12" font-weight="700" fill="#111827">RegisterMember</text><rect x="278" y="266" width="164" height="48" rx="18" fill="#fff" stroke="#111827" stroke-width="1.2"/><text x="360" y="295" text-anchor="middle" font-family="Arial, sans-serif" font-size="12" font-weight="700" fill="#111827">WaitRegisterValidation</text><rect x="278" y="381" width="164" height="48" rx="18" fill="#fff" stroke="#111827" stroke-width="1.2"/><text x="360" y="410" text-anchor="middle" font-family="Arial, sans-serif" font-size="12" font-weight="700" fill="#111827">RegisterInformation</text><rect x="98" y="531" width="164" height="48" rx="18" fill="#fff" stroke="#111827" stroke-width="1.2"/><text x="180" y="560" text-anchor="middle" font-family="Arial, sans-serif" font-size="12" font-weight="700" fill="#111827">TeamList</text><rect x="-2" y="651" width="164" height="48" rx="18" fill="#fff" stroke="#111827" stroke-width="1.2"/><text x="80" y="680" text-anchor="middle" font-family="Arial, sans-serif" font-size="12" font-weight="700" fill="#111827">TeamCreating</text><rect x="198" y="651" width="164" height="48" rx="18" fill="#fff" stroke="#111827" stroke-width="1.2"/><text x="280" y="680" text-anchor="middle" font-family="Arial, sans-serif" font-size="12" font-weight="700" fill="#111827">MemberInviting</text><rect x="418" y="531" width="164" height="48" rx="18" fill="#fff" stroke="#111827" stroke-width="1.2"/><text x="500" y="560" text-anchor="middle" font-family="Arial, sans-serif" font-size="12" font-weight="700" fill="#111827">ScheduleEditing</text><rect x="418" y="651" width="164" height="48" rx="18" fill="#fff" stroke="#111827" stroke-width="1.2"/><text x="500" y="680" text-anchor="middle" font-family="Arial, sans-serif" font-size="12" font-weight="700" fill="#111827">ScheduleRecommending</text><rect x="418" y="771" width="164" height="48" rx="18" fill="#fff" stroke="#111827" stroke-width="1.2"/><text x="500" y="800" text-anchor="middle" font-family="Arial, sans-serif" font-size="12" font-weight="700" fill="#111827">ScheduleConfirmed</text><rect x="698" y="531" width="164" height="48" rx="18" fill="#fff" stroke="#111827" stroke-width="1.2"/><text x="780" y="560" text-anchor="middle" font-family="Arial, sans-serif" font-size="12" font-weight="700" fill="#111827">TaskViewing</text><rect x="698" y="651" width="164" height="48" rx="18" fill="#fff" stroke="#111827" stroke-width="1.2"/><text x="780" y="680" text-anchor="middle" font-family="Arial, sans-serif" font-size="12" font-weight="700" fill="#111827">TaskUploading</text><rect x="698" y="771" width="164" height="48" rx="18" fill="#fff" stroke="#111827" stroke-width="1.2"/><text x="780" y="800" text-anchor="middle" font-family="Arial, sans-serif" font-size="12" font-weight="700" fill="#111827">TaskSubmitted</text><rect x="578" y="881" width="164" height="48" rx="18" fill="#fff" stroke="#111827" stroke-width="1.2"/><text x="660" y="910" text-anchor="middle" font-family="Arial, sans-serif" font-size="12" font-weight="700" fill="#111827">TaskApproved</text><rect x="818" y="881" width="164" height="48" rx="18" fill="#fff" stroke="#111827" stroke-width="1.2"/><text x="900" y="910" text-anchor="middle" font-family="Arial, sans-serif" font-size="12" font-weight="700" fill="#111827">TaskRejected</text><rect x="1028" y="531" width="164" height="48" rx="18" fill="#fff" stroke="#111827" stroke-width="1.2"/><text x="1110" y="560" text-anchor="middle" font-family="Arial, sans-serif" font-size="12" font-weight="700" fill="#111827">EventVoting</text><rect x="918" y="651" width="164" height="48" rx="18" fill="#fff" stroke="#111827" stroke-width="1.2"/><text x="1000" y="680" text-anchor="middle" font-family="Arial, sans-serif" font-size="12" font-weight="700" fill="#111827">VoteReminderWaiting</text><rect x="1138" y="651" width="164" height="48" rx="18" fill="#fff" stroke="#111827" stroke-width="1.2"/><text x="1220" y="680" text-anchor="middle" font-family="Arial, sans-serif" font-size="12" font-weight="700" fill="#111827">VoteSubmitted</text><rect x="1138" y="771" width="164" height="48" rx="18" fill="#fff" stroke="#111827" stroke-width="1.2"/><text x="1220" y="800" text-anchor="middle" font-family="Arial, sans-serif" font-size="12" font-weight="700" fill="#111827">EventDeciding</text><rect x="998" y="881" width="164" height="48" rx="18" fill="#fff" stroke="#111827" stroke-width="1.2"/><text x="1080" y="910" text-anchor="middle" font-family="Arial, sans-serif" font-size="12" font-weight="700" fill="#111827">EventCanceled</text><rect x="1258" y="881" width="164" height="48" rx="18" fill="#fff" stroke="#111827" stroke-width="1.2"/><text x="1340" y="910" text-anchor="middle" font-family="Arial, sans-serif" font-size="12" font-weight="700" fill="#111827">WorkspaceCreated</text><circle cx="1340" cy="960" r="13" fill="#fff" stroke="#111827" stroke-width="1.5"/><circle cx="1340" cy="960" r="8" fill="#111827"/></svg>