<svg xmlns="http://www.w3.org/2000/svg" width="1530" height="1060" viewBox="0 0 1530 1060">
<defs><marker id="arrow" viewBox="0 0 10 10" refX="9" refY="5" markerWidth="7" markerHeight="7" orient="auto-start-reverse"><path d="M0 0 L10 5 L0 10 z" fill="#334155"/></marker></defs>
<rect width="100%" height="100%" fill="#ffffff"/>
<text x="28" y="30" font-family="Arial, sans-serif" font-size="22" font-weight="700" fill="#1f2937">Jo:YUl State Machine Diagram</text>
<circle cx="540" cy="38" r="10" fill="#111827"/><line x1="475.961550011551" y1="68.4084099249539" x2="324.038449988449" y2="151.5915900750461" stroke="#64748b" stroke-width="1.2" marker-end="url(#arrow)"/><text x="400" y="106" text-anchor="middle" font-family="Arial, sans-serif" font-size="11" fill="#334155">회원가입 선택</text><line x1="260" y1="185" x2="260" y2="225" stroke="#64748b" stroke-width="1.2" marker-end="url(#arrow)"/><text x="260" y="201" text-anchor="middle" font-family="Arial, sans-serif" font-size="11" fill="#334155">입력 완료</text><line x1="260" y1="225" x2="260" y2="185" stroke="#64748b" stroke-width="1.2" marker-end="url(#arrow)"/><text x="260" y="201" text-anchor="middle" font-family="Arial, sans-serif" font-size="11" fill="#334155">입력 오류</text><line x1="260" y1="275" x2="260" y2="315" stroke="#64748b" stroke-width="1.2" marker-end="url(#arrow)"/><text x="260" y="291" text-anchor="middle" font-family="Arial, sans-serif" font-size="11" fill="#334155">Supabase 인증 성공</text><line x1="324.737942167398" y1="347.650229510328" x2="475.262057832602" y2="422.349770489672" stroke="#64748b" stroke-width="1.2" marker-end="url(#arrow)"/><text x="400" y="381" text-anchor="middle" font-family="Arial, sans-serif" font-size="11" fill="#334155">세션 생성</text><line x1="540" y1="85" x2="540" y2="195" stroke="#64748b" stroke-width="1.2" marker-end="url(#arrow)"/><text x="540" y="136" text-anchor="middle" font-family="Arial, sans-serif" font-size="11" fill="#334155">로그인 화면</text><line x1="540" y1="245" x2="540" y2="295" stroke="#64748b" stroke-width="1.2" marker-end="url(#arrow)"/><text x="540" y="266" text-anchor="middle" font-family="Arial, sans-serif" font-size="11" fill="#334155">로그인 입력</text><line x1="540" y1="295" x2="540" y2="245" stroke="#64748b" stroke-width="1.2" marker-end="url(#arrow)"/><text x="540" y="266" text-anchor="middle" font-family="Arial, sans-serif" font-size="11" fill="#334155">실패</text><line x1="540" y1="345" x2="540" y2="405" stroke="#64748b" stroke-width="1.2" marker-end="url(#arrow)"/><text x="540" y="371" text-anchor="middle" font-family="Arial, sans-serif" font-size="11" fill="#334155">성공</text><line x1="475.12842725071465" y1="437.4956649185099" x2="254.87157274928535" y2="532.5043350814901" stroke="#64748b" stroke-width="1.2" marker-end="url(#arrow)"/><text x="365" y="481" text-anchor="middle" font-family="Arial, sans-serif" font-size="11" fill="#334155">홈 진입</text><line x1="139.8735184663496" y1="556.8931157129336" x2="120.12648153365042" y2="633.1068842870664" stroke="#64748b" stroke-width="1.2" marker-end="url(#arrow)"/><text x="130" y="591" text-anchor="middle" font-family="Arial, sans-serif" font-size="11" fill="#334155">팀 생성</text><line x1="238.08326112068522" y1="557.6776695296637" x2="251.91673887931478" y2="632.3223304703363" stroke="#64748b" stroke-width="1.2" marker-end="url(#arrow)"/><text x="245" y="591" text-anchor="middle" font-family="Arial, sans-serif" font-size="11" fill="#334155">멤버 초대</text><line x1="120.12648153365042" y1="633.1068842870664" x2="139.8735184663496" y2="556.8931157129336" stroke="#64748b" stroke-width="1.2" marker-end="url(#arrow)"/><text x="130" y="591" text-anchor="middle" font-family="Arial, sans-serif" font-size="11" fill="#334155">완료</text><line x1="251.91673887931478" y1="632.3223304703363" x2="238.08326112068522" y2="557.6776695296637" stroke="#64748b" stroke-width="1.2" marker-end="url(#arrow)"/><text x="245" y="591" text-anchor="middle" font-family="Arial, sans-serif" font-size="11" fill="#334155">완료</text><line x1="516.7614717101042" y1="453.4948355872109" x2="523.2385282898958" y2="516.5051644127891" stroke="#64748b" stroke-width="1.2" marker-end="url(#arrow)"/><text x="520" y="481" text-anchor="middle" font-family="Arial, sans-serif" font-size="11" fill="#334155">일정 탭</text><line x1="500" y1="565" x2="500" y2="625" stroke="#64748b" stroke-width="1.2" marker-end="url(#arrow)"/><text x="500" y="591" text-anchor="middle" font-family="Arial, sans-serif" font-size="11" fill="#334155">추천</text><line x1="500" y1="675" x2="500" y2="735" stroke="#64748b" stroke-width="1.2" marker-end="url(#arrow)"/><text x="500" y="701" text-anchor="middle" font-family="Arial, sans-serif" font-size="11" fill="#334155">확정</text><line x1="508.18253299130816" y1="735.1816554491573" x2="531.8174670086919" y2="454.8183445508427" stroke="#64748b" stroke-width="1.2" marker-end="url(#arrow)"/><text x="520" y="591" text-anchor="middle" font-family="Arial, sans-serif" font-size="11" fill="#334155">복귀</text><line x1="602.241422204748" y1="440.06846535665045" x2="727.758577795252" y2="529.9315346433496" stroke="#64748b" stroke-width="1.2" marker-end="url(#arrow)"/><text x="665" y="481" text-anchor="middle" font-family="Arial, sans-serif" font-size="11" fill="#334155">과제 탭</text><line x1="790" y1="565" x2="790" y2="625" stroke="#64748b" stroke-width="1.2" marker-end="url(#arrow)"/><text x="790" y="591" text-anchor="middle" font-family="Arial, sans-serif" font-size="11" fill="#334155">업로드</text><line x1="790" y1="675" x2="790" y2="735" stroke="#64748b" stroke-width="1.2" marker-end="url(#arrow)"/><text x="790" y="701" text-anchor="middle" font-family="Arial, sans-serif" font-size="11" fill="#334155">제출</text><line x1="741.9167388793147" y1="777.6776695296637" x2="728.0832611206853" y2="852.3223304703363" stroke="#64748b" stroke-width="1.2" marker-end="url(#arrow)"/><text x="735" y="811" text-anchor="middle" font-family="Arial, sans-serif" font-size="11" fill="#334155">승인</text><line x1="838.0832611206853" y1="777.6776695296637" x2="851.9167388793147" y2="852.3223304703363" stroke="#64748b" stroke-width="1.2" marker-end="url(#arrow)"/><text x="845" y="811" text-anchor="middle" font-family="Arial, sans-serif" font-size="11" fill="#334155">반려</text><line x1="869.5894755060028" y1="847.639320225002" x2="820.4105244939972" y2="672.360679774998" stroke="#64748b" stroke-width="1.2" marker-end="url(#arrow)"/><text x="845" y="756" text-anchor="middle" font-family="Arial, sans-serif" font-size="11" fill="#334155">재제출</text><line x1="701.503488089145" y1="846.2829175487371" x2="768.496511910855" y2="563.7170824512629" stroke="#64748b" stroke-width="1.2" marker-end="url(#arrow)"/><text x="735" y="701" text-anchor="middle" font-family="Arial, sans-serif" font-size="11" fill="#334155">갱신</text><line x1="606.809083652873" y1="434.6583412790416" x2="1053.190916347127" y2="535.3416587209584" stroke="#64748b" stroke-width="1.2" marker-end="url(#arrow)"/><text x="830" y="481" text-anchor="middle" font-family="Arial, sans-serif" font-size="11" fill="#334155">이벤트 탭</text><line x1="1076.9398302625061" y1="559.348932480083" x2="1073.0601697374939" y2="630.651067519917" stroke="#64748b" stroke-width="1.2" marker-end="url(#arrow)"/><text x="1075" y="591" text-anchor="middle" font-family="Arial, sans-serif" font-size="11" fill="#334155">미투표</text><line x1="1073.0601697374939" y1="630.651067519917" x2="1076.9398302625061" y2="559.348932480083" stroke="#64748b" stroke-width="1.2" marker-end="url(#arrow)"/><text x="1075" y="591" text-anchor="middle" font-family="Arial, sans-serif" font-size="11" fill="#334155">리마인드</text><line x1="1165.7417499917492" y1="558.4985018348985" x2="1174.2582500082508" y2="631.5014981651015" stroke="#64748b" stroke-width="1.2" marker-end="url(#arrow)"/><text x="1170" y="591" text-anchor="middle" font-family="Arial, sans-serif" font-size="11" fill="#334155">투표</text><line x1="1220" y1="675" x2="1220" y2="735" stroke="#64748b" stroke-width="1.2" marker-end="url(#arrow)"/><text x="1220" y="701" text-anchor="middle" font-family="Arial, sans-serif" font-size="11" fill="#334155">마감</text><line x1="1168.0897325949002" y1="776.1485560366543" x2="1141.9102674050998" y2="853.8514439633457" stroke="#64748b" stroke-width="1.2" marker-end="url(#arrow)"/><text x="1155" y="811" text-anchor="middle" font-family="Arial, sans-serif" font-size="11" fill="#334155">참여자 없음</text><line x1="1270.1264815336503" y1="776.8931157129336" x2="1289.8735184663497" y2="853.1068842870664" stroke="#64748b" stroke-width="1.2" marker-end="url(#arrow)"/><text x="1280" y="811" text-anchor="middle" font-family="Arial, sans-serif" font-size="11" fill="#334155">참여자 있음</text><line x1="1340" y1="895" x2="1340" y2="955" stroke="#64748b" stroke-width="1.2" marker-end="url(#arrow)"/><text x="1340" y="921" text-anchor="middle" font-family="Arial, sans-serif" font-size="11" fill="#334155">입장</text><line x1="1283.965149154443" y1="965.8367794278233" x2="596.034850845557" y2="444.1632205721766" stroke="#64748b" stroke-width="1.2" marker-end="url(#arrow)"/><text x="940" y="701" text-anchor="middle" font-family="Arial, sans-serif" font-size="11" fill="#334155">종료</text><line x1="1036.900920957874" y1="854.3826238111394" x2="593.099079042126" y2="445.6173761888606" stroke="#64748b" stroke-width="1.2" marker-end="url(#arrow)"/><text x="815" y="646" text-anchor="middle" font-family="Arial, sans-serif" font-size="11" fill="#334155">취소</text><rect x="458" y="36" width="164" height="48" rx="18" fill="#f8fafc" stroke="#2563eb" stroke-width="1.2"/><text x="540" y="65" text-anchor="middle" font-family="Arial, sans-serif" font-size="12" font-weight="700" fill="#111827">LaunchSystem</text><rect x="178" y="136" width="164" height="48" rx="18" fill="#f8fafc" stroke="#2563eb" stroke-width="1.2"/><text x="260" y="165" text-anchor="middle" font-family="Arial, sans-serif" font-size="12" font-weight="700" fill="#111827">RegisterMember</text><rect x="178" y="226" width="164" height="48" rx="18" fill="#f8fafc" stroke="#2563eb" stroke-width="1.2"/><text x="260" y="255" text-anchor="middle" font-family="Arial, sans-serif" font-size="12" font-weight="700" fill="#111827">WaitRegisterValidation</text><rect x="178" y="316" width="164" height="48" rx="18" fill="#f8fafc" stroke="#2563eb" stroke-width="1.2"/><text x="260" y="345" text-anchor="middle" font-family="Arial, sans-serif" font-size="12" font-weight="700" fill="#111827">RegisterInformation</text><rect x="458" y="196" width="164" height="48" rx="18" fill="#f8fafc" stroke="#2563eb" stroke-width="1.2"/><text x="540" y="225" text-anchor="middle" font-family="Arial, sans-serif" font-size="12" font-weight="700" fill="#111827">WaitLoginInput</text><rect x="458" y="296" width="164" height="48" rx="18" fill="#f8fafc" stroke="#2563eb" stroke-width="1.2"/><text x="540" y="325" text-anchor="middle" font-family="Arial, sans-serif" font-size="12" font-weight="700" fill="#111827">WaitLoginValidation</text><rect x="458" y="406" width="164" height="48" rx="18" fill="#f8fafc" stroke="#2563eb" stroke-width="1.2"/><text x="540" y="435" text-anchor="middle" font-family="Arial, sans-serif" font-size="12" font-weight="700" fill="#111827">Home</text><rect x="108" y="516" width="164" height="48" rx="18" fill="#f8fafc" stroke="#2563eb" stroke-width="1.2"/><text x="190" y="545" text-anchor="middle" font-family="Arial, sans-serif" font-size="12" font-weight="700" fill="#111827">TeamList</text><rect x="-12" y="626" width="164" height="48" rx="18" fill="#f8fafc" stroke="#2563eb" stroke-width="1.2"/><text x="70" y="655" text-anchor="middle" font-family="Arial, sans-serif" font-size="12" font-weight="700" fill="#111827">TeamCreating</text><rect x="218" y="626" width="164" height="48" rx="18" fill="#f8fafc" stroke="#2563eb" stroke-width="1.2"/><text x="300" y="655" text-anchor="middle" font-family="Arial, sans-serif" font-size="12" font-weight="700" fill="#111827">MemberInviting</text><rect x="418" y="516" width="164" height="48" rx="18" fill="#f8fafc" stroke="#2563eb" stroke-width="1.2"/><text x="500" y="545" text-anchor="middle" font-family="Arial, sans-serif" font-size="12" font-weight="700" fill="#111827">ScheduleEditing</text><rect x="418" y="626" width="164" height="48" rx="18" fill="#f8fafc" stroke="#2563eb" stroke-width="1.2"/><text x="500" y="655" text-anchor="middle" font-family="Arial, sans-serif" font-size="12" font-weight="700" fill="#111827">ScheduleRecommending</text><rect x="418" y="736" width="164" height="48" rx="18" fill="#f8fafc" stroke="#2563eb" stroke-width="1.2"/><text x="500" y="765" text-anchor="middle" font-family="Arial, sans-serif" font-size="12" font-weight="700" fill="#111827">ScheduleConfirmed</text><rect x="708" y="516" width="164" height="48" rx="18" fill="#f8fafc" stroke="#2563eb" stroke-width="1.2"/><text x="790" y="545" text-anchor="middle" font-family="Arial, sans-serif" font-size="12" font-weight="700" fill="#111827">TaskViewing</text><rect x="708" y="626" width="164" height="48" rx="18" fill="#f8fafc" stroke="#2563eb" stroke-width="1.2"/><text x="790" y="655" text-anchor="middle" font-family="Arial, sans-serif" font-size="12" font-weight="700" fill="#111827">TaskUploading</text><rect x="708" y="736" width="164" height="48" rx="18" fill="#f8fafc" stroke="#2563eb" stroke-width="1.2"/><text x="790" y="765" text-anchor="middle" font-family="Arial, sans-serif" font-size="12" font-weight="700" fill="#111827">TaskSubmitted</text><rect x="598" y="846" width="164" height="48" rx="18" fill="#f8fafc" stroke="#2563eb" stroke-width="1.2"/><text x="680" y="875" text-anchor="middle" font-family="Arial, sans-serif" font-size="12" font-weight="700" fill="#111827">TaskApproved</text><rect x="818" y="846" width="164" height="48" rx="18" fill="#f8fafc" stroke="#2563eb" stroke-width="1.2"/><text x="900" y="875" text-anchor="middle" font-family="Arial, sans-serif" font-size="12" font-weight="700" fill="#111827">TaskRejected</text><rect x="1038" y="516" width="164" height="48" rx="18" fill="#f8fafc" stroke="#2563eb" stroke-width="1.2"/><text x="1120" y="545" text-anchor="middle" font-family="Arial, sans-serif" font-size="12" font-weight="700" fill="#111827">EventVoting</text><rect x="948" y="626" width="164" height="48" rx="18" fill="#f8fafc" stroke="#2563eb" stroke-width="1.2"/><text x="1030" y="655" text-anchor="middle" font-family="Arial, sans-serif" font-size="12" font-weight="700" fill="#111827">VoteReminderWaiting</text><rect x="1138" y="626" width="164" height="48" rx="18" fill="#f8fafc" stroke="#2563eb" stroke-width="1.2"/><text x="1220" y="655" text-anchor="middle" font-family="Arial, sans-serif" font-size="12" font-weight="700" fill="#111827">VoteSubmitted</text><rect x="1138" y="736" width="164" height="48" rx="18" fill="#f8fafc" stroke="#2563eb" stroke-width="1.2"/><text x="1220" y="765" text-anchor="middle" font-family="Arial, sans-serif" font-size="12" font-weight="700" fill="#111827">EventDeciding</text><rect x="1008" y="846" width="164" height="48" rx="18" fill="#f8fafc" stroke="#2563eb" stroke-width="1.2"/><text x="1090" y="875" text-anchor="middle" font-family="Arial, sans-serif" font-size="12" font-weight="700" fill="#111827">EventCanceled</text><rect x="1258" y="846" width="164" height="48" rx="18" fill="#f8fafc" stroke="#2563eb" stroke-width="1.2"/><text x="1340" y="875" text-anchor="middle" font-family="Arial, sans-serif" font-size="12" font-weight="700" fill="#111827">WorkspaceCreated</text><rect x="1258" y="956" width="164" height="48" rx="18" fill="#f8fafc" stroke="#2563eb" stroke-width="1.2"/><text x="1340" y="985" text-anchor="middle" font-family="Arial, sans-serif" font-size="12" font-weight="700" fill="#111827">WorkspaceManaging</text></svg>