<svg xmlns="http://www.w3.org/2000/svg" width="1710" height="1260" viewBox="0 0 1710 1260">
<defs>
  <marker id="arrow" viewBox="0 0 10 10" refX="9" refY="5" markerWidth="7" markerHeight="7" orient="auto"><path d="M0 0 L10 5 L0 10 z" fill="#111827"/></marker>
  <marker id="hollowArrow" viewBox="0 0 10 10" refX="9" refY="5" markerWidth="7" markerHeight="7" orient="auto"><path d="M0 0 L10 5 L0 10 z" fill="#fbfbfb" stroke="#111827"/></marker>
  <marker id="diamond" viewBox="0 0 16 10" refX="1" refY="5" markerWidth="11" markerHeight="9" orient="auto"><path d="M1 5 L8 1 L15 5 L8 9 z" fill="#111827" stroke="#111827"/></marker>
</defs>
<rect width="100%" height="100%" fill="#ffffff"/>
<rect x="18" y="18" width="1674" height="1224" fill="none" stroke="#111827" stroke-width="1"/>
<path d="M18 18 H220 L244 42 V58 H18 Z" fill="#fffef9" stroke="#111827" stroke-width="1"/>
<text x="36" y="39" font-family="Arial, sans-serif" font-size="13">stm</text>
<text x="78" y="39" font-family="Arial, sans-serif" font-size="13" font-weight="700">Jo:YUl Application</text><rect x="60" y="88" width="710" height="335" rx="16" fill="#fffef9" stroke="#111827" stroke-width="1.1"/><line x1="60" y1="120" x2="770" y2="120" stroke="#111827" stroke-width="1"/><text x="72" y="110" font-family="Arial, sans-serif" font-size="14" font-weight="700">Authentication</text><rect x="60" y="505" width="330" height="285" rx="16" fill="#fffef9" stroke="#111827" stroke-width="1.1"/><line x1="60" y1="537" x2="390" y2="537" stroke="#111827" stroke-width="1"/><text x="72" y="527" font-family="Arial, sans-serif" font-size="14" font-weight="700">Team Management</text><rect x="455" y="505" width="330" height="285" rx="16" fill="#fffef9" stroke="#111827" stroke-width="1.1"/><line x1="455" y1="537" x2="785" y2="537" stroke="#111827" stroke-width="1"/><text x="467" y="527" font-family="Arial, sans-serif" font-size="14" font-weight="700">Schedule Management</text><rect x="850" y="505" width="430" height="330" rx="16" fill="#fffef9" stroke="#111827" stroke-width="1.1"/><line x1="850" y1="537" x2="1280" y2="537" stroke="#111827" stroke-width="1"/><text x="862" y="527" font-family="Arial, sans-serif" font-size="14" font-weight="700">Task Management</text><rect x="60" y="880" width="1280" height="315" rx="16" fill="#fffef9" stroke="#111827" stroke-width="1.1"/><line x1="60" y1="912" x2="1340" y2="912" stroke="#111827" stroke-width="1"/><text x="72" y="902" font-family="Arial, sans-serif" font-size="14" font-weight="700">Event / Workspace</text><circle cx="105" cy="145" r="10" fill="#111827"/><path d="M1065 733 L1082 750 L1065 767 L1048 750 Z" fill="#fffef9" stroke="#111827" stroke-width="1.2"/><path d="M830 943 L847 960 L830 977 L813 960 Z" fill="#fffef9" stroke="#111827" stroke-width="1.2"/><circle cx="1510" cy="240" r="14" fill="#fffef9" stroke="#111827" stroke-width="1.4"/><circle cx="1510" cy="240" r="8" fill="#111827"/><path d="M115 145 H120.5 V145 H126" fill="none" stroke="#111827" stroke-width="1.05" marker-end="url(#arrow)"/><path d="M210 169 V205 H210 V236" fill="none" stroke="#111827" stroke-width="1.05" marker-end="url(#arrow)"/><text x="170" y="202" text-anchor="middle" font-family="Arial, sans-serif" font-size="11" font-weight="400" fill="#111827">show login</text><path d="M210 169 H120 V341 H210" fill="none" stroke="#111827" stroke-width="1.05" marker-end="url(#arrow)"/><text x="120" y="292" text-anchor="middle" font-family="Arial, sans-serif" font-size="11" font-weight="400" fill="#111827">select sign up</text><path d="M294 365 H340 V365 H386" fill="none" stroke="#111827" stroke-width="1.05" marker-end="url(#arrow)"/><text x="340" y="348" text-anchor="middle" font-family="Arial, sans-serif" font-size="11" font-weight="400" fill="#111827">submit data</text><path d="M470 341 V315 H294 V365" fill="none" stroke="#111827" stroke-width="1.05" marker-end="url(#arrow)"/><text x="565" y="332" text-anchor="middle" font-family="Arial, sans-serif" font-size="11" font-weight="400" fill="#111827">[invalid]</text><path d="M470 341 H585 V284 H650" fill="none" stroke="#111827" stroke-width="1.05" marker-end="url(#arrow)"/><text x="580" y="318" text-anchor="middle" font-family="Arial, sans-serif" font-size="11" font-weight="400" fill="#111827">[valid]</text><path d="M734 260 H805 V240 H866" fill="none" stroke="#111827" stroke-width="1.05" marker-end="url(#arrow)"/><text x="810" y="218" text-anchor="middle" font-family="Arial, sans-serif" font-size="11" font-weight="400" fill="#111827">session created</text><path d="M294 260 H340 V260 H386" fill="none" stroke="#111827" stroke-width="1.05" marker-end="url(#arrow)"/><text x="340" y="243" text-anchor="middle" font-family="Arial, sans-serif" font-size="11" font-weight="400" fill="#111827">submit login</text><path d="M470 284 V320 H210 V284" fill="none" stroke="#111827" stroke-width="1.05" marker-end="url(#arrow)"/><text x="345" y="304" text-anchor="middle" font-family="Arial, sans-serif" font-size="11" font-weight="400" fill="#111827">[failure]</text><path d="M554 260 H720 V240 H866" fill="none" stroke="#111827" stroke-width="1.05" marker-end="url(#arrow)"/><text x="720" y="282" text-anchor="middle" font-family="Arial, sans-serif" font-size="11" font-weight="400" fill="#111827">[success]</text><path d="M1034 240 H1335 V240 H1497" fill="none" stroke="#111827" stroke-width="1.05" marker-end="url(#arrow)"/><text x="1335" y="220" text-anchor="middle" font-family="Arial, sans-serif" font-size="11" font-weight="400" fill="#111827">logout / exit</text><path d="M866 240 H350 V556 H225" fill="none" stroke="#111827" stroke-width="1.05" marker-end="url(#arrow)"/><text x="360" y="335" text-anchor="middle" font-family="Arial, sans-serif" font-size="11" font-weight="400" fill="#111827">team tab</text><path d="M225 604 V650 H135 V686" fill="none" stroke="#111827" stroke-width="1.05" marker-end="url(#arrow)"/><text x="145" y="650" text-anchor="middle" font-family="Arial, sans-serif" font-size="11" font-weight="400" fill="#111827">create</text><path d="M219 710 H250 V580 H141" fill="none" stroke="#111827" stroke-width="1.05" marker-end="url(#arrow)"/><text x="250" y="670" text-anchor="middle" font-family="Arial, sans-serif" font-size="11" font-weight="400" fill="#111827">done</text><path d="M225 604 V650 H310 V686" fill="none" stroke="#111827" stroke-width="1.05" marker-end="url(#arrow)"/><text x="305" y="650" text-anchor="middle" font-family="Arial, sans-serif" font-size="11" font-weight="400" fill="#111827">invite</text><path d="M226 710 H255 V580 H309" fill="none" stroke="#111827" stroke-width="1.05" marker-end="url(#arrow)"/><text x="255" y="745" text-anchor="middle" font-family="Arial, sans-serif" font-size="11" font-weight="400" fill="#111827">done</text><path d="M950 264 V455 H620 V556" fill="none" stroke="#111827" stroke-width="1.05" marker-end="url(#arrow)"/><text x="650" y="454" text-anchor="middle" font-family="Arial, sans-serif" font-size="11" font-weight="400" fill="#111827">schedule tab</text><path d="M620 604 V620 H620 V636" fill="none" stroke="#111827" stroke-width="1.05" marker-end="url(#arrow)"/><text x="535" y="620" text-anchor="middle" font-family="Arial, sans-serif" font-size="11" font-weight="400" fill="#111827">recommend</text><path d="M620 684 V700 H620 V716" fill="none" stroke="#111827" stroke-width="1.05" marker-end="url(#arrow)"/><text x="535" y="700" text-anchor="middle" font-family="Arial, sans-serif" font-size="11" font-weight="400" fill="#111827">confirm</text><path d="M704 740 H810 V264 H950" fill="none" stroke="#111827" stroke-width="1.05" marker-end="url(#arrow)"/><text x="810" y="640" text-anchor="middle" font-family="Arial, sans-serif" font-size="11" font-weight="400" fill="#111827">return</text><path d="M1034 240 H1125 V556 H1065" fill="none" stroke="#111827" stroke-width="1.05" marker-end="url(#arrow)"/><text x="1125" y="335" text-anchor="middle" font-family="Arial, sans-serif" font-size="11" font-weight="400" fill="#111827">task tab</text><path d="M1065 604 V645 H940 V666" fill="none" stroke="#111827" stroke-width="1.05" marker-end="url(#arrow)"/><text x="955" y="645" text-anchor="middle" font-family="Arial, sans-serif" font-size="11" font-weight="400" fill="#111827">upload</text><path d="M1024 690 H1002.5 V690 H981" fill="none" stroke="#111827" stroke-width="1.05" marker-end="url(#arrow)"/><text x="1002.5" y="673" text-anchor="middle" font-family="Arial, sans-serif" font-size="11" font-weight="400" fill="#111827">submitted</text><path d="M1065 714 V725 H1065 V733" fill="none" stroke="#111827" stroke-width="1.05" marker-end="url(#arrow)"/><text x="1105" y="725" text-anchor="middle" font-family="Arial, sans-serif" font-size="11" font-weight="400" fill="#111827">review</text><path d="M1065 767 V780 H960 V781" fill="none" stroke="#111827" stroke-width="1.05" marker-end="url(#arrow)"/><text x="965" y="780" text-anchor="middle" font-family="Arial, sans-serif" font-size="11" font-weight="400" fill="#111827">[approved]</text><path d="M1082 750 H1170 V781 H1170" fill="none" stroke="#111827" stroke-width="1.05" marker-end="url(#arrow)"/><text x="1170" y="748" text-anchor="middle" font-family="Arial, sans-serif" font-size="11" font-weight="400" fill="#111827">[rejected]</text><path d="M1086 805 H980 V690 H1024" fill="none" stroke="#111827" stroke-width="1.05" marker-end="url(#arrow)"/><text x="1010" y="835" text-anchor="middle" font-family="Arial, sans-serif" font-size="11" font-weight="400" fill="#111827">resubmit</text><path d="M960 781 V540 H1149 V580" fill="none" stroke="#111827" stroke-width="1.05" marker-end="url(#arrow)"/><text x="930" y="540" text-anchor="middle" font-family="Arial, sans-serif" font-size="11" font-weight="400" fill="#111827">progress updated</text><path d="M866 240 H145 V936 H215" fill="none" stroke="#111827" stroke-width="1.05" marker-end="url(#arrow)"/><text x="145" y="830" text-anchor="middle" font-family="Arial, sans-serif" font-size="11" font-weight="400" fill="#111827">event tab</text><path d="M215 984 V1035 H215 V1076" fill="none" stroke="#111827" stroke-width="1.05" marker-end="url(#arrow)"/><text x="135" y="1035" text-anchor="middle" font-family="Arial, sans-serif" font-size="11" font-weight="400" fill="#111827">not responded</text><path d="M299 1100 H340 V960 H299" fill="none" stroke="#111827" stroke-width="1.05" marker-end="url(#arrow)"/><text x="350" y="1030" text-anchor="middle" font-family="Arial, sans-serif" font-size="11" font-weight="400" fill="#111827">reminder</text><path d="M299 960 H340 V960 H381" fill="none" stroke="#111827" stroke-width="1.05" marker-end="url(#arrow)"/><text x="340" y="943" text-anchor="middle" font-family="Arial, sans-serif" font-size="11" font-weight="400" fill="#111827">attend / absent</text><path d="M549 960 H565 V960 H581" fill="none" stroke="#111827" stroke-width="1.05" marker-end="url(#arrow)"/><text x="565" y="943" text-anchor="middle" font-family="Arial, sans-serif" font-size="11" font-weight="400" fill="#111827">deadline</text><path d="M749 960 H781 V960 H813" fill="none" stroke="#111827" stroke-width="1.05" marker-end="url(#arrow)"/><text x="781" y="943" text-anchor="middle" font-family="Arial, sans-serif" font-size="11" font-weight="400" fill="#111827">count votes</text><path d="M830 977 V1035 H830 V1076" fill="none" stroke="#111827" stroke-width="1.05" marker-end="url(#arrow)"/><text x="770" y="1035" text-anchor="middle" font-family="Arial, sans-serif" font-size="11" font-weight="400" fill="#111827">[no attendee]</text><path d="M847 960 H911.5 V960 H976" fill="none" stroke="#111827" stroke-width="1.05" marker-end="url(#arrow)"/><text x="911.5" y="943" text-anchor="middle" font-family="Arial, sans-serif" font-size="11" font-weight="400" fill="#111827">[attendee exists]</text><path d="M1060 984 V1035 H1060 V1076" fill="none" stroke="#111827" stroke-width="1.05" marker-end="url(#arrow)"/><text x="970" y="1035" text-anchor="middle" font-family="Arial, sans-serif" font-size="11" font-weight="400" fill="#111827">enter</text><path d="M1144 1100 H1440 V264 H950" fill="none" stroke="#111827" stroke-width="1.05" marker-end="url(#arrow)"/><text x="1440" y="760" text-anchor="middle" font-family="Arial, sans-serif" font-size="11" font-weight="400" fill="#111827">work finished</text><path d="M914 1100 H1510 V253 H1510" fill="none" stroke="#111827" stroke-width="1.05" marker-end="url(#arrow)"/><text x="1510" y="910" text-anchor="middle" font-family="Arial, sans-serif" font-size="11" font-weight="400" fill="#111827">cancel</text><rect x="126" y="121" width="168" height="48" rx="16" fill="#fffef9" stroke="#111827" stroke-width="1.2"/><text x="210" y="150" text-anchor="middle" font-family="Arial, sans-serif" font-size="12" font-weight="700">LaunchSystem</text><rect x="126" y="236" width="168" height="48" rx="16" fill="#fffef9" stroke="#111827" stroke-width="1.2"/><text x="210" y="265" text-anchor="middle" font-family="Arial, sans-serif" font-size="12" font-weight="700">WaitLoginInput</text><rect x="386" y="236" width="168" height="48" rx="16" fill="#fffef9" stroke="#111827" stroke-width="1.2"/><text x="470" y="265" text-anchor="middle" font-family="Arial, sans-serif" font-size="12" font-weight="700">WaitLoginValidation</text><rect x="126" y="341" width="168" height="48" rx="16" fill="#fffef9" stroke="#111827" stroke-width="1.2"/><text x="210" y="370" text-anchor="middle" font-family="Arial, sans-serif" font-size="12" font-weight="700">RegisterMember</text><rect x="386" y="341" width="168" height="48" rx="16" fill="#fffef9" stroke="#111827" stroke-width="1.2"/><text x="470" y="370" text-anchor="middle" font-family="Arial, sans-serif" font-size="12" font-weight="700">WaitRegisterValidation</text><rect x="566" y="236" width="168" height="48" rx="16" fill="#fffef9" stroke="#111827" stroke-width="1.2"/><text x="650" y="265" text-anchor="middle" font-family="Arial, sans-serif" font-size="12" font-weight="700">RegisterInformation</text><rect x="866" y="216" width="168" height="48" rx="16" fill="#fffef9" stroke="#111827" stroke-width="1.2"/><text x="950" y="245" text-anchor="middle" font-family="Arial, sans-serif" font-size="12" font-weight="700">Home</text><rect x="141" y="556" width="168" height="48" rx="16" fill="#fffef9" stroke="#111827" stroke-width="1.2"/><text x="225" y="585" text-anchor="middle" font-family="Arial, sans-serif" font-size="12" font-weight="700">TeamList</text><rect x="51" y="686" width="168" height="48" rx="16" fill="#fffef9" stroke="#111827" stroke-width="1.2"/><text x="135" y="715" text-anchor="middle" font-family="Arial, sans-serif" font-size="12" font-weight="700">TeamCreating</text><rect x="226" y="686" width="168" height="48" rx="16" fill="#fffef9" stroke="#111827" stroke-width="1.2"/><text x="310" y="715" text-anchor="middle" font-family="Arial, sans-serif" font-size="12" font-weight="700">MemberInviting</text><rect x="536" y="556" width="168" height="48" rx="16" fill="#fffef9" stroke="#111827" stroke-width="1.2"/><text x="620" y="585" text-anchor="middle" font-family="Arial, sans-serif" font-size="12" font-weight="700">ScheduleEditing</text><rect x="536" y="636" width="168" height="48" rx="16" fill="#fffef9" stroke="#111827" stroke-width="1.2"/><text x="620" y="665" text-anchor="middle" font-family="Arial, sans-serif" font-size="12" font-weight="700">ScheduleRecommending</text><rect x="536" y="716" width="168" height="48" rx="16" fill="#fffef9" stroke="#111827" stroke-width="1.2"/><text x="620" y="745" text-anchor="middle" font-family="Arial, sans-serif" font-size="12" font-weight="700">ScheduleConfirmed</text><rect x="981" y="556" width="168" height="48" rx="16" fill="#fffef9" stroke="#111827" stroke-width="1.2"/><text x="1065" y="585" text-anchor="middle" font-family="Arial, sans-serif" font-size="12" font-weight="700">TaskViewing</text><rect x="856" y="666" width="168" height="48" rx="16" fill="#fffef9" stroke="#111827" stroke-width="1.2"/><text x="940" y="695" text-anchor="middle" font-family="Arial, sans-serif" font-size="12" font-weight="700">TaskUploading</text><rect x="981" y="666" width="168" height="48" rx="16" fill="#fffef9" stroke="#111827" stroke-width="1.2"/><text x="1065" y="695" text-anchor="middle" font-family="Arial, sans-serif" font-size="12" font-weight="700">TaskSubmitted</text><rect x="876" y="781" width="168" height="48" rx="16" fill="#fffef9" stroke="#111827" stroke-width="1.2"/><text x="960" y="810" text-anchor="middle" font-family="Arial, sans-serif" font-size="12" font-weight="700">TaskApproved</text><rect x="1086" y="781" width="168" height="48" rx="16" fill="#fffef9" stroke="#111827" stroke-width="1.2"/><text x="1170" y="810" text-anchor="middle" font-family="Arial, sans-serif" font-size="12" font-weight="700">TaskRejected</text><rect x="131" y="936" width="168" height="48" rx="16" fill="#fffef9" stroke="#111827" stroke-width="1.2"/><text x="215" y="965" text-anchor="middle" font-family="Arial, sans-serif" font-size="12" font-weight="700">EventVoting</text><rect x="131" y="1076" width="168" height="48" rx="16" fill="#fffef9" stroke="#111827" stroke-width="1.2"/><text x="215" y="1105" text-anchor="middle" font-family="Arial, sans-serif" font-size="12" font-weight="700">VoteReminderWaiting</text><rect x="381" y="936" width="168" height="48" rx="16" fill="#fffef9" stroke="#111827" stroke-width="1.2"/><text x="465" y="965" text-anchor="middle" font-family="Arial, sans-serif" font-size="12" font-weight="700">VoteSubmitted</text><rect x="581" y="936" width="168" height="48" rx="16" fill="#fffef9" stroke="#111827" stroke-width="1.2"/><text x="665" y="965" text-anchor="middle" font-family="Arial, sans-serif" font-size="12" font-weight="700">EventDeciding</text><rect x="746" y="1076" width="168" height="48" rx="16" fill="#fffef9" stroke="#111827" stroke-width="1.2"/><text x="830" y="1105" text-anchor="middle" font-family="Arial, sans-serif" font-size="12" font-weight="700">EventCanceled</text><rect x="976" y="936" width="168" height="48" rx="16" fill="#fffef9" stroke="#111827" stroke-width="1.2"/><text x="1060" y="965" text-anchor="middle" font-family="Arial, sans-serif" font-size="12" font-weight="700">WorkspaceCreated</text><rect x="976" y="1076" width="168" height="48" rx="16" fill="#fffef9" stroke="#111827" stroke-width="1.2"/><text x="1060" y="1105" text-anchor="middle" font-family="Arial, sans-serif" font-size="12" font-weight="700">WorkspaceManaging</text></svg>