<svg xmlns="http://www.w3.org/2000/svg" width="1540" height="1080" viewBox="0 0 1540 1080">
<defs>
  <marker id="arrow" viewBox="0 0 10 10" refX="9" refY="5" markerWidth="7" markerHeight="7" orient="auto"><path d="M0 0 L10 5 L0 10 z" fill="#111827"/></marker>
  <marker id="hollowArrow" viewBox="0 0 10 10" refX="9" refY="5" markerWidth="7" markerHeight="7" orient="auto"><path d="M0 0 L10 5 L0 10 z" fill="#fbfbfb" stroke="#111827"/></marker>
  <marker id="diamond" viewBox="0 0 16 10" refX="1" refY="5" markerWidth="11" markerHeight="9" orient="auto"><path d="M1 5 L8 1 L15 5 L8 9 z" fill="#111827" stroke="#111827"/></marker>
</defs>
<rect width="100%" height="100%" fill="#ffffff"/>
<text x="40" y="34" font-family="Arial, sans-serif" font-size="22" font-weight="700">Jo:YUl State Machine Diagram</text><rect x="40" y="70" width="430" height="360" fill="#fbfbfb" stroke="#111827" stroke-width="1.1"/><text x="52" y="92" font-family="Arial, sans-serif" font-size="14" font-weight="700">Authentication</text><rect x="40" y="470" width="430" height="270" fill="#fbfbfb" stroke="#111827" stroke-width="1.1"/><text x="52" y="492" font-family="Arial, sans-serif" font-size="14" font-weight="700">Team Management</text><rect x="520" y="70" width="430" height="360" fill="#fbfbfb" stroke="#111827" stroke-width="1.1"/><text x="532" y="92" font-family="Arial, sans-serif" font-size="14" font-weight="700">Schedule Management</text><rect x="520" y="470" width="430" height="360" fill="#fbfbfb" stroke="#111827" stroke-width="1.1"/><text x="532" y="492" font-family="Arial, sans-serif" font-size="14" font-weight="700">Task Management</text><rect x="1000" y="70" width="480" height="830" fill="#fbfbfb" stroke="#111827" stroke-width="1.1"/><text x="1012" y="92" font-family="Arial, sans-serif" font-size="14" font-weight="700">Event / Workspace</text><circle cx="255" cy="95" r="10" fill="#111827"/><line x1="255" y1="119" x2="255" y2="106" stroke="#111827" stroke-width="1.05" marker-end="url(#arrow)"/><text x="255" y="94.5" text-anchor="middle" font-family="Arial, sans-serif" font-size="11" font-weight="400" fill="#111827"></text><line x1="255" y1="154" x2="255" y2="191" stroke="#111827" stroke-width="1.05" marker-end="url(#arrow)"/><text x="255" y="154.5" text-anchor="middle" font-family="Arial, sans-serif" font-size="11" font-weight="400" fill="#111827">로그인 화면</text><line x1="181.91813638871656" y1="141.83230172754114" x2="178.08186361128344" y2="203.16769827245886" stroke="#111827" stroke-width="1.05" marker-end="url(#arrow)"/><text x="180" y="154.5" text-anchor="middle" font-family="Arial, sans-serif" font-size="11" font-weight="400" fill="#111827">회원가입 선택</text><line x1="105" y1="239" x2="105" y2="276" stroke="#111827" stroke-width="1.05" marker-end="url(#arrow)"/><text x="105" y="239.5" text-anchor="middle" font-family="Arial, sans-serif" font-size="11" font-weight="400" fill="#111827">입력 완료</text><path d="M105 276 Q60 248.5 105 239" fill="none" stroke="#111827" stroke-width="1.05" marker-end="url(#arrow)"/><text x="60" y="230.5" text-anchor="middle" font-family="Arial, sans-serif" font-size="11" font-weight="400" fill="#111827">입력 오류</text><line x1="105" y1="324" x2="105" y2="356" stroke="#111827" stroke-width="1.05" marker-end="url(#arrow)"/><text x="105" y="322" text-anchor="middle" font-family="Arial, sans-serif" font-size="11" font-weight="400" fill="#111827">Supabase 인증 성공</text><path d="M183.47797353393747 371.44187856772766 Q472.5 247 681.5220264660626 138.55812143227234" fill="none" stroke="#111827" stroke-width="1.05" marker-end="url(#arrow)"/><text x="472.5" y="229" text-anchor="middle" font-family="Arial, sans-serif" font-size="11" font-weight="400" fill="#111827">세션 생성</text><line x1="255" y1="239" x2="255" y2="276" stroke="#111827" stroke-width="1.05" marker-end="url(#arrow)"/><text x="255" y="239.5" text-anchor="middle" font-family="Arial, sans-serif" font-size="11" font-weight="400" fill="#111827">로그인 입력</text><path d="M255 276 Q305 247.5 255 239" fill="none" stroke="#111827" stroke-width="1.05" marker-end="url(#arrow)"/><text x="305" y="229.5" text-anchor="middle" font-family="Arial, sans-serif" font-size="11" font-weight="400" fill="#111827">실패</text><line x1="334.6102241930828" y1="292.34300531099063" x2="680.3897758069172" y2="137.65699468900937" stroke="#111827" stroke-width="1.05" marker-end="url(#arrow)"/><text x="507.5" y="197" text-anchor="middle" font-family="Arial, sans-serif" font-size="11" font-weight="400" fill="#111827">성공</text><line x1="693.8357585374449" y1="144.78635099163182" x2="321.1642414625551" y2="510.2136490083682" stroke="#111827" stroke-width="1.05" marker-end="url(#arrow)"/><text x="507.5" y="309.5" text-anchor="middle" font-family="Arial, sans-serif" font-size="11" font-weight="400" fill="#111827">팀 목록</text><line x1="193.36410338247376" y1="541.3057927559594" x2="181.63589661752624" y2="633.6942072440406" stroke="#111827" stroke-width="1.05" marker-end="url(#arrow)"/><text x="187.5" y="569.5" text-anchor="middle" font-family="Arial, sans-serif" font-size="11" font-weight="400" fill="#111827">팀 생성</text><path d="M181.63589661752624 633.6942072440406 Q132.5 576.5 193.36410338247376 541.3057927559594" fill="none" stroke="#111827" stroke-width="1.05" marker-end="url(#arrow)"/><text x="132.5" y="558.5" text-anchor="middle" font-family="Arial, sans-serif" font-size="11" font-weight="400" fill="#111827">완료</text><line x1="298.21764345591225" y1="545.5798302171011" x2="286.78235654408775" y2="629.4201697828989" stroke="#111827" stroke-width="1.05" marker-end="url(#arrow)"/><text x="292.5" y="569.5" text-anchor="middle" font-family="Arial, sans-serif" font-size="11" font-weight="400" fill="#111827">멤버 초대</text><path d="M286.78235654408775 629.4201697828989 Q347.5 576.5 298.21764345591225 545.5798302171011" fill="none" stroke="#111827" stroke-width="1.05" marker-end="url(#arrow)"/><text x="347.5" y="558.5" text-anchor="middle" font-family="Arial, sans-serif" font-size="11" font-weight="400" fill="#111827">완료</text><line x1="760" y1="154" x2="760" y2="191" stroke="#111827" stroke-width="1.05" marker-end="url(#arrow)"/><text x="760" y="154.5" text-anchor="middle" font-family="Arial, sans-serif" font-size="11" font-weight="400" fill="#111827">일정 탭</text><line x1="760" y1="239" x2="760" y2="276" stroke="#111827" stroke-width="1.05" marker-end="url(#arrow)"/><text x="760" y="239.5" text-anchor="middle" font-family="Arial, sans-serif" font-size="11" font-weight="400" fill="#111827">추천 요청</text><line x1="760" y1="324" x2="760" y2="356" stroke="#111827" stroke-width="1.05" marker-end="url(#arrow)"/><text x="760" y="322" text-anchor="middle" font-family="Arial, sans-serif" font-size="11" font-weight="400" fill="#111827">관리자 확정</text><path d="M760 356 Q820 243 760 154" fill="none" stroke="#111827" stroke-width="1.05" marker-end="url(#arrow)"/><text x="820" y="225" text-anchor="middle" font-family="Arial, sans-serif" font-size="11" font-weight="400" fill="#111827">알림 후 복귀</text><line x1="760" y1="154" x2="760" y2="501" stroke="#111827" stroke-width="1.05" marker-end="url(#arrow)"/><text x="760" y="309.5" text-anchor="middle" font-family="Arial, sans-serif" font-size="11" font-weight="400" fill="#111827">과제 탭</text><line x1="704.5072568290699" y1="543.0171244061461" x2="705.4927431709301" y2="631.9828755938539" stroke="#111827" stroke-width="1.05" marker-end="url(#arrow)"/><text x="705" y="569.5" text-anchor="middle" font-family="Arial, sans-serif" font-size="11" font-weight="400" fill="#111827">업로드</text><line x1="716.467940116942" y1="664.6747400258183" x2="693.532059883058" y2="720.3252599741817" stroke="#111827" stroke-width="1.05" marker-end="url(#arrow)"/><text x="705" y="674.5" text-anchor="middle" font-family="Arial, sans-serif" font-size="11" font-weight="400" fill="#111827">제출 완료</text><line x1="686.139474810911" y1="746.4307955649781" x2="713.860525189089" y2="788.5692044350219" stroke="#111827" stroke-width="1.05" marker-end="url(#arrow)"/><text x="700" y="749.5" text-anchor="middle" font-family="Arial, sans-serif" font-size="11" font-weight="400" fill="#111827">승인</text><line x1="833.1272784524913" y1="746.8093741600296" x2="801.8727215475087" y2="788.1906258399704" stroke="#111827" stroke-width="1.05" marker-end="url(#arrow)"/><text x="817.5" y="749.5" text-anchor="middle" font-family="Arial, sans-serif" font-size="11" font-weight="400" fill="#111827">반려</text><path d="M805.1077752756212 786.6871952905944 Q812.5 715 719.8922247243788 663.3128047094056" fill="none" stroke="#111827" stroke-width="1.05" marker-end="url(#arrow)"/><text x="812.5" y="697" text-anchor="middle" font-family="Arial, sans-serif" font-size="11" font-weight="400" fill="#111827">재제출</text><path d="M673.5953343053305 778.0030549191288 Q660 654.5 726.4046656946695 546.9969450808712" fill="none" stroke="#111827" stroke-width="1.05" marker-end="url(#arrow)"/><text x="660" y="636.5" text-anchor="middle" font-family="Arial, sans-serif" font-size="11" font-weight="400" fill="#111827">진행률 갱신</text><line x1="844" y1="130" x2="1156" y2="130" stroke="#111827" stroke-width="1.05" marker-end="url(#arrow)"/><text x="1000" y="112" text-anchor="middle" font-family="Arial, sans-serif" font-size="11" font-weight="400" fill="#111827">이벤트 탭</text><line x1="1178.1817950120062" y1="146.2493567397012" x2="1176.8182049879938" y2="228.7506432602988" stroke="#111827" stroke-width="1.05" marker-end="url(#arrow)"/><text x="1177.5" y="169.5" text-anchor="middle" font-family="Arial, sans-serif" font-size="11" font-weight="400" fill="#111827">미투표</text><path d="M1176.8182049879938 228.7506432602988 Q1127.5 177.5 1178.1817950120062 146.2493567397012" fill="none" stroke="#111827" stroke-width="1.05" marker-end="url(#arrow)"/><text x="1127.5" y="159.5" text-anchor="middle" font-family="Arial, sans-serif" font-size="11" font-weight="400" fill="#111827">리마인드</text><line x1="1300.6470092296956" y1="146.60572871765476" x2="1299.3529907703044" y2="228.39427128234524" stroke="#111827" stroke-width="1.05" marker-end="url(#arrow)"/><text x="1300" y="169.5" text-anchor="middle" font-family="Arial, sans-serif" font-size="11" font-weight="400" fill="#111827">참여/불참</text><line x1="1360" y1="269" x2="1360" y2="336" stroke="#111827" stroke-width="1.05" marker-end="url(#arrow)"/><text x="1360" y="284.5" text-anchor="middle" font-family="Arial, sans-serif" font-size="11" font-weight="400" fill="#111827">투표 마감</text><line x1="1284.2474535871308" y1="370.3708843303333" x2="1195.7525464128692" y2="464.6291156696667" stroke="#111827" stroke-width="1.05" marker-end="url(#arrow)"/><text x="1240" y="399.5" text-anchor="middle" font-family="Arial, sans-serif" font-size="11" font-weight="400" fill="#111827">[참여자 없음]</text><line x1="1360" y1="384" x2="1360" y2="451" stroke="#111827" stroke-width="1.05" marker-end="url(#arrow)"/><text x="1360" y="399.5" text-anchor="middle" font-family="Arial, sans-serif" font-size="11" font-weight="400" fill="#111827">[참여자 있음]</text><line x1="1360" y1="499" x2="1360" y2="596" stroke="#111827" stroke-width="1.05" marker-end="url(#arrow)"/><text x="1360" y="529.5" text-anchor="middle" font-family="Arial, sans-serif" font-size="11" font-weight="400" fill="#111827">입장</text><path d="M1294.9393012827222 604.8191702993018 Q1170 353 825.0606987172779 145.18082970069818" fill="none" stroke="#111827" stroke-width="1.05" marker-end="url(#arrow)"/><text x="1170" y="335" text-anchor="middle" font-family="Arial, sans-serif" font-size="11" font-weight="400" fill="#111827">작업 종료</text><circle cx="1240" cy="840" r="13" fill="#fbfbfb" stroke="#111827" stroke-width="1.4"/><circle cx="1240" cy="840" r="8" fill="#111827"/><line x1="1146.2349702950933" y1="497.7994384707357" x2="1213.7650297049067" y2="817.2005615292643" stroke="#111827" stroke-width="1.05" marker-end="url(#arrow)"/><text x="1180" y="639.5" text-anchor="middle" font-family="Arial, sans-serif" font-size="11" font-weight="400" fill="#111827">이벤트 취소</text><path d="M807.0462078953396 149.88262357481617 Q1070 471 1192.9537921046604 820.1173764251838" fill="none" stroke="#111827" stroke-width="1.05" marker-end="url(#arrow)"/><text x="1070" y="453" text-anchor="middle" font-family="Arial, sans-serif" font-size="11" font-weight="400" fill="#111827">로그아웃/종료</text><rect x="171" y="106" width="168" height="48" rx="18" fill="#fbfbfb" stroke="#111827" stroke-width="1.2"/><text x="255" y="135" text-anchor="middle" font-family="Arial, sans-serif" font-size="12" font-weight="700">LaunchSystem</text><rect x="171" y="191" width="168" height="48" rx="18" fill="#fbfbfb" stroke="#111827" stroke-width="1.2"/><text x="255" y="220" text-anchor="middle" font-family="Arial, sans-serif" font-size="12" font-weight="700">WaitLoginInput</text><rect x="171" y="276" width="168" height="48" rx="18" fill="#fbfbfb" stroke="#111827" stroke-width="1.2"/><text x="255" y="305" text-anchor="middle" font-family="Arial, sans-serif" font-size="12" font-weight="700">WaitLoginValidation</text><rect x="21" y="191" width="168" height="48" rx="18" fill="#fbfbfb" stroke="#111827" stroke-width="1.2"/><text x="105" y="220" text-anchor="middle" font-family="Arial, sans-serif" font-size="12" font-weight="700">RegisterMember</text><rect x="21" y="276" width="168" height="48" rx="18" fill="#fbfbfb" stroke="#111827" stroke-width="1.2"/><text x="105" y="305" text-anchor="middle" font-family="Arial, sans-serif" font-size="12" font-weight="700">WaitRegisterValidation</text><rect x="21" y="356" width="168" height="48" rx="18" fill="#fbfbfb" stroke="#111827" stroke-width="1.2"/><text x="105" y="385" text-anchor="middle" font-family="Arial, sans-serif" font-size="12" font-weight="700">RegisterInformation</text><rect x="676" y="106" width="168" height="48" rx="18" fill="#fbfbfb" stroke="#111827" stroke-width="1.2"/><text x="760" y="135" text-anchor="middle" font-family="Arial, sans-serif" font-size="12" font-weight="700">Home</text><rect x="171" y="501" width="168" height="48" rx="18" fill="#fbfbfb" stroke="#111827" stroke-width="1.2"/><text x="255" y="530" text-anchor="middle" font-family="Arial, sans-serif" font-size="12" font-weight="700">TeamList</text><rect x="36" y="626" width="168" height="48" rx="18" fill="#fbfbfb" stroke="#111827" stroke-width="1.2"/><text x="120" y="655" text-anchor="middle" font-family="Arial, sans-serif" font-size="12" font-weight="700">TeamCreating</text><rect x="246" y="626" width="168" height="48" rx="18" fill="#fbfbfb" stroke="#111827" stroke-width="1.2"/><text x="330" y="655" text-anchor="middle" font-family="Arial, sans-serif" font-size="12" font-weight="700">MemberInviting</text><rect x="676" y="191" width="168" height="48" rx="18" fill="#fbfbfb" stroke="#111827" stroke-width="1.2"/><text x="760" y="220" text-anchor="middle" font-family="Arial, sans-serif" font-size="12" font-weight="700">ScheduleEditing</text><rect x="676" y="276" width="168" height="48" rx="18" fill="#fbfbfb" stroke="#111827" stroke-width="1.2"/><text x="760" y="305" text-anchor="middle" font-family="Arial, sans-serif" font-size="12" font-weight="700">ScheduleRecommending</text><rect x="676" y="356" width="168" height="48" rx="18" fill="#fbfbfb" stroke="#111827" stroke-width="1.2"/><text x="760" y="385" text-anchor="middle" font-family="Arial, sans-serif" font-size="12" font-weight="700">ScheduleConfirmed</text><rect x="676" y="501" width="168" height="48" rx="18" fill="#fbfbfb" stroke="#111827" stroke-width="1.2"/><text x="760" y="530" text-anchor="middle" font-family="Arial, sans-serif" font-size="12" font-weight="700">TaskViewing</text><rect x="566" y="626" width="168" height="48" rx="18" fill="#fbfbfb" stroke="#111827" stroke-width="1.2"/><text x="650" y="655" text-anchor="middle" font-family="Arial, sans-serif" font-size="12" font-weight="700">TaskUploading</text><rect x="676" y="711" width="168" height="48" rx="18" fill="#fbfbfb" stroke="#111827" stroke-width="1.2"/><text x="760" y="740" text-anchor="middle" font-family="Arial, sans-serif" font-size="12" font-weight="700">TaskSubmitted</text><rect x="556" y="776" width="168" height="48" rx="18" fill="#fbfbfb" stroke="#111827" stroke-width="1.2"/><text x="640" y="805" text-anchor="middle" font-family="Arial, sans-serif" font-size="12" font-weight="700">TaskApproved</text><rect x="791" y="776" width="168" height="48" rx="18" fill="#fbfbfb" stroke="#111827" stroke-width="1.2"/><text x="875" y="805" text-anchor="middle" font-family="Arial, sans-serif" font-size="12" font-weight="700">TaskRejected</text><rect x="1156" y="106" width="168" height="48" rx="18" fill="#fbfbfb" stroke="#111827" stroke-width="1.2"/><text x="1240" y="135" text-anchor="middle" font-family="Arial, sans-serif" font-size="12" font-weight="700">EventVoting</text><rect x="1031" y="221" width="168" height="48" rx="18" fill="#fbfbfb" stroke="#111827" stroke-width="1.2"/><text x="1115" y="250" text-anchor="middle" font-family="Arial, sans-serif" font-size="12" font-weight="700">VoteReminderWaiting</text><rect x="1276" y="221" width="168" height="48" rx="18" fill="#fbfbfb" stroke="#111827" stroke-width="1.2"/><text x="1360" y="250" text-anchor="middle" font-family="Arial, sans-serif" font-size="12" font-weight="700">VoteSubmitted</text><rect x="1276" y="336" width="168" height="48" rx="18" fill="#fbfbfb" stroke="#111827" stroke-width="1.2"/><text x="1360" y="365" text-anchor="middle" font-family="Arial, sans-serif" font-size="12" font-weight="700">EventDeciding</text><rect x="1036" y="451" width="168" height="48" rx="18" fill="#fbfbfb" stroke="#111827" stroke-width="1.2"/><text x="1120" y="480" text-anchor="middle" font-family="Arial, sans-serif" font-size="12" font-weight="700">EventCanceled</text><rect x="1276" y="451" width="168" height="48" rx="18" fill="#fbfbfb" stroke="#111827" stroke-width="1.2"/><text x="1360" y="480" text-anchor="middle" font-family="Arial, sans-serif" font-size="12" font-weight="700">WorkspaceCreated</text><rect x="1276" y="596" width="168" height="48" rx="18" fill="#fbfbfb" stroke="#111827" stroke-width="1.2"/><text x="1360" y="625" text-anchor="middle" font-family="Arial, sans-serif" font-size="12" font-weight="700">WorkspaceManaging</text></svg>